<?xml version="1.0" encoding="UTF-8" standalone="no"?>
<!DOCTYPE svg PUBLIC "-//W3C//DTD SVG 1.1//EN" "http://www.w3.org/Graphics/SVG/1.1/DTD/svg11.dtd">
<svg width="100%" height="100%" viewBox="0 0 1080 1080" version="1.1" xmlns="http://www.w3.org/2000/svg" xmlns:xlink="http://www.w3.org/1999/xlink" xml:space="preserve" xmlns:serif="http://www.serif.com/" style="fill-rule:evenodd;clip-rule:evenodd;stroke-linejoin:round;stroke-miterlimit:2;">
    <g transform="matrix(1,0,0,1,-2470.76,-12005.5)">
        <g id="id_icon_01_06_2016" transform="matrix(1,0,0,1,2470.76,12005.5)">
            <rect x="0" y="0" width="1080" height="1080" style="fill:none;"/>
            <g transform="matrix(1.06809,0,0,1.06809,-2675.75,-12859.7)">
                <path d="M2912.64,12471.4C2912.49,12463.8 2912.38,12456.1 2912.24,12448.4C2912.2,12446.4 2911.96,12444.3 2912.68,12442.4C2912.99,12441.6 2913.41,12440.8 2913.84,12440C2916.34,12435.5 2915.73,12432.4 2911.83,12436.8C2911.29,12437.5 2910.8,12438.1 2910.31,12438.8C2906.79,12443.7 2903.25,12439.4 2904.86,12429.1C2906.59,12418.1 2913.93,12412.6 2921.89,12404.4C2930.02,12396.1 2963.55,12374.9 2961.89,12368.1C2960.02,12360.5 2965.65,12355.6 2972.32,12356C2981.49,12356.5 2989.66,12357.7 2994.23,12358C2998.93,12358.2 3003.42,12358.3 3007.57,12358.9L3015.37,12359.2C3019.59,12359.3 3024.41,12359.7 3028.29,12360C3028.04,12356.5 3028.36,12352.4 3027.48,12349.6C3031.22,12349 3034.47,12347.9 3037.52,12346.7C3042.01,12349.2 3048.9,12349.1 3054.44,12350.5C3054.2,12355 3051.94,12357.8 3051.33,12362C3065.11,12363.7 3082.47,12363.4 3094.66,12367.4C3099.02,12368.8 3114.12,12363.9 3119.71,12368.4C3122.1,12370.3 3120.45,12381.4 3122.35,12384.5C3125.26,12389.2 3155.9,12403.3 3163.71,12424.8C3164.07,12425.8 3165.18,12427.5 3165.69,12428.4C3166.9,12430.5 3171.5,12429.3 3173.58,12440.6C3175.38,12440.1 3184.09,12442 3185.64,12442L3185.46,12441.5C3184.63,12439.5 3184.49,12435.6 3186.89,12434C3190.66,12431.6 3195.48,12429.6 3200.26,12431.7L3200.26,12431.7L3200.38,12431.8C3203.85,12433.5 3204.42,12439.3 3204.59,12443.2C3205.67,12443.1 3212.46,12443.1 3213.57,12443.1C3214.29,12443.1 3215.01,12443.1 3215.7,12443.1C3215.93,12442.2 3216.4,12441.3 3217.14,12440.5C3217.37,12440.2 3217.76,12439.6 3218.16,12439.1C3220.69,12435.4 3226.21,12430.7 3231.7,12431.4L3231.71,12431.4C3237.25,12431.7 3237.63,12436 3238,12440.2L3237.99,12440.2L3238,12440.2C3238.04,12440.6 3238.22,12443.1 3238.26,12443.5C3240.86,12443.3 3250.57,12443.5 3253.16,12443.3C3253.25,12429.6 3266.74,12427.1 3270.69,12437C3271.39,12438.8 3271.06,12442.6 3273.08,12444.5C3279.45,12450.4 3275.68,12457.1 3273.08,12457.7C3271.06,12465 3268,12483.9 3265.94,12488.6C3266.86,12489 3272.82,12491.5 3273.19,12496.1C3273.45,12499.6 3273.46,12505 3267.01,12505.4C3267.11,12508 3265.96,12510.1 3264.86,12511.7C3265.43,12512 3266.76,12512.6 3268.48,12513.7C3295.45,12528.6 3315.61,12545.1 3333.41,12561C3362.7,12587 3377.18,12610.5 3383.4,12630.3C3381.26,12627.9 3378.78,12625.7 3375.95,12623.6C3344.27,12600 3317.27,12631.6 3315.2,12631C3312.41,12630.1 3323.99,12596.6 3288.2,12589C3295.59,12590.6 3301.32,12595.3 3304.9,12602.2C3308.09,12608.4 3309.4,12616.4 3308.26,12625.4C3307.01,12635.5 3304.88,12643.5 3302.69,12651.7C3301.04,12657.9 3299.37,12664.2 3298.04,12672.1C3298.3,12671.5 3307.39,12650.6 3314.88,12641.9C3326.78,12628.1 3335.45,12622.5 3350.24,12624.5C3360.29,12625.9 3369.31,12631.6 3376.13,12640.9C3381.39,12648.1 3385.02,12657.7 3385.17,12669.5C3385.2,12672.5 3385.03,12675.5 3384.68,12678.3C3383.02,12691.5 3377.32,12705.7 3368.43,12716.7C3358.87,12728.5 3345.58,12736.7 3329.37,12736.7C3327.27,12736.7 3325.3,12736.6 3323.48,12736.3C3311.56,12734.9 3303.68,12729.2 3298.67,12722.1L3298.69,12722L3298.67,12722C3297.59,12720.5 3296.69,12718.9 3295.89,12717.3C3293.52,12718.9 3290.68,12720.6 3287.2,12722.1C3281.61,12724.3 3275.16,12725.3 3268.12,12723L3268.12,12723L3268.04,12723C3260.76,12720.5 3256.6,12715.2 3254.37,12708.9C3251.86,12701.9 3252.02,12693.8 3252.62,12688.9C3252.84,12687.3 3253.71,12681.7 3254.07,12679.7C3248.92,12686.9 3231.41,12703.5 3217.31,12686.9C3210.37,12691.8 3200.79,12705.6 3175.52,12702.7C3160.88,12701.1 3153.98,12695.1 3144.32,12679.1C3132.19,12713.5 3087.42,12765 3042.37,12715.6C3021.45,12692.7 3016.75,12621.8 3048.34,12577.1C3036.92,12591 3030.05,12606.7 3026.56,12617.8C3019.86,12639.1 3008.16,12717.7 3053.69,12739.7C3056.71,12741.2 3059.65,12742.4 3062.53,12743.3C3045.67,12743.8 3028.09,12744.2 3009.74,12744.3C2888.27,12744.9 2804.83,12731.8 2752.2,12718.9C2760.88,12708.7 2765.9,12696 2767.99,12682.8L2767.99,12682.8C2791.95,12722.7 2837.16,12713.6 2848.5,12687.7C2865.64,12695.7 2877.3,12682.9 2880.21,12677.9C2880.62,12715.3 2912.21,12718.1 2930.83,12700.8C2943.88,12711.7 2950.76,12714.3 2965.6,12712.8C2977.02,12711.7 2992.95,12697.4 3002.27,12676.5C3002.18,12676.6 3002.09,12676.8 3002,12677C2994.89,12690.5 2983.32,12701.1 2967.05,12704.1C2965.31,12704.5 2963.62,12704.7 2962.02,12704.8C2950.04,12705.8 2941.18,12701.8 2934.81,12695.8L2934.82,12695.8L2934.8,12695.8C2933.47,12694.5 2932.26,12693.1 2931.15,12691.7C2929.15,12693.8 2926.72,12696.1 2923.61,12698.1C2918.57,12701.5 2912.45,12703.7 2905.12,12702.9L2905.11,12702.9L2905.03,12702.9C2897.39,12702 2892.23,12697.6 2888.78,12691.9C2884.93,12685.5 2883.45,12677.5 2883.07,12672.6C2882.94,12671 2882.87,12669.1 2882.82,12667.1C2879.94,12671.9 2870.37,12681.4 2860.11,12683.8C2855.85,12684.8 2851.78,12683.9 2847.43,12681.9C2842.36,12696.9 2791.79,12725.2 2767.8,12674.4L2767.8,12674.4C2766.34,12679.6 2764.13,12685.3 2761.01,12691.4C2737.93,12736.9 2703.09,12733.6 2696.56,12732.9C2682.89,12731.3 2674.84,12716.7 2669.72,12703.1C2665.23,12691.3 2663.07,12678.2 2662.01,12669.7C2661.39,12664.8 2660.95,12659.5 2660.61,12654.1C2660.37,12650.2 2660.53,12612.1 2661.13,12605.6C2661.4,12602.6 2661.72,12599.5 2662.07,12596.5C2659.9,12597.3 2657.67,12597.8 2655.33,12598.1C2651.56,12598.6 2647.89,12598.3 2644.57,12596.8C2640.11,12594.8 2637.16,12591.3 2636.48,12585.8C2635.43,12577.3 2641.28,12570.9 2650.63,12565.6C2654.59,12563.4 2659.24,12561.4 2664.18,12559.4C2680.55,12553 2707.21,12544.9 2712.26,12543.4C2722.28,12540.6 2732.6,12538.2 2741.49,12537.1C2747.8,12536.3 2754.06,12536 2759.62,12537.4C2767.56,12539.4 2773.07,12544 2774.23,12553.4C2775.06,12560.1 2771.7,12565.8 2766.59,12570.1C2761.62,12574.3 2754.49,12577.2 2749.04,12577.9C2743.63,12578.6 2739.22,12577.1 2734.73,12575.6C2733.73,12575.3 2732.74,12575 2731.83,12574.7C2724.21,12576 2716.64,12577.6 2709.61,12579.5C2705.25,12580.7 2701.23,12582 2697.71,12583.4C2697.7,12584.5 2697.72,12586 2697.7,12587.7C2697.65,12595.4 2698.26,12604.7 2698.62,12607.5C2698.88,12609.7 2699.12,12612.6 2699.35,12615.5C2700.49,12615.3 2701.9,12615.2 2703.63,12615.2C2708.37,12615.1 2713.55,12615 2718.31,12615.3C2718.6,12615.3 2718.88,12615.3 2719.17,12615.3C2732.65,12616.4 2744.91,12620.3 2754.65,12626.5C2756.71,12627.9 2758.84,12629.6 2760.84,12631.9C2744.72,12606.8 2707.4,12608 2707.4,12608C2707.4,12608 2704.13,12590 2708.59,12588.8C2715.75,12586.8 2718.68,12585 2726.47,12583.7C2727.39,12583.9 2728.42,12584.3 2729.43,12584.6C2734.02,12586.1 2738.53,12587.6 2744.04,12586.9C2749.62,12586.2 2781.26,12575.9 2778.38,12554.7C2777.1,12545.2 2772.79,12538.9 2766.48,12535C2774.9,12529.3 2783.85,12523.7 2793.31,12518.3C2793.47,12515.1 2793.19,12511.5 2792.4,12507.5C2784.91,12505.2 2781.75,12498.5 2778.58,12492C2775.54,12485.7 2778.17,12479.6 2771.29,12477.3C2770,12477.2 2758.36,12482.8 2752.88,12475C2751.45,12473 2750.66,12468.3 2751.96,12465.3C2752.84,12463.3 2753.67,12461.6 2753.12,12459.1C2750.98,12449 2747.25,12452.4 2745.31,12451.4C2743.02,12450.4 2739.25,12442.8 2747.12,12440.5C2747.71,12440.4 2748.3,12440.2 2748.88,12440.2C2748.83,12439.9 2748.76,12439.6 2748.72,12439.3L2748.71,12439.3C2748.39,12437.5 2748.38,12435.6 2748.74,12433.7C2748.88,12432.9 2749.68,12431.7 2750.64,12431.3C2752.89,12430.5 2753.92,12433.2 2754.7,12434.5C2755.69,12436.2 2757.1,12437.8 2758.93,12438.1C2761.3,12438.4 2764.95,12436.2 2768.92,12436.5C2772.57,12436.7 2778.33,12439.5 2780.34,12437.7C2782.86,12435.5 2783.66,12432 2785.63,12432.2C2787.54,12432.4 2790.53,12437.4 2788.02,12442.5C2793.11,12442.6 2793.33,12446.3 2792.56,12448.2C2801.95,12448 2812.57,12448.7 2821.92,12449.5C2834.97,12450.6 2847.71,12451.6 2859.18,12449.9L2859.18,12449.9C2861.51,12449.6 2863.97,12448.9 2866.51,12448.2C2873.09,12446.3 2880.29,12444.3 2889,12447C2897.69,12449.7 2904.36,12460.4 2900.86,12474.2C2900.86,12474.2 2900.85,12474.2 2900.84,12474.2C2903.03,12473.7 2905.47,12473.1 2906.51,12472.8C2908.67,12472.3 2911.33,12471.7 2912.64,12471.4ZM3099.12,12741.8C3127.9,12729.2 3143.42,12692.3 3145.18,12687.9C3155.18,12709.9 3189.55,12722.3 3217.12,12691.7C3217.12,12691.7 3225.3,12701 3231.24,12700.6C3243.77,12700 3249.51,12689.8 3249.51,12689.8C3249.51,12689.8 3243.88,12714.7 3255.66,12725.8C3214.96,12732.5 3163.11,12738.6 3099.12,12741.8ZM3145.84,12665.8C3146.8,12671.1 3148.44,12676.1 3150.95,12680C3159.01,12691.1 3170.19,12693.9 3175.34,12694.5C3192.6,12696.7 3207.91,12684.3 3211.52,12681.5C3213.32,12680.1 3215.63,12677.8 3218.02,12675C3221.26,12681.5 3226.47,12685.9 3232.69,12685.4C3248.99,12683.9 3268.41,12640.3 3276.27,12620.3C3276.36,12625.6 3274.76,12632.4 3273.12,12639.5C3270.73,12652.4 3263.78,12677.8 3262.15,12690.9C3261.28,12697.8 3261.22,12712.3 3270.33,12715.5C3278.73,12718.3 3286.19,12712.7 3290.91,12709C3296.19,12704.9 3300.43,12698.1 3303.35,12691.7C3302.25,12703.1 3304.05,12726.2 3323.48,12728.6C3355.41,12732.6 3375.84,12705.3 3373.84,12668.4C3373.7,12646 3360.16,12633.6 3348.87,12632.2C3337.28,12630.7 3330.77,12635.4 3325.03,12642C3323.24,12644 3312.86,12655.9 3306.65,12676.7C3306.41,12677 3306.14,12677.3 3305.83,12677.8C3300.2,12686.9 3292.37,12699.4 3287.19,12698.8C3284.46,12698.5 3284.83,12685.7 3285.85,12677.6C3288.81,12653.9 3294.78,12642.2 3297.41,12621.2C3299.3,12606.2 3293.89,12595.5 3284.28,12594.3C3269.75,12592.5 3270.75,12602.4 3265.01,12616.2C3259.11,12631.4 3252.48,12646.4 3244.58,12659.4C3238.59,12669.2 3236.66,12666.7 3238.49,12652.1C3239.57,12643.5 3234.92,12640.7 3230.34,12639.3C3224.02,12637.8 3218.47,12644.1 3216.75,12647.9C3214.35,12653.3 3213.95,12659.9 3215.07,12666C3209.07,12673 3199.24,12682 3189.09,12680.7C3176.52,12679.1 3168.65,12666.1 3169.65,12648.2C3180.33,12648.8 3210.93,12641.5 3211.18,12622.4C3211.48,12598.9 3174.68,12577.6 3151.55,12621.9C3148.45,12627.9 3146.64,12633.2 3145.34,12643.2C3144.95,12643.9 3141.65,12660.9 3129.83,12674.2C3118.68,12686.8 3107.23,12693.4 3093.42,12691.7C3072.71,12689.1 3069.91,12647.2 3072.38,12627.5C3076.56,12594.2 3098.91,12559.8 3123.07,12562.8C3126.27,12563.2 3130.74,12565.5 3130.12,12570.4C3129.22,12577.6 3115.94,12579.2 3113.13,12592.2C3111.28,12600.8 3118.13,12606.7 3124.33,12607.3C3152.22,12609.9 3159.39,12548.4 3124.58,12544.7C3085.57,12540.6 3045.69,12577.1 3038.67,12633.1C3035.51,12658.2 3035.9,12716.3 3075.82,12725.3C3109.33,12728.2 3140.88,12675.6 3145.84,12665.8ZM2646.74,12581.2C2647.22,12585.1 2650.31,12585.9 2654.19,12585.4C2660.78,12584.6 2668.3,12579.5 2672.93,12579C2673.66,12578.9 2674.18,12579.1 2674.24,12579.5C2674.34,12580.3 2673.93,12581 2674.02,12581.8C2671.92,12596.8 2670.56,12611.7 2670.56,12627.4C2670.52,12629.1 2670.4,12636.3 2670.6,12638C2670.92,12648.5 2671.49,12659 2672.81,12669.6C2674.91,12686.5 2683.8,12725 2699.84,12725.9C2739.87,12728.2 2763.29,12671.4 2761.4,12656.2C2758.85,12635.7 2740.35,12626.1 2718.37,12624.2C2707.91,12623.5 2692.46,12624.7 2690.05,12623.3C2689.42,12618.2 2689.21,12612.6 2688.52,12607C2687.89,12601.9 2686.37,12577.6 2688.54,12573.3C2699.48,12567.8 2715.57,12563.9 2732.04,12561.1C2737.35,12562.2 2742.72,12565.5 2747.58,12564.9C2754.16,12564 2764.51,12557.8 2763.61,12550.6C2762.41,12540.9 2752.76,12540.9 2742.29,12542.2C2727.48,12544 2708.57,12550 2694.38,12554.7C2692.49,12555.4 2668.93,12563.9 2665.06,12565.6C2654.33,12570.2 2646.01,12575.3 2646.74,12581.2ZM2708.37,12712.9C2702.64,12713.2 2692.7,12689.7 2692.44,12647.7C2692.41,12642.4 2695.88,12640.4 2698.91,12639.9C2708.61,12638.4 2732.85,12639.4 2734.92,12654.1C2737,12668.9 2730.37,12706.7 2708.37,12712.9ZM3347,12702.8C3344.27,12707.1 3336.67,12712.1 3331.58,12711.3C3322.05,12710 3317.48,12703.6 3318.54,12690.7C3319.03,12684.6 3321.76,12668 3327.91,12655.8C3334.88,12642.1 3340.55,12641.1 3345.13,12642.3C3373.55,12650 3348.86,12699.5 3347,12702.8ZM3334.87,12703.3C3341.46,12702.2 3345.68,12686.4 3346.97,12680.5C3349.12,12670.6 3350.43,12654.2 3346.54,12651.5C3345.44,12650.8 3338.22,12649.8 3334.19,12661.5C3328.94,12676.7 3328.27,12685.3 3327.82,12693C3327.36,12701.1 3329.47,12703.6 3334.87,12703.3ZM2841.65,12660.4C2837.1,12668.3 2829.55,12678.1 2819.83,12678.9C2807.21,12679.9 2796.88,12668.7 2794.24,12651C2804.83,12649.4 2831.2,12636.4 2829.71,12617.3C2828.74,12605 2806.88,12589.9 2784.34,12608.2C2764.65,12624.1 2769.74,12648.6 2769.75,12653.2C2770.74,12665.9 2775.25,12680.9 2785.01,12688.3C2799.09,12699 2815.41,12695.9 2817.99,12695.5C2830.92,12693.2 2840.44,12681.9 2846.68,12670.4C2848.17,12672.5 2849.6,12673.9 2850.62,12674.5C2856.6,12677.8 2860.46,12677.4 2867.39,12672.4C2875.8,12666.4 2888.41,12628.9 2893.04,12602.2C2894.18,12607.3 2893.99,12614.3 2893.82,12621.5C2894.09,12634.7 2892.42,12661 2893.45,12674.1C2893.99,12681.1 2896.83,12695.3 2906.39,12696.5C2915.19,12697.6 2921.38,12690.6 2925.25,12686.1C2928.7,12682.1 2931.92,12676.6 2934.71,12670.8C2936.95,12682.6 2943.95,12699.8 2961.21,12698.5C2991.85,12696.1 3003.98,12655.7 2998.4,12629.4C2993.76,12607.5 2978,12598.1 2966.65,12598.9C2955.01,12599.9 2949.56,12605.7 2945.27,12613.3C2943.96,12615.7 2936.27,12629.2 2934.31,12650.6C2934.09,12651.2 2933.85,12651.9 2933.6,12652.6C2929.88,12662.6 2924.75,12676.4 2919.55,12676.8C2916.82,12677 2914.6,12664.5 2913.96,12656.3C2912.11,12632.6 2915.6,12619.8 2913.95,12598.8C2912.77,12583.7 2905.32,12574.3 2895.66,12575.1C2881.05,12576.2 2884.03,12585.7 2881.2,12600.4C2878.46,12616.5 2874.99,12632.5 2869.88,12646.8C2865.99,12657.6 2863.58,12655.6 2862.44,12640.9C2861.76,12632.3 2856.65,12630.5 2851.88,12630.1C2845.39,12629.8 2841.24,12637.1 2840.3,12641.2C2838.82,12648.1 2839.77,12654.8 2841.65,12660.4ZM2705.18,12693.8C2720.44,12687.9 2723.37,12667.3 2722.8,12660.4C2721.92,12649.5 2717.4,12647.7 2701.73,12647.6L2705.18,12693.8ZM2977.29,12668.6C2975.5,12673.4 2970.81,12679.6 2965.66,12679.9C2956.06,12680.5 2950.31,12675.2 2948.74,12662.4C2948,12656.3 2947.32,12639.5 2950.9,12626.4C2954.93,12611.5 2960.31,12610.1 2965.05,12609.6C2970.37,12609.2 2976.77,12613.5 2979.39,12626.2C2985.34,12647.7 2978.45,12665 2977.29,12668.6ZM3147.79,12605.4C3147.42,12605.9 3147.03,12606.4 3146.64,12606.9C3135.4,12620.8 3109.51,12619.8 3105.06,12608.3C3096.44,12585.8 3112.18,12577.8 3112.82,12577.3C3087.74,12580.7 3071.74,12650.1 3088.78,12675.6C3084.08,12666.3 3084.9,12648.7 3087.9,12632.5C3089.24,12625.2 3093.66,12605.4 3099.78,12613.4C3112.15,12629.7 3135.91,12623.1 3147.79,12605.4ZM3190.95,12670.2C3195.3,12670.8 3200.1,12667.5 3204.1,12663.7C3203.91,12658.9 3204.47,12653.7 3206.22,12648.6C3205.56,12649.1 3204.89,12649.5 3204.23,12649.9C3197,12654.1 3188.34,12656.8 3180.93,12658C3181.48,12660.9 3182.42,12663.3 3183.7,12665.3C3185.48,12668.1 3187.98,12669.9 3190.95,12670.2ZM2966.02,12668.9C2972.27,12666.4 2973.21,12650.1 2973.29,12644C2973.4,12633.9 2971.41,12617.6 2967.03,12615.8C2965.79,12615.3 2958.53,12615.7 2956.95,12628C2954.89,12644 2955.94,12652.6 2957.06,12660.2C2958.25,12668.2 2960.79,12670.2 2966.02,12668.9ZM2818.91,12666.8C2823.24,12666.5 2827.3,12662.2 2830.44,12657.7C2829.3,12653 2828.82,12647.9 2829.48,12642.5C2828.94,12643.1 2828.35,12643.6 2827.77,12644.1C2821.57,12649.7 2813.6,12654.1 2806.62,12656.8C2807.72,12659.5 2809.14,12661.7 2810.77,12663.4C2813.07,12665.8 2815.89,12667 2818.91,12666.8ZM2908.12,12570.1C2932.01,12579.8 2930.3,12604.8 2930.51,12612.2C2930.86,12610.9 2943.6,12588.6 2969.16,12590.3L2969.17,12590.3C2968.2,12590.2 2967.24,12590.3 2966.3,12590.3C2959.5,12590.9 2952.64,12593.1 2948.12,12597.5C2946.07,12599.5 2932.3,12611.7 2925.27,12643.1C2924.98,12644.4 2924.47,12645.6 2924.13,12647C2923.85,12639 2924.23,12632.5 2924.59,12626.1C2925.08,12617.6 2925.54,12609.3 2924.75,12599.3C2924.04,12590.1 2921.15,12582.6 2916.77,12577.1C2914.28,12574.1 2911.38,12571.7 2908.12,12570.1ZM2792.39,12643.4C2791.56,12632.8 2793.95,12615.4 2805.58,12614.5C2808.54,12614.3 2812.74,12616.9 2813.2,12622.9C2814.08,12634 2803.44,12641.3 2792.39,12643.4ZM3169.38,12640.5C3170.71,12629.9 3176.53,12613.3 3188.12,12614.8C3191.07,12615.1 3194.66,12618.6 3193.91,12624.5C3192.52,12635.6 3180.62,12640.6 3169.38,12640.5ZM3197.57,12592.7C3198.15,12592.8 3198.73,12593 3199.31,12593.1C3222.21,12599.9 3226.92,12621.4 3225.83,12626.3C3231.01,12625.1 3243.43,12629.7 3245.45,12638.5L3245.39,12638.7L3245.03,12638.3C3241.76,12634.5 3237.61,12632.6 3233.58,12631.5C3233.45,12631.4 3233.33,12631.4 3233.17,12631.4L3233.17,12631.3C3228.38,12630.2 3223.98,12631 3220.14,12632.7C3221.48,12611.7 3211.28,12597.7 3197.57,12592.7ZM2811.38,12591.5C2820.28,12592.2 2840.47,12596.9 2844.11,12616.7C2851.87,12611.8 2863.35,12616.8 2865.83,12624.9C2865.69,12624.8 2865.55,12624.7 2865.41,12624.6C2861.46,12621.5 2856.99,12620.5 2852.83,12620.2C2852.68,12620.2 2852.55,12620.2 2852.39,12620.2L2852.39,12620.2C2847.49,12620 2843.31,12621.6 2839.89,12624.1C2838.71,12602.7 2826.06,12592.7 2811.38,12591.5ZM3005.63,12616.6C3005.89,12617.1 3006.13,12617.7 3006.35,12618.2C3006.58,12618.8 3006.78,12619.4 3006.98,12620C3006.56,12618.8 3006.11,12617.7 3005.63,12616.6ZM2808,12528.8C2810.31,12515.2 2806.25,12506.2 2804.22,12497.7C2803.09,12493 2798.85,12490.1 2799.27,12492.7C2799.82,12496.3 2801.28,12497.7 2801,12499.1C2800.13,12503.4 2797.97,12498.2 2793.97,12494.7C2789.16,12490.5 2792.41,12484.6 2793.97,12478.2C2794.8,12474.7 2792.37,12470.5 2789.34,12469.9C2786.06,12469.3 2787.56,12471.7 2786.55,12474.4C2785.66,12476.8 2782.97,12477.6 2781.3,12477.5C2777.96,12477.2 2778.13,12473.3 2779.77,12472.6C2783.54,12471 2780.37,12463.9 2782.99,12464C2785.81,12464.1 2786.41,12466.6 2789.75,12467.2C2792.61,12466.7 2792.21,12463.8 2794.54,12463.4C2798.08,12463 2801.53,12464.1 2804.91,12463C2808.25,12461.9 2805.39,12457.4 2805.04,12456.4C2804.51,12454.8 2805.09,12453.8 2806.44,12453.1C2811.97,12450.2 2817.66,12452.5 2820.26,12457.6C2821.54,12460.1 2822.03,12460.7 2824.83,12462.1C2828.05,12463.7 2829.51,12465.2 2829.76,12468.5C2830.33,12475.9 2829.39,12487.2 2840.21,12484.7C2843.71,12483.8 2842.81,12479.3 2846.57,12478.2C2851.63,12476.7 2863.2,12479.5 2865.06,12474.6C2868.62,12465.4 2867.57,12458.3 2873,12452.3C2875.39,12449.6 2883.26,12449 2886.46,12449.9C2889.73,12450.8 2893.1,12453.8 2892.81,12460.5C2892.43,12463.5 2889.35,12462.5 2887.6,12465.2C2884.88,12469.5 2886.41,12470.9 2881.68,12477.3C2880.23,12479.2 2883.23,12481.5 2882.99,12484.1C2882.14,12493.1 2885.77,12500.1 2891.72,12504.5C2893.18,12505.6 2892.83,12505.4 2892.74,12507.2C2890.81,12520.2 2890.81,12526.7 2893.05,12530.6C2892.68,12533.7 2887.47,12532.2 2884.74,12532.4C2891.17,12520.1 2884.11,12502 2877.21,12492.3C2873.26,12486.8 2866.48,12483.2 2862.3,12488C2857.74,12493.3 2866.01,12489.6 2870.56,12492C2874.72,12494.2 2879.68,12498.9 2879.2,12502.2C2878.81,12504.8 2877.21,12503.6 2875.04,12505.7C2872.98,12507.6 2872.65,12514.7 2870.91,12515.2C2870.52,12515.4 2869.54,12515.4 2869.6,12513.6C2869.78,12508.8 2866.18,12507.2 2866.62,12512.6C2866.67,12513.1 2865.89,12516.1 2863.92,12513.8C2862.35,12512 2864.09,12508.8 2863.06,12506C2861.57,12501.9 2856.8,12497.3 2852.76,12499.6C2841.47,12506.1 2819.22,12503.4 2814.9,12498.8C2811.92,12495.7 2812.2,12491.8 2813.71,12487.7C2814.55,12485.4 2816.38,12484.1 2812.71,12482.6C2810.02,12481.5 2807.12,12483.6 2808.91,12492C2812.57,12501.3 2811.84,12514.9 2813.04,12528.7C2813.2,12528.8 2813.36,12528.8 2813.53,12528.8C2814.99,12513.2 2837.46,12515.6 2838.09,12530.2C2838.17,12532.1 2837.91,12534.1 2837.22,12536.3C2872.39,12545 2852.47,12580 2852.18,12579.8C2844.72,12574.9 2835.36,12571.1 2825.8,12569.3C2808.12,12566 2794.46,12572.4 2794.46,12572.4C2794.46,12572.4 2794.93,12550.3 2811.41,12543.4C2800.53,12544.6 2799.21,12530.9 2808,12528.8ZM2959.44,12579.5C2962.8,12578.9 2968.96,12576.2 2971.85,12573C2955.63,12566.9 2959.93,12569.1 2945.69,12561.8C2942.29,12562.9 2935.4,12565.7 2931.91,12567L2959.44,12579.5ZM2939.41,12550.8C2951.88,12555.4 2971.58,12566 2978.88,12569.3C2984.22,12566.8 2988.81,12566.3 2992.38,12562.2C2977.01,12556.2 2966.18,12553 2951.93,12545.8L2939.41,12550.8ZM2995.68,12383.1C2990.96,12378.7 2986.63,12376 2983.41,12376C2968.21,12375.6 2962.89,12386.6 2954.8,12395.2C2951.78,12398.4 2950.26,12411.2 2947.98,12411.3C2946.75,12411.3 2949.36,12401.4 2948.13,12401.6C2943.57,12404.3 2939.16,12423.3 2938.39,12423.8C2937.03,12424.8 2939.03,12411 2938.99,12409.6C2930.67,12417.3 2924.56,12426.1 2921.19,12437.2C2922.65,12438.7 2937.25,12441.3 2940.15,12441.2C2946.79,12441.1 2941.49,12444.4 2937.47,12445.1C2934.62,12445.5 2923.66,12440.4 2922.94,12441.6C2921.25,12444.6 2921.87,12449.4 2922.55,12452.3C2923.28,12455.5 2942.13,12456.7 2937.94,12459.8C2936.01,12461.3 2923.72,12456 2922.67,12459.6C2921.44,12463.7 2921.54,12469.2 2922.49,12472.6C2939.72,12477.6 2941.27,12482.4 2921.84,12476.4C2921.67,12478.3 2921.35,12480.4 2921.05,12482.6C2926.92,12483.2 2931.94,12484.7 2933.17,12487.5C2933.62,12488.6 2934.06,12489.7 2932.02,12491.6C2929.58,12493.8 2934.76,12497.3 2935.13,12502.3C2935.24,12503.8 2935.34,12505.6 2935.43,12507.8C2939.45,12508.9 2942.85,12510 2942.8,12511C2942.75,12512.2 2939.48,12511.9 2935.57,12511.4C2935.78,12517.8 2935.93,12525.6 2935.95,12532.7C2938.15,12533.4 2940.43,12534 2942.43,12534.7C2947.19,12536.4 2952.04,12537.6 2955.4,12539.6C2955.45,12512.5 2953.65,12483.7 2952.37,12456.6C2950.42,12455.8 2950.33,12451 2952.13,12449.9C2959.91,12449.5 2965.9,12447.7 2969.21,12443.5C2971.7,12440.4 2974.8,12442.7 2975.65,12446.2C2977.47,12453.6 2985.34,12455.6 2992.72,12457.2C2990.23,12487.4 2991.41,12521.5 2990.55,12555.5C3000.84,12559.9 3013.89,12563 3025.36,12566.2C3025.98,12559.2 3026.56,12557.7 3025.14,12553.6C3015.01,12551.7 3004.29,12544.7 3004.29,12544.7C3004.29,12544.7 3016.51,12545.1 3025.94,12549.3C3026.65,12543.7 3026.06,12535.9 3024.84,12530.9C3013.83,12528.5 3002.62,12522.5 3002.62,12522.5C3002.62,12522.5 3010.17,12522.8 3025.5,12525.1C3023.93,12520.4 3025.1,12512.9 3024.49,12508.2C3024,12504.4 3010.11,12504 2999.52,12498.7C3011.54,12498.8 3014.51,12501.3 3024.57,12501.3C3024.53,12499 3025.3,12486.4 3024.94,12484C3013.68,12482 3006.19,12479.7 2997.44,12475.1C3007.81,12474.3 3014.25,12479.7 3025.52,12479.4C3026.68,12474.9 3026.19,12467.5 3025.85,12465C3025.28,12460.8 3018.08,12461.4 3001,12456.4C3008.1,12456.6 3019.22,12457.3 3030.7,12460.4C3040.66,12459.4 3043.27,12459.5 3053.72,12460.5C3048.1,12463.3 3035.35,12462.2 3034.45,12465.1C3033.52,12468 3032.97,12474.5 3034.21,12479.8C3043.06,12480.6 3059.59,12475.1 3067.02,12478.3C3067.09,12478.4 3067.16,12478.4 3067.23,12478.4C3056.16,12480.5 3045.65,12484.4 3034.02,12484.4C3033.77,12490.1 3033.93,12496.1 3034.07,12500.7C3034.07,12500.7 3050.41,12499.2 3057.79,12498.2L3079.03,12494.5C3078.84,12487.8 3078.16,12482.5 3076.73,12477.2C3075.62,12473.1 3074.36,12469.8 3073.69,12466.1C3088.45,12465.4 3108.29,12464.1 3123.5,12460.8C3123.21,12466.3 3122.22,12472.3 3120,12477.2C3130.43,12474.8 3143.87,12481.4 3143.1,12491.9C3143.1,12491.9 3150.91,12488.5 3156.52,12488.8C3167.53,12489.3 3173,12495.6 3173,12495.6C3173.43,12492.6 3173.73,12490.2 3173.95,12488.1C3178.05,12488.5 3181.48,12488.6 3182.59,12488.6C3185.27,12482.6 3194.78,12480.7 3199.22,12481.6C3199.2,12478.8 3199.18,12474.4 3198.85,12470.9C3198.33,12465.6 3198.94,12459.5 3198.68,12456.5C3204.64,12456.1 3214.33,12456.3 3221.29,12457.6C3221.98,12460.9 3222.54,12464.8 3222.96,12468.9C3226.88,12468.7 3230.88,12469.6 3234.48,12471.4C3234.6,12467.2 3234.86,12462.6 3234.86,12458.8C3242.34,12457.9 3251.41,12458.8 3256.8,12455.6C3257,12464.3 3256.95,12478.6 3254.59,12486.8C3251.89,12485.7 3250.76,12485 3247.71,12484.2C3248.7,12486.8 3248.69,12489.6 3248.59,12492.7C3250.49,12493.5 3251.39,12494.1 3253.31,12495.1C3252.67,12497.9 3250.97,12502.4 3250.34,12505.1C3252.57,12505.7 3256.03,12507.6 3257.92,12509C3259.12,12507.5 3259.63,12503.9 3260.61,12499.4C3262.18,12498.4 3263.74,12501.5 3265.72,12502.4C3273.07,12498.9 3266.82,12491.1 3261.46,12489.8C3262.83,12484.1 3266.45,12466.5 3268.88,12456.3C3272.68,12450.8 3268.02,12447.6 3268.02,12447.6C3266.77,12443.3 3267.43,12441.6 3264.63,12438.7C3259.02,12432.9 3254.54,12441.7 3256.65,12450.4C3249.66,12451.4 3241.51,12450.2 3234.01,12450.7C3232.41,12446.1 3235.1,12437.8 3228.79,12436.7C3224.54,12435.9 3222.58,12441 3219.7,12443.7C3220.53,12445.4 3220.55,12447.6 3220.64,12449.8C3214.7,12451.2 3205.82,12449.5 3198.74,12449.7C3198.81,12444.4 3200.78,12437.6 3197.21,12435.6C3194.62,12434.1 3189.39,12437 3188.15,12438.9C3189.07,12442.4 3189.68,12445.6 3189.56,12449.5C3182.53,12449.2 3177.28,12449.3 3171.24,12448.1C3169.73,12445.1 3169.42,12441 3167.99,12437.9C3166.2,12437.3 3163.52,12436.5 3161.72,12438C3159.73,12440.4 3167.95,12459.2 3165.8,12480.8L3161.01,12480.9C3161,12480.8 3160.37,12452.6 3152.11,12441.8C3153.29,12449.2 3148.05,12466.2 3129.87,12431.8L3129.13,12431.7C3140.51,12464 3126.07,12452 3121.28,12446.6C3122.05,12456.8 3110.04,12455.3 3106.29,12442C3109.65,12453.9 3099.53,12454.9 3094.27,12446C3087.74,12461.7 3077.34,12428.5 3073.36,12424C3078.39,12433.4 3080.56,12448.9 3076.64,12450.4C3073.07,12451.9 3069.92,12446.6 3069.27,12445.7C3066.89,12456.2 3056.41,12438.4 3055.42,12443.5C3054,12450.9 3046.75,12450.5 3040.76,12445.3C3043.67,12450.3 3029.51,12456.1 3026.46,12440.8C3025.8,12437.5 3024.95,12434.2 3023.95,12431C3015.7,12411.3 3006.64,12407.6 2998.09,12386.3C2997.36,12385.4 2996.5,12384.3 2995.68,12383.1ZM3095.49,12530.1C3071.22,12537 3052.11,12544.3 3034.51,12554.1C3034.75,12555.8 3034.43,12561.9 3034.68,12563.9C3035.25,12568.6 3039.96,12564.9 3044.97,12561.6C3058.43,12552.8 3083.44,12543.2 3104.28,12536.3C3100.38,12534.5 3095.49,12530.1 3095.49,12530.1ZM2848.85,12560.8C2847.09,12556.3 2845.41,12553.4 2843.12,12551.5C2840.83,12549.6 2837.92,12548.5 2833.68,12547.7C2837.6,12541.6 2853.98,12547.9 2848.85,12560.8ZM3239.7,12506C3256.74,12477.8 3215.35,12459.1 3206.16,12485.5C3185.13,12475.2 3177.24,12504.4 3197.39,12507.1C3178.16,12508.6 3169.17,12522.6 3167.38,12534.5C3166,12543.6 3175.51,12557.1 3187.37,12557.5C3188.16,12557.5 3189.63,12557.2 3190.79,12556.6C3192.27,12555.8 3193.49,12554.8 3194.82,12554C3217.72,12541.1 3237.05,12557.7 3241.08,12559.1C3246.52,12560.9 3251.61,12557.9 3255.94,12552.9C3265.05,12542.3 3267.31,12532 3264.93,12525.1C3261.56,12515.3 3249.26,12509.6 3239.7,12506ZM2817.13,12554C2817.13,12554 2815.03,12553.1 2812.08,12553.3C2809.13,12553.6 2805.32,12554.9 2801.89,12559.3C2805.8,12545.9 2817.45,12548.9 2817.13,12554ZM2978.73,12459.1C2978.45,12472.2 2976.93,12516.3 2975.11,12459.9C2972.76,12459.6 2969.08,12458.4 2967.02,12459.2C2967.22,12508.3 2966.5,12536.7 2963.51,12458.9C2960.4,12458.3 2957.94,12458 2955.04,12457.2C2954.98,12483.6 2956.87,12511.6 2957.57,12538.6C2965.55,12544.8 2976.92,12549.8 2987.2,12552.2C2987.06,12521.5 2988.51,12492.1 2988.3,12461.4L2978.73,12459.1ZM2931.98,12542.3C2932.07,12551.8 2898.35,12553.6 2897.48,12541.5C2900.27,12544.8 2918.82,12549.3 2931.98,12541.5L2931.98,12542.3ZM3034.74,12548.2C3058.58,12538.2 3089.42,12528.8 3093.54,12527.9C3091.12,12525.9 3088.28,12522.1 3089.26,12516.5C3070.12,12521.1 3053.65,12525.6 3034.52,12530.2C3033.46,12536.1 3034.55,12541.6 3034.74,12548.2ZM3242.82,12544C3246.45,12537.8 3247.4,12532.8 3246.08,12528.5C3244.76,12524.2 3241.18,12520.6 3235.72,12517.1C3243.52,12507.4 3263.25,12526 3242.82,12544ZM2897.51,12538.3C2896.25,12527.7 2896.91,12512.2 2897.11,12503.7C2897.23,12498.8 2901.23,12496.7 2900.84,12491.7C2900.7,12490 2905.72,12492.6 2914.68,12492.6C2925.45,12492.6 2928.28,12489.3 2928.19,12491.6C2927.97,12496.9 2931.79,12498.8 2931.86,12503.4C2931.99,12511.6 2931.87,12525.5 2932.02,12536.2C2932.04,12537.7 2931.43,12537.9 2930.09,12538.9C2922.76,12544.5 2907.22,12543.1 2898.56,12539.5C2897.51,12539.1 2897.64,12539.3 2897.51,12538.3ZM3174.48,12508.5C3175.31,12496.1 3152.84,12489.1 3140.36,12497.2C3138.54,12487.5 3133.63,12478.2 3122.39,12481.1C3111.36,12484 3106.34,12500 3116.37,12506.6C3105.09,12503.2 3092.01,12504.8 3094.51,12520C3096.59,12532.6 3161.68,12544.7 3152.43,12522C3157.24,12519.9 3160.91,12526.3 3160.92,12526C3161.13,12519.5 3165.12,12511.1 3174.48,12508.5ZM2875.7,12510.8C2878.16,12507.7 2880.97,12505.2 2881.26,12506.6C2881.52,12507.8 2879.97,12509.5 2879.58,12511.2C2878.89,12514.2 2881.07,12514.6 2880.62,12516.1C2878.79,12521.9 2875.36,12527.7 2873.33,12531.2C2870.83,12531.7 2869.87,12529.9 2868.2,12530.1C2872.65,12524.4 2875.7,12510.8 2875.7,12510.8ZM2794.11,12530.1C2795.89,12525.4 2797.01,12517 2795.68,12507.9C2797.83,12507.9 2803.05,12513.5 2799.38,12528.9L2794.11,12530.1ZM2832.36,12527.7C2829.41,12525.8 2826.71,12525.2 2824.34,12525.5C2821.96,12525.8 2819.89,12526.9 2818.2,12528.5C2821.24,12519.1 2831.38,12521.5 2832.36,12527.7ZM3200.01,12517.6C3197.94,12518.3 3195.42,12517.6 3191.77,12518.4C3188.12,12519.2 3183.35,12521.4 3176.77,12527.8C3185.83,12507.5 3202.4,12510 3200.01,12517.6ZM3089.67,12513.9C3090.09,12510.6 3091.39,12508.3 3092.83,12506.9C3088.3,12506.7 3084.49,12508.1 3078.74,12508C3079.21,12504.3 3079.4,12500.9 3079.27,12496.8C3068.75,12500.1 3043.41,12505.2 3033.49,12506.2C3034.95,12514.2 3032.81,12520 3034.23,12526L3089.67,12513.9ZM3100.88,12519.2C3097.14,12515.9 3097.8,12513.1 3101.1,12511.4C3104.39,12509.6 3110.32,12508.8 3117.1,12509.7C3109.48,12510 3103.89,12512.9 3100.88,12519.2ZM2984.75,12512.7C2984.47,12512.8 2984.18,12512.9 2983.9,12512.9C2981.24,12513.1 2979.2,12510.8 2979.35,12507.8C2979.47,12504.7 2981.74,12502 2984.4,12501.8C2984.79,12501.7 2985.16,12501.8 2985.54,12501.8C2985.33,12504.7 2985,12509.3 2984.75,12512.7ZM3162.04,12508.5C3159.32,12504.9 3156.15,12502.6 3152.58,12501.4C3149.01,12500.3 3145.04,12500.3 3140.71,12501.3C3155.32,12494.6 3168.26,12497.6 3162.04,12508.5ZM2904.12,12494.5C2903.49,12498.3 2897.56,12503.3 2900.29,12504.7C2907.22,12508.3 2920.45,12506.8 2927,12505.5C2931.94,12504.5 2930.71,12503.3 2926.57,12503.5C2918.73,12504.7 2908.55,12504.1 2905.03,12503C2902.99,12502.4 2904.78,12500.3 2905.5,12497.9C2911.14,12499 2913.98,12498.9 2919.32,12498.2C2923.4,12497.6 2922.61,12496.4 2919.71,12496.6C2912.82,12496.8 2907.63,12496.7 2904.12,12494.5ZM3087.26,12500C3087.07,12501.4 3086.83,12502.7 3086.54,12504.1C3110.29,12504.7 3117.15,12474.6 3115.18,12465.9C3105.03,12466.4 3095.89,12467.7 3086.13,12468.5C3086.9,12473.3 3087.52,12478.4 3087.78,12483.5C3094.02,12482.5 3096.35,12481 3096.19,12470.9C3099.64,12469.7 3099.81,12481.2 3098.38,12482.9C3096.31,12485.3 3090.93,12485.4 3087.86,12484.9C3088.04,12489.5 3087.95,12494 3087.47,12498.3C3093.1,12498.1 3095.45,12496.6 3096.68,12487.1C3100.25,12486.4 3098.76,12497.8 3097.09,12499.3C3094.92,12501.2 3090.32,12500.8 3087.26,12500ZM3114.3,12494.8C3117.53,12489.1 3121.63,12485.2 3125.06,12484C3128.49,12482.8 3131.25,12484.3 3131.79,12489.4C3124.75,12487.2 3119.01,12489.3 3114.3,12494.8ZM3192.72,12492.7C3190.88,12489.8 3191.87,12488.1 3194.41,12487.6C3196.95,12487 3201.03,12487.7 3205.36,12489.6C3200.24,12488.3 3195.96,12489.2 3192.72,12492.7ZM2914.9,12485.4C2908.44,12485.4 2903.2,12486.2 2903.2,12487.3C2903.19,12488.3 2908.44,12489.2 2914.89,12489.2C2921.35,12489.2 2926.6,12488.4 2926.6,12487.3C2926.6,12486.3 2921.36,12485.4 2914.9,12485.4ZM3228.62,12482.4C3225.36,12481.2 3222.23,12481 3219.2,12481.8C3216.17,12482.6 3213.25,12484.4 3210.42,12486.9C3218.88,12476.2 3229.45,12472.5 3228.62,12482.4ZM3108.8,12470.8C3111.6,12469.6 3112.35,12479.1 3111.27,12480.6C3108.97,12483.7 3100.59,12483 3100.73,12482.1C3107.2,12480.7 3109.56,12480.1 3108.8,12470.8ZM3174.47,12479.9C3174.81,12471.3 3174.48,12463.4 3173.35,12456.4C3174.24,12456.2 3190.35,12455.9 3190.35,12455.9C3191.04,12459.9 3191.32,12464 3191.84,12468.4C3192.28,12472.2 3192.62,12476.2 3193,12480.1C3187.87,12481.3 3180.49,12479.8 3174.47,12479.9ZM2753.75,12473.7C2764.84,12477.3 2769.74,12472.5 2769.74,12472.5C2769.74,12472.5 2764.57,12474.5 2757.64,12473.1C2756.58,12472.9 2755.44,12472.6 2754.3,12471.8C2752.26,12470.3 2753.56,12461.1 2757.26,12461C2761.46,12460.8 2761.88,12456.2 2761.66,12451.5C2761.46,12447.1 2758.71,12442.6 2761.61,12440.5C2762.58,12439.8 2762.94,12441.5 2766.04,12441.6C2769.09,12441.7 2771.77,12439.7 2774.9,12440.8C2776.47,12441.4 2767.4,12446.5 2765.08,12456.6C2764.48,12459.2 2764.2,12460.8 2766.47,12461.3C2772.83,12462.7 2767.55,12467.3 2771.75,12469.4C2773.96,12470.5 2778.69,12465.4 2777.7,12467.8C2774.92,12474.2 2763.8,12479.3 2756.05,12476.1C2755.3,12475.8 2753.87,12474.9 2753.74,12473.7L2753.75,12473.7ZM2762.73,12469.6C2765.82,12469 2762.9,12466.4 2762.9,12466.4C2762.9,12466.4 2763.08,12467.4 2762.14,12468C2761.09,12468.7 2761.67,12469.9 2762.73,12469.6ZM2757.28,12466.7C2756.73,12466.7 2755.84,12466.7 2755.7,12467.8C2755.56,12468.9 2756.16,12470.1 2757.39,12469.4C2758.6,12468.7 2757.06,12468 2757.06,12467.4C2757.06,12466.7 2757.84,12466.7 2757.28,12466.7ZM2766.43,12468.8C2766.43,12468.8 2767.12,12465.3 2764.23,12463.7C2762.48,12462.8 2760.28,12462.8 2758.61,12463.3C2757.32,12463.8 2755.85,12465 2757.27,12465.4C2759.23,12465.8 2762.89,12462.2 2766.43,12468.8ZM2768.63,12456.4C2768.96,12456.8 2769.02,12456 2770,12455.5C2770.84,12455.1 2771.22,12455.9 2771.47,12456.2C2772.39,12457.3 2773.84,12456.7 2774.95,12455.3C2775.64,12454.5 2775.07,12451.7 2775.07,12451.7C2775.07,12451.7 2777.53,12455 2775.96,12457.7C2774.18,12460.8 2767.6,12458.6 2767.95,12456.4C2768.9,12450.4 2774.26,12453 2774.26,12453C2774.26,12453 2769.53,12452.7 2768.63,12456.4ZM2756.66,12452C2759.39,12452.8 2758.71,12455.4 2758.44,12455.4C2758.02,12455.5 2758.2,12455 2757.62,12454.9C2757.23,12454.8 2756.83,12455.2 2756.24,12455.1C2754.86,12454.8 2755.26,12451 2755.26,12451C2755.26,12451 2752.4,12456.4 2756.99,12456.9C2757.77,12457 2759.36,12457 2759.79,12454.6C2760.35,12451.5 2755.95,12451.8 2756.66,12452ZM2781.46,12441.3C2785.1,12438 2785.59,12434.8 2785.59,12434.8C2785.59,12434.8 2787.96,12439.9 2785.79,12442.5C2783.05,12445.9 2777.99,12444.4 2781.46,12441.3ZM2756.09,12440.6C2752.14,12437.7 2751.35,12434.6 2751.35,12434.6C2751.35,12434.6 2750.61,12440.6 2751.9,12442.3C2754.55,12445.7 2759.84,12443.4 2756.09,12440.6ZM2955.51,12426.1C2955.27,12422.2 2954.5,12418.4 2955.73,12414.6C2960.94,12398.2 2991.99,12408.1 2991.24,12426.5C2991.18,12428.3 2990.92,12429.7 2990.16,12431.3L2955.51,12426.1ZM2964.45,12423.5L2988.19,12429.2C2988.57,12427.9 2988.71,12425.6 2988.36,12423.9C2986.43,12414.6 2964.33,12408.1 2964.45,12423.5ZM3106.59,12384.1C3105.59,12384.5 3104.82,12384.8 3104.55,12385.1C3103.38,12386.4 3106.8,12388.4 3104.07,12389.3C3099.07,12391.1 3085.48,12387.7 3072.95,12382C3063.34,12377.6 3053.37,12380.8 3051.35,12384.5C3046.84,12379.9 3035.27,12376.9 3032.98,12376.5C3030.68,12376 3036.32,12379.8 3037.58,12381.9C3032.41,12381.3 3026.07,12378.3 3024.97,12377.9C3015.75,12374.3 3004.4,12375.6 3004.4,12375.6C3004.4,12375.6 3014.74,12375 3029.65,12395.8C3030.58,12394.2 3027.07,12386.2 3034.3,12386.6C3036.99,12386.8 3054.46,12400.4 3057.61,12406.3C3057.95,12402.3 3046.48,12387.7 3049.03,12388.6C3051.59,12389.5 3067.63,12403.5 3072.95,12411.4C3073.22,12404.6 3058.94,12390.3 3062.49,12387.2C3066.05,12384.1 3084.16,12389.2 3094.28,12392.7C3102.42,12395.6 3116.31,12411.6 3120.62,12416.3C3120.43,12413.2 3110.46,12398.7 3115.76,12399.1C3120.46,12399.5 3135.47,12407.5 3144.36,12414.6C3134.18,12403.7 3112.29,12385.8 3108.65,12384.5C3107.95,12384.2 3107.27,12384.1 3106.59,12384.1ZM3036.62,12361C3036.61,12357.5 3039.45,12351.2 3035.83,12351.5C3032.13,12351.7 3031.22,12357 3030,12360.7C3032.3,12360.7 3034.02,12361.3 3036.62,12361Z"/>
            </g>
        </g>
    </g>
</svg>
