<?xml version="1.0" encoding="UTF-8" standalone="no"?>
<!DOCTYPE svg PUBLIC "-//W3C//DTD SVG 1.1//EN" "http://www.w3.org/Graphics/SVG/1.1/DTD/svg11.dtd">
<svg width="100%" height="100%" viewBox="0 0 1080 1080" version="1.1" xmlns="http://www.w3.org/2000/svg" xmlns:xlink="http://www.w3.org/1999/xlink" xml:space="preserve" xmlns:serif="http://www.serif.com/" style="fill-rule:evenodd;clip-rule:evenodd;stroke-linejoin:round;stroke-miterlimit:2;">
    <g transform="matrix(1,0,0,1,-1275.92,-6642.62)">
        <g id="id_icon_30_11_2019" transform="matrix(1,0,0,1,1275.92,6642.62)">
            <rect x="0" y="0" width="1080" height="1080" style="fill:none;"/>
            <g transform="matrix(1,0,0,1,-2.27374e-13,-37.5028)">
                <g transform="matrix(1.84158,0,0,1.84158,68.5551,68.5551)">
                    <path d="M107.7,456.424C90.355,448.877 90.985,437.985 90.985,437.985C90.985,437.985 105.524,433.066 112.585,428.249C119.484,423.547 141.116,407.402 139.542,386.678C138.157,368.433 114.652,370.308 109.105,370.919C105.087,371.357 100.708,372.183 95.964,373.402C93.195,374.11 90.395,374.931 87.571,375.86C85.394,376.539 83.153,377.314 80.845,378.192C81.055,376.698 80.904,376.041 80.393,376.226C80.183,376.313 79.882,376.517 79.501,376.847L78.984,377.335L78.408,377.765C78.236,377.972 78.065,378.09 77.895,378.123L77.51,378.069C77.123,377.972 76.762,378.211 76.421,378.793L77.384,375.912C77.298,375.846 77.193,375.995 77.062,376.36L76.867,376.908L76.741,377.511C76.4,378.564 76.139,378.912 75.975,378.558C76.185,378.173 76.4,377.598 76.617,376.832L76.806,375.898L77.062,375.013C76.932,375.08 76.762,375.329 76.551,375.755L76.23,376.397L75.975,377.084C75.498,378.284 75.187,378.84 75.016,378.745C75.016,378.613 75.117,378.363 75.332,377.976L75.588,377.48L75.91,376.903C76.381,375.96 76.49,375.424 76.23,375.306C76.185,375.271 76.08,375.46 75.91,375.882L75.649,376.441L75.458,376.929C76.015,374.982 76.23,373.722 76.1,373.149C75.975,372.492 75.458,372.893 74.564,374.347C74.645,374.114 74.775,373.811 74.947,373.436L75.397,372.455C75.759,371.623 76.004,370.982 76.139,370.536L76.165,370.447L76.1,370.457L75.91,371.007L75.649,371.572C75.498,371.893 75.378,372.148 75.302,372.338L75.91,370.559L75.523,370.89C75.206,371.467 74.985,371.952 74.846,372.343L75.267,371.069C74.926,371.351 74.585,371.692 74.243,372.101L73.412,373.226L72.71,374.26C72.147,375.049 71.806,375.629 71.68,375.995L70.271,379.727L68.986,383.499C62.235,387.032 45.943,398.989 43.295,401.556C44.7,400.767 46.075,400.057 47.389,399.415C43.756,401.913 41.449,403.795 40.47,405.049C39.147,406.417 38.269,407.465 37.838,408.189C37.507,408.765 37.526,409.015 37.909,408.946C38.124,408.901 38.63,408.671 39.443,408.259L40.535,407.726L41.63,407.196C42.051,406.989 42.333,406.91 42.462,406.971L42.654,407.126L42.714,407.304C42.924,407.608 43.525,407.451 44.509,406.828C42.844,408.177 41.389,409.462 40.155,410.685C40.155,410.774 40.407,410.572 40.918,410.09L41.305,409.76L41.755,409.352L42.589,408.548C43.27,407.947 43.807,407.52 44.189,407.275C44.62,406.982 44.745,406.998 44.569,407.33C43.756,407.916 42.864,408.686 41.881,409.648L40.663,410.908L39.513,412.161C39.684,412.122 40.106,411.804 40.787,411.205L41.691,410.388L42.714,409.483C44.549,407.932 45.493,407.319 45.533,407.657C45.362,407.818 44.955,408.133 44.319,408.6L43.42,409.221L42.522,409.906C41.069,411.045 40.385,411.774 40.47,412.097C40.517,412.175 40.817,411.95 41.369,411.416L41.82,411.004L42.202,410.676C42.503,410.362 42.734,410.141 42.904,410.023C41.755,411.103 40.787,412.184 40.026,413.273C39.383,414.167 39.021,414.836 38.937,415.282C38.851,415.684 38.956,415.811 39.252,415.666C39.513,415.534 40.125,415.003 41.113,414.091C40.727,414.547 40.407,414.935 40.155,415.234C39.809,415.646 39.534,415.998 39.313,416.294C38.851,417.029 38.63,417.626 38.681,418.087C38.681,417.83 38.781,417.512 39.002,417.125C39.122,416.845 39.313,416.53 39.574,416.18C39.147,416.817 38.912,417.418 38.87,417.985L39.187,417.666C39.273,417.482 39.492,417.096 39.829,416.515C39.618,416.9 39.473,417.248 39.383,417.563L39.829,417.225L40.346,416.931C40.559,416.694 48.296,410.246 54.319,405.939C60.204,401.733 64.584,398.988 64.584,398.988C64.151,399.882 39.463,483.089 39.463,483.089L61.619,472.656C61.619,472.656 66.339,448.12 67.447,443.074C69.157,442.913 74.024,442.01 74.024,442.01C74.024,442.868 76.848,448.772 80.775,454.357C95.813,475.745 148.219,465.953 148.389,465.833C136.25,464.721 124.45,463.712 107.7,456.424ZM391.683,304.172L391.644,304.307C391.657,304.262 391.67,304.217 391.683,304.172L391.995,303.084L392.426,301.847C392.767,300.87 393.149,299.929 393.58,299.03L392.787,300.048C392.296,301.068 391.855,302.093 391.473,303.121C391.803,302.175 392.125,301.297 392.426,300.479C391.803,301.317 391.202,302.251 390.631,303.273L389.978,304.699L389.335,306.048C388.755,307.219 388.344,308.087 388.103,308.662C387.241,310.464 386.688,311.796 386.447,312.658C383.96,320.824 381.501,329.367 379.104,338.288C376.987,338.938 374.87,339.609 372.763,340.307C371.229,340.846 369.714,341.379 368.219,341.91L367.357,342.223C361.016,344.504 355.79,347.056 351.656,349.876C350.123,350.99 348.275,352.455 346.109,354.262C347.173,354.011 348.105,353.83 348.916,353.719C346.328,355.038 344.766,355.989 344.234,356.572C342.558,357.955 341.955,358.793 342.438,359.081C342.628,359.142 343.008,359.189 343.591,359.22L344.304,359.224L345.096,359.215C345.386,359.21 345.577,359.268 345.678,359.388L345.817,359.577L345.899,359.779C346.038,360.185 346.439,360.297 347.112,360.118L344.022,361.946C344.022,362.038 344.213,361.983 344.594,361.762L345.166,361.433L345.817,361.023C346.932,360.322 347.383,360.21 347.192,360.681C346.661,360.883 346.038,361.242 345.317,361.767L343.441,362.994C343.591,363.062 343.922,362.974 344.453,362.729L345.166,362.44L345.899,362.013C347.192,361.331 347.865,361.13 347.905,361.408C347.764,361.484 347.474,361.613 347.041,361.794L345.747,362.331C344.646,362.737 344.114,363.13 344.162,363.503C344.162,363.55 344.404,363.456 344.885,363.22L345.466,362.891L346.038,362.635C344.114,363.919 342.958,364.911 342.579,365.61C342.146,366.316 342.768,366.364 344.453,365.752C344.263,365.886 343.952,366.067 343.521,366.292L342.508,366.845C341.734,367.238 341.324,367.536 341.284,367.735C341.383,367.624 341.574,367.488 341.855,367.336L342.798,366.797L341.926,367.391C341.696,367.58 341.524,367.709 341.425,367.776L341.785,367.924C341.936,367.894 342.136,367.801 342.377,367.638L341.926,367.971C342.125,368.075 342.508,368.1 343.09,368.032L345.537,367.419C346.439,367.192 347.072,366.996 347.403,366.835C353.693,363.503 375.742,354.415 375.742,354.415C375.742,354.415 367.075,390.183 362.367,417.149C361.841,420.165 360.926,429.12 360.916,432.97C356.914,435.655 348.245,440.907 345.537,438.083C341.494,433.87 350.283,404.383 350.283,404.383C349.711,405.168 349.208,405.814 348.778,406.334L349.208,405.099L349.57,403.948C349.761,403.192 349.831,402.648 349.78,402.324C350.02,400.735 349.831,400.032 349.208,400.203C349.009,400.285 348.708,400.489 348.275,400.814L347.695,401.285L347.112,401.687C346.932,401.913 346.731,402.026 346.541,402.015L346.25,401.995L346.038,401.968C345.658,401.85 345.267,402.067 344.885,402.62L345.899,399.83C345.798,399.756 345.678,399.899 345.537,400.263L345.386,400.799L345.166,401.414C344.835,402.442 344.574,402.78 344.383,402.432C344.625,402.051 344.835,401.48 345.026,400.722L345.247,399.815L345.537,398.968C345.338,399.005 345.125,399.236 344.885,399.669L344.594,400.3L344.304,401.005C343.832,402.154 343.492,402.678 343.3,402.57C343.3,402.472 343.42,402.236 343.662,401.85L344.234,400.731C344.713,399.821 344.835,399.294 344.594,399.149C344.503,399.117 344.364,399.314 344.162,399.736L343.952,400.285L343.801,400.814C344.333,398.84 344.524,397.552 344.383,396.958C344.192,396.325 343.611,396.722 342.657,398.157C342.748,397.947 342.888,397.654 343.09,397.277L343.521,396.261C343.952,395.41 344.234,394.753 344.383,394.29L344.093,394.777L343.801,395.41C343.561,395.893 343.401,396.238 343.3,396.448L344.162,394.409L343.662,394.649C343.329,395.242 343.059,395.774 342.869,396.242L343.441,394.836C343.059,395.101 342.657,395.448 342.217,395.864L341.425,396.958L340.563,398.055C339.989,398.795 339.629,399.345 339.488,399.707C337.411,405.03 333.53,417.342 331.532,426.972L331.524,426.968C331.332,424.7 330.849,422.634 330.078,420.763C329.165,418.446 327.729,416.444 325.755,414.76C323.787,413.028 321.6,411.841 319.203,411.206C316.514,410.475 313.676,410.45 310.696,411.122C308.299,411.636 305.711,412.441 303.213,414.015C294.364,419.571 282.897,431.929 282.897,431.929L285.054,422.232C285.054,422.232 315.311,384.824 322.514,372.672C327.37,364.429 331.11,357.22 333.749,351.041C335.767,346.326 337.161,342.168 337.933,338.56C338.504,335.807 338.746,333.313 338.656,331.072C338.554,329.412 338.244,327.956 337.933,326.603C336.688,321.197 331.061,319.936 329.285,319.418L328.563,319.197L327.409,318.991C326.737,318.834 326.024,318.755 325.252,318.761C322.424,318.589 319.535,319.15 316.605,320.506C275.695,339.522 267.258,466.868 267.258,466.868C267.258,466.868 278.864,459.896 282.176,457.428C283.75,452.901 287.201,446.756 288.304,445.001C289.208,443.525 290.222,442.009 291.324,440.451L292.909,438.344L293.993,436.838C297.063,432.881 300.062,429.631 302.992,427.097C306.161,424.223 309.052,422.512 311.64,421.964C313.034,421.645 314.378,421.719 315.671,422.192C316.965,422.704 318.099,423.496 319.052,424.56C319.584,425.178 320.046,425.975 320.427,426.957C320.427,426.957 302.732,431.471 287.653,451.247C286.167,453.203 274.835,472.043 288.517,476.939C295.688,479.505 306.071,471.763 310.194,468.271C313.365,465.592 316.415,462.383 319.344,458.651C320.878,456.715 322.134,454.96 323.097,453.384C324.339,451.457 325.443,449.569 326.406,447.699C328.021,444.437 329.276,441.283 330.168,438.243C330.018,444.332 329.195,455.411 337.328,457.276C345.653,459.187 358.689,443.625 361.458,439.567C362.45,446.785 365.052,452.541 371.641,452.049C379.061,451.498 390.199,443.464 397.402,437.932C397.964,438.599 398.555,439.242 399.198,439.854C402.468,443.058 406.749,444.849 411.162,444.328C416.941,444.007 424.432,439.833 432.563,429.776C434.383,435.232 444.014,437.266 449.791,435.768C461.943,432.618 472.267,421.882 468.258,408.078C465.077,397.168 449.95,400.434 444.251,392.082C440.951,387.249 451.545,381.264 456.962,380.951C464.415,380.516 464.476,383.128 461.948,384.691C463.061,384.326 464.295,383.839 465.639,383.227C464.556,383.951 463.252,384.666 461.747,385.357C461.486,385.495 461.206,385.642 460.904,385.779C460.683,385.861 460.424,385.975 460.122,386.111C459.53,386.363 459.168,386.518 459.039,386.573C458.706,386.714 458.366,386.853 458.006,386.99C457.775,387.073 457.493,387.171 457.172,387.283C456.58,387.479 456.2,387.602 456.028,387.66C455.607,387.829 455.507,387.984 455.738,388.12C456.2,388.343 457.434,388.4 459.43,388.285C459.86,388.235 460.14,388.235 460.272,388.285C460.342,388.317 460.372,388.357 460.372,388.415L460.424,388.578C460.483,388.831 461.105,388.806 462.289,388.495C460.283,389.253 458.336,389.78 456.43,390.089C456.399,390.171 456.761,390.145 457.514,390C458.297,389.861 459.079,389.669 459.831,389.415C460.122,389.332 460.502,389.211 460.953,389.042L461.848,388.749C462.339,388.611 462.449,388.65 462.188,388.876L461.355,389.169L460.462,389.463C459.81,389.66 459.198,389.837 458.647,390C457.262,390.366 456.019,390.577 454.905,390.632C455.136,390.742 455.706,390.757 456.621,390.675C457.644,390.561 458.607,390.381 459.53,390.131C459.962,390.018 460.424,389.879 460.904,389.709L461.545,389.544L462.098,389.376C462.781,389.155 463.111,389.082 463.072,389.169C462.319,389.559 461.025,389.95 459.188,390.341C458.828,390.391 458.416,390.464 457.954,390.545L457.414,390.675L456.921,390.757C456.2,390.87 455.809,390.983 455.738,391.091C455.717,391.127 455.933,391.122 456.254,391.098C455.534,391.213 454.869,391.42 454.112,391.468C453.53,391.521 452.92,391.553 452.298,391.553L451.013,391.553C450.359,391.576 450.26,391.676 450.721,391.846C450.882,391.926 451.043,391.984 451.215,392.011C451.474,392.096 451.734,392.163 451.997,392.219C452.748,392.36 453.57,392.447 454.464,392.473C452.859,392.528 451.244,392.347 449.638,391.926C448.194,391.595 446.669,391.033 445.054,390.252C445.435,390.479 445.887,390.695 446.373,390.907C446.036,390.769 445.598,390.649 445.304,390.504C445.465,390.642 445.695,390.827 445.986,391.048C446.819,391.479 447.672,391.825 448.555,392.076C447.792,391.87 447.071,391.626 446.388,391.343C447.14,391.846 448.023,392.292 449.047,392.683C450.912,393.296 464.576,396.879 470.956,388.415C479.383,377.222 471.076,367.297 459.499,368.855C446.217,370.643 437.67,377.809 434.128,386.985C419.281,368.748 389.607,391.895 393.41,428.478C388.233,431.486 382.586,434.08 379.746,433.122C374.63,431.397 375.737,419.051 391.089,349.854C391.531,349.767 403.06,344.785 427.849,343.728C449.027,342.819 463.773,344.919 468.238,345.675L463.803,344.525L469.793,344.423C469.793,344.423 464.114,343.669 463.311,343.569C455.767,342.639 453.25,341.262 454.053,340.81C454.374,340.611 455.096,340.409 456.229,340.214L457.775,340.015L459.36,339.753C459.97,339.675 460.363,339.557 460.523,339.405L460.654,339.208L460.683,338.885C460.765,338.473 461.595,338.263 463.172,338.248C463.172,338.248 463.672,338.062 462.991,337.673C461.907,337.611 460.372,337.419 458.386,337.097L456.019,336.701L453.682,336.399C453.952,336.285 454.684,336.258 455.898,336.316C456.381,336.347 456.951,336.39 457.605,336.439L459.53,336.651C462.71,336.969 464.255,336.994 464.165,336.738C463.793,336.64 463.09,336.567 462.057,336.532L460.573,336.502L459.007,336.439C456.41,336.307 455.046,336.043 454.926,335.66C454.854,335.576 455.418,335.587 456.6,335.684C457.002,335.742 457.483,335.807 458.065,335.88C458.426,335.901 458.778,335.938 459.118,335.988C447.763,334.247 446.028,333.326 453.902,333.228C452.769,333.145 450.984,333.049 448.555,332.93L447.111,332.839C447.111,332.839 448.233,332.748 449.167,332.853L447.773,332.695L446.327,332.597C445.194,332.517 444.079,332.5 442.986,332.547L444.352,332.191C445.595,332.131 448.314,332.207 448.023,332.191C446.92,332.12 445.896,332.062 444.935,332.018C446.047,331.756 447.241,331.554 448.524,331.416L450.24,331.381L451.886,331.308C453.309,331.233 454.374,331.195 455.056,331.206C457.243,331.107 458.828,331.127 459.81,331.257C463.923,331.689 441.171,328.489 418.63,330.631C399.198,332.474 393.961,333.95 393.961,333.95L396.459,320.511L394.232,325.484L395.094,322.509C395.386,321.396 395.626,320.486 395.818,319.776C396.289,317.856 396.56,316.557 396.61,315.873C397.373,312.175 397.422,310.577 396.751,311.091C396.459,311.291 396.028,311.831 395.456,312.713L394.733,313.933L393.94,315.17C393.65,315.657 393.41,315.939 393.218,316.028L393.009,316.069L392.718,315.982C392.336,315.909 391.855,316.531 391.274,317.846L393.218,311.13C393.12,311.051 392.957,311.42 392.718,312.238C392.617,312.54 392.506,312.973 392.357,313.531L391.995,314.897C391.323,317.333 390.941,318.201 390.841,317.496C391.183,316.565 391.564,315.222 391.995,313.454L392.506,311.345L393.078,309.284C392.889,309.465 392.597,310.075 392.215,311.106C392.075,311.522 391.905,312.012 391.714,312.576L391.202,314.256C390.34,317.018 389.808,318.324 389.617,318.164C389.668,317.821 389.857,317.208 390.199,316.326L390.702,315.076L391.202,313.752C392.016,311.527 392.286,310.301 391.995,310.07C391.945,309.983 391.753,310.454 391.412,311.478C391.323,311.831 391.202,312.263 391.061,312.771C390.952,313.08 390.862,313.382 390.771,313.686C393.339,303.603 393.169,301.836 390.269,308.39C390.61,307.409 391.152,305.887 391.924,303.818L392.357,302.581L392.857,301.333C393.198,300.352 393.56,299.442 393.94,298.598C393.46,299.558 393.009,300.583 392.577,301.676C392.207,302.56 391.909,303.394 391.683,304.172ZM314.595,447.239C305.204,462.789 296.515,466.756 293.027,465.837C287.025,464.258 289.749,456.233 292.448,451.448C303.733,431.507 320.728,427.745 320.728,427.745C320.93,428.622 321.032,429.446 321.02,430.207C320.929,435.793 316.149,444.666 314.595,447.239ZM250.548,366.099C250.548,366.099 243.482,413.082 235.617,412.922C233.046,412.87 232.623,408.31 232.754,403.543C232.663,401.685 233.637,390.396 235.026,379.093C235.026,379.093 219.661,381.473 219.566,381.783C214.751,397.352 202.836,435.576 197.094,430.417C195.962,429.4 195.154,426.577 196.399,417.898C198.086,406.132 201.431,393.396 202.151,390.21C201.735,391 200.866,391.779 200.145,393.5C201.598,388.173 201.188,386.996 201.188,385.332C201.449,383.144 201.529,381.613 201.449,380.731C201.358,379.981 201.167,379.8 200.867,380.201C200.696,380.447 200.395,381.084 199.975,382.107L199.332,383.514L198.69,384.854C198.479,385.411 198.289,385.744 198.108,385.862L197.918,385.902L197.667,385.886C197.275,385.831 196.854,386.512 196.382,387.931C196.985,385.165 197.426,382.789 197.727,380.813C197.647,380.785 197.536,381.191 197.406,382.023L197.275,382.631L197.216,383.343L196.964,384.803C196.744,385.96 196.554,386.807 196.382,387.351C196.213,387.984 196.081,388.068 196.001,387.618C196.342,386.4 196.613,384.979 196.834,383.354L197.155,381.176L197.346,379.029C197.216,379.265 197.044,379.917 196.834,380.986L196.703,381.716L196.512,382.523L196.192,384.187C195.589,387.166 195.189,388.548 194.977,388.332C195.019,388.064 195.169,387.438 195.419,386.449L195.741,385.169L196.131,383.75C196.684,381.418 196.814,380.154 196.512,379.96C196.423,379.933 196.302,380.427 196.131,381.444L196.062,382.098L195.931,382.76C195.851,383.287 195.761,383.714 195.681,384.029C195.98,382.005 196.152,380.176 196.192,378.55C196.192,377.133 196.081,376.134 195.871,375.533C195.7,375.054 195.53,375.025 195.359,375.439C195.229,375.804 194.998,376.918 194.657,378.779C194.827,377.335 194.887,375.98 194.847,374.706C194.847,373.168 194.657,372.203 194.266,371.807L194.266,371.87C194.396,372.06 194.527,372.502 194.657,373.207C194.737,373.874 194.788,374.526 194.788,375.167C194.697,373.687 194.506,372.655 194.205,372.075L194.014,372.625C194.096,372.966 194.155,373.407 194.205,373.955C194.155,373.555 194.065,373.202 193.945,372.893C193.945,372.893 186.083,404.144 183.837,429.719C179.103,435.116 172.44,438.962 170.3,436.607C168.5,434.627 169.35,427.539 169.962,423.109C172.424,405.346 175.155,396.883 175.617,394.87L163.939,393.24C163.307,395.025 162.735,396.791 162.184,398.395C160.86,397.367 159.053,394.785 153.641,395.221C152.614,395.305 151.671,395.473 150.817,395.77C148.259,396.606 145.691,398.085 143.133,400.208C141.377,401.697 139.545,403.395 137.876,405.519C124.704,422.284 122.708,433.864 122.243,439.191C120.638,457.598 132.259,457.521 140.327,452.781C149.792,447.223 161.728,425.816 161.728,425.816C161.728,425.816 160.445,435.768 160.338,440.048C160.244,443.786 160.887,449.655 164.62,450.385C170.85,451.605 181.117,442.167 184.504,436.948C184.693,440.019 188.731,447.002 195.65,446.468C210.498,445.326 222.596,408.61 222.596,408.61C222.596,408.61 223.512,421.192 227.645,426.244C230.533,429.775 233.531,430.738 237.704,428.651C252.957,421.026 263.054,370.898 263.054,370.898L250.548,366.099ZM135.097,440.651C133.163,438.653 135.679,432.331 137.144,428.249C139.899,420.573 147.241,410.63 148.822,408.74C147.853,409.346 146.81,410.113 145.691,411.049C145.776,410.952 145.862,410.851 145.942,410.745C145.841,410.834 145.742,410.916 145.641,410.999C146.579,409.838 147.668,408.709 148.902,407.614C149.293,407.281 149.745,406.916 150.25,406.521L150.506,406.34L150.702,406.177C150.872,406.011 150.998,405.903 151.089,405.844C151.555,405.54 152.001,405.261 152.432,405.005L152.945,404.78L153.264,404.588C153.651,404.383 153.776,404.168 153.651,403.937C153.631,403.898 153.607,403.864 153.566,403.835C153.385,403.677 153.075,403.568 152.613,403.495C151.976,403.362 151.314,403.34 150.628,403.433C150.176,403.55 149.865,403.51 149.684,403.315C149.589,403.242 149.524,403.145 149.484,403.011L149.432,402.873C149.358,402.854 149.262,402.832 149.156,402.82C148.852,402.832 148.345,403.04 147.618,403.437C147.798,403.315 147.968,403.198 148.149,403.084C147.968,403.171 147.777,403.267 147.557,403.387C149.745,401.898 151.791,401.03 153.717,400.784C153.736,400.751 153.747,400.731 153.736,400.712C153.607,400.664 153.256,400.718 152.684,400.854C151.741,401.035 150.882,401.355 150.115,401.799C149.774,401.953 149.367,402.159 148.902,402.421L148.45,402.765L147.998,402.981C147.687,403.183 147.527,403.232 147.517,403.13C147.432,403.124 147.447,403.017 147.557,402.811C148.932,401.947 150.185,401.276 151.345,400.794C152.924,400.193 154.333,400.002 155.573,400.233C155.563,400.217 155.552,400.204 155.533,400.187C155.281,399.991 154.69,399.904 153.767,399.942C152.573,399.996 151.459,400.257 150.437,400.712C149.964,400.89 149.453,401.138 148.902,401.462L148.259,401.839L147.682,402.143C146.915,402.59 146.543,402.75 146.594,402.61L146.6,402.605C146.543,402.616 146.524,402.599 146.534,402.561C146.875,402.236 147.432,401.873 148.199,401.466C149.102,400.952 149.975,400.566 150.828,400.321C151.259,400.193 151.725,400.057 152.243,399.915L152.884,399.792L153.456,399.746C154.313,399.58 154.8,399.442 154.93,399.33C154.934,399.325 154.941,399.319 154.941,399.31C154.82,399.278 154.495,399.278 153.957,399.325C153.145,399.395 152.382,399.525 151.65,399.708C151.89,399.626 152.138,399.55 152.378,399.482C152.112,399.535 151.85,399.59 151.6,399.658C153.396,399.051 155.081,398.851 156.66,399.057C157.348,399.184 158.031,399.35 158.713,399.561L161.22,401.044C156.652,413.511 140.006,445.719 135.097,440.651ZM436.727,416.169C436.932,415.802 437.026,415.605 437.026,415.605C436.921,415.794 436.821,415.982 436.727,416.169C435.698,418.018 431.876,424.171 423.221,431.122C416.158,436.792 408.437,435.101 407.162,431.358C417.583,425.924 431.494,414.152 434.551,399.937C443.319,407.775 451.465,405.162 454.584,412.156C458.688,421.371 444.302,429.624 438.844,427.59C435.822,426.463 433.941,421.709 436.727,416.169ZM71.155,426.768L79.827,391.278C88.268,388.282 116.036,377.02 124.17,387.897C126.398,390.879 126.394,395.227 124.17,399.492C121.232,405.123 113.897,414.474 97.203,421.107C80.446,427.769 71.155,426.768 71.155,426.768ZM407.726,403.285C410.745,396.883 417.215,388.179 422.723,391.71C427.397,394.71 423.771,403.948 418.225,410.621C411.377,418.86 404.314,421.857 404.314,421.857C404.314,421.857 402.869,413.577 407.726,403.285ZM296.601,377.099C301.447,362.904 306.424,351.736 311.508,343.595C314.298,339.018 316.865,335.88 319.224,334.176C320.618,333.228 323.568,333.326 322.393,339.322C318,361.561 287.892,406.93 287.892,406.93C290.381,397.082 293.722,385.533 296.601,377.099ZM347.471,372.879C347.502,372.991 347.589,373.048 347.714,373.041L348.199,373.016C348.608,372.997 348.843,373.069 348.903,373.243C348.943,373.286 348.809,373.446 348.504,373.726L348.182,374.073C348.03,374.21 347.936,374.347 347.917,374.482C348.016,375.051 348.378,375.563 348.996,376.012C349.408,376.305 350.018,376.596 350.835,376.911C351.051,376.983 351.118,377.113 351.055,377.293L351.016,377.561L350.846,377.766C351.424,377.824 352.047,378.101 352.704,378.595L353.514,379.08C353.851,379.239 354.204,379.353 354.552,379.424L354.372,379.695L354.134,379.972C353.96,380.204 353.868,380.403 353.842,380.584C353.912,380.756 354.161,381.073 354.595,381.536C354.835,382.05 355.175,382.716 355.6,383.528L356.011,384.504L356.489,385.398L356.251,385.678L356.642,385.787L356.7,385.852L356.443,386.193C356.394,386.283 356.38,386.374 356.406,386.457C356.447,386.503 356.587,386.518 356.816,386.506C356.838,386.945 356.826,387.365 356.769,387.763L355.886,388.273L356.354,388.314C356.421,388.44 356.319,388.555 356.03,388.661L355.735,388.805C355.636,388.9 355.628,388.966 355.708,389.005C355.748,389.047 355.838,389.087 355.964,389.127L356.373,389.172C356.066,390.019 355.519,391.017 354.724,392.161C354.719,392.205 354.528,392.28 354.155,392.386L353.735,392.479L353.232,392.634L352.471,392.74L352.566,392.535C352.521,392.581 352.416,392.656 352.271,392.75L351.929,392.765L352.108,392.428L351.956,392.566L351.784,392.774L351.718,392.78C351.732,392.69 351.794,392.578 351.909,392.439L352.127,392.295L352.213,392.157C351.74,392.363 351.331,392.379 350.984,392.22C350.679,392.104 350.51,391.893 350.469,391.589L350.375,391.724C350.321,391.771 350.278,391.798 350.231,391.8C349.915,391.77 349.86,391.687 350.06,391.545L350.354,391.397C350.455,391.349 350.479,391.324 350.432,391.326C350.217,391.296 350.049,391.344 349.936,391.483L349.774,391.688C349.673,391.735 349.536,391.771 349.355,391.78L349.394,391.512C349.365,391.379 349.397,391.291 349.498,391.244C349.187,391.169 349.031,391.202 349.011,391.333L348.985,391.532C348.978,391.577 348.902,391.581 348.774,391.543L348.964,391.139C348.776,391.19 348.482,391.205 348.079,391.183L347.621,391.074L347.212,391.094C345.709,391.173 344.797,391.069 344.47,390.777C344.302,390.695 344.295,390.475 344.431,390.12L343.518,390.362L342.411,389.494C341.998,388.943 341.98,388.263 342.36,387.452L342.378,387.317C342.735,386.725 343.122,385.584 343.54,383.889C343.972,382.105 344.09,381.001 343.875,380.569L344.452,378.89L344.698,378.083L344.971,377.149C345.605,375.529 346.44,374.099 347.465,372.855L347.471,372.879Z" style="fill-rule:nonzero;"/>
                </g>
                <g transform="matrix(7.87893,0,0,7.87893,-111.853,-510.353)">
                    <path d="M106.027,107.309C101.716,98.823 92.9,93.003 82.734,93.003C72.617,93.003 63.837,98.767 59.504,107.187C61.398,107.172 65.908,107.338 71.108,108.948C71.43,108.665 71.67,108.347 71.774,107.965C72.014,107.062 71.446,106.105 70.843,105.094C70.586,104.662 70.119,103.879 70.099,103.569C70.378,103.426 71.31,103.442 71.82,103.448C72.985,103.465 74.092,103.481 74.745,102.829C75.398,102.177 75.38,101.074 75.364,99.906C75.358,99.394 75.344,98.464 75.485,98.185C75.797,98.206 76.579,98.673 77.012,98.929C78.024,99.531 78.978,100.101 79.884,99.859C80.758,99.625 81.29,98.675 81.852,97.667C82.123,97.184 82.625,96.285 82.825,96.192C83.086,96.284 83.59,97.184 83.859,97.667C84.421,98.675 84.951,99.625 85.827,99.859C86.727,100.1 87.685,99.533 88.699,98.929C89.132,98.673 89.914,98.206 90.224,98.185C90.367,98.464 90.353,99.394 90.345,99.906C90.329,101.074 90.313,102.177 90.966,102.829C91.617,103.481 92.726,103.464 93.891,103.448C94.401,103.442 95.333,103.427 95.612,103.569C95.592,103.879 95.125,104.662 94.868,105.095C94.265,106.106 93.697,107.063 93.938,107.965C94.053,108.394 94.34,108.741 94.722,109.048C98.118,108.002 101.88,107.397 106.027,107.309M82.734,104.657C86.882,104.667 88.122,108.025 88.122,108.025C88.122,108.025 87.078,108.205 85.044,109.335C83.814,110.017 82.734,110.873 82.734,110.873C82.734,110.873 81.088,109.653 79.84,109.007C77.793,107.951 77.56,108.025 77.56,108.025C77.56,108.025 78.907,104.647 82.734,104.657M92.619,109.769C92.04,104.899 87.884,101.109 82.856,101.109C77.876,101.109 73.752,104.826 73.111,109.631C76.397,110.857 79.556,112.527 82.734,115.258C85.491,112.907 88.972,111.151 92.619,109.769M82.734,120.335C82.435,120.006 78.46,115.641 71.296,112.813L71.268,112.802L71.238,112.789L71.207,112.778L71.193,112.773C71.161,112.759 71.126,112.747 71.094,112.734L71.084,112.731L71.078,112.728L71.05,112.716L70.981,112.69L70.959,112.682L70.946,112.677L70.92,112.667L70.869,112.648L70.833,112.634L70.793,112.618L70.756,112.605L70.706,112.587L70.679,112.576L70.645,112.564L70.576,112.538L70.538,112.524C70.499,112.51 70.459,112.496 70.418,112.481L70.412,112.478L70.36,112.459L70.309,112.441L70.299,112.438L70.277,112.429L70.224,112.412L70.198,112.401L70.182,112.396L70.141,112.382L70.099,112.366L70.068,112.356C69.713,112.232 69.351,112.113 68.982,111.998L68.98,111.997C68.892,111.968 68.8,111.942 68.709,111.914L68.654,111.897L68.624,111.889L68.592,111.879C62.23,109.987 56.844,110.482 54.555,110.846C58.123,98.662 69.397,89.753 82.734,89.753C94.762,89.753 105.112,97 109.645,107.361L109.647,107.367C110.074,108.342 110.448,109.346 110.768,110.374C108.152,110.186 95.784,109.779 85.861,117.809C84.727,118.712 82.902,120.157 82.734,120.335M107.236,116.79L107.222,116.79C106.425,116.79 105.626,116.826 104.853,116.897C103.777,116.994 102.715,117.162 101.676,117.379L101.676,122.332L107.236,116.79ZM58.459,116.79L58.447,116.79L64.006,122.332L64.006,117.379C62.966,117.162 61.903,116.994 60.827,116.897C60.059,116.826 59.266,116.79 58.459,116.79M103.838,124.472L108.28,124.472C108.618,122.865 108.808,121.204 108.834,119.503L103.838,124.472ZM61.843,124.472L56.647,119.302C56.658,121.069 56.84,122.801 57.189,124.472L61.843,124.472ZM73.94,128.18L73.94,121.863C74.666,122.404 76.209,123.744 76.296,123.825C75.57,124.995 74.727,126.481 73.94,128.18M98.5,118.286C98.227,118.38 97.965,118.475 97.699,118.581C97.058,118.834 96.429,119.11 95.814,119.41C95.497,119.569 95.179,119.726 94.872,119.894L94.811,119.928L94.811,129.161C94.811,129.161 96.126,127.853 97.21,126.774C98.11,125.878 98.618,124.659 98.618,123.389L98.618,118.244L98.5,118.286ZM67.064,123.389C67.064,124.659 67.571,125.878 68.471,126.774C69.555,127.853 70.872,129.161 70.872,129.161L70.872,119.928L70.839,119.91C70.524,119.736 70.196,119.574 69.868,119.41C69.251,119.11 68.622,118.834 67.983,118.581C67.68,118.46 67.378,118.352 67.064,118.244L67.064,123.389ZM62.904,127.514L58.024,127.514C58.459,128.777 58.991,130.002 59.608,131.168L59.608,131.181L68.586,131.181L66.315,128.921C65.409,128.02 64.183,127.514 62.904,127.514M107.444,127.514L102.776,127.514C101.498,127.514 100.272,128.02 99.366,128.921C98.326,129.956 97.095,131.181 97.095,131.181L105.867,131.181C106.482,130.008 107.009,128.783 107.444,127.514M90.321,133.628C91.229,132.723 91.741,131.495 91.741,130.212L91.741,121.863C91.017,122.404 90.315,122.97 89.649,123.582C89.336,123.871 89.02,124.16 88.731,124.46C88.393,124.797 88.065,125.145 87.752,125.494L87.752,136.182C87.752,136.182 89.174,134.767 90.321,133.628M71.654,134.183L71.201,137.023L64.039,137.186C63.811,136.97 63.364,136.516 63.206,136.347C62.482,135.566 62.122,135.064 61.493,134.199L71.654,134.183ZM104.01,134.199L96.136,134.199C94.845,134.199 93.605,134.705 92.681,135.608C91.633,136.633 90.4,137.841 90.4,137.841L100.875,137.841C102.028,136.728 103.078,135.508 104.01,134.199M70.77,139.888C70.679,140.653 70.617,141.361 70.572,142.003C69.874,141.637 67.769,140.293 67.124,139.888L70.77,139.888ZM84.704,129.717C84.694,129.728 84.694,129.738 84.694,129.738C84.502,130.062 82.732,133 81.976,136.411C81.191,139.948 81.059,143.504 81.059,143.504C81.059,143.504 82.493,141.816 83.563,140.557C84.302,139.689 84.706,138.586 84.706,137.447L84.706,129.715L84.704,129.717ZM84.682,144.874L84.694,144.874C85.709,144.814 86.7,144.707 87.68,144.525C87.704,144.525 87.716,144.514 87.74,144.514C89.117,144.273 90.448,143.925 91.729,143.468C91.777,143.444 91.838,143.432 91.886,143.408C92.878,143.059 93.845,142.639 94.775,142.169L95.088,142.013C95.766,141.665 96.429,141.28 97.083,140.871L89.352,140.871C88.064,140.871 86.83,141.38 85.918,142.289C84.747,143.453 83.28,144.91 83.28,144.91C83.751,144.91 84.223,144.898 84.682,144.874M74.201,147.168C62.156,143.512 53.379,132.317 53.379,119.09C53.379,117.416 53.52,115.775 53.789,114.176C55.878,113.902 60.742,113.493 65.724,114.708C66.454,114.901 67.16,115.107 67.843,115.327C72.223,116.836 75.432,118.842 77.603,120.542C77.801,120.709 77.997,120.879 78.191,121.052L79.346,122.032C79.795,122.451 80.277,122.952 80.592,123.295C72.864,133.489 73.635,143.68 74.201,147.168M78.319,148.098C77.894,145.919 75.93,133.4 84.674,123.974C95.675,112.119 109.226,113.84 111.694,114.273C111.702,114.32 111.708,114.367 111.716,114.415C111.716,114.415 112.101,116.315 112.088,118.936L112.088,119.09C112.088,120.856 111.933,122.586 111.631,124.266C110.869,128.801 108.953,134.21 104.517,138.912C100.09,143.603 95.224,146.048 90.896,147.278C88.305,148.027 85.564,148.429 82.734,148.429L82.673,148.429C81.118,148.432 79.892,148.312 79.124,148.208C78.855,148.175 78.588,148.139 78.319,148.098"/>
                </g>
            </g>
        </g>
    </g>
</svg>
