<?xml version="1.0" encoding="UTF-8" standalone="no"?>
<!DOCTYPE svg PUBLIC "-//W3C//DTD SVG 1.1//EN" "http://www.w3.org/Graphics/SVG/1.1/DTD/svg11.dtd">
<svg width="100%" height="100%" viewBox="0 0 1080 1080" version="1.1" xmlns="http://www.w3.org/2000/svg" xmlns:xlink="http://www.w3.org/1999/xlink" xml:space="preserve" xmlns:serif="http://www.serif.com/" style="fill-rule:evenodd;clip-rule:evenodd;stroke-linejoin:round;stroke-miterlimit:2;">
    <g transform="matrix(1,0,0,1,-1275.92,-1349.43)">
        <g id="id_icon_01_03_2026" transform="matrix(1,0,0,1,1275.92,1349.43)">
            <rect x="0" y="0" width="1080" height="1080" style="fill:none;"/>
            <g transform="matrix(0.574002,0,0,0.583539,356.702,-430.239)">
                <path d="M728.215,1847.5L649.898,1847.5L625.864,1692.74L601.829,1847.5C601.829,1847.5 497.635,1863.68 497.635,1863.68C528.736,1764.03 558.722,1605.35 574.634,1480.42L665.096,1463.58L689.057,1634.49L713.02,1463.57L714.603,1463.59L800.206,1479.71L881.971,1863.61L776.285,1847.5L752.25,1692.74L728.215,1847.5ZM309.344,1492.73L536.36,1480.22C536.36,1480.22 529.2,1555.87 513.617,1630.16C487.206,1756.06 459.079,1846.8 459.079,1846.8L131.308,1863.51L279.428,1635.36L238.078,1635.44L304.183,1503.06L304.216,1503.06L305.304,1500.82L309.344,1492.73ZM883.338,1692.09L928.904,1847.67L1075.79,1863.24L1019.78,1776.75L924.348,1777L913.223,1738.34L1030.97,1738.34L967.071,1634.95L1007.89,1634.88L930.252,1480.2L814.701,1463.31L964.256,1692.17L883.338,1692.09ZM-435.653,1691.61L-375.257,1478.42L-53.207,1461.68L-106.558,1568.46L-354.066,1568.29L-367.535,1614.82L-93.14,1614.55C-93.14,1614.55 -108.746,1688.17 -115.53,1726.89C-128.123,1798.75 -135.037,1848.5 -135.037,1848.5L-437.117,1862.09L-389.534,1691.89L-435.653,1691.61ZM150.569,1692.58L190.277,1692.43L120.436,1834.81L-94.696,1845.16C-94.696,1845.16 -81.916,1738.52 -58.25,1633.37C-33.46,1523.23 -16.723,1480.11 -16.723,1480.11L301.516,1463.71L150.569,1692.58ZM440.788,1590.31C439.334,1598.12 437.782,1606.02 436.128,1613.9C422.618,1678.31 408.657,1733.2 398.505,1770.61C398.505,1770.61 259.022,1777.72 259.022,1777.72L331.214,1628.85C370.991,1621.33 407.999,1608.1 440.788,1590.31ZM-190.569,1692.26L-308.949,1692.16L-331.687,1776.73L-204.302,1770.34L-190.569,1692.26ZM38.179,1571.96C67.429,1592.06 101.159,1608.16 138.017,1619.19L69.94,1757.97C69.94,1757.97 -2.404,1761.45 -2.404,1761.45C3.135,1728.2 10.301,1689.38 18.993,1650.76C26.245,1618.54 32.718,1592.5 38.179,1571.96Z"/>
            </g>
        </g>
    </g>
</svg>
