<?xml version="1.0" encoding="UTF-8" standalone="no"?>
<!DOCTYPE svg PUBLIC "-//W3C//DTD SVG 1.1//EN" "http://www.w3.org/Graphics/SVG/1.1/DTD/svg11.dtd">
<svg width="100%" height="100%" viewBox="0 0 1080 1080" version="1.1" xmlns="http://www.w3.org/2000/svg" xmlns:xlink="http://www.w3.org/1999/xlink" xml:space="preserve" xmlns:serif="http://www.serif.com/" style="fill-rule:evenodd;clip-rule:evenodd;stroke-linejoin:round;stroke-miterlimit:2;">
    <g transform="matrix(1,0,0,1,-1275.92,0)">
        <g id="id_icon_27_06_2023" transform="matrix(1,0,0,1,1275.92,0)">
            <rect x="0" y="0" width="1080" height="1080" style="fill:none;"/>
            <g transform="matrix(0.51407,0,0,0.51407,2348.84,-1185.3)">
                <g transform="matrix(31.2762,0,0,31.2764,-69642.3,-54684.8)">
                    <path d="M2122.6,1843.16L2114.32,1843.16L2114.32,1844.08L2115.24,1844.08L2115.24,1867.4L2114.32,1867.4L2114.32,1868.33L2122.6,1868.33L2122.6,1867.4L2121.68,1867.4L2121.68,1861.25L2130.88,1861.25L2130.88,1867.4L2129.96,1867.4L2129.96,1868.33L2138.23,1868.33L2138.23,1867.4L2137.31,1867.4L2137.31,1844.08L2138.23,1844.08L2138.23,1843.16L2129.96,1843.16L2129.96,1844.08L2130.88,1844.08L2130.88,1850.21L2121.68,1850.21L2121.68,1844.08L2122.6,1844.08L2122.6,1843.16ZM2117.08,1845.08L2118,1845.08L2118,1846.01L2117.08,1846.01L2117.08,1850.66L2118.92,1850.66L2118.92,1851.58L2117.08,1851.58L2117.08,1855.3L2118,1855.3L2118,1856.23L2117.08,1856.23L2117.08,1862.7L2118,1862.7L2118,1863.63L2117.08,1863.63L2117.08,1865.49L2118.92,1865.49L2118.92,1866.41L2117.08,1866.41L2117.08,1867.4L2116.16,1867.4L2116.16,1844.08L2117.08,1844.08L2117.08,1845.08ZM2120.76,1867.4L2119.84,1867.4L2119.84,1861.78L2118.92,1861.78L2118.92,1860.86L2119.84,1860.86L2119.84,1858.98L2118,1858.98L2118,1858.07L2119.84,1858.07L2119.84,1849.71L2118,1849.71L2118,1848.79L2119.84,1848.79L2119.84,1844.09L2120.76,1844.09L2120.76,1867.4ZM2136.39,1867.4L2135.47,1867.4L2135.47,1865.5L2134.55,1865.5L2134.55,1864.57L2135.47,1864.57L2135.47,1858.98L2133.63,1858.98L2133.63,1858.07L2135.47,1858.07L2135.47,1848.79L2134.55,1848.79L2134.55,1847.87L2135.47,1847.87L2135.47,1846L2133.63,1846L2133.63,1845.08L2135.47,1845.08L2135.47,1844.08L2136.39,1844.08L2136.39,1867.4ZM2132.71,1851.59L2134.55,1851.59L2134.55,1852.51L2132.71,1852.51L2132.71,1853.42L2133.63,1853.42L2133.63,1854.35L2132.71,1854.35L2132.71,1860.86L2133.63,1860.86L2133.63,1861.78L2132.71,1861.78L2132.71,1867.4L2131.8,1867.4L2131.8,1844.08L2132.71,1844.08L2132.71,1851.59ZM2121.68,1860.33L2124.96,1860.33L2121.68,1857.05L2121.68,1860.33ZM2121.68,1855.75L2126.26,1860.33L2130.86,1855.75L2126.27,1851.13L2121.68,1855.75ZM2130.88,1857.03L2127.58,1860.33L2130.88,1860.33L2130.88,1857.03ZM2129.52,1855.77L2126.3,1858.98L2126.3,1858.07L2125.38,1858.07L2124.47,1857.16L2126.3,1857.16L2126.3,1856.24L2123.55,1856.24L2123.08,1855.77L2123.55,1855.3L2126.3,1855.3L2126.3,1854.38L2124.47,1854.38L2125.38,1853.47L2126.3,1853.47L2126.3,1852.55L2129.52,1855.77ZM2130.88,1854.45L2127.57,1851.13L2130.88,1851.13L2130.88,1854.45ZM2121.68,1854.44L2121.68,1851.13L2124.97,1851.13L2121.68,1854.44Z"/>
                </g>
                <path d="M-3916.9,3749.42L-4270.7,3749.42L-4270.7,3720.66L-4241.95,3720.66L-4241.95,2991.48L-4270.7,2991.48L-4270.7,2962.72L-3914.4,2962.72L-3913.13,2962.74C-3912.29,2962.74 -3911.45,2962.76 -3910.61,2962.77L-3909.34,2962.79C-3908.92,2962.8 -3908.5,2962.81 -3908.08,2962.82L-3907.19,2962.84C-3903.53,2962.93 -3899.89,2963.08 -3896.23,2963.27C-3894.88,2963.34 -3893.53,2963.42 -3892.19,2963.5L-3890.53,2963.61C-3889.28,2963.7 -3888.03,2963.78 -3886.8,2963.88L-3885.55,2963.98C-3878.3,2964.56 -3871.11,2965.33 -3863.98,2966.3C-3862.16,2966.55 -3860.34,2966.8 -3858.49,2967.08L-3857.28,2967.26L-3856.06,2967.45C-3853.22,2967.9 -3850.38,2968.37 -3847.59,2968.87L-3846.38,2969.09L-3845.62,2969.23C-3843.81,2969.56 -3842,2969.91 -3840.22,2970.26L-3839.18,2970.47L-3838.08,2970.69C-3837.65,2970.78 -3837.22,2970.87 -3836.78,2970.96L-3835.59,2971.21C-3833.4,2971.67 -3831.21,2972.16 -3829.06,2972.65L-3828.45,2972.79C-3828.06,2972.88 -3827.66,2972.97 -3827.27,2973.06L-3826.18,2973.32C-3824.57,2973.7 -3822.96,2974.09 -3821.37,2974.49C-3820.92,2974.6 -3820.48,2974.72 -3820.05,2974.83L-3819.02,2975.09L-3817.84,2975.39C-3815.49,2976.01 -3813.15,2976.64 -3810.83,2977.29L-3809.67,2977.62C-3809.09,2977.78 -3808.51,2977.94 -3807.91,2978.12C-3806.17,2978.62 -3804.44,2979.13 -3802.72,2979.66L-3801.57,2980.01L-3800.41,2980.36L-3799.26,2980.72L-3798.12,2981.09C-3796.21,2981.69 -3794.3,2982.31 -3792.39,2982.95L-3791.26,2983.33C-3790.88,2983.46 -3790.5,2983.59 -3790.12,2983.72L-3788.98,2984.11L-3787.85,2984.5C-3785.91,2985.18 -3783.98,2985.87 -3782.04,2986.57L-3780.8,2987.03L-3779.95,2987.35L-3778.61,2987.85C-3773.83,2989.65 -3769.09,2991.54 -3764.39,2993.52L-3763.29,2993.99C-3761.46,2994.76 -3759.63,2995.56 -3757.82,2996.36C-3752.87,2998.56 -3747.96,3000.85 -3743.12,3003.25L-3742.52,3003.54C-3741.17,3004.21 -3739.83,3004.89 -3738.49,3005.57L-3737.44,3006.11C-3736.65,3006.52 -3735.86,3006.92 -3735.09,3007.33C-3734.12,3007.84 -3733.15,3008.35 -3732.18,3008.86L-3731.14,3009.42C-3730.79,3009.61 -3730.44,3009.8 -3730.09,3009.99L-3729.38,3010.37C-3726.65,3011.86 -3723.93,3013.38 -3721.26,3014.92L-3720.3,3015.47C-3716.17,3017.86 -3712.08,3020.32 -3708.06,3022.85L-3707.51,3023.2C-3704.74,3024.95 -3701.98,3026.73 -3699.27,3028.54L-3698.71,3028.91L-3697.73,3029.57L-3696.75,3030.23C-3694.31,3031.88 -3691.9,3033.55 -3689.49,3035.26C-3683.47,3039.54 -3677.56,3043.98 -3671.8,3048.58C-3670.84,3049.34 -3669.89,3050.11 -3668.94,3050.89C-3667.4,3052.13 -3665.88,3053.39 -3664.36,3054.67L-3663.94,3055.02C-3663.46,3055.42 -3662.98,3055.83 -3662.51,3056.22L-3661.18,3057.36C-3660.88,3057.62 -3660.58,3057.87 -3660.28,3058.13L-3659.53,3058.78C-3656.15,3061.7 -3652.83,3064.68 -3649.57,3067.7C-3648.01,3069.15 -3646.46,3070.61 -3644.93,3072.07C-3642.96,3073.96 -3641.01,3075.86 -3639.08,3077.78L-3637.91,3078.95C-3637.63,3079.23 -3637.36,3079.51 -3637.08,3079.79L-3636.43,3080.45C-3635.74,3081.15 -3635.05,3081.86 -3634.36,3082.57L-3633.72,3083.23L-3632.69,3084.3L-3631.58,3085.47C-3630.83,3086.26 -3630.08,3087.05 -3629.34,3087.85C-3628.48,3088.77 -3627.62,3089.69 -3626.77,3090.62C-3622.92,3094.83 -3619.15,3099.12 -3615.48,3103.49L-3614.93,3104.14L-3614.17,3105.05C-3613.92,3105.35 -3613.67,3105.65 -3613.42,3105.95L-3612.77,3106.75C-3606.58,3114.28 -3600.66,3122.05 -3595.02,3130.04C-3594.48,3130.8 -3593.94,3131.57 -3593.41,3132.35L-3592.56,3133.58L-3591.95,3134.45C-3590.62,3136.41 -3589.29,3138.38 -3587.98,3140.37C-3587,3141.86 -3586.03,3143.35 -3585.07,3144.86C-3584.77,3145.33 -3584.47,3145.8 -3584.17,3146.27L-3583.39,3147.5C-3582.28,3149.28 -3581.18,3151.06 -3580.09,3152.85C-3578.42,3155.61 -3576.78,3158.39 -3575.18,3161.19C-3574.47,3162.42 -3573.77,3163.66 -3573.08,3164.91C-3572.57,3165.82 -3572.06,3166.73 -3571.56,3167.65L-3570.81,3169.03C-3569.27,3171.86 -3567.76,3174.72 -3566.3,3177.59C-3564.6,3180.89 -3562.96,3184.23 -3561.36,3187.59L-3560.73,3188.9C-3559.73,3191.03 -3558.75,3193.17 -3557.78,3195.32C-3557.51,3195.93 -3557.23,3196.54 -3556.96,3197.15L-3556.48,3198.24L-3556.02,3199.28C-3554.87,3201.92 -3553.75,3204.58 -3552.65,3207.25L-3552.22,3208.3C-3549.9,3214.01 -3547.7,3219.79 -3545.64,3225.64L-3545.11,3227.17L-3544.72,3228.3C-3544.59,3228.68 -3544.45,3229.06 -3544.33,3229.44L-3544.04,3230.28C-3543.7,3231.28 -3543.37,3232.27 -3543.04,3233.27C-3542.52,3234.86 -3542.01,3236.45 -3541.5,3238.04C-3541.17,3239.11 -3540.84,3240.17 -3540.51,3241.23C-3539.69,3243.92 -3538.89,3246.62 -3538.13,3249.34C-3537.93,3250.04 -3537.74,3250.74 -3537.54,3251.43C-3536.55,3255.05 -3535.6,3258.68 -3534.7,3262.34L-3534.46,3263.31L-3534.18,3264.5L-3533.96,3265.4C-3533.87,3265.79 -3533.78,3266.18 -3533.68,3266.58L-3533.42,3267.73C-3532.73,3270.72 -3532.08,3273.71 -3531.46,3276.73C-3531.14,3278.24 -3530.84,3279.75 -3530.55,3281.26L-3530.39,3282.08C-3530.32,3282.48 -3530.24,3282.88 -3530.17,3283.28L-3529.97,3284.32C-3529.84,3285.01 -3529.72,3285.71 -3529.59,3286.41C-3529.41,3287.41 -3529.24,3288.41 -3529.06,3289.42C-3528.5,3292.69 -3527.98,3295.98 -3527.5,3299.27L-3527.36,3300.23C-3527.31,3300.64 -3527.25,3301.04 -3527.19,3301.45L-3527.1,3302.12C-3526.81,3304.24 -3526.53,3306.35 -3526.28,3308.48C-3526.18,3309.24 -3526.09,3309.99 -3526.01,3310.75C-3525.92,3311.49 -3525.84,3312.23 -3525.76,3312.97L-3525.68,3313.72C-3525.63,3314.13 -3525.59,3314.54 -3525.54,3314.95L-3525.45,3315.89C-3525.38,3316.57 -3525.31,3317.25 -3525.24,3317.93C-3524.6,3324.58 -3524.12,3331.26 -3523.82,3337.99C-3523.66,3341.37 -3523.55,3344.77 -3523.48,3348.18C-3523.45,3349.88 -3523.42,3351.57 -3523.41,3353.26C-3523.4,3354.24 -3523.4,3355.23 -3523.4,3356.23C-3523.4,3357.83 -3523.41,3359.43 -3523.43,3361.05C-3523.44,3361.8 -3523.45,3362.55 -3523.46,3363.32L-3523.47,3363.84C-3523.48,3364.26 -3523.49,3364.68 -3523.5,3365.1L-3523.52,3366.17C-3523.75,3375.32 -3524.29,3384.4 -3525.14,3393.38C-3525.48,3396.98 -3525.86,3400.55 -3526.3,3404.14L-3526.49,3405.67C-3527.56,3414.21 -3528.91,3422.66 -3530.53,3431.04L-3530.74,3432.11L-3530.91,3433C-3530.99,3433.4 -3531.07,3433.8 -3531.15,3434.2L-3531.34,3435.13C-3531.61,3436.45 -3531.89,3437.78 -3532.18,3439.11C-3532.34,3439.87 -3532.51,3440.63 -3532.67,3441.38L-3532.94,3442.57C-3533.05,3443.06 -3533.16,3443.55 -3533.27,3444.04C-3534.13,3447.81 -3535.05,3451.56 -3536.03,3455.31C-3536.27,3456.24 -3536.51,3457.17 -3536.76,3458.08C-3538.11,3463.11 -3539.56,3468.1 -3541.1,3473.06L-3541.46,3474.21C-3542.55,3477.67 -3543.69,3481.11 -3544.87,3484.54L-3545.32,3485.82C-3545.74,3487.02 -3546.16,3488.21 -3546.6,3489.42C-3547.1,3490.81 -3547.61,3492.2 -3548.13,3493.6C-3548.56,3494.74 -3548.99,3495.87 -3549.43,3497.02C-3550.89,3500.83 -3552.41,3504.6 -3553.99,3508.34C-3555.09,3510.96 -3556.22,3513.57 -3557.37,3516.14L-3557.72,3516.92C-3558.91,3519.58 -3560.13,3522.22 -3561.39,3524.86C-3563.85,3530.01 -3566.41,3535.1 -3569.08,3540.12C-3569.43,3540.79 -3569.79,3541.46 -3570.14,3542.11C-3571.37,3544.38 -3572.61,3546.64 -3573.87,3548.88C-3574.53,3550.05 -3575.2,3551.22 -3575.87,3552.38L-3576.75,3553.89L-3577.35,3554.91L-3577.89,3555.83C-3578.11,3556.2 -3578.33,3556.57 -3578.56,3556.95L-3579.16,3557.97C-3579.87,3559.14 -3580.57,3560.31 -3581.29,3561.48L-3581.97,3562.57C-3582.55,3563.51 -3583.14,3564.45 -3583.73,3565.4C-3584.43,3566.5 -3585.13,3567.61 -3585.84,3568.7C-3586.46,3569.66 -3587.09,3570.63 -3587.72,3571.59C-3588.34,3572.53 -3588.96,3573.47 -3589.59,3574.4C-3591.95,3577.94 -3594.37,3581.43 -3596.84,3584.88L-3597.4,3585.66C-3597.63,3585.98 -3597.87,3586.3 -3598.1,3586.62L-3598.72,3587.47C-3599.54,3588.59 -3600.37,3589.72 -3601.21,3590.85L-3601.9,3591.77C-3602.37,3592.39 -3602.84,3593.01 -3603.3,3593.62C-3604.25,3594.87 -3605.2,3596.11 -3606.16,3597.34C-3607.1,3598.55 -3608.05,3599.76 -3609.01,3600.95C-3610.56,3602.9 -3612.12,3604.83 -3613.72,3606.76L-3614.09,3607.19C-3615.2,3608.54 -3616.33,3609.88 -3617.47,3611.21C-3620.01,3614.19 -3622.6,3617.13 -3625.23,3620.03C-3629.55,3624.8 -3633.99,3629.45 -3638.53,3634C-3640.98,3636.46 -3643.47,3638.88 -3645.99,3641.27C-3646.46,3641.72 -3646.93,3642.16 -3647.39,3642.59L-3648.02,3643.19C-3648.31,3643.45 -3648.6,3643.72 -3648.88,3643.99L-3649.43,3644.5C-3650.52,3645.51 -3651.61,3646.51 -3652.72,3647.51L-3653.62,3648.33C-3657.2,3651.55 -3660.84,3654.71 -3664.53,3657.8L-3665.73,3658.8L-3666.59,3659.52C-3667.29,3660.09 -3667.98,3660.66 -3668.69,3661.23L-3669.69,3662.05C-3671.74,3663.7 -3673.79,3665.33 -3675.86,3666.93C-3676.18,3667.18 -3676.49,3667.42 -3676.8,3667.66L-3677.74,3668.38C-3678.36,3668.86 -3678.98,3669.33 -3679.62,3669.81C-3680.33,3670.36 -3681.06,3670.9 -3681.78,3671.44L-3683.4,3672.64L-3684.19,3673.22C-3688.39,3676.31 -3692.66,3679.32 -3696.98,3682.23L-3697.92,3682.86L-3699.14,3683.68C-3700.26,3684.43 -3701.38,3685.16 -3702.49,3685.89L-3703.69,3686.66C-3704.23,3687.01 -3704.78,3687.37 -3705.32,3687.71L-3706.32,3688.35C-3707.77,3689.27 -3709.23,3690.18 -3710.69,3691.08C-3712.45,3692.17 -3714.21,3693.24 -3715.99,3694.29C-3717.04,3694.92 -3718.1,3695.54 -3719.15,3696.16L-3720.05,3696.68C-3720.39,3696.87 -3720.73,3697.07 -3721.08,3697.27L-3721.9,3697.74C-3722.45,3698.06 -3723,3698.37 -3723.55,3698.68C-3725.61,3699.84 -3727.67,3700.99 -3729.76,3702.12L-3730.42,3702.48L-3731.47,3703.04C-3732.76,3703.73 -3734.05,3704.41 -3735.35,3705.09L-3736.74,3705.81L-3737.16,3706.03C-3740,3707.49 -3742.86,3708.92 -3745.74,3710.31C-3748.01,3711.41 -3750.28,3712.48 -3752.57,3713.53C-3753.9,3714.15 -3755.24,3714.76 -3756.58,3715.35L-3758.28,3716.11L-3758.67,3716.28C-3759.78,3716.77 -3760.89,3717.25 -3762,3717.73L-3763.3,3718.28C-3786.98,3728.34 -3811.85,3736.14 -3837.62,3741.42L-3838.82,3741.66C-3839.39,3741.78 -3839.97,3741.89 -3840.54,3742C-3843.48,3742.58 -3846.43,3743.13 -3849.39,3743.64L-3850.92,3743.9L-3852.12,3744.1C-3852.53,3744.17 -3852.93,3744.24 -3853.34,3744.3L-3854.26,3744.45C-3855.42,3744.64 -3856.58,3744.82 -3857.74,3744.99C-3859.53,3745.26 -3861.32,3745.52 -3863.12,3745.77C-3863.73,3745.85 -3864.35,3745.93 -3864.97,3746.01C-3866.4,3746.2 -3867.83,3746.38 -3869.26,3746.56L-3870.77,3746.74L-3871.73,3746.85L-3872.97,3746.99C-3876.49,3747.38 -3880.02,3747.72 -3883.57,3748.02C-3884.96,3748.14 -3886.36,3748.25 -3887.76,3748.35C-3889.92,3748.51 -3892.09,3748.65 -3894.27,3748.78L-3895.4,3748.84L-3896.66,3748.9L-3897.91,3748.97L-3899.17,3749.02C-3900.04,3749.06 -3900.91,3749.1 -3901.78,3749.13L-3902.95,3749.17L-3904.22,3749.22C-3908.02,3749.34 -3911.82,3749.4 -3915.63,3749.41L-3916.9,3749.42ZM-4012.22,3634.4L-4012.22,3720.66L-3983.47,3720.66L-3983.47,3634.4L-4012.22,3634.4ZM-3916.9,3720.66C-3914.54,3720.66 -3912.19,3720.64 -3909.84,3720.59L-3909.35,3720.58C-3908.04,3720.56 -3906.74,3720.52 -3905.43,3720.48C-3904.55,3720.46 -3903.67,3720.43 -3902.81,3720.39L-3901.64,3720.35L-3900.47,3720.3L-3899.31,3720.24C-3898.53,3720.2 -3897.76,3720.17 -3896.98,3720.12L-3895.82,3720.06C-3895.05,3720.02 -3894.28,3719.97 -3893.49,3719.92C-3891.4,3719.79 -3889.31,3719.64 -3887.2,3719.47C-3885.06,3719.29 -3882.93,3719.1 -3880.78,3718.89L-3879.63,3718.78C-3877.72,3718.58 -3875.81,3718.37 -3873.9,3718.15L-3872.76,3718.01C-3871.62,3717.87 -3870.49,3717.73 -3869.34,3717.58C-3869.34,3717.58 -3868.62,3717.49 -3868.62,3717.49C-3859.84,3716.32 -3851.16,3714.85 -3842.58,3713.07C-3842.13,3712.97 -3841.68,3712.88 -3841.21,3712.78C-3839.46,3712.41 -3837.72,3712.03 -3835.97,3711.63C-3829.06,3710.07 -3822.24,3708.3 -3815.51,3706.36C-3814.6,3706.09 -3813.68,3705.83 -3812.79,3705.56C-3808.48,3704.28 -3804.2,3702.91 -3799.98,3701.48L-3798.92,3701.12C-3798.03,3700.82 -3797.14,3700.51 -3796.24,3700.19C-3794.62,3699.62 -3793,3699.05 -3791.38,3698.45L-3790.51,3698.13C-3790.16,3698 -3789.81,3697.87 -3789.46,3697.74L-3788.21,3697.27C-3787.18,3696.88 -3786.14,3696.48 -3785.11,3696.08C-3782.8,3695.18 -3780.49,3694.26 -3778.21,3693.32L-3777.04,3692.84L-3776.08,3692.44C-3775.65,3692.26 -3775.23,3692.08 -3774.82,3691.91L-3773.66,3691.41L-3772.53,3690.93C-3769.62,3689.67 -3766.72,3688.37 -3763.86,3687.05C-3758.77,3684.69 -3753.75,3682.22 -3748.79,3679.64L-3747.98,3679.21L-3746.81,3678.6C-3745.12,3677.7 -3743.44,3676.8 -3741.76,3675.88C-3740.79,3675.35 -3739.82,3674.81 -3738.85,3674.26C-3735.78,3672.54 -3732.73,3670.77 -3729.72,3668.97L-3728.78,3668.4C-3727.58,3667.68 -3726.39,3666.95 -3725.19,3666.21C-3720.15,3663.08 -3715.18,3659.84 -3710.32,3656.49L-3709.27,3655.76L-3707.61,3654.61C-3707.32,3654.4 -3707.02,3654.19 -3706.72,3653.97L-3705.98,3653.45C-3705.26,3652.94 -3704.53,3652.42 -3703.82,3651.9C-3702.56,3651 -3701.31,3650.08 -3700.06,3649.16C-3699.62,3648.83 -3699.18,3648.5 -3698.74,3648.17L-3697.86,3647.51C-3696.23,3646.29 -3694.61,3645.05 -3693.01,3643.81C-3692.49,3643.4 -3691.97,3642.99 -3691.45,3642.58L-3690.6,3641.91C-3685.58,3637.93 -3680.67,3633.83 -3675.87,3629.6L-3674.97,3628.81C-3674.51,3628.4 -3674.06,3627.99 -3673.59,3627.57C-3673.16,3627.19 -3672.73,3626.8 -3672.3,3626.41L-3670.91,3625.14L-3669.65,3623.99C-3669.13,3623.51 -3668.61,3623.03 -3668.1,3622.55C-3666.63,3621.18 -3665.18,3619.8 -3663.73,3618.41L-3662.94,3617.64C-3660.45,3615.23 -3657.99,3612.77 -3655.57,3610.29C-3655.13,3609.84 -3654.69,3609.38 -3654.24,3608.92C-3652.78,3607.4 -3651.34,3605.88 -3649.9,3604.33C-3649.14,3603.52 -3648.38,3602.7 -3647.63,3601.88C-3645.97,3600.06 -3644.33,3598.23 -3642.7,3596.37C-3642.26,3595.87 -3641.82,3595.37 -3641.38,3594.86C-3640.2,3593.5 -3639.02,3592.13 -3637.86,3590.74L-3637.12,3589.87C-3635.62,3588.08 -3634.15,3586.28 -3632.69,3584.47L-3632.04,3583.67L-3631.51,3583.01C-3616.69,3564.41 -3603.64,3544.35 -3592.64,3523.07C-3592.44,3522.7 -3592.25,3522.32 -3592.06,3521.95C-3587.95,3513.94 -3584.13,3505.76 -3580.61,3497.41L-3580.1,3496.2C-3576.23,3486.93 -3572.73,3477.46 -3569.62,3467.81C-3569.49,3467.42 -3569.37,3467.02 -3569.24,3466.62L-3568.9,3465.56C-3568.65,3464.76 -3568.41,3463.97 -3568.16,3463.18C-3567.71,3461.72 -3567.27,3460.25 -3566.84,3458.77L-3566.41,3457.3C-3565.43,3453.92 -3564.5,3450.53 -3563.62,3447.11C-3562.75,3443.71 -3561.92,3440.29 -3561.14,3436.86C-3560.07,3432.15 -3559.1,3427.42 -3558.22,3422.65C-3558.09,3421.94 -3557.96,3421.24 -3557.83,3420.53C-3557.56,3419.03 -3557.3,3417.51 -3557.05,3415.99L-3556.82,3414.57C-3556.63,3413.38 -3556.44,3412.18 -3556.26,3410.97L-3556.12,3410.06C-3555.43,3405.41 -3554.83,3400.74 -3554.31,3396.04C-3553.95,3392.68 -3553.63,3389.32 -3553.35,3385.94L-3553.24,3384.53C-3552.95,3380.79 -3552.72,3377.03 -3552.55,3373.25C-3552.28,3367.61 -3552.15,3361.93 -3552.15,3356.23C-3552.15,3351.44 -3552.25,3346.67 -3552.43,3341.9C-3552.45,3341.3 -3552.48,3340.7 -3552.5,3340.12C-3552.56,3338.9 -3552.62,3337.69 -3552.68,3336.5L-3552.72,3335.83C-3552.74,3335.45 -3552.76,3335.08 -3552.78,3334.7L-3552.83,3333.92C-3554.29,3309.78 -3558.1,3286.27 -3564.04,3263.6L-3564.27,3262.71L-3564.63,3261.37C-3565.06,3259.77 -3565.5,3258.18 -3565.95,3256.59C-3566.44,3254.86 -3566.95,3253.13 -3567.46,3251.42L-3567.8,3250.29C-3568.72,3247.26 -3569.68,3244.24 -3570.68,3241.23C-3570.89,3240.59 -3571.11,3239.95 -3571.32,3239.33L-3571.79,3237.95C-3571.96,3237.44 -3572.14,3236.93 -3572.32,3236.41C-3572.55,3235.75 -3572.78,3235.1 -3573.01,3234.44L-3573.51,3233.04C-3574.62,3229.96 -3575.77,3226.89 -3576.95,3223.85L-3577.43,3222.63L-3577.78,3221.77C-3578.19,3220.72 -3578.61,3219.68 -3579.03,3218.65L-3579.45,3217.64L-3579.75,3216.89C-3580.26,3215.68 -3580.77,3214.47 -3581.28,3213.27C-3581.5,3212.75 -3581.72,3212.23 -3581.95,3211.71L-3582.44,3210.58C-3583.07,3209.13 -3583.72,3207.68 -3584.37,3206.25C-3584.91,3205.04 -3585.47,3203.83 -3586.03,3202.63L-3586.35,3201.93L-3587.06,3200.43C-3587.34,3199.85 -3587.61,3199.27 -3587.89,3198.7C-3588.65,3197.11 -3589.42,3195.53 -3590.2,3193.96L-3591.03,3192.32L-3591.77,3190.86C-3597.55,3179.53 -3603.9,3168.54 -3610.79,3157.95L-3611.64,3156.64C-3612.09,3155.97 -3612.53,3155.29 -3612.98,3154.62L-3613.57,3153.73L-3614.06,3153.01C-3615.02,3151.58 -3615.99,3150.16 -3616.98,3148.73C-3617.77,3147.6 -3618.56,3146.47 -3619.36,3145.34L-3620.14,3144.25C-3622.64,3140.76 -3625.19,3137.32 -3627.81,3133.93L-3628.46,3133.1C-3628.67,3132.82 -3628.89,3132.54 -3629.11,3132.26L-3629.76,3131.42L-3631.07,3129.76L-3631.73,3128.93C-3634.89,3124.98 -3638.13,3121.1 -3641.44,3117.28C-3642.33,3116.26 -3643.22,3115.25 -3644.13,3114.23C-3646.61,3111.43 -3649.14,3108.67 -3651.71,3105.95C-3652.05,3105.6 -3652.38,3105.24 -3652.73,3104.88L-3653.33,3104.25L-3654.01,3103.54C-3654.74,3102.78 -3655.48,3102.02 -3656.23,3101.26L-3657.01,3100.45L-3658.15,3099.3C-3659.81,3097.64 -3661.48,3095.99 -3663.17,3094.35C-3664.43,3093.12 -3665.71,3091.91 -3666.99,3090.7C-3669.62,3088.23 -3672.28,3085.8 -3674.98,3083.4C-3675.76,3082.72 -3676.53,3082.04 -3677.31,3081.36C-3678.44,3080.38 -3679.57,3079.4 -3680.71,3078.43C-3681.66,3077.62 -3682.61,3076.83 -3683.56,3076.03L-3684.29,3075.42L-3685.93,3074.08L-3686.21,3073.84C-3688.5,3071.97 -3690.81,3070.14 -3693.13,3068.33C-3694.33,3067.4 -3695.53,3066.47 -3696.74,3065.55L-3697.59,3064.91C-3700.51,3062.71 -3703.47,3060.55 -3706.47,3058.42C-3707.03,3058.03 -3707.58,3057.64 -3708.14,3057.25C-3709.01,3056.64 -3709.89,3056.03 -3710.78,3055.42C-3711.9,3054.65 -3713.02,3053.89 -3714.15,3053.13L-3714.89,3052.64L-3715.59,3052.18C-3717.39,3050.98 -3719.22,3049.8 -3721.05,3048.62C-3721.79,3048.15 -3722.53,3047.68 -3723.28,3047.21L-3724.51,3046.44C-3725.93,3045.56 -3727.35,3044.69 -3728.78,3043.83C-3729.58,3043.35 -3730.38,3042.87 -3731.18,3042.39C-3737.25,3038.79 -3743.44,3035.36 -3749.73,3032.11L-3750.68,3031.62C-3755.73,3029.04 -3760.84,3026.56 -3766.01,3024.2C-3766.66,3023.91 -3767.31,3023.62 -3767.95,3023.33C-3768.97,3022.87 -3769.99,3022.42 -3771.01,3021.98C-3772.64,3021.26 -3774.28,3020.56 -3775.92,3019.87C-3776.58,3019.59 -3777.25,3019.32 -3777.91,3019.05C-3781.22,3017.68 -3784.55,3016.36 -3787.91,3015.09L-3788.95,3014.7L-3789.93,3014.33L-3791.01,3013.93L-3792.4,3013.43C-3792.95,3013.23 -3793.5,3013.03 -3794.05,3012.83L-3795.06,3012.47C-3796.06,3012.12 -3797.06,3011.76 -3798.06,3011.42C-3799.08,3011.07 -3800.11,3010.72 -3801.14,3010.38L-3802.16,3010.03C-3804.53,3009.25 -3806.9,3008.49 -3809.29,3007.75C-3810.41,3007.41 -3811.54,3007.06 -3812.67,3006.73L-3813.55,3006.47C-3816.18,3005.69 -3818.82,3004.94 -3821.48,3004.22C-3822.9,3003.84 -3824.33,3003.46 -3825.77,3003.09L-3826.47,3002.91C-3835.51,3000.6 -3844.68,2998.63 -3853.96,2997.01L-3856.29,2996.61C-3857.35,2996.44 -3858.41,2996.26 -3859.47,2996.1C-3861.65,2995.75 -3863.84,2995.42 -3866.04,2995.11L-3867.14,2994.96C-3868.61,2994.76 -3870.08,2994.57 -3871.55,2994.39L-3872.66,2994.25L-3873.44,2994.16C-3874.56,2994.02 -3875.68,2993.89 -3876.8,2993.77C-3878.37,2993.6 -3879.95,2993.43 -3881.53,2993.28L-3882.64,2993.18C-3884.5,2993 -3886.36,2992.84 -3888.23,2992.7L-3889.35,2992.61C-3889.72,2992.58 -3890.09,2992.55 -3890.47,2992.53C-3891.96,2992.42 -3893.46,2992.32 -3894.96,2992.23L-3896.08,2992.17C-3896.44,2992.15 -3896.82,2992.12 -3897.21,2992.11L-3897.21,3020.86C-3720.93,3031.17 -3580.91,3177.45 -3580.91,3356.23C-3580.91,3541.57 -3731.56,3691.91 -3916.9,3691.91L-3954.72,3691.91L-3954.72,3720.66L-3916.9,3720.66ZM-4041.18,2991.31L-4213.15,2991.31L-4213.15,3720.18L-4041.18,3720.18L-4041.18,2991.31ZM-4067.56,3019.28L-4185.93,3019.28L-4185.93,3692.86L-4067.56,3692.86L-4067.56,3019.28ZM-3954.72,3663.15L-3925.96,3663.15L-3925.96,3634.4L-3954.72,3634.4L-3954.72,3663.15ZM-3916.9,3048.99C-3747.5,3048.99 -3609.66,3186.51 -3609.66,3356.23C-3609.66,3519.07 -3736.87,3652.53 -3897.21,3662.53L-3897.21,3633.77C-3752.81,3623.77 -3638.42,3503.12 -3638.42,3356.23C-3638.42,3202.45 -3763.12,3077.74 -3916.9,3077.74L-3954.72,3077.74L-3954.72,3048.99L-3916.9,3048.99ZM-4012.22,3577.2L-4012.22,3605.64L-3916.9,3605.64C-3779.06,3605.64 -3667.17,3493.75 -3667.17,3356.23C-3667.17,3218.39 -3779.06,3106.5 -3916.9,3106.5L-4012.22,3106.5L-4012.22,3135.25L-3915.34,3135.25C-3794.07,3135.88 -3695.93,3234.64 -3695.93,3356.23C-3695.93,3478.12 -3795,3576.89 -3916.9,3577.2L-4012.22,3577.2ZM-4012.22,3548.13L-4012.22,3164.01L-3902.83,3164.01C-3803.13,3171.82 -3724.68,3254.65 -3724.68,3356.23C-3724.68,3457.49 -3803.13,3540.63 -3902.83,3547.82L-4012.22,3548.13ZM-3983.47,3077.74L-4012.22,3077.74L-4012.22,2991.48L-3983.47,2991.48L-3983.47,3077.74ZM-3954.72,3020.23L-3925.96,3020.23L-3925.96,2991.48L-3954.72,2991.48L-3954.72,3020.23Z"/>
            </g>
        </g>
    </g>
</svg>
