<?xml version="1.0" encoding="UTF-8" standalone="no"?>
<!DOCTYPE svg PUBLIC "-//W3C//DTD SVG 1.1//EN" "http://www.w3.org/Graphics/SVG/1.1/DTD/svg11.dtd">
<svg width="100%" height="100%" viewBox="0 0 1080 1080" version="1.1" xmlns="http://www.w3.org/2000/svg" xmlns:xlink="http://www.w3.org/1999/xlink" xml:space="preserve" xmlns:serif="http://www.serif.com/" style="fill-rule:evenodd;clip-rule:evenodd;stroke-linejoin:round;stroke-miterlimit:2;">
    <g transform="matrix(1,0,0,1,-2470.76,-1349.43)">
        <g id="id_icon_30_08_2025" transform="matrix(1,0,0,1,2470.76,1349.43)">
            <rect x="0" y="0" width="1080" height="1080" style="fill:none;"/>
            <g transform="matrix(0.533204,0,0,0.533204,252.07,252.069)">
                <path d="M109.663,0L931.262,0C964.682,0 996.113,15.93 1015.87,42.891C1035.62,69.852 1041.35,104.615 1031.28,136.487C1011.81,198.114 989.16,269.807 971.008,327.252C951.135,390.173 892.76,432.948 826.776,432.948L510.472,432.948L481.06,528.228L816.223,528.228C834.425,530.325 849.633,541.792 856.754,559.207L856.824,559.135C864.602,578.175 860.066,597.803 845.375,612.166L376.564,1070.08C369.81,1076.66 361.236,1080 352.533,1080C346.396,1080 340.15,1078.33 334.471,1074.9C320.804,1066.59 314.717,1050.68 319.372,1035.34C319.372,1035.34 384.411,833.612 416.24,729.06C420.248,715.866 417.762,701.526 409.556,690.431C401.32,679.337 388.35,672.799 374.535,672.799L227.935,672.799C201.647,672.799 179.745,657.457 168.794,635.555C159.445,616.332 150.622,596.29 142.317,575.559L450.644,575.559C459.596,575.559 467.533,569.787 470.298,561.265C474.814,547.331 481.01,528.228 481.01,528.228L124.662,528.228C113.96,497.393 104.312,465.352 95.708,432.481L511.228,432.481L520.458,403.242C520.517,399.527 519.384,395.841 517.146,392.762C513.883,388.272 508.671,385.616 503.121,385.616L84.29,385.616C80.689,369.758 77.337,353.746 74.204,337.622L824.985,337.667C852.925,337.667 877.641,319.556 886.056,292.915C897.355,257.158 913.389,206.401 926.379,165.284C931.541,148.947 928.607,131.128 918.481,117.309C908.356,103.488 892.243,95.323 875.115,95.323L45.101,95.483C44.644,86.271 44.266,77.071 43.957,67.904C41.759,30.66 72.424,0 109.663,0ZM52.402,190.604L794.957,190.604C801.671,190.604 807.987,193.804 811.956,199.219C815.924,204.634 817.068,211.618 815.049,218.019C810.185,233.421 804.198,252.368 799.672,266.707C795.604,279.563 783.678,288.303 770.201,288.303L65.481,288.303C60.17,255.975 55.804,223.319 52.402,190.604Z" style="fill-rule:nonzero;"/>
            </g>
        </g>
    </g>
</svg>
