<?xml version="1.0" encoding="UTF-8" standalone="no"?>
<!DOCTYPE svg PUBLIC "-//W3C//DTD SVG 1.1//EN" "http://www.w3.org/Graphics/SVG/1.1/DTD/svg11.dtd">
<svg width="100%" height="100%" viewBox="0 0 1080 1080" version="1.1" xmlns="http://www.w3.org/2000/svg" xmlns:xlink="http://www.w3.org/1999/xlink" xml:space="preserve" xmlns:serif="http://www.serif.com/" style="fill-rule:evenodd;clip-rule:evenodd;stroke-linejoin:round;stroke-miterlimit:2;">
    <g transform="matrix(1,0,0,1,-2470.76,-5328.03)">
        <g id="id_icon_23_07_2024" transform="matrix(1,0,0,1,2470.76,5328.03)">
            <rect x="0" y="0" width="1080" height="1080" style="fill:none;"/>
            <g transform="matrix(2.40168,0,0,1.84795,-782.389,-330.821)">
                <g transform="matrix(0.416344,0,0,0.54114,-179.85,204.722)">
                    <path d="M1878.42,182.596C2002.16,231.938 2089.68,352.889 2089.68,494.121C2089.68,679.137 1939.48,829.346 1754.46,829.346C1569.44,829.346 1419.24,679.137 1419.24,494.121C1419.24,352.889 1506.76,231.938 1630.5,182.596L1630.5,190.049C1548.28,234.302 1492.34,321.178 1492.34,421.016C1492.34,565.684 1609.79,683.136 1754.46,683.136C1899.13,683.136 2016.58,565.684 2016.58,421.016C2016.58,321.178 1960.64,234.302 1878.42,190.049L1878.42,182.596ZM1949.16,232.423C2028.97,291.915 2080.68,387.025 2080.68,494.121C2080.68,674.169 1934.51,820.346 1754.46,820.346C1574.41,820.346 1428.24,674.169 1428.24,494.121C1428.24,387.025 1479.95,291.915 1559.76,232.423C1512.46,281.234 1483.34,347.751 1483.34,421.016C1483.34,570.651 1604.83,692.136 1754.46,692.136C1904.1,692.136 2025.58,570.651 2025.58,421.016C2025.58,347.751 1996.46,281.234 1949.16,232.423Z"/>
                </g>
                <g transform="matrix(0.416375,0,0,0.54114,-10782.4,-1022.35)">
                    <path d="M27186.9,2441.15L27187.1,2755.46L27175.9,2755.46L27175.9,2451.94C27064.4,2471.98 26979.6,2569.63 26979.6,2686.93C26979.6,2818.7 27086.6,2925.68 27218.4,2925.68C27350.1,2925.68 27457.1,2818.7 27457.1,2686.93C27457.1,2569.63 27372.4,2471.98 27260.8,2451.94L27260.8,2755.46L27249.6,2755.46L27249.7,2441.13C27371.7,2456.56 27466.1,2560.8 27466.1,2686.93C27466.1,2823.66 27355.1,2934.68 27218.4,2934.68C27081.6,2934.68 26970.6,2823.66 26970.6,2686.93C26970.6,2560.85 27065,2456.64 27186.9,2441.15ZM27212.8,2845.85L27212.8,2402.17L27223.9,2402.17L27224,2845.85L27212.8,2845.85Z"/>
                </g>
                <g transform="matrix(-0.400409,0,0,0.520429,1259.17,213.899)">
                    <path d="M1532.38,594.772C1566.55,594.772 1594.29,622.512 1594.29,656.679C1594.29,690.846 1566.55,718.586 1532.38,718.586C1498.21,718.586 1470.47,690.846 1470.47,656.679C1470.47,622.512 1498.21,594.772 1532.38,594.772ZM1532.38,605.17C1503.95,605.17 1480.87,628.251 1480.87,656.679C1480.87,685.107 1503.95,708.188 1532.38,708.188C1560.81,708.188 1583.89,685.107 1583.89,656.679C1583.89,628.251 1560.81,605.17 1532.38,605.17Z"/>
                </g>
                <g transform="matrix(-0.324217,0,0,0.421399,1164.25,228.07)">
                    <path d="M1532.38,594.772C1566.55,594.772 1594.29,622.512 1594.29,656.679C1594.29,690.846 1566.55,718.586 1532.38,718.586C1498.21,718.586 1470.47,690.846 1470.47,656.679C1470.47,622.512 1498.21,594.772 1532.38,594.772ZM1532.38,607.614C1505.3,607.614 1483.32,629.599 1483.32,656.679C1483.32,683.758 1505.3,705.744 1532.38,705.744C1559.46,705.744 1581.44,683.758 1581.44,656.679C1581.44,629.599 1559.46,607.614 1532.38,607.614Z"/>
                </g>
                <g transform="matrix(-0.254021,0,0,0.330162,1063.25,242.381)">
                    <path d="M1532.38,594.772C1566.55,594.772 1594.29,622.512 1594.29,656.679C1594.29,690.846 1566.55,718.586 1532.38,718.586C1498.21,718.586 1470.47,690.846 1470.47,656.679C1470.47,622.512 1498.21,594.772 1532.38,594.772ZM1532.38,611.162C1507.26,611.162 1486.87,631.558 1486.87,656.679C1486.87,681.8 1507.26,702.195 1532.38,702.195C1557.5,702.195 1577.9,681.8 1577.9,656.679C1577.9,631.558 1557.5,611.162 1532.38,611.162Z"/>
                </g>
                <g transform="matrix(0.400409,0,0,0.520429,-157.79,213.814)">
                    <path d="M1532.38,594.772C1566.55,594.772 1594.29,622.512 1594.29,656.679C1594.29,690.846 1566.55,718.586 1532.38,718.586C1498.21,718.586 1470.47,690.846 1470.47,656.679C1470.47,622.512 1498.21,594.772 1532.38,594.772ZM1532.38,605.17C1560.81,605.17 1583.89,628.251 1583.89,656.679C1583.89,685.107 1560.81,708.188 1532.38,708.188C1503.95,708.188 1480.87,685.107 1480.87,656.679C1480.87,628.251 1503.95,605.17 1532.38,605.17Z"/>
                </g>
                <g transform="matrix(0.324217,0,0,0.421399,-62.8728,227.986)">
                    <path d="M1532.38,594.772C1566.55,594.772 1594.29,622.512 1594.29,656.679C1594.29,690.846 1566.55,718.586 1532.38,718.586C1498.21,718.586 1470.47,690.846 1470.47,656.679C1470.47,622.512 1498.21,594.772 1532.38,594.772ZM1532.38,607.614C1559.46,607.614 1581.44,629.599 1581.44,656.679C1581.44,683.758 1559.46,705.744 1532.38,705.744C1505.3,705.744 1483.32,683.758 1483.32,656.679C1483.32,629.599 1505.3,607.614 1532.38,607.614Z"/>
                </g>
                <g transform="matrix(0.254021,0,0,0.330162,38.1292,242.297)">
                    <path d="M1532.38,594.772C1566.55,594.772 1594.29,622.512 1594.29,656.679C1594.29,690.846 1566.55,718.586 1532.38,718.586C1498.21,718.586 1470.47,690.846 1470.47,656.679C1470.47,622.512 1498.21,594.772 1532.38,594.772ZM1532.38,611.162C1557.5,611.162 1577.9,631.558 1577.9,656.679C1577.9,681.8 1557.5,702.195 1532.38,702.195C1507.26,702.195 1486.87,681.8 1486.87,656.679C1486.87,631.558 1507.26,611.162 1532.38,611.162Z"/>
                </g>
                <g transform="matrix(0.398945,0,0,0.518488,-642.673,266.963)">
                    <path d="M2991.09,20.433C3197.26,20.433 3364.64,187.813 3364.64,393.978C3364.64,600.143 3197.26,767.523 2991.09,767.523C2784.93,767.523 2617.55,600.143 2617.55,393.978C2617.55,187.813 2784.93,20.433 2991.09,20.433ZM2991.09,29.827C3192.07,29.827 3355.24,192.997 3355.24,393.978C3355.24,594.959 3192.07,758.129 2991.09,758.129C2790.11,758.129 2626.94,594.959 2626.94,393.978C2626.94,192.997 2790.11,29.827 2991.09,29.827Z"/>
                </g>
                <g transform="matrix(0.416375,0,0,0.54114,-11964.4,-2198.43)">
                    <path d="M30056.4,5124.78L30057,5124.16L30057.4,5124.52C30072.4,5134.64 30087.4,5141.79 30101.9,5146.64C30116.2,5151.16 30131.5,5153.99 30147.6,5154.8C30157.5,5155.29 30167.1,5155 30176.5,5153.99C30201.5,5150.93 30222.1,5143.08 30235.2,5136.72C30237.6,5135.48 30240.6,5133.57 30243.3,5131.9C30216.6,5175.44 30163.3,5221.41 30096,5254.09C30083,5260.4 30057,5270.26 30057,5270.26C30044.1,5265.4 30031,5259.87 30018.1,5253.57C29950.8,5220.9 29897.9,5175.19 29871.2,5131.66C29873.5,5133 29876.4,5134.97 29878.8,5136.2C29892,5142.56 29912.5,5150.41 29937.5,5153.48C29946.9,5154.48 29956.6,5154.78 29966.4,5154.28C29982.5,5153.48 29997.9,5150.65 30012.2,5146.13C30026.8,5141.25 30041.8,5134.04 30056.9,5123.82L30056.4,5124.78ZM30057,5137.6L30116.7,5197.3C30116.7,5197.3 30057,5257 30057,5257C30057,5257 29997.3,5197.3 29997.3,5197.3L30057,5137.6ZM30073.5,5253.95C30079.6,5251.31 30085.7,5248.51 30091.8,5245.54C30135.8,5224.19 30173.3,5197.5 30201,5169.45C30179.9,5183.17 30154.4,5194.37 30124.7,5202.8L30073.5,5253.95ZM29988.7,5202.07L30039.6,5253.04C30033.8,5250.52 30028,5247.85 30022.2,5245.03C29978.2,5223.68 29940.8,5196.99 29913.1,5168.93C29934,5182.55 29959.2,5193.68 29988.7,5202.07ZM30082.4,5149.52L30125.5,5192.67C30153.8,5184.38 30178,5173.47 30197.9,5160.11C30191.6,5161.51 30185,5162.6 30178.4,5163.34C30154.5,5166.37 30126.8,5165.3 30097.3,5155.16C30092.2,5153.48 30087.2,5151.6 30082.4,5149.52ZM30032.6,5148.61L29988.9,5192.27C29960.5,5183.97 29936.1,5173.01 29916.1,5159.59C29922.5,5161 29929,5162.08 29935.6,5162.83C29959.5,5165.86 29987.3,5164.78 30016.7,5154.65C30022.1,5152.86 30027.4,5150.85 30032.6,5148.61Z"/>
                </g>
            </g>
        </g>
    </g>
</svg>
