<?xml version="1.0" encoding="UTF-8" standalone="no"?>
<!DOCTYPE svg PUBLIC "-//W3C//DTD SVG 1.1//EN" "http://www.w3.org/Graphics/SVG/1.1/DTD/svg11.dtd">
<svg width="100%" height="100%" viewBox="0 0 1080 1080" version="1.1" xmlns="http://www.w3.org/2000/svg" xmlns:xlink="http://www.w3.org/1999/xlink" xml:space="preserve" xmlns:serif="http://www.serif.com/" style="fill-rule:evenodd;clip-rule:evenodd;stroke-linejoin:round;stroke-miterlimit:2;">
    <g transform="matrix(1,0,0,1,-2470.76,-2664.02)">
        <g id="id_icon_01_06_2011" transform="matrix(1,0,0,1,2470.76,2664.02)">
            <rect x="0" y="0" width="1080" height="1080" style="fill:none;"/>
            <g transform="matrix(0.827416,0,0,0.827416,-895.44,-2111.06)">
                <path d="M1463.91,3542.85C1474.49,3530.24 1609.74,3516.89 1744.37,3511.17C1879,3505.45 1996.43,3534.24 1979.19,3544.13C1961.95,3554.03 1807.6,3562.26 1733.15,3565.87C1658.67,3569.49 1599.75,3575.29 1565.7,3566.99C1531.64,3558.69 1453.33,3555.43 1463.91,3542.85ZM1655.04,3358.7C1646.12,3353.98 1608.18,3330.2 1581.27,3256.37C1550.62,3172.2 1521.79,3109.31 1516.98,3072.28C1512.19,3035.26 1502.14,3002.05 1505.65,3002.33C1556.45,3002.15 1579.29,3016.65 1602.45,3044.58C1625.62,3072.48 1657.16,3163.08 1667.8,3197.75C1678.43,3232.41 1692.59,3275.82 1708.72,3294.72C1718.65,3306.36 1734.68,3321.95 1745.54,3332.22C1799.65,3297.56 1838.34,3262.82 1838.34,3262.82L1840.67,3346.26L1901.4,3207.66C1901.4,3207.66 1974.73,3178.93 1999.73,3159.24C2024.73,3139.56 2079.22,3103.72 2079.22,3103.72C2079.22,3103.72 2096.32,3273.21 2006.65,3358.46C1917,3443.68 1789.93,3447.2 1730.28,3448.63C1654.12,3450.47 1559.54,3387.1 1559.54,3387.1C1559.54,3387.1 1634.93,3394.87 1707.85,3354.7C1708.76,3354.2 1709.67,3353.69 1710.58,3353.18C1703.72,3354.67 1697.51,3356 1693.17,3356.89C1676.76,3360.29 1658.77,3359.72 1657.1,3359.66C1658.34,3360.22 1659.02,3360.52 1659.02,3360.52C1659.02,3360.52 1597.32,3365.99 1552.73,3357.67C1486.69,3345.36 1454.16,3311.05 1434.26,3295.38C1414.34,3279.69 1401.61,3227.25 1401.61,3227.25L1488.88,3220.82L1391.26,3189.08C1391.26,3189.08 1383.57,3161.69 1397.7,3108.57C1411.82,3055.44 1431.29,3032.33 1459.84,3010.65C1465.95,3004.8 1474.42,3004.77 1474.42,3004.77C1474.42,3004.77 1482.81,3067.44 1505.49,3127.73C1530.5,3194.14 1574.05,3276.23 1591.97,3307.95C1606.8,3334.21 1642.99,3353 1655.04,3358.7ZM1474.91,2999.82L1465.76,2836.8L1504.87,2998.99L1474.91,2999.82Z"/>
            </g>
        </g>
    </g>
</svg>
