<?xml version="1.0" encoding="UTF-8" standalone="no"?>
<!DOCTYPE svg PUBLIC "-//W3C//DTD SVG 1.1//EN" "http://www.w3.org/Graphics/SVG/1.1/DTD/svg11.dtd">
<svg width="100%" height="100%" viewBox="0 0 1080 1080" version="1.1" xmlns="http://www.w3.org/2000/svg" xmlns:xlink="http://www.w3.org/1999/xlink" xml:space="preserve" xmlns:serif="http://www.serif.com/" style="fill-rule:evenodd;clip-rule:evenodd;stroke-linejoin:round;stroke-miterlimit:2;">
    <g transform="matrix(1,0,0,1,-2470.76,0)">
        <g id="id_icon_09_09_2023" transform="matrix(1,0,0,1,2470.76,0)">
            <rect x="0" y="0" width="1080" height="1080" style="fill:none;"/>
            <g transform="matrix(0.844747,0,0,0.844747,83.3281,107.815)">
                <path d="M355.306,189.733L355.306,128.302L355.279,128.302L355.306,113.614L369.969,113.614L369.969,113.636L619.535,113.614L875.917,113.637L875.917,756.054L756.002,880.999C738.713,899.013 714.886,909.287 689.918,909.494C628.876,910 529.154,908.742 529.154,908.742L519.917,908.603L520.486,881.709L520.5,881.709C521.169,881.258 548.486,862.753 565.457,834.904C586.029,801.147 520.719,799.364 509.694,799.303C501.546,799.492 493.296,799.589 484.944,799.589C378.272,799.589 288.41,783.784 242.436,761.265C228.799,754.585 218.904,747.112 213.023,739.509C207.835,732.802 205.38,725.774 205.38,718.683C205.38,718.271 205.388,717.859 205.405,717.447L205.405,456.89C205.353,456.404 205.31,455.852 205.295,455.298C205.254,453.879 205.373,452.455 205.412,452.264L205.42,452.226C206.46,344.405 266.505,252.281 355.306,206.369L355.306,206.341C355.306,206.341 365.038,201.571 369.969,199.325C394.623,188.095 443.763,175.186 484.885,175.186C640.151,175.186 763.314,294.705 764.517,449.626L764.52,449.642C764.544,449.796 764.624,450.946 764.597,452.093C764.588,452.524 764.561,452.954 764.526,453.336L764.526,718.564C764.526,718.741 764.52,718.917 764.504,719.091C764.413,726.043 761.953,732.931 756.865,739.509C751.1,746.962 741.477,754.291 728.252,760.87L728.667,760.727L520.502,881.709C520.986,881.711 532.865,881.742 550.743,881.767C581.342,865.025 729.216,783.586 762.517,755.223C769.096,749.62 779.235,737.121 779.409,723.13C779.426,722.951 779.433,722.769 779.433,722.585L779.433,448.208C779.469,447.813 779.497,447.369 779.507,446.922C779.534,445.736 779.452,444.546 779.426,444.387L779.422,444.371C778.164,284.106 649.25,160.464 486.734,160.464C445.064,160.464 393.323,173.196 355.306,189.733ZM566.163,710.667L550.096,719.004L649.186,719.004C675.588,722.954 697.716,727.843 714.094,733.411L522.332,733.411L508.958,740.351L730.707,740.351C731.881,740.98 732.98,741.618 734,742.263L734.013,742.254C730.389,744.668 726.234,747.017 721.588,749.293C717.762,751.167 713.624,752.99 709.19,754.757L481.193,754.757L466.151,762.563L686.484,762.563C667.342,768.268 644.695,773.148 619.316,776.97L438.386,776.97L423.917,784.477C347.092,779.895 284.063,766.81 248.3,749.293C243.659,747.019 239.509,744.674 235.887,742.263L235.894,742.263L235.893,742.257C240.308,739.467 246.184,736.819 253.324,734.27C296.736,718.768 384.214,708.301 484.942,708.301C513.297,708.301 540.602,709.13 566.163,710.667ZM744.602,733.402C745.215,732.723 745.788,732.04 746.32,731.353C749.493,727.251 751.177,723.02 751.177,718.683L751.199,718.705L751.197,718.626L751.176,718.605L751.197,718.625L751.195,718.148C722.901,705 671.998,694.443 608.907,688.665C690.833,645.191 748.375,559.951 751.187,461.331L751.195,461.042L751.195,451.916C751.195,303.362 633.439,188.517 484.885,188.517L484.45,188.517C336.075,188.753 218.736,306.647 218.736,455.073L218.736,717.592L218.711,718.683C218.711,723.02 220.395,727.251 223.568,731.353C224.099,732.039 224.671,732.721 225.284,733.4L225.354,733.478L225.284,733.4C230.754,729.312 238.684,725.342 248.841,721.715C289.727,707.115 368.925,696.665 461.723,695.157C434.662,692.357 408.936,685.03 385.313,673.947L587.774,673.947C564.019,685.092 538.137,692.439 510.907,695.204C602.515,696.871 680.56,707.259 721.043,721.715C731.203,725.343 739.134,729.313 744.602,733.402L744.542,733.469L744.602,733.402ZM372.631,659.725L600.432,659.725L542.912,463.759L430.151,463.759L372.631,659.725ZM725.725,463.759C723.352,544.906 680.67,616.001 617.066,657.6L617.066,463.759L725.725,463.759ZM356.021,657.6L355.793,657.451C348.871,652.905 342.18,648.013 335.76,642.781C324.243,633.398 313.598,622.947 304.001,611.607C293.905,599.678 284.971,586.766 277.376,573.107C269.991,559.826 263.874,545.841 259.142,531.4C254.818,518.202 251.653,504.626 249.687,490.877C248.845,484.993 248.223,479.078 247.819,473.147C247.611,470.085 247.463,467.02 247.368,463.952L247.363,463.759L356.021,463.759L356.021,657.6ZM602.844,617.443L602.844,463.759L557.734,463.759L602.844,617.443ZM415.329,463.759L370.244,463.759L370.244,617.36L415.329,463.759ZM434.323,449.546L538.74,449.546L486.532,271.676L434.323,449.546ZM602.844,449.546L553.562,449.546L496.042,253.58L602.844,253.58L602.844,449.546ZM617.066,255.622L617.294,255.771C624.216,260.317 630.907,265.209 637.327,270.441C648.844,279.824 659.49,290.275 669.087,301.615C679.183,313.544 688.116,326.456 695.711,340.115C703.096,353.396 709.214,367.381 713.945,381.822C718.269,395.02 721.435,408.596 723.401,422.345C724.242,428.229 724.865,434.144 725.268,440.075C725.477,443.137 725.625,446.202 725.719,449.27L725.727,449.546L617.066,449.546L617.066,255.622ZM370.244,449.546L370.244,253.497L477.045,253.497L419.501,449.546L370.244,449.546ZM356.021,255.622L356.021,449.546L247.36,449.546C249.709,368.36 292.398,297.234 356.021,255.622ZM587.95,239.357C557.152,224.879 522.784,216.787 486.544,216.787C450.37,216.787 416.06,224.849 385.313,239.275L486.544,239.275C486.908,239.275 487.27,239.303 487.624,239.357L587.95,239.357Z"/>
            </g>
        </g>
    </g>
</svg>
