<?xml version="1.0" encoding="UTF-8" standalone="no"?>
<!DOCTYPE svg PUBLIC "-//W3C//DTD SVG 1.1//EN" "http://www.w3.org/Graphics/SVG/1.1/DTD/svg11.dtd">
<svg width="100%" height="100%" viewBox="0 0 1080 1080" version="1.1" xmlns="http://www.w3.org/2000/svg" xmlns:xlink="http://www.w3.org/1999/xlink" xml:space="preserve" xmlns:serif="http://www.serif.com/" style="fill-rule:evenodd;clip-rule:evenodd;stroke-linejoin:round;stroke-miterlimit:2;">
    <g transform="matrix(1,0,0,1,-1275.92,-9341.48)">
        <g id="id_icon_28_02_2025" transform="matrix(1,0,0,1,1275.92,9341.48)">
            <rect x="0" y="0" width="1080" height="1080" style="fill:none;"/>
            <g transform="matrix(1.04851,0,0,1.04851,-1362.83,-9816.51)">
                <path d="M1755.43,9991.77C1692.62,9968.75 1667.01,9903.65 1667.01,9903.65C1667.01,9903.65 1667.05,9932.25 1667.57,9945.38C1668.05,9957.48 1670.05,9981.62 1670.05,9981.62L1622.84,9985.65C1622.84,9985.65 1624.6,9959.1 1624.42,9945.81C1624.2,9927.8 1623.36,9899.44 1621.47,9877.61C1618.46,9843.07 1615.5,9810.89 1615.5,9810.89C1615.5,9810.89 1654.94,9811.28 1677.87,9811.53C1705.18,9811.84 1728.83,9825.4 1734.27,9835.86C1737.97,9842.97 1740.54,9856.86 1732.21,9870.65C1724.66,9883.15 1702.83,9886.48 1699.64,9886.9C1699.53,9886.92 1699.44,9886.97 1699.38,9887.05C1699.31,9887.13 1699.29,9887.24 1699.3,9887.34C1700.02,9892.24 1708.14,9942.64 1738.79,9964.84C1764.14,9983.2 1789.35,9979.99 1796.16,9972.77C1803.58,9964.92 1801.88,9956.61 1796.35,9950.81C1833.17,9944.24 1843.58,10024.1 1755.43,9991.77ZM2023.38,9809.83L1977.66,9811.37L1954.21,9861.57L1950.63,9862.33L1930.32,9811.5L1854.08,9813.18L1852.38,9985.21L1882.45,9985.2L1883.68,9877.96L1916.36,9985.11L1954.23,9984.2L1990.24,9872.78L1992.26,9985.06L2025.67,9985.1L2023.89,9843L2023.38,9809.83ZM1578.33,9840.6C1568.71,9807.02 1505,9811.23 1505,9811.23L1434.42,9811.76L1434.37,9817.65C1434.37,9817.65 1446.35,9823.77 1448.09,9837.78C1452.67,9874.69 1475.05,9897.95 1475.05,9897.95C1475.05,9897.95 1448.26,9915.3 1446.15,9941.39C1444.16,9966.05 1434.37,9980.55 1434.37,9980.55L1434.42,9984.99L1538.79,9982.81C1538.79,9982.81 1599.95,9982.31 1599.82,9940.68C1599.73,9912.63 1587.53,9907.41 1540.77,9894.58C1530.57,9891.78 1509.11,9890.05 1509.11,9890.05L1511.26,9885.13C1511.26,9885.13 1541.12,9885.39 1554.1,9881.38C1577.57,9874.14 1582.65,9855.66 1578.33,9840.6ZM2096.26,9918.19C2065.65,9898.83 2050.82,9886.63 2046.56,9864.36C2038.68,9823.17 2086.77,9792.67 2140.2,9804.03C2203.24,9817.43 2196.66,9846.53 2193.1,9853.85C2187.73,9864.89 2188.6,9871.05 2188.6,9871.05C2188.6,9871.05 2181.84,9872.85 2177.47,9869.41C2174.86,9867.35 2173.28,9862.33 2173.28,9862.33C2173.28,9862.33 2170.33,9863.85 2163.36,9862.16C2159.58,9861.23 2156.18,9857.48 2156.18,9857.48C2156.18,9857.48 2177.4,9846.83 2178.97,9838.15C2181.4,9824.71 2133.9,9814.24 2113.37,9834.89C2094.77,9853.59 2110.51,9867.57 2123.35,9878.24C2148.15,9898.86 2165.25,9911.99 2165.25,9933.82C2165.25,9964.23 2133.84,9984.33 2086.11,9984.33C2071.35,9984.33 2057.44,9981.97 2045.29,9977.8L2078.23,9938.05C2083.42,9942.98 2087.89,9949.25 2097.63,9949.25C2113.48,9949.25 2113.45,9929.06 2096.26,9918.19ZM1805.23,9921.17C1811.24,9924.27 1832.18,9935.99 1833.69,9936.82C1833.85,9937.56 1825.71,9945.92 1825.71,9945.92C1825.71,9945.92 1810.81,9934.69 1792.19,9939.37C1781.32,9942.09 1772.91,9951.86 1772.57,9951.95C1772.37,9951.91 1762.81,9948.92 1762.81,9948.92C1762.81,9948.92 1776.63,9933.14 1781.87,9927.55C1783.07,9926.26 1781.28,9921.14 1780.5,9919.72C1776.78,9912.94 1774.78,9910.38 1771.58,9903.43C1768.16,9896 1744.99,9850.33 1754.78,9807.45C1759.84,9785.29 1780.2,9760.08 1781.82,9757.11C1783.05,9754.85 1785.76,9754.41 1787.59,9756.38C1808.56,9778.91 1825,9803.04 1826.96,9832.47C1827.94,9847.19 1825.81,9861.61 1820.57,9875.73C1815.32,9889.89 1809.49,9903.93 1803.78,9917.98C1803.1,9919.65 1803.5,9920.28 1805.23,9921.17ZM1505.99,9821.37C1507.05,9821.22 1521.55,9821.52 1522.65,9821.52C1536.87,9821.52 1548.42,9833.96 1548.42,9849.28C1548.42,9864.6 1535.51,9874.47 1519.68,9877.07C1512.62,9878.22 1505.56,9877.17 1505.56,9877.17L1501.55,9894.98C1501.55,9894.98 1516.03,9895.95 1523.78,9897.51C1543.61,9901.48 1560.82,9907.83 1561.4,9926.69C1561.64,9934.38 1550.65,9946 1531.69,9947.45C1518.05,9948.5 1490.36,9946.51 1490.36,9946.51L1491.49,9927.72L1491.02,9862.48L1493.16,9821.56L1505.99,9821.37ZM1675.17,9838.73C1669.78,9838.74 1666.07,9838.86 1666.07,9838.86L1661.95,9878.41C1661.95,9878.41 1685.72,9878.38 1692.56,9877.78C1697.54,9877.34 1703.07,9876.38 1707.12,9874.18C1716.11,9869.27 1715.41,9859.73 1711.71,9851.75C1710.45,9849.05 1703.43,9839.76 1689.84,9839.07C1684.57,9838.81 1679.37,9838.73 1675.17,9838.73ZM1766.15,9826.58C1767.92,9827.91 1769.44,9829.61 1771.49,9830.51C1786.86,9837.33 1804.69,9830.69 1812.68,9822.43C1813.49,9821.59 1813.94,9820.51 1814.56,9819.53C1798.19,9829.66 1781.36,9828.86 1763.83,9822.9C1764.61,9824.23 1765.22,9825.27 1766.15,9826.58ZM1764.62,9816.17C1790.15,9828.81 1807.43,9818.67 1810.63,9814.54C1811.62,9813.26 1812.13,9811.75 1812.86,9810.34C1794.71,9819.61 1777.93,9819.88 1761.09,9809.11C1762.19,9811.35 1763.29,9813.6 1764.62,9816.17ZM1784.99,9791.65C1788.22,9793.21 1793.45,9792.07 1796,9789.9C1798.49,9787.78 1798.53,9784.45 1796.56,9782.41C1794.72,9780.5 1790.82,9780.11 1787.39,9781.25C1781.92,9783.08 1780.69,9789.57 1784.99,9791.65Z"/>
            </g>
        </g>
    </g>
</svg>
