<?xml version="1.0" encoding="UTF-8" standalone="no"?>
<!DOCTYPE svg PUBLIC "-//W3C//DTD SVG 1.1//EN" "http://www.w3.org/Graphics/SVG/1.1/DTD/svg11.dtd">
<svg width="100%" height="100%" viewBox="0 0 700 700" version="1.1" xmlns="http://www.w3.org/2000/svg" xmlns:xlink="http://www.w3.org/1999/xlink" xml:space="preserve" xmlns:serif="http://www.serif.com/" style="fill-rule:evenodd;clip-rule:evenodd;stroke-linejoin:round;stroke-miterlimit:2;">
    <g transform="matrix(1,0,0,1,-8251.12,-693.387)">
        <g id="Монтажная-область1" serif:id="Монтажная область1" transform="matrix(0.648148,0,0,0.364583,8251.12,693.387)">
            <rect x="0" y="0" width="1080" height="1920" style="fill:none;"/>
            <clipPath id="_clip1">
                <rect x="0" y="0" width="1080" height="1920"/>
            </clipPath>
            <g clip-path="url(#_clip1)">
                <g transform="matrix(0.89404,0,0,1.5894,-7439.93,-1359.38)">
                    <path d="M8952.7,1825.39C8953.7,1824.39 8954.7,1823.39 8958.7,1823.39C8963.7,1823.39 8964.7,1822.39 8965.7,1820.39C8966.7,1818.39 8967.7,1817.39 8971.7,1817.39C8976.7,1817.39 8977.7,1816.39 8978.7,1814.39C8979.7,1811.39 8980.7,1811.39 8983.7,1811.39C8988.7,1811.39 8990.7,1809.39 8990.7,1806.39L8990.7,1805.39L8995.7,1804.39L9000.7,1804.39L9001.7,1801.39L9002.7,1799.39L9007.7,1798.39L9012.7,1798.39L9013.7,1795.39L9014.7,1793.39L9019.7,1792.39C9024.7,1792.39 9025.7,1791.39 9026.7,1790.39C9026.7,1789.39 9028.7,1787.39 9029.7,1787.39C9030.7,1786.39 9032.7,1784.39 9032.7,1783.39L9033.7,1781.39L9038.7,1780.39L9043.7,1780.39L9043.7,1777.39L9044.7,1774.39L9049.7,1773.39C9054.7,1773.39 9055.7,1773.39 9056.7,1771.39C9057.7,1768.39 9058.7,1768.39 9062.7,1768.39L9067.7,1768.39L9068.7,1765.39C9068.7,1764.39 9069.7,1762.39 9071.7,1762.39C9074.7,1762.39 9075.7,1760.39 9075.7,1758.39L9075.7,1756.39L9080.7,1755.39L9085.7,1755.39L9086.7,1752.39L9087.7,1750.39L9092.7,1749.39L9097.7,1749.39L9098.7,1746.39L9099.7,1744.39L9104.7,1743.39C9108.7,1743.39 9109.7,1742.39 9110.7,1740.39C9111.7,1738.39 9112.7,1737.39 9117.7,1737.39C9121.7,1737.39 9122.7,1736.39 9123.7,1735.39C9123.7,1734.39 9125.7,1732.39 9126.7,1732.39C9127.7,1731.39 9129.7,1729.39 9129.7,1728.39L9130.7,1726.39L9135.7,1725.39L9140.7,1725.39L9141.7,1722.39L9142.7,1720.39L9147.7,1719.39L9152.7,1719.39L9153.7,1716.39L9154.7,1714.39L9159.7,1713.39L9164.7,1713.39L9165.7,1710.39L9166.7,1708.39L9171.7,1707.39C9175.7,1707.39 9176.7,1706.39 9177.7,1705.39C9178.7,1704.39 9180.7,1702.39 9181.7,1702.39C9182.7,1701.39 9184.7,1699.39 9184.7,1698.39L9185.7,1696.39L9189.7,1695.39L9194.7,1695.39L9196.7,1689.39L9201.7,1688.39C9205.7,1688.39 9206.7,1687.39 9207.7,1685.39C9208.7,1683.39 9209.7,1682.39 9214.7,1682.39C9218.7,1682.39 9219.7,1682.39 9220.7,1680.39C9221.7,1678.39 9222.7,1677.39 9223.7,1677.39L9225.7,1677.39L9227.7,1671.39L9232.7,1670.39L9237.7,1670.39L9238.7,1667.39L9239.7,1665.39L9244.7,1664.39L9249.7,1664.39L9250.7,1661.39L9251.7,1659.39L9256.7,1658.39C9260.7,1658.39 9261.7,1658.39 9262.7,1656.39C9263.7,1653.39 9264.7,1653.39 9268.7,1653.39C9273.7,1653.39 9274.7,1652.39 9275.7,1650.39C9275.7,1649.39 9277.7,1647.39 9278.7,1647.39C9279.7,1646.39 9281.7,1644.39 9281.7,1643.39L9282.7,1641.39L9287.7,1640.39L9292.7,1640.39L9293.7,1637.39L9294.7,1635.39L9299.7,1634.39L9304.7,1634.39L9305.7,1631.39L9306.7,1629.39L9311.7,1628.39C9315.7,1628.39 9316.7,1628.39 9317.7,1625.39L9318.7,1623.39L9320.7,1623.39C9322.7,1623.39 9323.7,1621.39 9323.7,1619.39L9324.7,1617.39L9329.7,1616.39L9334.7,1616.39L9335.7,1613.39L9336.7,1611.39L9341.7,1610.39L9346.7,1610.39L9348.7,1604.39L9353.7,1603.39C9357.7,1603.39 9358.7,1603.39 9359.7,1600.39C9360.7,1598.39 9361.7,1598.39 9366.7,1598.39L9372.7,1598.39L9372.7,1593.39L9374.7,1592.39C9375.7,1592.39 9376.7,1590.39 9377.7,1589.39L9378.7,1586.39L9384.7,1585.39L9389.7,1585.39L9390.7,1582.39L9391.7,1580.39L9396.7,1579.39L9401.7,1579.39L9402.7,1576.39L9403.7,1574.39L9408.7,1573.39L9413.7,1573.39L9414.7,1570.39L9415.7,1568.39L9420.7,1567.39C9424.7,1567.39 9425.7,1567.39 9426.7,1564.39L9427.7,1562.39L9431.7,1562.39L9433.7,1556.39L9439.7,1555.39L9444.7,1555.39L9445.7,1552.39L9446.7,1550.39L9451.7,1549.39L9456.7,1549.39L9457.7,1546.39L9458.7,1544.39L9463.7,1543.39C9467.7,1543.39 9468.7,1543.39 9469.7,1540.39L9470.7,1538.39L9472.7,1538.39C9474.7,1538.39 9475.7,1536.39 9475.7,1534.39L9476.7,1532.39L9481.7,1531.39L9486.7,1531.39L9487.7,1528.39L9488.7,1526.39L9493.7,1525.39C9498.7,1525.39 9500.7,1524.39 9500.7,1521.39L9500.7,1519.39L9505.7,1518.39C9509.7,1518.39 9510.7,1518.39 9511.7,1516.39C9512.7,1514.39 9513.7,1513.39 9514.7,1513.39C9515.7,1513.39 9517.7,1511.39 9518.7,1510.39C9518.7,1509.39 9520.7,1507.39 9521.7,1507.39L9524.7,1506.39L9524.7,1501.39C9524.7,1496.39 9524.7,1495.39 9527.7,1494.39L9529.7,1493.39L9529.7,1483.39L9526.7,1482.39L9524.7,1481.39L9523.7,1473.39L9523.7,1465.39L9520.7,1464.39C9519.7,1463.39 9518.7,1462.39 9517.7,1461.39C9516.7,1458.39 9515.7,1458.39 9511.7,1458.39L9506.7,1458.39L9505.7,1455.39L9504.7,1453.39L9499.7,1452.39L9494.7,1452.39L9493.7,1449.39L9492.7,1447.39L9487.7,1446.39L9482.7,1446.39L9482.7,1444.39C9482.7,1441.39 9480.7,1439.39 9478.7,1439.39L9476.7,1439.39L9475.7,1437.39C9474.7,1434.39 9473.7,1434.39 9469.7,1434.39C9464.7,1434.39 9463.7,1433.39 9462.7,1431.39C9461.7,1429.39 9460.7,1428.39 9456.7,1428.39L9451.7,1428.39L9450.7,1425.39L9450.7,1422.39L9445.7,1421.39L9440.7,1421.39L9439.7,1418.39L9438.7,1416.39L9433.7,1415.39L9427.7,1415.39L9426.7,1412.39C9426.7,1411.39 9425.7,1409.39 9423.7,1409.39C9421.7,1409.39 9420.7,1407.39 9420.7,1406.39L9419.7,1404.39L9414.7,1403.39L9409.7,1403.39L9408.7,1400.39L9407.7,1398.39L9402.7,1397.39L9397.7,1397.39L9396.7,1394.39L9395.7,1392.39L9390.7,1391.39L9385.7,1391.39L9385.7,1389.39C9385.7,1386.39 9383.7,1384.39 9381.7,1384.39L9379.7,1384.39L9378.7,1382.39L9377.7,1379.39L9367.7,1379.39L9365.7,1373.39L9354.7,1373.39L9353.7,1370.39L9352.7,1368.39L9347.7,1367.39L9342.7,1367.39L9341.7,1364.39L9340.7,1362.39L9335.7,1361.39L9330.7,1361.39L9330.7,1359.39C9330.7,1357.39 9328.7,1353.39 9326.7,1353.39C9326.7,1353.39 9324.7,1352.39 9324.7,1351.39C9322.7,1348.39 9321.7,1348.39 9317.7,1348.39L9312.7,1348.39L9311.7,1346.39C9310.7,1343.39 9309.7,1343.39 9304.7,1343.39L9299.7,1343.39L9298.7,1340.39L9298.7,1337.39L9293.7,1336.39L9288.7,1336.39L9287.7,1333.39L9286.7,1331.39L9281.7,1330.39L9276.7,1330.39L9275.7,1327.39C9275.7,1326.39 9273.7,1324.39 9272.7,1323.39C9271.7,1323.39 9269.7,1321.39 9268.7,1320.39C9267.7,1319.39 9266.7,1318.39 9262.7,1318.39L9257.7,1318.39L9256.7,1315.39L9255.7,1313.39L9250.7,1312.39L9245.7,1312.39L9244.7,1309.39C9244.7,1306.39 9243.7,1305.39 9238.7,1305.39C9235.7,1305.39 9234.7,1305.39 9233.7,1302.39C9232.7,1301.39 9231.7,1299.39 9229.7,1299.39C9228.7,1299.39 9227.7,1298.39 9226.7,1296.39C9225.7,1294.39 9224.7,1294.39 9220.7,1294.39C9215.7,1294.39 9214.7,1293.39 9213.7,1291.39C9212.7,1289.39 9211.7,1288.39 9207.7,1288.39L9202.7,1288.39L9201.7,1285.39L9200.7,1283.39L9195.7,1282.39L9190.7,1282.39L9189.7,1279.39L9189.7,1276.39L9184.7,1275.39L9179.7,1275.39L9178.7,1272.39C9178.7,1271.39 9176.7,1269.39 9175.7,1268.39C9174.7,1268.39 9172.7,1266.39 9171.7,1265.39C9170.7,1264.39 9169.7,1263.39 9165.7,1263.39L9160.7,1263.39L9159.7,1260.39L9158.7,1258.39L9153.7,1257.39L9148.7,1257.39L9147.7,1254.39L9146.7,1252.39L9141.7,1251.39L9136.7,1251.39L9135.7,1248.39L9134.7,1246.39L9129.7,1245.39C9124.7,1245.39 9124.7,1245.39 9122.7,1241.39C9122.7,1240.39 9120.7,1238.39 9119.7,1238.39L9118.7,1238.39L9117.7,1236.39C9116.7,1233.39 9115.7,1233.39 9110.7,1233.39L9105.7,1233.39L9104.7,1230.39L9103.7,1228.39L9098.7,1227.39L9094.7,1227.39L9093.7,1225.39C9093.7,1221.39 9091.7,1220.39 9086.7,1220.39C9083.7,1220.39 9082.7,1220.39 9081.7,1217.39C9080.7,1216.39 9078.7,1214.39 9077.7,1214.39L9075.7,1213.39L9074.7,1212.39C9074.7,1209.39 9073.7,1208.39 9068.7,1208.39L9063.7,1208.39L9062.7,1206.39C9061.7,1203.39 9060.7,1203.39 9056.7,1203.39L9051.7,1203.39L9050.7,1200.39L9049.7,1198.39L9043.7,1197.39L9038.7,1197.39L9037.7,1194.39L9037.7,1191.39L9032.7,1190.39C9028.7,1190.39 9027.7,1190.39 9026.7,1188.39C9026.7,1186.39 9024.7,1185.39 9022.7,1184.39L9020.7,1183.39L9020.7,1182.39C9020.7,1179.39 9018.7,1178.39 9013.7,1178.39L9008.7,1178.39L9007.7,1176.39C9006.7,1173.39 9005.7,1173.39 9001.7,1173.39L8996.7,1173.39L8994.7,1167.39L8989.7,1166.39L8984.7,1166.39L8983.7,1163.39L8982.7,1161.39L8977.7,1160.39L8972.7,1160.39L8971.7,1157.39L8970.7,1155.39L8965.7,1154.39L8960.7,1154.39L8959.7,1151.39L8958.7,1149.39L8944.7,1148.39L8929.7,1148.39L8928.7,1145.39L8927.7,1143.39L8925.7,1143.39C8924.7,1143.39 8923.7,1144.39 8922.7,1145.39C8921.7,1147.39 8920.7,1147.39 8907.7,1147.39L8893.7,1147.39L8892.7,1150.39L8891.7,1154.39L8883.7,1154.39L8875.7,1155.39L8874.7,1157.39L8873.7,1160.39L8868.7,1160.39C8864.7,1160.39 8863.7,1161.39 8862.7,1162.39C8861.7,1163.39 8859.7,1165.39 8858.7,1165.39C8857.7,1166.39 8855.7,1168.39 8855.7,1169.39L8854.7,1172.39L8849.7,1172.39L8844.7,1173.39L8843.7,1175.39L8842.7,1178.39L8837.7,1178.39L8832.7,1179.39L8831.7,1181.39L8830.7,1184.39L8825.7,1184.39C8821.7,1184.39 8820.7,1185.39 8819.7,1186.39C8818.7,1187.39 8816.7,1189.39 8815.7,1189.39C8813.7,1190.39 8812.7,1191.39 8812.7,1194.39L8812.7,1197.39L8807.7,1197.39L8802.7,1198.39L8801.7,1200.39L8800.7,1203.39L8795.7,1203.39L8790.7,1204.39L8789.7,1206.39L8788.7,1209.39L8783.7,1209.39L8778.7,1210.39L8777.7,1212.39L8776.7,1215.39L8771.7,1215.39C8766.7,1215.39 8765.7,1215.39 8764.7,1218.39L8763.7,1220.39L8761.7,1220.39C8759.7,1220.39 8757.7,1222.39 8757.7,1225.39L8758.7,1227.39L8752.7,1227.39L8747.7,1228.39L8746.7,1230.39L8745.7,1233.39L8740.7,1233.39L8735.7,1234.39L8735.7,1240.39L8729.7,1240.39C8724.7,1240.39 8723.7,1240.39 8722.7,1243.39L8721.7,1245.39L8716.7,1245.39C8712.7,1245.39 8711.7,1245.39 8710.7,1247.39C8709.7,1248.39 8707.7,1250.39 8706.7,1250.39C8705.7,1251.39 8703.7,1253.39 8703.7,1254.39L8702.7,1257.39L8697.7,1257.39L8692.7,1258.39L8692.7,1264.39L8686.7,1264.39C8681.7,1264.39 8680.7,1264.39 8679.7,1267.39L8678.7,1269.39L8673.7,1269.39C8669.7,1269.39 8668.7,1269.39 8666.7,1272.39C8666.7,1273.39 8664.7,1274.39 8664.7,1274.39C8662.7,1274.39 8660.7,1278.39 8660.7,1280.39L8661.7,1282.39L8655.7,1282.39L8650.7,1283.39L8649.7,1285.39L8648.7,1288.39L8643.7,1288.39L8638.7,1289.39L8637.7,1291.39L8636.7,1294.39L8631.7,1294.39L8626.7,1295.39L8625.7,1297.39L8624.7,1300.39L8619.7,1300.39C8614.7,1300.39 8613.7,1301.39 8612.7,1302.39C8612.7,1303.39 8610.7,1305.39 8609.7,1305.39C8608.7,1306.39 8606.7,1308.39 8606.7,1309.39L8605.7,1312.39L8600.7,1312.39L8595.7,1313.39L8594.7,1315.39L8593.7,1318.39L8588.7,1318.39L8583.7,1319.39L8582.7,1321.39L8581.7,1324.39L8576.7,1324.39L8571.7,1325.39L8569.7,1331.39L8564.7,1331.39C8560.7,1331.39 8559.7,1331.39 8558.7,1333.39C8557.7,1334.39 8556.7,1336.39 8555.7,1336.39C8553.7,1337.39 8552.7,1338.39 8552.7,1340.39L8552.7,1343.39L8546.7,1343.39L8541.7,1344.39L8540.7,1346.39L8539.7,1349.39L8534.7,1349.39C8530.7,1349.39 8529.7,1350.39 8528.7,1352.39C8527.7,1354.39 8526.7,1355.39 8521.7,1355.39C8517.7,1355.39 8516.7,1355.39 8515.7,1357.39C8514.7,1359.39 8513.7,1360.39 8512.7,1360.39L8510.7,1361.39L8508.7,1367.39L8503.7,1367.39L8498.7,1368.39L8497.7,1370.39L8496.7,1373.39L8491.7,1373.39L8486.7,1374.39L8485.7,1376.39L8484.7,1379.39L8479.7,1379.39L8474.7,1380.39L8473.7,1382.39L8472.7,1385.39L8467.7,1385.39C8462.7,1385.39 8461.7,1386.39 8460.7,1387.39C8460.7,1388.39 8458.7,1390.39 8457.7,1390.39C8456.7,1391.39 8454.7,1393.39 8454.7,1394.39L8453.7,1397.39L8448.7,1397.39L8443.7,1398.39L8442.7,1400.39L8441.7,1403.39L8436.7,1403.39L8431.7,1404.39L8431.7,1410.39L8425.7,1410.39C8420.7,1410.39 8419.7,1410.39 8418.7,1413.39L8417.7,1415.39L8412.7,1415.39C8408.7,1415.39 8407.7,1415.39 8405.7,1418.39C8405.7,1419.39 8403.7,1420.39 8402.7,1420.39C8402.7,1420.39 8400.7,1422.39 8400.7,1423.39C8398.7,1427.39 8398.7,1427.39 8393.7,1427.39L8389.7,1428.39L8387.7,1434.39L8382.7,1434.39C8378.7,1434.39 8377.7,1434.39 8376.7,1437.39C8375.7,1439.39 8374.7,1439.39 8370.7,1439.39C8365.7,1439.39 8364.7,1440.39 8363.7,1442.39C8363.7,1443.39 8361.7,1445.39 8360.7,1445.39C8359.7,1446.39 8358.7,1447.39 8357.7,1448.39C8356.7,1451.39 8355.7,1451.39 8351.7,1451.39L8346.7,1452.39L8344.7,1458.39L8339.7,1458.39C8335.7,1458.39 8334.7,1458.39 8333.7,1461.39L8332.7,1463.39L8330.7,1463.39C8327.7,1463.39 8326.7,1465.39 8326.7,1470.39L8326.7,1475.39L8324.7,1476.39L8321.7,1477.39L8321.7,1500.39L8323.7,1501.39C8324.7,1501.39 8326.7,1503.39 8326.7,1504.39C8327.7,1505.39 8329.7,1507.39 8330.7,1507.39C8331.7,1507.39 8333.7,1508.39 8333.7,1510.39C8333.7,1511.39 8335.7,1513.39 8336.7,1513.39C8338.7,1513.39 8339.7,1515.39 8339.7,1516.39L8340.7,1519.39L8345.7,1519.39L8351.7,1520.39L8351.7,1522.39C8351.7,1523.39 8352.7,1524.39 8354.7,1525.39C8355.7,1526.39 8356.7,1527.39 8357.7,1528.39L8358.7,1531.39L8363.7,1531.39C8366.7,1531.39 8368.7,1532.39 8369.7,1533.39L8370.7,1534.39L8369.7,1534.39L8370.7,1535.39C8371.7,1536.39 8373.7,1537.39 8376.7,1537.39L8381.7,1538.39L8382.7,1540.39L8383.7,1543.39L8388.7,1543.39L8392.7,1544.39L8393.7,1546.39C8393.7,1549.39 8395.7,1550.39 8400.7,1550.39L8404.7,1550.39L8405.7,1553.39C8406.7,1554.39 8407.7,1555.39 8408.7,1556.39C8409.7,1556.39 8411.7,1558.39 8411.7,1559.39C8412.7,1561.39 8413.7,1562.39 8418.7,1562.39C8422.7,1562.39 8423.7,1562.39 8424.7,1565.39C8425.7,1567.39 8426.7,1567.39 8430.7,1567.39L8435.7,1568.39L8436.7,1570.39L8437.7,1573.39L8443.7,1573.39L8448.7,1574.39L8449.7,1576.39L8450.7,1579.39L8455.7,1579.39L8459.7,1580.39L8460.7,1582.39C8460.7,1584.39 8462.7,1586.39 8464.7,1586.39L8466.7,1586.39L8467.7,1588.39C8468.7,1591.39 8469.7,1591.39 8473.7,1591.39L8478.7,1592.39L8480.7,1598.39L8485.7,1598.39L8490.7,1599.39L8491.7,1601.39L8492.7,1604.39L8497.7,1604.39L8503.7,1605.39L8503.7,1607.39C8503.7,1609.39 8504.7,1611.39 8506.7,1611.39C8507.7,1611.39 8509.7,1612.39 8510.7,1614.39C8511.7,1616.39 8513.7,1616.39 8516.7,1616.39L8521.7,1616.39L8522.7,1618.39C8523.7,1621.39 8524.7,1621.39 8528.7,1621.39L8533.7,1622.39L8535.7,1628.39L8539.7,1628.39L8544.7,1629.39L8545.7,1631.39L8546.7,1634.39L8551.7,1634.39L8556.7,1635.39L8557.7,1637.39C8557.7,1639.39 8559.7,1641.39 8561.7,1641.39L8563.7,1641.39L8564.7,1643.39C8565.7,1646.39 8566.7,1646.39 8570.7,1646.39L8575.7,1647.39L8576.7,1649.39L8577.7,1652.39L8582.7,1652.39L8587.7,1653.39L8588.7,1655.39L8589.7,1658.39L8594.7,1658.39L8599.7,1659.39L8600.7,1661.39L8601.7,1664.39L8606.7,1664.39L8612.7,1665.39L8614.7,1671.39L8618.7,1671.39L8619.7,1673.39C8620.7,1676.39 8621.7,1676.39 8625.7,1676.39L8630.7,1677.39L8631.7,1679.39L8632.7,1682.39L8637.7,1682.39L8642.7,1683.39L8644.7,1689.39L8649.7,1689.39L8654.7,1690.39L8655.7,1692.39C8655.7,1693.39 8656.7,1695.39 8658.7,1695.39C8660.7,1695.39 8661.7,1697.39 8661.7,1698.39L8662.7,1701.39L8667.7,1701.39C8672.7,1701.39 8673.7,1701.39 8674.7,1703.39C8675.7,1706.39 8676.7,1706.39 8680.7,1706.39L8685.7,1707.39L8687.7,1713.39L8691.7,1713.39L8696.7,1714.39L8697.7,1716.39L8698.7,1719.39L8703.7,1719.39L8709.7,1720.39L8711.7,1726.39L8712.7,1726.39C8713.7,1726.39 8714.7,1727.39 8715.7,1729.39C8716.7,1731.39 8717.7,1732.39 8722.7,1732.39C8726.7,1732.39 8727.7,1732.39 8728.7,1735.39C8729.7,1737.39 8730.7,1737.39 8734.7,1737.39L8739.7,1738.39L8740.7,1740.39L8741.7,1743.39L8746.7,1743.39L8751.7,1744.39L8752.7,1746.39L8753.7,1749.39L8758.7,1749.39L8763.7,1750.39L8764.7,1752.39C8764.7,1753.39 8766.7,1755.39 8767.7,1756.39C8768.7,1756.39 8770.7,1758.39 8770.7,1759.39C8771.7,1760.39 8772.7,1761.39 8777.7,1761.39L8783.7,1762.39L8783.7,1768.39L8788.7,1768.39C8792.7,1768.39 8793.7,1769.39 8794.7,1771.39C8795.7,1773.39 8796.7,1774.39 8800.7,1774.39L8805.7,1775.39L8806.7,1777.39C8806.7,1778.39 8808.7,1780.39 8809.7,1781.39C8810.7,1781.39 8812.7,1783.39 8813.7,1784.39C8814.7,1785.39 8815.7,1786.39 8819.7,1786.39L8824.7,1787.39L8825.7,1789.39L8826.7,1792.39L8831.7,1792.39L8836.7,1793.39L8837.7,1795.39L8838.7,1798.39L8843.7,1798.39L8848.7,1799.39L8849.7,1801.39L8850.7,1804.39L8856.7,1804.39L8862.7,1805.39L8862.7,1807.39C8862.7,1808.39 8863.7,1809.39 8865.7,1810.39C8866.7,1811.39 8867.7,1812.39 8868.7,1813.39L8869.7,1816.39L8877.7,1816.39L8886.7,1817.39L8885.7,1818.39C8885.7,1821.39 8887.7,1823.39 8892.7,1823.39C8896.7,1823.39 8897.7,1823.39 8898.7,1825.39C8899.7,1827.39 8900.7,1827.39 8925.7,1827.39C8950.7,1827.39 8951.7,1827.39 8952.7,1825.39ZM8916.7,1704.39C8915.7,1702.39 8914.7,1702.39 8873.7,1702.39L8831.7,1702.39L8831.7,1701.39L8832.7,1701.39L8831.7,1699.39C8830.7,1699.39 8830.7,1698.39 8830.7,1697.39L8831.7,1696.39L8813.7,1695.39C8796.7,1695.39 8796.7,1695.39 8795.7,1692.39C8794.7,1689.39 8794.7,1689.39 8779.7,1688.39L8765.7,1688.39L8764.7,1686.39L8763.7,1683.39L8741.7,1683.39L8741.7,1680.39C8741.7,1677.39 8739.7,1676.39 8730.7,1676.39L8722.7,1676.39L8721.7,1673.39L8721.7,1671.39L8713.7,1670.39L8704.7,1670.39L8703.7,1668.39L8702.7,1665.39L8686.7,1665.39L8684.7,1659.39L8679.7,1658.39L8674.7,1658.39L8673.7,1655.39L8672.7,1653.39L8667.7,1652.39L8662.7,1652.39L8661.7,1649.39L8660.7,1647.39L8655.7,1646.39C8650.7,1646.39 8648.7,1645.39 8648.7,1642.39L8649.7,1641.39L8643.7,1640.39L8637.7,1640.39L8636.7,1637.39L8635.7,1635.39L8631.7,1634.39L8626.7,1634.39L8625.7,1631.39C8625.7,1630.39 8623.7,1628.39 8622.7,1627.39C8621.7,1627.39 8619.7,1625.39 8619.7,1624.39C8618.7,1623.39 8617.7,1622.39 8612.7,1622.39L8607.7,1622.39L8606.7,1619.39C8606.7,1617.39 8605.7,1615.39 8603.7,1615.39L8601.7,1615.39L8600.7,1613.39C8599.7,1610.39 8598.7,1610.39 8594.7,1610.39L8589.7,1610.39L8588.7,1607.39C8588.7,1605.39 8587.7,1604.39 8585.7,1604.39L8583.7,1603.39L8582.7,1601.39L8581.7,1598.39L8579.7,1597.39C8578.7,1597.39 8576.7,1596.39 8576.7,1594.39C8576.7,1593.39 8574.7,1591.39 8573.7,1591.39C8571.7,1591.39 8570.7,1589.39 8570.7,1588.39L8569.7,1586.39L8567.7,1585.39C8566.7,1585.39 8564.7,1584.39 8564.7,1582.39C8563.7,1581.39 8562.7,1580.39 8560.7,1580.39L8558.7,1580.39L8557.7,1577.39C8557.7,1575.39 8556.7,1574.39 8554.7,1574.39L8552.7,1573.39L8551.7,1568.39C8551.7,1563.39 8551.7,1562.39 8549.7,1561.39C8547.7,1561.39 8546.7,1559.39 8546.7,1558.39L8546.7,1556.39L8543.7,1555.39L8541.7,1554.39L8540.7,1549.39C8540.7,1544.39 8539.7,1542.39 8536.7,1542.39L8534.7,1543.39L8533.7,1537.39L8533.7,1532.39L8530.7,1531.39L8528.7,1530.39L8527.7,1519.39L8527.7,1508.39L8524.7,1507.39L8522.7,1506.39L8522.7,1465.39L8524.7,1464.39L8527.7,1463.39L8527.7,1451.39L8528.7,1440.39L8531.7,1439.39L8534.7,1439.39L8534.7,1434.39C8534.7,1430.39 8535.7,1429.39 8537.7,1428.39C8539.7,1427.39 8540.7,1426.39 8540.7,1422.39C8540.7,1418.39 8541.7,1417.39 8543.7,1416.39C8544.7,1415.39 8546.7,1413.39 8546.7,1412.39C8546.7,1410.39 8547.7,1409.39 8549.7,1409.39L8552.7,1408.39L8552.7,1403.39L8553.7,1398.39L8555.7,1397.39C8556.7,1397.39 8558.7,1396.39 8558.7,1394.39C8558.7,1393.39 8560.7,1391.39 8561.7,1391.39C8562.7,1391.39 8564.7,1389.39 8564.7,1388.39C8564.7,1387.39 8566.7,1385.39 8567.7,1385.39C8568.7,1385.39 8570.7,1383.39 8570.7,1382.39C8570.7,1381.39 8572.7,1379.39 8573.7,1379.39C8574.7,1379.39 8576.7,1377.39 8576.7,1376.39C8576.7,1375.39 8578.7,1373.39 8579.7,1373.39C8580.7,1373.39 8582.7,1371.39 8582.7,1370.39C8582.7,1369.39 8584.7,1367.39 8585.7,1367.39C8587.7,1367.39 8588.7,1365.39 8588.7,1364.39L8589.7,1362.39L8594.7,1361.39L8599.7,1361.39L8600.7,1358.39C8600.7,1356.39 8601.7,1355.39 8603.7,1355.39C8604.7,1355.39 8606.7,1353.39 8607.7,1352.39C8608.7,1350.39 8609.7,1349.39 8613.7,1349.39L8618.7,1349.39L8618.7,1346.39L8619.7,1343.39L8624.7,1342.39C8628.7,1342.39 8629.7,1342.39 8630.7,1339.39L8631.7,1337.39L8633.7,1337.39C8635.7,1337.39 8637.7,1335.39 8637.7,1333.39L8638.7,1331.39L8643.7,1330.39L8648.7,1330.39L8649.7,1327.39L8650.7,1325.39L8655.7,1324.39L8660.7,1324.39L8661.7,1321.39L8662.7,1319.39L8667.7,1318.39L8672.7,1318.39L8673.7,1315.39L8674.7,1313.39L8683.7,1312.39L8692.7,1312.39L8692.7,1307.39L8697.7,1306.39L8702.7,1306.39L8703.7,1303.39L8704.7,1301.39L8716.7,1300.39L8728.7,1300.39L8727.7,1298.39C8727.7,1295.39 8729.7,1294.39 8738.7,1294.39L8745.7,1294.39L8746.7,1291.39L8747.7,1289.39L8755.7,1288.39L8763.7,1288.39L8764.7,1285.39L8765.7,1283.39L8783.7,1282.39L8800.7,1282.39L8801.7,1279.39L8802.7,1277.39L8818.7,1276.39C8828.7,1276.39 8836.7,1276.39 8837.7,1275.39C8837.7,1274.39 8838.7,1273.39 8838.7,1271.39L8837.7,1268.39L9013.7,1268.39L9012.7,1269.39C9012.7,1270.39 9013.7,1272.39 9013.7,1273.39C9015.7,1275.39 9015.7,1276.39 9032.7,1276.39L9049.7,1277.39L9050.7,1279.39L9051.7,1282.39L9079.7,1282.39L9080.7,1284.39L9081.7,1287.39L9093.7,1287.39L9104.7,1288.39L9106.7,1294.39L9114.7,1294.39L9122.7,1295.39L9123.7,1297.39L9124.7,1300.39L9135.7,1300.39L9146.7,1301.39L9147.7,1303.39L9148.7,1306.39L9153.7,1306.39L9159.7,1307.39L9158.7,1308.39C9158.7,1311.39 9160.7,1313.39 9165.7,1313.39L9170.7,1313.39L9171.7,1315.39L9172.7,1318.39L9181.7,1318.39L9189.7,1319.39L9190.7,1321.39L9191.7,1324.39L9196.7,1324.39L9201.7,1325.39L9202.7,1327.39L9203.7,1330.39L9208.7,1330.39L9214.7,1331.39L9214.7,1333.39C9214.7,1335.39 9215.7,1337.39 9217.7,1337.39L9219.7,1337.39L9220.7,1339.39C9221.7,1342.39 9222.7,1342.39 9226.7,1342.39L9232.7,1343.39L9231.7,1344.39C9231.7,1347.39 9233.7,1349.39 9235.7,1349.39L9237.7,1349.39L9238.7,1351.39C9239.7,1354.39 9240.7,1354.39 9245.7,1354.39L9251.7,1355.39L9251.7,1361.39L9253.7,1361.39C9255.7,1361.39 9256.7,1362.39 9257.7,1363.39C9257.7,1365.39 9259.7,1366.39 9260.7,1366.39C9261.7,1367.39 9262.7,1368.39 9263.7,1369.39C9264.7,1372.39 9265.7,1372.39 9269.7,1372.39L9274.7,1373.39L9275.7,1375.39L9276.7,1378.39L9278.7,1379.39L9281.7,1380.39L9281.7,1385.39C9281.7,1389.39 9281.7,1390.39 9283.7,1391.39C9285.7,1392.39 9286.7,1393.39 9286.7,1394.39C9286.7,1395.39 9288.7,1397.39 9289.7,1398.39C9290.7,1398.39 9292.7,1400.39 9292.7,1401.39C9293.7,1402.39 9294.7,1403.39 9295.7,1404.39C9297.7,1404.39 9298.7,1406.39 9298.7,1407.39C9299.7,1408.39 9300.7,1409.39 9301.7,1410.39L9304.7,1411.39L9304.7,1415.39C9304.7,1420.39 9306.7,1422.39 9309.7,1422.39L9311.7,1422.39L9311.7,1427.39C9311.7,1432.39 9311.7,1433.39 9314.7,1434.39L9316.7,1435.39L9316.7,1440.39C9316.7,1445.39 9318.7,1447.39 9321.7,1447.39L9323.7,1447.39L9323.7,1481.39L9326.7,1482.39L9328.7,1483.39L9328.7,1487.39L9326.7,1488.39L9323.7,1489.39L9323.7,1524.39L9320.7,1525.39L9318.7,1526.39L9317.7,1531.39L9317.7,1536.39L9314.7,1537.39L9312.7,1538.39L9311.7,1543.39C9311.7,1548.39 9310.7,1550.39 9307.7,1550.39L9306.7,1550.39L9305.7,1555.39L9305.7,1560.39L9299.7,1562.39L9298.7,1564.39C9298.7,1565.39 9297.7,1566.39 9295.7,1567.39C9293.7,1568.39 9293.7,1569.39 9293.7,1573.39L9293.7,1578.39L9290.7,1579.39C9289.7,1579.39 9287.7,1581.39 9286.7,1582.39C9286.7,1583.39 9284.7,1585.39 9283.7,1585.39C9282.7,1586.39 9281.7,1587.39 9280.7,1588.39C9280.7,1590.39 9278.7,1591.39 9277.7,1591.39C9276.7,1592.39 9275.7,1593.39 9274.7,1594.39L9273.7,1597.39L9270.7,1597.39L9269.7,1600.39L9268.7,1604.39L9263.7,1604.39C9258.7,1604.39 9257.7,1604.39 9256.7,1607.39L9255.7,1609.39L9253.7,1609.39C9251.7,1609.39 9249.7,1611.39 9249.7,1614.39L9250.7,1616.39L9244.7,1616.39C9240.7,1616.39 9239.7,1616.39 9238.7,1619.39L9237.7,1621.39L9235.7,1621.39C9233.7,1621.39 9232.7,1623.39 9232.7,1625.39L9232.7,1628.39L9226.7,1628.39C9222.7,1628.39 9221.7,1628.39 9220.7,1631.39L9219.7,1633.39L9217.7,1633.39C9215.7,1633.39 9213.7,1635.39 9213.7,1638.39L9212.7,1640.39L9208.7,1640.39L9203.7,1641.39L9202.7,1643.39L9201.7,1646.39L9196.7,1646.39L9190.7,1647.39L9189.7,1649.39L9188.7,1652.39L9183.7,1652.39L9178.7,1653.39L9177.7,1655.39L9176.7,1658.39L9168.7,1658.39L9160.7,1659.39L9159.7,1661.39L9158.7,1664.39L9153.7,1664.39L9148.7,1665.39L9147.7,1667.39L9146.7,1670.39L9139.7,1670.39C9130.7,1670.39 9128.7,1671.39 9128.7,1674.39L9129.7,1677.39L9117.7,1677.39C9106.7,1677.39 9105.7,1677.39 9104.7,1679.39C9103.7,1681.39 9102.7,1681.39 9095.7,1681.39C9087.7,1681.39 9086.7,1682.39 9086.7,1686.39L9086.7,1689.39L9071.7,1689.39L9057.7,1690.39L9057.7,1691.39C9058.7,1694.39 9055.7,1695.39 9038.7,1695.39L9021.7,1695.39L9020.7,1698.39C9019.7,1699.39 9019.7,1701.39 9019.7,1701.39L9019.7,1702.39L8978.7,1702.39C8937.7,1702.39 8936.7,1702.39 8935.7,1704.39C8934.7,1706.39 8933.7,1706.39 8926.7,1706.39C8918.7,1706.39 8917.7,1706.39 8916.7,1704.39Z"/>
                </g>
                <g transform="matrix(1.06835,0,0,1.89928,9.01818,-549.405)">
                    <path d="M236.205,793.773C235.672,794.04 234.872,793.64 234.338,794.173L234.338,812.707L232.338,812.707C231.672,812.84 231.138,812.44 230.605,813.107L230.472,813.24L230.472,827.107C230.472,827.373 230.605,827.373 230.472,827.507C230.472,827.507 230.472,827.64 230.205,827.64C229.138,828.307 227.805,827.507 226.738,828.04L226.738,846.44C226.738,846.573 226.605,846.573 226.605,846.707C225.405,847.107 224.072,846.44 223.005,847.107L223.005,865.107C223.005,865.107 223.005,865.24 222.872,865.507L222.605,865.64L219.272,865.64C219.005,869.507 219.138,878.44 219.538,880.84L279.538,880.84C279.938,880.04 279.672,879.507 279.672,878.84C279.672,878.307 279.538,877.64 280.072,877.107L290.605,877.107C290.738,876.973 290.738,876.973 291.005,876.707L291.005,875.107C291.138,874.307 290.738,873.773 291.405,873.24L298.205,873.24C298.338,873.24 298.338,873.107 298.605,872.84L298.605,869.773C299.272,869.373 299.938,869.507 300.605,869.507C301.138,869.373 301.672,869.773 302.338,869.107C302.472,868.04 302.338,866.973 302.472,865.64L305.005,865.64C305.805,865.64 306.738,865.773 307.538,865.64C308.338,865.64 309.138,866.04 309.938,865.507C310.072,864.307 309.938,863.107 310.072,861.907L313.538,861.907C313.938,860.707 313.405,859.373 313.938,858.04L317.538,858.04L317.538,853.107C317.672,852.173 317.272,851.373 317.805,850.44L321.138,850.44C321.538,849.107 321.005,847.907 321.538,846.707L323.272,846.707C323.805,846.707 324.472,846.973 325.005,846.573L325.005,839.107C325.805,839.107 326.338,839.373 327.138,839.107C327.672,839.107 328.205,839.507 328.738,838.973L328.738,828.573C328.738,828.44 328.738,828.44 329.005,828.307C329.005,828.307 329.005,828.04 329.138,827.907L330.872,827.907C331.405,827.907 332.072,828.04 332.605,827.507L332.605,809.373C332.605,809.107 332.872,809.107 332.872,808.973L335.005,808.973C335.405,808.973 335.938,809.107 336.338,808.573L336.338,786.573C336.338,786.573 336.205,786.44 335.938,786.173L332.872,786.173C332.872,786.04 332.605,786.04 332.605,785.773L332.605,775.24C332.472,775.107 332.472,775.107 332.338,774.84C331.138,774.84 330.072,775.107 328.738,774.707L328.738,772.307C328.738,771.373 329.005,770.707 328.738,769.773C328.738,768.973 329.138,768.04 328.605,767.373L325.405,767.373C325.272,767.373 325.272,767.107 325.005,767.107L325.005,763.773C323.805,763.24 322.472,763.773 321.138,763.373L321.138,759.907C320.205,759.507 319.538,759.907 318.738,759.773C317.805,759.773 316.872,759.907 316.205,759.773C315.405,759.773 314.472,760.04 313.538,759.507L313.538,756.04L307.672,756.04C307.138,756.04 306.605,756.173 306.205,755.64L306.205,754.173C306.205,753.373 306.338,752.84 305.938,752.307L245.672,752.307L245.672,757.373C245.672,758.04 245.805,758.973 245.405,759.907L242.072,759.907C241.938,760.04 241.938,760.04 241.938,760.307L241.938,774.307C241.938,774.573 241.938,774.573 241.672,774.707C241.672,774.707 241.672,774.84 241.538,775.107L238.072,775.107L238.072,793.773L236.205,793.773ZM279.272,820.307C279.538,820.04 279.672,820.04 279.672,819.907L279.672,801.64C280.738,800.973 282.072,801.773 283.405,801.24C283.538,800.04 283.405,798.973 283.538,797.907C284.072,797.373 284.872,797.64 285.672,797.64C286.338,797.507 286.738,798.04 287.138,798.44L287.138,820.307L283.805,820.307C283.538,820.44 283.538,820.44 283.538,820.707C283.405,820.707 283.405,820.84 283.405,820.84L283.405,831.24C283.405,831.373 283.405,831.373 283.272,831.64L279.938,831.64C279.272,832.84 279.938,834.173 279.538,835.507L276.205,835.507C275.938,835.24 275.938,835.24 275.938,835.107C275.805,834.973 275.938,834.707 275.938,834.573L275.938,820.307L279.272,820.307Z" style="fill-rule:nonzero;"/>
                    <path d="M441.405,763.64C440.872,763.64 440.072,763.773 439.538,763.373L439.538,759.907L434.338,759.907C433.538,759.773 432.605,760.04 431.938,759.507L431.938,756.04L426.738,756.04C425.938,756.04 425.138,756.44 424.338,755.773C424.338,754.707 424.472,753.373 424.338,752.307L398.072,752.307C397.672,750.973 398.205,749.773 397.672,748.573L360.205,748.573C359.672,749.773 360.472,750.973 359.938,752.307L358.205,752.307C357.672,752.307 356.872,752.173 356.338,752.44L356.338,758.44C356.338,758.973 356.605,759.507 355.938,759.907C355.405,759.907 354.872,759.773 354.338,759.907C353.805,759.907 353.272,759.773 352.472,760.04L352.472,778.573C351.138,778.973 349.938,778.44 348.738,778.973L348.738,791.373C348.605,792.173 349.005,792.84 348.605,793.773C347.538,794.173 346.205,793.64 344.872,794.173L344.872,812.44C344.872,812.44 344.872,812.707 344.738,812.84L341.405,812.84C341.405,813.107 341.138,813.107 341.138,813.24L341.138,831.373C341.005,831.64 341.005,831.64 340.872,831.773L337.672,831.773C337.538,831.907 337.538,832.173 337.538,832.173C337.272,836.707 337.272,841.64 337.272,846.44L337.272,846.573C337.272,846.707 337.138,846.707 337.138,846.707C335.938,846.973 334.872,846.707 333.538,846.973L333.538,864.307C333.538,864.707 333.805,865.507 333.272,865.773C332.605,865.773 332.338,865.64 331.672,865.773C331.138,865.773 330.472,865.507 329.938,866.04L329.938,880.707C330.072,880.84 330.072,880.84 330.205,880.84L374.872,880.84C375.005,880.84 375.005,880.707 375.272,880.44L375.272,877.373C376.605,876.707 377.805,877.507 379.005,876.707L379.005,858.573C379.005,858.44 379.138,858.44 379.272,858.307L381.405,858.307C381.938,858.307 382.872,858.973 382.872,859.507C382.872,861.24 382.605,862.707 382.872,864.307C382.872,864.707 382.472,865.24 383.005,865.64C384.205,866.04 385.672,865.24 386.605,866.707L386.605,873.24L389.272,873.24C389.672,873.64 390.072,874.04 390.205,874.307L390.205,876.707C390.205,876.973 390.472,876.973 390.605,877.107L396.605,877.107C397.138,877.107 397.805,877.907 397.805,878.44C398.072,879.373 397.672,880.04 398.205,880.84L423.938,880.84C424.205,880.84 424.205,880.84 424.338,880.707L424.338,877.373C425.272,876.973 425.938,877.107 426.605,877.107L433.538,877.107C434.338,877.107 435.138,877.373 435.805,876.707L435.805,873.373C437.138,873.107 438.472,873.64 439.538,873.107L439.538,854.707L439.672,854.573C440.872,854.173 442.072,854.707 443.272,854.173L443.272,828.573C443.272,828.44 443.405,828.44 443.272,828.307C443.272,828.307 443.272,828.04 443.005,828.04L439.672,828.04C439.138,829.107 439.938,830.44 439.272,831.773L437.672,831.773C437.138,831.773 436.338,831.64 435.805,831.907C435.405,833.107 436.205,834.307 435.405,835.507L428.472,835.507C428.472,835.507 428.472,835.64 428.205,835.773L428.205,838.973C428.072,839.107 427.805,839.373 427.805,839.373L398.338,839.373C398.338,839.373 398.205,839.373 398.205,839.107C398.072,839.107 398.072,839.107 397.805,838.973L397.805,835.773L398.072,835.64C398.205,835.64 398.205,835.507 398.205,835.507L416.605,835.507C416.738,835.507 416.738,835.24 416.872,835.107L416.872,831.773L426.738,831.773C427.272,831.773 427.805,831.907 428.205,831.373C428.205,830.84 428.072,830.307 428.205,829.773C428.205,829.107 428.072,828.573 428.472,827.907L431.805,827.907C432.338,826.573 431.538,825.24 432.338,824.173L435.805,824.173C435.805,823.373 435.672,822.707 435.805,822.173C435.805,821.64 435.405,820.84 435.938,820.307C436.605,820.307 437.138,820.44 437.672,820.307C438.205,820.307 438.738,820.707 439.538,820.04L439.538,816.707C440.872,816.44 442.072,816.973 443.272,816.44L443.272,811.64C443.405,810.84 443.005,809.907 443.405,809.107C444.738,808.84 445.938,809.373 447.138,808.84L447.138,798.04C447.138,797.907 447.272,797.907 447.272,797.64L450.605,797.64C451.005,794.573 451.005,781.373 450.605,778.84L447.272,778.84C446.872,777.907 447.138,776.973 447.138,776.173L447.138,773.64C446.872,772.84 447.272,771.907 446.738,771.24L443.272,771.24L443.272,763.64L441.405,763.64ZM390.472,805.507C391.005,805.107 391.672,805.24 392.338,805.24L393.805,805.24C393.938,805.107 393.938,805.107 393.938,804.973C394.205,804.973 394.205,804.707 394.205,804.707L394.205,794.307C394.205,794.173 394.205,794.173 394.338,794.04L394.472,794.04C395.272,793.773 396.205,794.04 396.872,794.04C397.272,794.173 397.672,794.573 397.805,794.973L397.805,797.373C398.072,797.507 398.205,797.64 398.338,797.64L400.205,797.64C401.005,797.64 401.672,798.44 401.672,798.973L401.672,805.107C400.472,805.507 399.138,804.973 397.805,805.507L397.805,808.573C397.672,808.84 397.672,808.973 397.672,808.973L390.472,808.973L390.472,805.507Z" style="fill-rule:nonzero;"/>
                    <path d="M565.538,808.973C565.805,808.84 565.805,808.84 565.805,808.573L565.805,775.24C565.805,775.107 565.538,775.107 565.405,774.84L562.205,774.84C561.938,774.04 562.072,773.24 562.072,772.307L562.072,769.907C561.938,768.973 562.205,768.173 561.672,767.373L558.338,767.373C557.938,766.04 558.605,764.707 557.938,763.64L556.338,763.64C555.805,763.64 555.005,763.773 554.472,763.24L554.472,760.04C553.138,759.507 551.938,760.04 550.738,759.507L550.738,757.64L550.605,756.573L550.605,756.173C550.472,756.173 550.472,756.04 550.205,756.04L539.672,756.04C539.538,756.04 539.538,755.773 539.272,755.773C539.272,754.707 539.538,753.373 539.272,752.307L517.938,752.307C517.672,752.307 517.005,752.44 516.738,751.907L516.738,750.44C516.472,749.773 516.872,749.107 516.338,748.573L475.005,748.573L475.005,753.64C475.005,754.307 475.272,755.24 474.872,756.04L471.538,756.04L471.272,756.44L471.272,770.707C471.272,770.84 471.272,770.84 471.138,770.973C471.138,770.973 471.005,770.973 471.005,771.24L469.538,771.24C468.738,771.24 468.205,770.973 467.405,771.373L467.405,788.573C467.405,789.107 467.672,789.773 467.005,790.04L465.538,790.04C465.005,790.04 464.338,789.907 463.672,790.44L463.672,808.84C462.472,809.373 461.138,808.84 459.805,809.107L459.805,824.04C458.605,824.573 457.272,823.773 456.205,824.307L456.205,842.707L455.938,842.84C454.872,843.373 453.538,842.707 452.205,843.24L452.205,860.44C452.205,860.84 452.472,861.24 452.205,861.64C452.205,861.773 452.205,861.773 452.072,861.907L448.738,861.907C448.605,865.24 448.605,878.307 448.738,880.84L493.672,880.84C493.672,880.707 493.938,880.707 493.938,880.44L493.938,869.907C494.072,869.773 494.072,869.773 494.338,869.507L495.805,869.507C496.338,869.507 497.005,869.773 497.672,869.373L497.805,869.107L497.805,854.707C497.805,854.573 497.938,854.573 497.938,854.307L499.672,854.307C500.205,854.307 500.738,854.573 501.538,854.173L501.538,847.373C501.538,847.107 501.672,846.973 501.938,846.707L504.338,846.707C504.605,847.107 505.005,847.507 505.405,847.907L505.405,850.707L527.405,850.707C527.672,850.707 527.672,850.707 527.938,850.307L527.938,848.84C527.938,848.307 527.805,847.507 528.205,846.707L535.405,846.707C535.805,845.64 535.272,844.307 535.805,843.107L543.005,843.107C543.405,841.773 542.872,840.44 543.405,839.107L546.738,839.107C547.272,837.907 546.472,836.573 547.272,835.507L548.738,835.507C549.538,835.507 550.072,835.64 550.738,835.24L550.738,831.907C551.938,831.373 553.138,831.907 554.472,831.64L554.472,824.173L556.472,824.173C557.138,824.173 557.672,824.307 558.205,823.773L558.205,822.04L558.338,818.44L558.338,816.707C559.672,816.44 561.005,816.973 562.072,816.44L562.072,809.373C563.138,808.573 564.472,809.373 565.538,808.973ZM509.272,808.973C509.272,808.84 509.138,808.84 509.138,808.573L509.138,801.773C509.138,801.773 509.272,801.64 509.272,801.373L512.605,801.373C513.005,800.707 512.872,799.773 512.872,798.973C513.005,798.04 512.872,797.373 512.872,796.44C513.005,795.64 512.605,794.707 513.005,794.04L515.805,794.04C516.205,794.307 516.738,794.707 516.738,795.507L516.738,804.973C516.338,805.507 515.805,805.24 515.272,805.24L513.138,805.24C512.605,805.773 513.005,806.573 512.872,807.107L512.872,808.973L509.272,808.973Z" style="fill-rule:nonzero;"/>
                    <path d="M669.938,763.64L667.538,763.64C666.605,763.373 665.938,763.773 665.005,763.24L665.005,759.773C664.205,759.773 663.672,759.907 662.872,759.773C662.338,759.773 661.805,760.04 661.138,759.373L661.138,756.04L647.538,756.04C647.005,756.04 646.472,756.173 646.072,755.64L646.072,754.173C646.072,753.64 646.205,752.84 645.938,752.307L619.805,752.307C619.272,753.64 619.938,754.707 619.405,756.04L608.605,756.04C608.472,756.04 608.472,756.173 608.338,756.173C607.938,757.373 608.605,758.573 607.938,759.773C606.872,759.907 605.672,759.773 604.472,759.907L604.472,763.64L599.405,763.64C598.605,763.64 597.805,763.24 596.872,763.773L596.872,767.107C596.072,767.507 595.538,767.373 595.005,767.373C594.472,767.507 593.672,767.107 593.138,767.64L593.138,770.973C591.805,771.373 590.472,770.84 589.405,771.373L589.405,773.107C589.272,773.64 589.538,774.307 589.005,774.84L585.672,774.84C585.272,775.64 585.672,776.173 585.538,776.973C585.538,777.507 585.672,778.04 585.272,778.84C584.205,778.84 583.138,778.573 581.805,778.84L581.805,783.773C581.672,784.707 581.938,785.507 581.405,786.173L578.338,786.173C578.338,786.173 578.072,786.44 577.938,786.573L577.938,793.64C576.605,794.173 575.538,793.64 574.205,794.04L574.205,801.24C572.872,801.773 571.672,800.973 570.338,801.64L570.338,815.773C570.338,816.04 570.472,816.04 570.338,816.173C570.338,816.173 570.338,816.44 570.205,816.573L566.605,816.573L566.605,857.907C566.605,857.907 566.872,858.04 567.005,858.04L568.605,858.04C569.805,858.307 570.338,858.84 570.338,859.907C570.472,862.84 570.338,865.773 570.472,868.973C570.472,869.107 570.738,869.373 570.738,869.507C571.672,869.507 572.605,869.373 573.272,869.507C573.672,869.907 573.805,870.04 574.205,870.44L574.205,873.24L577.005,873.24C577.405,873.64 577.805,874.04 577.938,874.173L577.938,876.707C577.938,876.707 578.072,876.973 578.338,877.107L584.205,877.107C584.738,877.107 585.538,877.907 585.538,878.44C585.672,879.107 585.272,880.04 585.938,880.84L592.205,880.84L592.338,880.973C592.605,881.24 592.738,881.64 593.138,881.773L593.138,884.307C593.538,884.573 593.672,884.573 593.805,884.573L619.405,884.573C619.405,884.573 619.405,884.307 619.538,884.173L619.538,880.84L633.272,880.84C633.805,880.84 634.472,880.973 634.738,880.44L634.738,878.973C634.738,878.44 634.605,877.64 635.005,876.973L642.205,876.973C642.338,875.773 642.205,874.573 642.338,873.24L647.138,873.24C648.072,873.24 648.872,873.373 649.805,873.107L649.805,871.24C649.938,870.707 649.538,870.04 650.205,869.507L653.272,869.507C653.272,869.507 653.538,869.373 653.672,869.107L653.672,850.84C654.472,850.44 655.005,850.707 655.538,850.707C656.072,850.44 656.872,850.84 657.405,850.307L657.405,828.04C656.605,827.64 656.072,827.907 655.538,827.907C654.738,827.907 654.205,827.64 653.672,828.307L653.672,829.773C653.672,830.307 653.805,830.973 653.538,831.64C652.338,831.907 651.138,831.373 649.805,831.907C649.805,832.44 649.938,833.107 649.805,833.64C649.805,834.173 649.938,834.707 649.538,835.507L638.738,835.507C638.338,836.173 638.738,836.707 638.472,837.373C638.472,838.04 638.738,838.573 638.072,839.107L616.205,839.107C616.072,839.107 616.072,839.107 615.938,838.973L615.938,809.107L616.072,808.973C617.138,808.973 618.338,809.107 619.538,808.84L619.538,805.24C620.872,804.973 622.205,805.507 623.538,804.973L623.538,801.64C624.072,801.24 624.738,801.64 625.272,801.373C625.938,801.373 626.605,801.64 627.138,800.973L627.138,797.64L645.138,797.64C645.672,798.307 646.072,798.44 646.072,799.107C646.072,799.907 645.938,800.707 646.472,801.373L652.338,801.373C653.138,801.373 653.272,801.907 653.672,802.44L653.672,805.107C654.605,805.24 655.538,805.107 656.472,805.24C656.872,805.507 657.005,805.773 657.538,806.173L657.538,808.973L659.405,808.973C659.938,808.973 660.738,809.373 661.272,808.573L661.272,797.907C661.272,797.907 661.405,797.907 661.672,797.64L664.738,797.64C664.738,797.507 665.005,797.373 665.005,797.373L665.005,786.573C665.138,786.44 665.138,786.44 665.405,786.44C666.472,786.173 667.538,786.44 668.472,786.173C668.738,786.04 668.872,786.04 668.872,785.773L668.872,771.373L669.005,771.24L672.205,771.24C672.338,771.24 672.338,770.973 672.605,770.84L672.605,763.773C671.672,763.373 670.872,763.64 669.938,763.64Z" style="fill-rule:nonzero;"/>
                    <path d="M680.205,782.44L680.205,800.973C680.205,801.24 679.938,801.24 679.805,801.373L676.605,801.373C676.338,802.173 676.472,802.707 676.472,803.373C676.472,804.04 676.072,804.573 676.605,805.107C677.272,805.107 677.805,805.24 678.072,805.107C679.272,805.107 679.805,805.507 680.205,806.44L680.205,816.44C681.272,816.573 682.205,816.573 683.138,816.573C683.272,816.707 683.672,817.107 684.072,817.507L684.072,820.307L686.872,820.307C687.272,820.84 687.805,821.24 687.805,821.907C687.805,822.707 687.538,823.373 688.072,824.173L690.205,824.173C690.872,824.173 691.272,824.707 691.672,825.24L691.672,827.907L698.072,827.907C698.472,828.307 698.738,828.44 699.272,828.973L699.272,831.64L709.405,831.64C709.938,832.173 710.605,832.44 710.605,833.24C710.338,834.04 710.738,834.707 710.205,835.507C709.005,835.64 707.938,835.24 706.605,835.64L706.605,837.507C706.605,838.04 707.005,838.573 706.338,839.107L691.805,839.107C691.805,839.107 691.672,839.107 691.405,838.973C691.405,838.307 691.672,837.507 691.405,836.973C691.405,836.44 691.805,835.773 691.272,835.507L680.605,835.507C680.338,835.507 680.338,835.24 680.205,835.107L680.205,831.907C679.405,831.64 678.872,831.773 678.338,831.64C677.538,831.64 677.005,831.907 676.472,831.373C676.338,830.307 676.472,829.107 676.338,827.907L669.405,827.907C669.272,827.907 669.272,827.907 669.005,828.04C669.005,828.04 668.872,828.04 668.872,828.307L668.872,842.707C668.872,842.707 668.738,842.84 668.472,843.107L665.405,843.107C665.138,843.24 665.138,843.24 665.005,843.373L665.005,854.04C665.005,854.173 665.005,854.173 664.738,854.307L661.405,854.307C661.405,854.707 661.272,854.973 661.272,855.107L661.272,873.107C661.405,873.107 661.405,873.24 661.405,873.24C662.738,873.373 664.072,872.707 665.138,874.307L665.138,876.707C665.405,876.973 665.405,877.107 665.405,877.107L675.538,877.107C675.672,877.373 676.072,877.64 676.472,878.04C676.472,878.973 676.338,879.907 676.472,880.84L694.205,880.84C696.072,881.773 694.738,883.373 695.538,884.573L706.338,884.573C706.472,884.573 706.472,884.573 706.472,884.307C707.005,883.24 706.338,881.907 707.005,880.84L725.138,880.84C725.405,880.84 725.405,880.707 725.538,880.44L725.538,877.373C725.672,877.107 725.938,877.107 725.938,877.107C726.072,876.973 726.072,877.107 726.338,877.107L736.338,877.107C736.472,877.107 736.472,877.107 736.605,876.973C736.605,876.973 736.872,876.973 737.005,876.707L737.005,873.373C738.338,873.107 739.672,873.64 740.738,873.107L740.738,871.373C740.738,870.84 740.605,870.04 740.872,869.507L742.738,869.507C743.272,869.373 744.072,869.773 744.472,869.107L744.472,867.507C744.605,866.973 744.205,866.44 744.872,865.64L748.205,865.64C748.472,864.973 748.205,864.307 748.338,863.773C748.338,863.24 747.938,862.44 748.472,861.907C749.672,861.773 750.738,861.907 752.072,861.773L752.072,856.707C752.205,856.04 751.805,855.107 752.338,854.307L755.938,854.307L755.938,843.24C757.272,842.707 758.338,843.24 759.672,842.84L759.672,824.307C758.872,824.04 758.338,824.173 757.538,824.173C757.005,824.04 756.472,824.307 755.938,823.773L755.938,816.973C755.672,816.707 755.672,816.707 755.538,816.573L753.938,816.573C753.272,816.44 752.605,816.707 752.072,816.173L752.072,814.707C752.072,814.04 752.205,813.373 751.805,812.707L748.472,812.707C747.938,811.373 748.472,810.04 748.205,808.973C746.872,808.84 745.672,809.107 744.605,808.84C744.205,807.64 744.872,806.44 744.205,805.107L734.072,805.107C733.938,805.107 733.672,805.24 733.538,805.107C733.538,805.107 733.272,805.107 733.138,804.973L733.138,802.84C733.138,802.307 733.272,801.773 732.738,801.373L725.938,801.373C725.672,801.373 725.672,801.24 725.672,801.24L725.672,793.773L739.805,793.773C740.205,794.173 740.338,794.573 740.738,794.707L740.738,797.373C740.738,797.373 740.872,797.507 741.138,797.64L747.272,797.64C749.005,798.573 747.805,800.307 748.472,801.373L754.872,801.373C755.005,801.373 755.005,801.64 755.138,801.64C755.405,801.773 755.538,802.173 755.938,802.307L755.938,805.107C756.872,805.24 757.538,805.107 758.472,805.107C759.272,805.24 760.205,805.24 760.872,805.107C761.805,805.107 762.605,805.507 763.272,804.973L763.272,798.307C763.272,797.507 763.272,796.707 763.538,796.173C763.538,795.507 763.272,794.707 763.672,793.773L765.405,793.773C765.938,793.773 766.605,794.173 767.272,793.64L767.272,778.973C767.272,778.973 767.405,778.973 767.538,778.84L770.738,778.84L770.872,778.44L770.872,767.64C771.138,767.507 771.138,767.507 771.272,767.373L774.605,767.373C775.005,766.573 774.872,766.04 774.872,765.507C774.872,764.707 775.005,764.173 774.472,763.373L771.138,763.373C770.738,762.307 771.272,760.973 770.738,759.773C770.205,759.773 769.672,759.907 769.005,759.773C768.472,759.773 767.805,759.907 767.272,759.507L767.272,756.173C767.005,756.173 766.872,756.04 766.872,756.04L756.072,756.04L755.938,755.773C755.672,754.707 755.938,753.373 755.672,752.307L714.472,752.307C714.472,752.307 714.472,752.44 714.205,752.707L714.205,756.04L708.072,756.04C707.538,756.04 707.005,755.773 706.605,756.44L706.605,757.907C706.605,758.44 706.872,759.107 706.338,759.907L699.405,759.907C698.872,760.44 699.272,761.24 699.005,761.773C699.005,762.307 699.405,763.107 698.872,763.64C697.805,763.64 696.605,763.373 695.538,763.64C695.005,764.84 695.672,766.173 695.005,767.373C693.938,767.507 692.738,767.373 691.405,767.507L691.405,770.84C690.872,771.373 690.205,770.973 689.672,771.24C689.005,771.24 688.338,770.84 687.805,771.373L687.805,774.707C687.005,775.107 686.472,774.84 685.672,774.84C685.138,775.107 684.605,774.707 684.072,775.24L684.072,782.173C683.938,782.173 683.938,782.307 683.672,782.44L680.205,782.44Z" style="fill-rule:nonzero;"/>
                </g>
            </g>
        </g>
    </g>
</svg>
