<?xml version="1.0" encoding="UTF-8" standalone="no"?>
<!DOCTYPE svg PUBLIC "-//W3C//DTD SVG 1.1//EN" "http://www.w3.org/Graphics/SVG/1.1/DTD/svg11.dtd">
<svg width="100%" height="100%" viewBox="0 0 1080 1080" version="1.1" xmlns="http://www.w3.org/2000/svg" xmlns:xlink="http://www.w3.org/1999/xlink" xml:space="preserve" xmlns:serif="http://www.serif.com/" style="fill-rule:evenodd;clip-rule:evenodd;stroke-linejoin:round;stroke-miterlimit:2;">
    <g transform="matrix(1,0,0,1,-1275.92,-2664.02)">
        <g id="id_icon_01_11_2010" transform="matrix(1,0,0,1,1275.92,2664.02)">
            <rect x="0" y="0" width="1080" height="1080" style="fill:none;"/>
            <g transform="matrix(1,0,0,1,-1275.92,-2664.02)">
                <path d="M1415.4,3363.44C1413.21,3363.88 1410.99,3364.34 1408.77,3364.8C1403.33,3365.92 1399.41,3362.45 1399.85,3356.93C1406.73,3270.76 1398.76,3198.16 1376.36,3138.89C1374.67,3134.42 1377.07,3130.01 1381.75,3129C1632.64,3074.95 1913.63,3046.24 2224.33,3043.03C2229.69,3042.97 2232.9,3047.02 2231.63,3052.22C2215.64,3117.92 2223.3,3190.07 2255.25,3268.92C2257.55,3274.58 2254.5,3279.12 2248.39,3279.14C2240.19,3279.18 2232,3279.24 2223.82,3279.32C2226.69,3279.29 2229.57,3279.26 2232.45,3279.24L1956.33,3323.05L1956.33,3289.93C1959.16,3289.73 1962,3289.53 1964.83,3289.34C1818.07,3299.36 1673.69,3316.72 1531.7,3341.44L1529.65,3363.32L1411.69,3364.2L1415.4,3363.44ZM1418.3,3362.85L1415.58,3363.4L1418.91,3362.72L1418.3,3362.85ZM1421.48,3362.2L1419.74,3362.55L1422.45,3362L1421.48,3362.2ZM1424.65,3361.56L1423.43,3361.8L1426.05,3361.28L1424.65,3361.56ZM1427.83,3360.92L1427.01,3361.08L1429.83,3360.52L1427.83,3360.92ZM1437.74,3358.94C1435.34,3359.41 1432.94,3359.89 1430.55,3360.37L1434.11,3359.66L1437.74,3358.94ZM1440.56,3358.38L1438.28,3358.83L1441.26,3358.24L1440.56,3358.38ZM1443.75,3357.75L1442.2,3358.06L1444.82,3357.54L1443.75,3357.75ZM1446.93,3357.12L1445.85,3357.34L1448.46,3356.83L1446.93,3357.12ZM1450.12,3356.5L1449.41,3356.64L1452.36,3356.06L1450.12,3356.5ZM1460.14,3354.56C1457.74,3355.02 1455.34,3355.49 1452.93,3355.95L1456.56,3355.25L1460.14,3354.56ZM1462.87,3354.03L1460.83,3354.42L1463.68,3353.88L1462.87,3354.03ZM1466.06,3353.42L1464.63,3353.7L1467.28,3353.19L1466.06,3353.42ZM1469.25,3352.81L1468.25,3353L1471,3352.48L1469.25,3352.81ZM1472.44,3352.21L1471.81,3352.33L1475.18,3351.69L1472.44,3352.21ZM1482.63,3350.29C1480.19,3350.75 1477.76,3351.2 1475.33,3351.66L1479.06,3350.96L1482.63,3350.29ZM1485.22,3349.81L1483.27,3350.17L1486.21,3349.63L1485.22,3349.81ZM1488.41,3349.22L1487.03,3349.47L1489.87,3348.95L1488.41,3349.22ZM1491.61,3348.62L1490.64,3348.8L1493.74,3348.23L1491.61,3348.62ZM2215.09,3057.99C1912.64,3061.62 1638.57,3089.58 1393.21,3141.75C1413.5,3199.68 1420.79,3268.6 1415.4,3348.28C1680.95,3294.21 1954.98,3266.24 2237.47,3264.34C2209.35,3190.73 2201.71,3121.88 2215.09,3057.99ZM1505.22,3346.14C1501.54,3346.81 1497.87,3347.47 1494.2,3348.15L1497.84,3347.48C1499.09,3347.25 1500.34,3347.03 1501.59,3346.8L1505.22,3346.14ZM1507.61,3345.71L1505.63,3346.07L1508.86,3345.48L1507.61,3345.71ZM1510.81,3345.13L1509.39,3345.39L1512.65,3344.8L1510.81,3345.13ZM1531.7,3341.44C1525.47,3342.53 1519.24,3343.62 1513.01,3344.74C1519.24,3343.62 1525.47,3342.53 1531.7,3341.44ZM1713.49,3288.77C1712.66,3289.43 1711.14,3290.1 1708.91,3290.78C1706.83,3291.45 1704.47,3291.95 1701.83,3292.25C1699.46,3292.54 1696.68,3292.53 1693.47,3292.22C1693.17,3290.43 1692.94,3287.82 1692.76,3284.35L1692.62,3271.19L1691.65,3174.93C1691.62,3171.73 1691.38,3168.9 1690.93,3166.44C1690.5,3163.99 1689.91,3161.76 1689.2,3159.76C1689.88,3158.56 1690.93,3157.53 1692.31,3156.66C1693.83,3155.65 1695.69,3154.52 1697.91,3153.28C1699.02,3152.86 1699.64,3152.65 1699.79,3152.63C1702.57,3152.3 1704.18,3152.6 1705.43,3153.42C1706.7,3154.11 1707.68,3154.96 1708.39,3155.99C1712.54,3152.85 1716.69,3150.26 1720.84,3148.23C1722.92,3147.29 1724.94,3146.5 1726.88,3145.84C1728.97,3145.18 1731.26,3144.68 1733.76,3144.39C1738.91,3143.78 1743.72,3144.04 1748.19,3145.18C1752.8,3146.29 1756.79,3148.54 1760.17,3151.9C1763.69,3155.11 1766.44,3159.51 1768.46,3165.13C1770.45,3170.6 1771.5,3177.38 1771.58,3185.45C1771.71,3198.54 1770.08,3209.4 1766.69,3218.02C1763.29,3226.65 1758.83,3233.53 1753.31,3238.65C1749.59,3242.3 1745.79,3244.85 1741.9,3246.28C1738.01,3247.86 1734.26,3248.87 1730.64,3249.3C1723.82,3250.11 1718.39,3249.58 1714.33,3247.7L1714.65,3279.02L1714.69,3283.82C1714.72,3285.22 1714.59,3286.62 1714.32,3288.05L1713.49,3288.77ZM1481.65,3156.82C1481.64,3156.12 1481.85,3155.26 1482.26,3154.23C1482.66,3153.07 1483.63,3152.05 1485.15,3151.18C1485.43,3151 1486.26,3150.83 1487.65,3150.66C1488.21,3150.47 1488.42,3150.37 1488.69,3150.33C1492.16,3149.5 1496.62,3148.75 1502.05,3148.11C1503.32,3150.47 1504.75,3153.64 1506.32,3157.63C1508.03,3161.47 1509.82,3165.86 1511.68,3170.79C1513.67,3175.57 1515.68,3180.7 1517.68,3186.17C1519.69,3191.65 1521.69,3196.98 1523.69,3202.18L1524.13,3203.39L1525.2,3206.6C1525.5,3207.82 1525.92,3209.16 1526.5,3210.63C1527.07,3211.95 1527.57,3213.21 1528,3214.42C1528.43,3215.76 1528.79,3217.04 1529.09,3218.26L1530.37,3221.87L1531.23,3223.86C1531.51,3224.39 1531.66,3224.79 1531.66,3225.07L1532.96,3229.51C1533.5,3228.19 1533.97,3226.81 1534.38,3225.37L1536,3220.99L1536.81,3217.97C1537.22,3216.94 1537.62,3215.85 1538.03,3214.69L1540.06,3208.38C1540.73,3206.06 1541.41,3204.04 1542.08,3202.28C1543.44,3198.49 1544.86,3194.43 1546.35,3190.07C1547.84,3185.7 1549.19,3181.64 1550.4,3177.87C1552.3,3172.35 1554.05,3166.99 1555.67,3161.78C1557.43,3156.4 1559.12,3151.4 1560.75,3146.74C1561.09,3146 1561.22,3145.78 1561.36,3145.62C1561.43,3145.26 1561.64,3144.75 1561.77,3144.32C1562.04,3143.72 1562.65,3143.02 1563.63,3142.21C1565.85,3141.53 1568.63,3140.85 1571.96,3140.17C1575.44,3139.48 1578.71,3138.94 1581.77,3138.58C1582.34,3140.04 1582.71,3141.54 1582.86,3143.06C1583.15,3144.55 1583.46,3146.53 1583.76,3149.01L1587.07,3186.87L1590.8,3224.48C1591.99,3233.47 1592.92,3242.28 1593.56,3250.7C1594.34,3258.98 1594.97,3266.35 1595.45,3272.85C1594.5,3274.63 1592.42,3275.93 1589.22,3276.72C1586.02,3277.52 1581.23,3278.31 1574.83,3279.07C1572.86,3276.38 1571.85,3273.37 1571.82,3270.02C1571.8,3269.19 1571.73,3268.37 1571.58,3267.55C1571.58,3266.71 1571.49,3265.95 1571.35,3265.27L1570.9,3262.18L1570.87,3258.64L1570.4,3253.89L1569.92,3248.3L1569.44,3241.04C1569.27,3238.55 1569.03,3236.07 1568.72,3233.6C1568.58,3232.5 1568.5,3231.39 1568.49,3230.28C1568.48,3229.17 1568.4,3228.2 1568.25,3227.38C1568.1,3226.91 1567.96,3226.03 1567.81,3224.93L1567.78,3222C1567.47,3219.26 1567.3,3216.07 1567.27,3212.44C1567.23,3208.68 1567.12,3205.08 1566.95,3201.61C1566.94,3200.36 1566.85,3199.18 1566.7,3198.09L1566.66,3194.33C1566.51,3193.09 1566.43,3191.91 1566.41,3190.81C1566.4,3189.55 1566.32,3188.37 1566.18,3187.28L1560.5,3205.31C1558.61,3211.24 1556.93,3216.26 1555.43,3220.34L1549.95,3236.47C1548.19,3241.98 1546.37,3247.49 1544.48,3253.01C1543.94,3254.47 1543.47,3255.85 1543.06,3257.16C1542.65,3258.46 1542.18,3259.77 1541.63,3261.09C1540.9,3263.76 1538.9,3265.66 1535.84,3266.59C1534.45,3267.03 1532.64,3267.46 1530.42,3267.86C1528.33,3268.25 1526.33,3268.56 1524.37,3268.79C1523.08,3264.9 1521.43,3260.29 1519.43,3254.96C1517.56,3249.47 1515.55,3243.79 1513.4,3237.91C1512.4,3235.66 1511.47,3233.19 1510.61,3230.5C1509.88,3227.81 1509.03,3225.19 1508.02,3222.66C1507.73,3221.72 1506.95,3219.58 1505.66,3216.25L1501.79,3205.01C1500.92,3202.6 1500.34,3200.93 1500.06,3199.98L1499.41,3197.76C1499.27,3197.36 1499.13,3197.03 1498.98,3196.77C1498.98,3196.49 1498.83,3195.95 1498.55,3195.15L1498.6,3200.16C1498.62,3201.41 1498.56,3202.68 1498.43,3203.94L1498.46,3207.91C1498.37,3211.68 1498.34,3215.45 1498.37,3219.21C1498.41,3222.97 1498.31,3226.19 1498.06,3228.87C1497.31,3237.74 1496.56,3246.34 1495.81,3254.64C1495.2,3262.94 1494.71,3270.32 1494.37,3276.77C1494.22,3277.2 1494.16,3277.98 1494.18,3279.09L1493.37,3282.53C1493.24,3283.52 1492.84,3284.69 1492.16,3286.02C1491.19,3286.84 1490.08,3287.6 1488.84,3288.3C1487.59,3288.87 1485.85,3289.28 1483.62,3289.55C1482.51,3289.68 1481.05,3289.79 1479.24,3289.87C1477.57,3290.07 1475.83,3290.14 1474.02,3290.07C1472.49,3290.26 1471.73,3289.87 1471.71,3288.89C1472.06,3282.01 1472.47,3274.58 1472.94,3266.58C1473.56,3258.43 1474.23,3249.84 1474.97,3240.83C1475.73,3231.82 1476.47,3222.53 1477.21,3212.97C1478.08,3203.38 1478.89,3193.74 1479.63,3184.03L1480.74,3170.31C1481.12,3165.66 1481.42,3161.17 1481.65,3156.82ZM1967.03,3289.19L1964.95,3289.33L1969.11,3289.05L1967.03,3289.19ZM1981.97,3288.2C1977.72,3288.48 1973.46,3288.76 1969.18,3289.05L1973.43,3288.76C1974.86,3288.67 1976.28,3288.57 1977.71,3288.48L1981.97,3288.2ZM2041.98,3284.76C2021.94,3285.77 2001.95,3286.92 1982,3288.2C2001.94,3286.92 2021.93,3285.77 2041.98,3284.76ZM2054.84,3284.13C2050.58,3284.34 2046.32,3284.54 2042.09,3284.76L2046.34,3284.55C2047.77,3284.47 2049.21,3284.4 2050.64,3284.33L2054.84,3284.13ZM2056.84,3284.04L2055.07,3284.12L2059.21,3283.93L2056.84,3284.04ZM2067.79,3283.54C2064.95,3283.66 2062.11,3283.79 2059.26,3283.92L2063.55,3283.73L2067.79,3283.54ZM2070.2,3283.43L2067.98,3283.53L2071.93,3283.35L2070.2,3283.43ZM2084.83,3282.81C2080.67,3282.98 2076.51,3283.15 2072.34,3283.34L2076.47,3283.16C2077.91,3283.1 2079.34,3283.04 2080.78,3282.98L2084.83,3282.81ZM2086.91,3282.72L2085.4,3282.79L2089.16,3282.64L2086.91,3282.72ZM2097.82,3282.3C2095.06,3282.4 2092.3,3282.51 2089.52,3282.62L2093.72,3282.46L2097.82,3282.3ZM2100.3,3282.21L2098.41,3282.28L2101.93,3282.15L2100.3,3282.21ZM2110.87,3281.83C2108.13,3281.92 2105.39,3282.02 2102.64,3282.12L2106.67,3281.97L2110.87,3281.83ZM2113.7,3281.73L2111.31,3281.81L2114.89,3281.69L2113.7,3281.73ZM2117.05,3281.62L2115.76,3281.66L2119.18,3281.54L2117.05,3281.62ZM2127.93,3281.26C2125.22,3281.35 2122.51,3281.43 2119.82,3281.52L2123.95,3281.39L2127.93,3281.26ZM2130.46,3281.19L2128.83,3281.24L2132.03,3281.14L2130.46,3281.19ZM2133.82,3281.09L2132.97,3281.11L2136.82,3281L2133.82,3281.09ZM2141.04,3280.88L2136.95,3280.99C2138.33,3280.95 2139.69,3280.91 2141.04,3280.88ZM2143.89,3280.8L2141.81,3280.86L2145.05,3280.77L2143.89,3280.8ZM2147.25,3280.71L2146.11,3280.74L2149.35,3280.65L2147.25,3280.71ZM2154.2,3280.53L2150.13,3280.63C2151.49,3280.6 2152.84,3280.56 2154.2,3280.53ZM2157.33,3280.45L2154.48,3280.52L2158.17,3280.43L2157.33,3280.45ZM2160.69,3280.37L2159.2,3280.4L2162.29,3280.33L2160.69,3280.37ZM2164.06,3280.29L2163.29,3280.31L2167.24,3280.22L2164.06,3280.29ZM2171.34,3280.13L2167.25,3280.22C2168.62,3280.19 2169.98,3280.16 2171.34,3280.13ZM2174.15,3280.07L2172.17,3280.11L2175.39,3280.05L2174.15,3280.07ZM2177.52,3280L2176.42,3280.02L2179.79,3279.96L2177.52,3280ZM2184.55,3279.87L2180.43,3279.95C2181.79,3279.92 2183.17,3279.89 2184.55,3279.87ZM2187.62,3279.81L2184.83,3279.86L2188.57,3279.8L2187.62,3279.81ZM2190.99,3279.75L2189.48,3279.78L2192.78,3279.72L2190.99,3279.75ZM2201.8,3279.58C2199.05,3279.62 2196.3,3279.67 2193.58,3279.71L2197.64,3279.65L2201.8,3279.58ZM2204.47,3279.55L2202.39,3279.58L2205.93,3279.53L2204.47,3279.55ZM2207.85,3279.5L2206.67,3279.51L2210.61,3279.46L2207.85,3279.5ZM2219.17,3279.36C2216.36,3279.39 2213.54,3279.43 2210.71,3279.46L2215.03,3279.41L2219.17,3279.36ZM2221.35,3279.34L2219.67,3279.36L2223.58,3279.32L2221.35,3279.34ZM1684.52,3207.42C1684.6,3216.19 1683.64,3224.03 1681.62,3230.97C1679.6,3237.77 1676.74,3243.61 1673.02,3248.51C1669.32,3253.41 1664.89,3257.29 1659.77,3260.13C1654.78,3262.95 1649.3,3264.72 1643.32,3265.44C1629.96,3267.03 1619.62,3264.23 1612.31,3257.02C1604.98,3249.68 1601.23,3236.89 1601.05,3218.64C1600.96,3209.74 1601.92,3201.88 1603.94,3195.09C1605.97,3188.16 1608.84,3182.31 1612.54,3177.54C1616.26,3172.79 1620.67,3169.05 1625.81,3166.34C1630.93,3163.64 1636.63,3161.92 1642.89,3161.17C1656.66,3159.52 1667,3162.6 1673.9,3170.42C1680.81,3178.24 1684.35,3190.57 1684.52,3207.42ZM1624.2,3215.04C1624.28,3222 1624.82,3227.79 1625.84,3232.41C1626.87,3237.02 1628.23,3240.69 1629.92,3243.41C1631.62,3246.15 1633.59,3248 1635.84,3248.99C1638.21,3249.96 1640.79,3250.28 1643.58,3249.95C1646.08,3249.64 1648.44,3248.73 1650.65,3247.21C1652.87,3245.69 1654.79,3243.38 1656.42,3240.25C1658.07,3237.13 1659.35,3233.21 1660.28,3228.5C1661.21,3223.65 1661.64,3217.75 1661.57,3210.79C1661.43,3197.7 1659.67,3188.64 1656.27,3183.61C1652.88,3178.58 1648.26,3176.41 1642.42,3177.12C1639.91,3177.41 1637.56,3178.39 1635.35,3180.05C1633.13,3181.57 1631.2,3183.82 1629.56,3186.8C1627.93,3189.78 1626.57,3193.64 1625.5,3198.37C1624.57,3203.08 1624.14,3208.64 1624.2,3215.04ZM1861.03,3182.25C1861.12,3191.02 1860.16,3198.87 1858.14,3205.81C1856.11,3212.6 1853.25,3218.45 1849.54,3223.35C1845.82,3228.25 1841.41,3232.12 1836.28,3234.97C1831.29,3237.79 1825.81,3239.56 1819.82,3240.27C1806.47,3241.87 1796.12,3239.07 1788.82,3231.86C1781.49,3224.5 1777.74,3211.72 1777.56,3193.48C1777.47,3184.57 1778.43,3176.72 1780.46,3169.92C1782.48,3162.99 1785.34,3157.15 1789.05,3152.38C1792.76,3147.62 1797.19,3143.88 1802.31,3141.18C1807.44,3138.48 1813.13,3136.75 1819.4,3136C1833.17,3134.36 1843.51,3137.44 1850.42,3145.26C1857.33,3153.07 1860.86,3165.4 1861.03,3182.25ZM1727.35,3233.8C1729.58,3233.54 1731.94,3232.7 1734.44,3231.29C1736.93,3229.74 1739.2,3227.3 1741.25,3223.99C1743.31,3220.54 1745.01,3216.08 1746.35,3210.63C1747.68,3205.03 1748.31,3198.07 1748.22,3189.71C1748.11,3178.98 1746.44,3171.52 1743.19,3167.31C1739.94,3163.1 1735.4,3161.34 1729.55,3162.04C1726.49,3162.41 1723.58,3163.52 1720.81,3165.39C1718.04,3167.11 1715.62,3169 1713.56,3171.06L1714.15,3229.74C1715.69,3231.08 1717.66,3232.18 1720.03,3233.01C1722.41,3233.85 1724.85,3234.1 1727.35,3233.8ZM1917.04,3133.91C1917.01,3131.68 1918.39,3130.05 1921.17,3129.03C1921.86,3128.8 1922.84,3128.62 1924.09,3128.47L1928.89,3127.9L1939.33,3126.65C1939.1,3131.97 1939.02,3137.9 1939.09,3144.44L1939.31,3166.16L1939.05,3187.38C1939.13,3195.04 1940.09,3200.29 1941.93,3203.14C1943.63,3206 1946.71,3207.16 1951.16,3206.64C1954.36,3206.26 1957.27,3205.14 1959.9,3203.29C1962.53,3201.58 1964.81,3199.57 1966.73,3197.25L1966.57,3134.05C1966.55,3132.39 1966.67,3130.91 1966.94,3129.62C1967.2,3128.34 1967.82,3127.07 1968.78,3125.85C1969.61,3125.05 1970.51,3124.38 1971.48,3123.85C1972.45,3123.45 1973.63,3123.11 1975.02,3122.8C1976.41,3122.35 1978.22,3122 1980.44,3121.74L1988.58,3120.77C1988.49,3126.07 1988.48,3132.06 1988.55,3138.75L1988.78,3160.46L1989.15,3197.42C1989.18,3200.76 1989.49,3203.65 1990.07,3206.09C1990.51,3208.55 1991.1,3210.78 1991.82,3212.79C1990.44,3214.62 1987.46,3216.72 1982.88,3219.08C1982.2,3219.44 1981.64,3219.65 1981.22,3219.69L1980.18,3219.82C1978.24,3220.06 1976.63,3219.76 1975.36,3218.94C1974.11,3218.25 1973.12,3217.39 1972.42,3216.36C1968.27,3219.79 1964.19,3222.36 1960.17,3224.09C1956,3225.98 1951.49,3227.22 1946.62,3227.81L1944.74,3228.03C1943.9,3228.13 1943.14,3228.16 1942.44,3228.09C1937.99,3228.21 1934.29,3227.67 1931.35,3226.49C1928.41,3225.3 1925.96,3223.65 1923.99,3221.51C1922.06,3223.28 1919.84,3224.87 1917.35,3226.29C1914.85,3227.7 1912.57,3228.87 1910.49,3229.82C1906.46,3231.7 1902.09,3232.91 1897.36,3233.48L1895.06,3233.75C1894.23,3233.86 1893.54,3233.87 1892.98,3233.79C1888.32,3233.93 1884.27,3233.3 1881.04,3231.87C1877.83,3230.45 1875.3,3228.24 1873.47,3225.26C1871.62,3222.41 1870.33,3218.87 1869.59,3214.63C1868.85,3210.41 1868.45,3205.64 1868.4,3200.35L1868.05,3165.69L1867.9,3150.86C1867.86,3146.26 1867.68,3142.17 1867.35,3138.59C1868.18,3137.8 1869.09,3137.13 1870.05,3136.6C1871.02,3136.06 1872.27,3135.57 1873.8,3135.1L1879.43,3134.02C1881.65,3133.61 1884.51,3133.2 1887.99,3132.78C1888.55,3133.82 1889.05,3134.96 1889.47,3136.16C1889.77,3137.38 1889.92,3138.75 1889.95,3140.28L1890.14,3192.73C1890.22,3200.39 1891.1,3205.65 1892.81,3208.51C1894.5,3211.38 1897.59,3212.55 1902.03,3212.01C1905.24,3211.62 1908.22,3210.44 1910.99,3208.43C1913.61,3206.59 1915.96,3204.43 1918.02,3201.95L1917.04,3133.91ZM1800.72,3189.88C1800.78,3196.84 1801.33,3202.62 1802.35,3207.24C1803.37,3211.86 1804.74,3215.52 1806.43,3218.26C1808.13,3220.98 1810.1,3222.83 1812.35,3223.82C1814.72,3224.79 1817.3,3225.11 1820.08,3224.77C1822.59,3224.48 1824.95,3223.57 1827.16,3222.05C1829.37,3220.53 1831.3,3218.21 1832.94,3215.08C1834.58,3211.95 1835.87,3208.05 1836.8,3203.33C1837.71,3198.49 1838.15,3192.58 1838.07,3185.62C1837.95,3172.54 1836.18,3163.48 1832.79,3158.44C1829.39,3153.41 1824.78,3151.25 1818.92,3151.94C1816.43,3152.24 1814.07,3153.22 1811.86,3154.89C1809.64,3156.4 1807.72,3158.65 1806.08,3161.64C1804.43,3164.62 1803.08,3168.48 1802.01,3173.21C1801.08,3177.91 1800.65,3183.47 1800.72,3189.88ZM2003.35,3223.92C2002.47,3222.99 2001.91,3222.02 2001.65,3221.02C2001.39,3219.91 2001.26,3218.69 2001.25,3217.35L2000.5,3143.9C2000.46,3139.57 2000.36,3135.75 2000.21,3132.46C2000.16,3129.15 2000.08,3126.16 1999.93,3123.5C2000.9,3122.66 2002.8,3121.86 2005.62,3121.11C2008.46,3120.35 2012.63,3119.65 2018.17,3118.99C2019.05,3120.23 2019.56,3121.56 2019.69,3123C2019.95,3124.41 2020.1,3126.47 2020.13,3129.15L2020.45,3161.07L2025.36,3154.58L2030.29,3148.1C2034.56,3142.52 2038.74,3136.91 2042.88,3131.24C2047.13,3125.56 2051.38,3120.03 2055.64,3114.66C2056.75,3114.33 2057.6,3114.12 2058.22,3114.05L2060.62,3113.76C2061.24,3113.69 2061.85,3113.66 2062.47,3113.69L2064.49,3113.45L2067.63,3113.08C2069.72,3112.93 2071.27,3113.11 2072.26,3113.61C2073.25,3114.02 2073.75,3114.57 2073.75,3115.29C2073.76,3116.02 2073.35,3117.11 2072.49,3118.55L2071.4,3120.07L2069.93,3121.8L2069.03,3123.31L2061.37,3133.22L2053.53,3143.3C2050.85,3146.73 2048.18,3150.1 2045.51,3153.42L2037.83,3163.02C2040.44,3164.99 2043.05,3167.31 2045.66,3170C2048.28,3172.68 2050.84,3175.59 2053.33,3178.7C2055.82,3181.72 2058.2,3184.78 2060.44,3187.94L2066.82,3196.94C2069.32,3200.37 2071.56,3203.52 2073.57,3206.38C2075.69,3209.13 2077.43,3210.98 2078.8,3211.95C2078.81,3213.09 2077.77,3214.15 2075.69,3215.12C2074.95,3215.41 2073.84,3215.75 2072.38,3216.14C2071.02,3216.5 2069.49,3216.79 2067.76,3217L2064.99,3217.33C2061.3,3217.35 2058.39,3216.25 2056.28,3214.03C2054.28,3211.79 2052.6,3209.51 2051.22,3207.19C2049.96,3205.07 2048.46,3202.75 2046.72,3200.28C2045.08,3197.78 2043.27,3195.25 2041.28,3192.7C2039.28,3190.15 2037.16,3187.71 2034.92,3185.4C2032.69,3183.08 2030.44,3180.97 2028.2,3179.07C2025.84,3177.17 2024.23,3175.81 2023.36,3174.99C2022.49,3174.06 2021.56,3173.4 2020.57,3173L2020.85,3200.42L2020.91,3207.09C2021.05,3209.03 2021.13,3210.89 2021.15,3212.64L2021.22,3219.62C2020.37,3220.85 2018.66,3221.73 2016.08,3222.24C2013.62,3222.85 2009.87,3223.45 2004.82,3224.05L2003.35,3223.92ZM2082.67,3128.11C2082.38,3127.46 2082.24,3126.98 2082.24,3126.69L2082.22,3125.45C2082.22,3124.75 2082.42,3123.82 2082.83,3122.66C2083.93,3121.55 2085.52,3120.32 2087.59,3118.95C2089.8,3117.44 2092.3,3116.02 2095.07,3114.72C2097.98,3113.25 2101.1,3111.97 2104.44,3110.88C2107.91,3109.76 2111.45,3108.93 2115.07,3108.36L2118.62,3107.93C2119.45,3107.83 2120.7,3107.75 2122.37,3107.69C2130.73,3107.25 2136.53,3109.34 2139.78,3113.97C2143.03,3118.61 2144.71,3125.51 2144.8,3134.7L2144.89,3143.89L2145.01,3155.79C2145.05,3159.69 2145.02,3163.6 2144.92,3167.5L2144.97,3171.89C2144.99,3173.57 2144.93,3175.24 2144.8,3176.92L2144.86,3181.74L2144.9,3185.49C2144.77,3187.32 2144.93,3188.83 2145.36,3190.04C2145.65,3191.12 2146.21,3192.03 2147.05,3192.76C2147.9,3193.36 2149.15,3193.41 2150.82,3192.94L2150.45,3198.21L2150.49,3201.97C2149.53,3203.48 2147.94,3204.92 2145.73,3206.3C2143.52,3207.81 2140.82,3208.83 2137.61,3209.35C2135.25,3209.63 2132.88,3209.29 2130.5,3208.33C2128.26,3207.34 2126.43,3206.17 2125.03,3204.79L2122.75,3206.74L2120.47,3208.48C2117.98,3210.03 2115.41,3211.1 2112.77,3211.7C2110.13,3212.43 2107.35,3212.97 2104.43,3213.32C2100.81,3213.76 2097.32,3213.61 2093.98,3212.89C2090.76,3212.17 2087.83,3210.85 2085.16,3208.93C2082.49,3206.89 2080.38,3204.21 2078.81,3200.91C2077.24,3197.48 2076.44,3193.32 2076.38,3188.44C2076.33,3182.19 2077.52,3176.81 2079.98,3172.34C2082.58,3167.71 2085.75,3163.91 2089.48,3160.96C2093.22,3157.87 2097.16,3155.51 2101.32,3153.9C2105.48,3152.15 2109.23,3150.86 2112.56,3150.05C2113.53,3149.79 2114.51,3149.61 2115.48,3149.49L2118.62,3149.12L2121.12,3148.81C2121.81,3148.73 2122.52,3148.72 2123.2,3148.78L2123.1,3138.54C2123.06,3134.09 2122.61,3130.8 2121.76,3128.67C2120.89,3126.55 2118.73,3125.68 2115.25,3126.1C2111.9,3126.5 2108.37,3127.55 2104.63,3129.26C2100.88,3130.82 2097.48,3132.34 2094.43,3133.81C2093.32,3134.5 2092.13,3135.07 2090.89,3135.5C2089.64,3135.92 2088.26,3136.23 2086.72,3136.41C2085.18,3135.06 2084.11,3133.59 2083.55,3131.98L2082.47,3127.93L2082.67,3128.11ZM2123.17,3186.41C2123.44,3185.13 2123.57,3183.72 2123.54,3182.19L2123.49,3176.55L2123.35,3162.77L2121.26,3163.02C2120.15,3163.15 2119.04,3163.35 2117.92,3163.62C2116.95,3163.75 2115.91,3163.93 2114.8,3164.21C2112.78,3164.86 2110.64,3165.75 2108.56,3166.84C2106.61,3167.77 2104.89,3169.02 2103.37,3170.59C2101.85,3172.17 2100.61,3174.06 2099.66,3176.26C2098.85,3178.44 2098.45,3181.07 2098.49,3184.14C2098.55,3189.01 2099.41,3192.32 2101.1,3194.07C2102.78,3195.82 2104.95,3196.67 2107.59,3196.64L2108.85,3196.49C2111.64,3196.16 2114.35,3195.28 2116.98,3193.84C2119.75,3192.26 2121.75,3190.55 2122.98,3188.74L2123.17,3186.41Z"/>
            </g>
        </g>
    </g>
</svg>
