<?xml version="1.0" encoding="UTF-8" standalone="no"?>
<!DOCTYPE svg PUBLIC "-//W3C//DTD SVG 1.1//EN" "http://www.w3.org/Graphics/SVG/1.1/DTD/svg11.dtd">
<svg width="100%" height="100%" viewBox="0 0 1080 1080" version="1.1" xmlns="http://www.w3.org/2000/svg" xmlns:xlink="http://www.w3.org/1999/xlink" xml:space="preserve" xmlns:serif="http://www.serif.com/" style="fill-rule:evenodd;clip-rule:evenodd;stroke-linejoin:round;stroke-miterlimit:2;">
    <g transform="matrix(1,0,0,1,-2470.76,-9341.48)">
        <g id="id_icon_01_06_2021" transform="matrix(1,0,0,1,2470.76,9341.48)">
            <rect x="0" y="0" width="1080" height="1080" style="fill:none;"/>
            <g transform="matrix(1.04349,0,0,1.04349,-2570.5,-9771.26)">
                <path d="M2941.77,9742.61C2932.04,9754.35 2923.45,9767.01 2916.13,9780.4C2928.77,9838.16 2940.69,9899.99 2944.09,9941C2951.18,10026.4 2909,10149.8 2909,10149.8C2909,10149.8 2981.6,10094.8 3030.58,10130.6C3086.12,10171.2 3135.51,10260.7 3135.51,10260.7C3135.51,10260.7 3096.47,10100.8 3089.05,10038.7C3075.59,9926 3184.93,9790.39 3184.93,9790.39C3184.93,9790.39 3103.81,9856.39 3047.71,9841.26C3009.13,9830.86 2971.53,9787.42 2941.77,9742.61ZM2916.12,9780.44C2898.7,9699.99 2880.15,9629.73 2880.15,9629.73C2880.15,9629.73 2904.83,9687.46 2941.53,9742.9C2959.58,9721.04 2981.59,9702.32 3006.76,9687.89L3006.76,9687.89C2945.54,9652.8 2903.31,9592.09 2891.7,9522.49C2889.67,9510.37 2888.33,9502.3 2888.33,9502.3C2888.33,9502.3 2886.55,9512.99 2884.02,9528.24C2873.03,9594.45 2833.93,9652.67 2776.78,9687.88L2776.78,9687.88C2834.09,9723.19 2873.52,9781.35 2885.12,9847.65C2887.05,9858.7 2888.33,9866.01 2888.33,9866.01C2888.33,9866.01 2889.19,9861.12 2890.58,9853.28C2895.13,9827.48 2903.83,9802.92 2916.12,9780.44ZM3062.59,9688.34C3097.04,9691.11 3129.62,9723.13 3129.62,9767.79C3129.62,9812.46 3102.81,9825.66 3070.23,9825.48C3046.28,9825.35 3012.53,9811.79 3021.05,9797.73C3035.59,9773.72 2998.27,9766.08 3000.4,9742.19C3003.13,9711.68 3025.99,9685.4 3062.59,9688.34Z"/>
            </g>
        </g>
    </g>
</svg>
