<?xml version="1.0" encoding="UTF-8" standalone="no"?>
<!DOCTYPE svg PUBLIC "-//W3C//DTD SVG 1.1//EN" "http://www.w3.org/Graphics/SVG/1.1/DTD/svg11.dtd">
<svg width="100%" height="100%" viewBox="0 0 1080 1080" version="1.1" xmlns="http://www.w3.org/2000/svg" xmlns:xlink="http://www.w3.org/1999/xlink" xml:space="preserve" xmlns:serif="http://www.serif.com/" style="fill-rule:evenodd;clip-rule:evenodd;stroke-linejoin:round;stroke-miterlimit:2;">
    <g transform="matrix(1,0,0,1,-1275.92,-10690.9)">
        <g id="id_icon_20_06_2025" transform="matrix(1,0,0,1,1275.92,10690.9)">
            <rect x="0" y="0" width="1080" height="1080" style="fill:none;"/>
            <g transform="matrix(0.892496,0,0,0.892496,58.0521,58.0521)">
                <g transform="matrix(1.44904,-0.802542,0.802542,1.44904,164.646,614.874)">
                    <path d="M54.35,67.92C54.35,67.92 55.978,65.693 57.665,66.185C59.906,66.839 60.408,69.527 60.408,69.527C60.408,69.527 60.338,69.482 61.053,69.652C60.396,66.426 59.056,64.116 56.783,63.468C56.521,62.122 56.204,60.577 55.818,59.002C61.198,56.429 65.243,53.348 68.4,49.037C74.665,40.487 68.4,34.391 68.4,27.788C68.4,21.186 66.115,19.831 66.115,19.831C68.4,17.297 67.216,15.429 67.216,15.429C68.147,14.159 67.3,12.89 67.3,12.89C68.401,11.28 67.3,8.911 67.3,8.911C62.475,15.091 55.112,11.197 51.006,21.528C51.006,21.528 47.66,23.331 46.242,27.064C46.242,27.064 47.273,28.609 51.006,29.639L51.006,32.215C47.831,32.215 39.799,39.312 37.778,45.915C37.778,45.915 35.31,47.429 35.255,50.232C36.021,49.83 36.832,49.48 37.759,49.21C38.049,49.124 38.352,49.293 38.434,49.581C38.518,49.87 38.353,50.173 38.063,50.258C36.694,50.656 35.574,51.209 34.539,51.945C33.925,52.452 33.159,53.351 32.948,54.771C34.666,54 36.806,53.715 39.045,53.433C39.369,53.385 39.614,53.607 39.655,53.904C39.691,54.204 39.479,54.477 39.181,54.513C36.303,54.876 33.613,55.258 32.011,56.676C31.562,57.188 31.058,58.049 30.768,59.507C30.09,59.191 17.93,69.909 12.108,75.531C10.03,77.537 9.97,80.337 11.331,81.566C11.685,79.983 12.77,78.43 14.588,76.984L26.734,65.176C26.954,64.969 27.293,64.973 27.506,65.189C27.715,65.405 27.711,65.749 27.495,65.96L15.309,77.804C12.877,79.741 11.912,81.7 12.401,83.662C12.405,83.683 12.388,83.7 12.393,83.722C12.641,84.551 13.21,85.478 14.408,86.063C14.635,83.443 16.592,80.653 17.561,79.684L27.58,68.102L29.316,66.297C29.525,66.081 29.87,66.07 30.088,66.282C30.304,66.489 30.31,66.836 30.103,67.052L28.387,68.836L18.358,80.424C17.19,81.597 15.029,84.991 15.601,87.36C16.314,88.727 18.166,90.671 22.268,86.876C27.919,81.647 35.983,65.73 36.039,65.618C38.298,65.183 42.155,64.488 42.155,64.488L54.35,67.92ZM55.931,21.567C56.663,21.567 57.26,21.843 57.26,22.183C57.26,22.523 56.663,22.799 55.931,22.799C55.197,22.799 54.6,22.523 54.6,22.183C54.6,21.843 55.196,21.567 55.931,21.567ZM51.356,66.894C47.274,65.637 45.154,65.074 42.155,64.488C45.493,63.497 48.924,61.867 51.639,60.804C52.606,61.987 53.616,63.103 54.526,64.055C53.495,64.464 51.946,66.151 51.356,66.894ZM35.173,61.838C34.428,61.838 33.726,61.787 33.078,61.685C32.782,61.639 32.578,61.362 32.623,61.063C32.67,60.767 32.934,60.575 33.248,60.611C40.598,61.754 55.339,55.891 60.905,48.09C62.967,45.199 64.558,40.736 63.464,37.28C62.838,35.299 61.084,33.522 59.226,32.868C59.083,32.818 59.009,32.662 59.06,32.52C59.109,32.378 59.256,32.32 59.408,32.353C61.106,32.729 63.78,34.657 64.506,36.95C65.793,41.024 63.851,45.838 61.795,48.721C56.513,56.121 43.247,61.838 35.173,61.838Z" style="fill-rule:nonzero;"/>
                </g>
                <g transform="matrix(1,0,0,1,-1275.92,-10690.9)">
                    <path d="M1547.18,11387C1547.17,11388.1 1547.15,11389.3 1547.12,11390.5C1559.24,11405.3 1583.22,11416.4 1615.28,11420.8C1627.1,11422.6 1644.24,11423.2 1656.65,11422C1678.51,11420.6 1697.42,11415.8 1713.38,11408C1726.74,11401.3 1736.18,11393.1 1741.01,11384C1735.9,11392.3 1726.9,11399.7 1714.55,11406C1698.6,11413.7 1679.69,11418.5 1657.82,11420C1645.41,11421.2 1628.28,11420.6 1616.46,11418.8C1583.39,11414.2 1558.89,11402.5 1547.18,11387ZM1881.96,11307.8C1896.03,11289.4 1921.23,11273 1946.26,11260.5C1958.08,11253.9 1971.22,11247.3 1974.5,11244.7C1981.07,11240.1 1991.57,11230.3 1995.51,11225C2007.99,11204 2007.33,11171.2 1993.54,11143.6C1983.69,11123.2 1969.9,11110.7 1954.8,11108.8C1939.04,11106.1 1927.22,11115.3 1921.97,11132.4C1920.65,11139 1920.65,11160 1922.62,11168.5C1925.91,11184.3 1933.13,11199.4 1941.01,11209.2C1948.89,11218.4 1960.05,11227.6 1969.25,11230.9C1971.87,11231.6 1974.5,11232.9 1975.81,11232.9L1977.12,11233.5L1974.5,11234.9C1967.28,11238.1 1949.55,11239.4 1939.7,11237.5C1912.12,11232.2 1893.73,11210.6 1890.45,11180.3C1886.51,11141.6 1910.8,11109.4 1950.86,11102.9C1960.05,11101.5 1976.47,11102.2 1984.35,11104.2C1992.23,11106.1 2003.9,11111.7 2013.36,11118.9C2022.04,11125.4 2031.63,11139.6 2034.25,11150.8C2036.22,11158 2036.88,11169.8 2035.57,11177.7C2030.97,11203.3 2016.53,11221.1 1981.72,11245.4C1958.83,11261.2 1933.17,11295.7 1922.01,11321.6C1924.53,11321.4 1926.78,11321.4 1928.56,11321.6C1929.33,11321.6 1929.92,11321.7 1929.86,11321.7C1929.8,11321.7 1928,11322 1925.86,11322.3C1925.24,11322.4 1924.61,11322.5 1923.97,11322.6C1926.73,11323.8 1929.37,11325 1931.88,11326.3C1932.16,11326.5 1932.43,11326.6 1932.7,11326.8C1934.16,11326.9 1935.41,11327 1936.35,11327.2C1937.94,11327.5 1938.1,11327.7 1936.83,11327.7C1936.16,11327.7 1935.35,11327.7 1934.44,11327.8C1935.96,11328.6 1937.41,11329.5 1938.8,11330.4C1939.14,11330.5 1939.46,11330.5 1939.77,11330.5C1940.23,11330.5 1940.86,11330.6 1941.59,11330.7C1948.48,11321.9 1955.59,11311.4 1961.96,11302.3C1991.59,11259.9 2047.63,11261.4 2048.28,11261.4L2038.75,11295.4C2038.75,11295.4 1994.92,11272.3 1965.63,11323.2C1961.51,11330.4 1957.13,11336.4 1952.59,11341.4C1955.96,11342.1 1959.05,11342.9 1961.55,11343.6L1962.96,11344C1962.96,11344 1958.49,11343.4 1953.02,11342.9C1958.18,11349.3 1960.84,11356.3 1960.84,11363.6C1960.84,11370.2 1959.07,11375.9 1954.34,11382.1C1941.34,11400.3 1910.61,11413.2 1872.79,11415.9C1859.79,11417.1 1843.24,11416.5 1830.83,11414.7C1792.21,11408.9 1764.5,11393.8 1756.64,11373.6C1756.79,11374.2 1756.94,11374.8 1757.1,11375.2C1763.6,11396.7 1791.97,11412.8 1832.15,11418.8C1844.56,11420.6 1861.11,11421.2 1874.11,11420C1911.93,11417.3 1942.66,11404.5 1955.66,11386.3C1956.41,11385.3 1957.1,11384.3 1957.71,11383.3C1956.83,11385 1955.77,11386.6 1954.48,11388.3C1941.48,11406.5 1910.75,11419.4 1872.93,11422C1859.93,11423.2 1843.38,11422.6 1830.97,11420.8C1790.79,11414.9 1762.42,11398.8 1755.92,11377.3C1755.01,11374.7 1754.3,11368.1 1754.58,11362.7C1751.96,11362.2 1748.78,11361.6 1745.25,11360.9C1744.97,11360.8 1744.69,11360.7 1744.4,11360.7C1744.51,11361.7 1744.56,11362.6 1744.56,11363.6L1744.56,11363.8C1745.72,11364.2 1746.65,11364.5 1747.29,11364.7C1747.44,11364.8 1747.45,11364.8 1747.32,11364.9C1747.16,11364.9 1746.12,11364.8 1744.54,11364.5C1744.09,11378.8 1732.91,11391.9 1713.24,11401.8C1697.28,11409.6 1678.37,11414.4 1656.51,11415.9C1644.1,11417.1 1626.96,11416.5 1615.14,11414.7C1583.28,11410.2 1559.5,11399.3 1547.3,11384.6C1547.32,11377.7 1547.08,11372.3 1547.02,11371.2C1539.72,11373.2 1532.11,11375.2 1526.57,11376.7L1520.41,11395.1C1483.33,11417.5 1462.05,11415.6 1411.27,11415.9L1363.99,11415.9C1363.99,11415.9 1373.17,11387.6 1373.79,11349.5C1374.2,11323.9 1363.99,11311.4 1363.99,11311.4C1363.99,11311.4 1444.24,11312.2 1469.18,11312.6C1482.44,11312.8 1504.63,11319.2 1506.41,11326.6C1508.18,11334.1 1501.68,11339.2 1482.18,11345.7L1475.09,11348.1C1475.09,11348.1 1511.42,11345.2 1528.07,11372C1535.48,11370 1542.66,11368 1543.2,11367.9C1543.31,11367.9 1543.41,11367.8 1543.5,11367.8L1544.88,11367.4C1544.88,11367.4 1544.88,11367.4 1544.88,11367.4C1544.97,11367.4 1549.11,11366.3 1550.76,11365.9C1558.4,11363.9 1567.66,11361.5 1574.94,11359.6C1576.63,11359.2 1581.12,11358.1 1581.16,11358C1581.16,11358 1581.16,11358 1581.17,11358C1582.11,11357.8 1582.95,11357.6 1583.7,11357.4C1583.9,11357.4 1590.91,11355.7 1591.47,11355.5C1591.69,11355.4 1592.19,11354.8 1592.9,11353.6C1596.24,11348.1 1601.81,11341.3 1609.14,11333.8C1612,11330.9 1619.36,11324.9 1625.32,11320.8C1630.71,11317 1636.73,11313.3 1642.08,11310.6C1643.03,11310.1 1643.84,11309.8 1643.88,11309.8C1643.93,11309.8 1643.73,11309.9 1643.45,11310.1C1638.51,11313.5 1627.26,11322.4 1621.48,11327.4C1618.02,11330.4 1608.34,11339.5 1604.92,11342.9C1602.18,11345.7 1593.9,11354.8 1594.12,11354.9C1594.21,11354.9 1601.51,11353.2 1601.55,11353.1C1601.56,11353.1 1602,11352.4 1602.53,11351.5C1605.78,11346 1611.45,11339 1618.91,11331.4C1621.07,11329.1 1624.95,11325.8 1629.45,11322.4C1635.82,11317.5 1641.32,11313.8 1647.75,11310.2C1650.08,11308.9 1653.73,11307 1653.85,11307.1C1653.89,11307.1 1652.83,11307.9 1651.49,11308.8C1646.15,11312.7 1638.05,11319 1632.16,11324C1629.12,11326.6 1617.54,11337.5 1614.13,11341C1611.27,11343.9 1603.85,11352.2 1603.82,11352.5C1603.81,11352.6 1611.03,11351.1 1611.6,11350.8C1611.66,11350.8 1612.16,11350.1 1612.7,11349.2C1616.07,11343.8 1621.44,11337.3 1628.55,11330C1631.31,11327.2 1638.41,11321.4 1644.18,11317.3C1648.05,11314.6 1653.39,11311.2 1657.42,11309C1660.2,11307.4 1663.11,11305.9 1663.25,11306C1663.29,11306 1662.3,11306.7 1661.05,11307.6C1656.04,11311.2 1649.44,11316.4 1642.76,11322C1639.04,11325.1 1628.79,11334.6 1624.4,11339C1621.95,11341.5 1614.4,11349.9 1614.33,11350.2C1614.32,11350.3 1617.43,11349.6 1617.94,11349.4C1618,11349.4 1618.46,11348.7 1618.98,11347.9C1619.99,11346.4 1623.25,11342.1 1624.93,11340.2C1628.29,11336.4 1632.55,11332.1 1636.35,11328.8C1639.05,11326.5 1645.7,11321.7 1650.34,11318.9C1654.74,11316.1 1659.97,11313.3 1664,11311.5C1666.17,11310.5 1670.44,11308.7 1670.47,11308.8C1670.49,11308.8 1668.61,11310 1666.31,11311.5C1660.2,11315.3 1656.48,11317.7 1652.98,11320.2C1648.53,11323.4 1647.28,11324.3 1641.27,11329.1C1635.22,11334 1631.85,11336.9 1628.63,11339.9C1625.94,11342.4 1619.42,11349.1 1619.66,11349.1C1619.77,11349.1 1621.66,11348.6 1623.89,11348.2L1627.94,11347.3L1630.29,11344.2C1635.42,11337.5 1642.35,11330.5 1648.5,11325.8C1656.53,11319.7 1665.52,11314.3 1673.82,11310.6C1675.14,11310 1676.94,11309.2 1677.82,11308.9L1679.43,11308.3L1674.52,11311.4C1666.39,11316.6 1660.4,11320.6 1656.14,11323.9C1650.07,11328.7 1640.83,11336.3 1637.73,11339.3C1635.53,11341.3 1630.21,11346.7 1630.34,11346.7C1630.39,11346.8 1632.27,11346.4 1634.51,11345.9L1638.6,11345.1L1639.09,11344.3C1640.61,11342 1644.81,11336.9 1648,11333.6C1652.98,11328.3 1657.24,11324.7 1663.5,11320.3C1671.56,11314.6 1680.12,11309.9 1688.06,11306.7L1690.28,11305.8L1684.8,11309.3C1677.83,11313.7 1676.37,11314.7 1673.33,11316.8C1668.38,11320.3 1666.87,11321.5 1661.15,11326.1C1655.07,11331 1650.3,11335 1647.69,11337.6C1645.48,11339.7 1640.67,11344.5 1640.69,11344.6C1640.7,11344.6 1642.67,11344.3 1645.06,11343.8L1649.41,11343L1650.8,11341.1C1655.6,11334.5 1663.83,11326.1 1670.15,11321.4C1679.99,11314.1 1689.39,11308.6 1698.77,11304.9L1700.99,11304L1696.14,11307.1C1684.02,11314.8 1680.74,11317.1 1671.71,11324.4C1665.34,11329.5 1661.06,11333.2 1658.06,11336.1C1655.43,11338.6 1651.74,11342.4 1651.77,11342.5C1651.8,11342.5 1660.13,11341 1660.51,11340.9C1660.65,11340.8 1661.23,11340.1 1661.79,11339.3C1663.33,11337 1667.64,11332 1670.64,11328.9C1673.56,11326 1677.76,11322.2 1680.12,11320.4C1688.07,11314.3 1697.43,11308.6 1705.82,11304.8C1707.67,11304 1711.8,11302.3 1711.71,11302.4C1711.67,11302.5 1708.99,11304.2 1705.75,11306.2C1698,11311.1 1692.39,11315 1688.26,11318.2C1681.72,11323.2 1673.35,11330.2 1669.66,11333.7C1667.36,11335.9 1662.87,11340.4 1662.99,11340.5C1663.03,11340.5 1665.36,11340.1 1668.16,11339.6L1673.25,11338.8L1674.46,11337.1C1678.38,11331.6 1683.96,11325.6 1690.82,11319.7C1692.93,11317.8 1698.24,11314 1702.87,11311C1709.2,11306.9 1717.85,11302.5 1723.05,11300.6L1724.48,11300.1L1719.38,11303.3C1712.62,11307.5 1710.95,11308.7 1705.98,11312.2C1698.67,11317.4 1686.12,11327.7 1681.12,11332.6C1678.49,11335.2 1675.54,11338.2 1675.52,11338.3C1675.51,11338.4 1677.4,11338.1 1679.71,11337.8L1683.92,11337.1L1684.75,11335.9C1688.13,11331 1693.71,11325 1700.62,11318.9C1702.93,11316.8 1707.72,11313.3 1712.27,11310.3C1719.31,11305.7 1725.9,11302.2 1733.26,11299.2C1734.22,11298.8 1735.01,11298.5 1735.02,11298.6C1735.03,11298.6 1732.84,11300 1730.14,11301.7C1723.98,11305.6 1721.04,11307.5 1716.14,11311C1709.58,11315.6 1696.51,11326.4 1692.16,11330.6C1688.68,11334.1 1686.09,11336.8 1686.24,11336.8C1686.32,11336.8 1687.02,11336.7 1687.79,11336.6C1688.57,11336.5 1690.99,11336.2 1693.17,11335.9L1697.15,11335.4L1699.43,11332.4C1702.63,11328.2 1705.49,11325.1 1710.21,11320.6C1713.47,11317.6 1715.13,11316.1 1717.41,11314.4C1726.78,11307.4 1735.44,11302.4 1744.69,11298.4C1748.68,11296.8 1748.68,11296.8 1743.41,11300.1C1736.14,11304.7 1732.74,11307 1726.91,11311.2C1722.25,11314.5 1709.34,11325.2 1705.78,11328.7C1704.69,11329.7 1699.74,11334.7 1699.51,11335C1699.42,11335.1 1707.04,11334.3 1707.4,11334.2C1707.46,11334.2 1708.51,11332.8 1709.73,11331.2C1713.92,11325.7 1721.63,11318 1727.11,11313.8C1735.58,11307.4 1744.18,11302.2 1752.99,11298.3C1755.19,11297.3 1758.46,11296 1758.37,11296.1C1758.35,11296.1 1756.02,11297.6 1753.18,11299.4C1746.64,11303.5 1744.59,11304.9 1739.72,11308.3C1733.14,11313 1719.48,11324.2 1715.37,11328.3C1712.71,11331 1709.76,11334 1709.83,11334C1709.87,11334 1711.41,11333.9 1713.26,11333.7C1715.11,11333.5 1717.38,11333.3 1718.31,11333.3L1720,11333.2L1720.3,11332.7C1721.14,11331.4 1723.21,11328.4 1723.48,11328.2C1723.64,11328 1724.57,11326.9 1725.54,11325.8C1728.3,11322.6 1732.12,11318.8 1736.74,11314.7C1741.3,11310.6 1749.36,11305.1 1756.57,11301.1C1760.85,11298.7 1766.97,11295.8 1769.97,11294.7L1771.23,11294.3L1766.37,11297.3C1760.13,11301.3 1758.16,11302.6 1754.06,11305.5C1749.36,11308.8 1748.61,11309.3 1742.24,11314.5C1733.65,11321.4 1730.05,11324.6 1724.31,11330.4L1721.76,11333L1729.54,11332.5L1729.99,11331.6C1731.37,11329 1734.94,11324.1 1737.6,11321.3C1742.16,11316.4 1747.71,11311.7 1752.36,11308.7C1758.46,11304.8 1765.67,11301.3 1772.67,11298.7C1776.25,11297.4 1777.78,11296.9 1781.25,11296.1C1783.55,11295.5 1783.96,11295.5 1782.3,11296.1C1779.03,11297.4 1769.67,11301.8 1765.3,11304.3C1756.95,11309 1746.26,11316.6 1739.91,11322.5C1737.14,11325.1 1730.49,11332.1 1730.59,11332.3C1730.61,11332.4 1737.53,11332 1738.87,11331.9C1738.94,11331.9 1739.27,11331.3 1739.62,11330.6C1741.39,11327 1745.35,11322 1750,11317.4C1755.78,11311.7 1761.58,11307.6 1769.91,11303.2C1774.43,11300.9 1776.33,11300 1782,11297.9C1786.55,11296.3 1787.5,11295.9 1789.78,11295.4C1793.82,11294.3 1793.92,11294.3 1792.13,11295.1C1777.92,11301.1 1770,11305.6 1758.12,11314.4C1752.03,11318.9 1747.54,11323 1741.51,11329.7L1739.56,11331.9L1744.17,11331.6C1746.71,11331.5 1748.84,11331.4 1748.9,11331.3C1748.97,11331.3 1749.32,11330.7 1749.69,11330C1751.55,11326.4 1755.7,11321.3 1760.49,11316.8C1766.45,11311.2 1770.4,11308.4 1778.28,11304.1C1785.77,11300 1793.54,11297 1801.59,11295C1802.31,11294.8 1802.88,11294.7 1802.85,11294.7C1802.83,11294.8 1801.86,11295.2 1800.7,11295.7C1795.47,11298 1787.89,11301.6 1784.34,11303.6C1780.14,11306 1774.03,11310 1768.76,11313.8C1762.13,11318.7 1757.11,11323.3 1751.15,11329.9L1749.88,11331.3L1750.58,11331.3C1750.97,11331.3 1753.37,11331.2 1755.91,11331.1L1760.53,11330.9L1761.25,11329.6C1764.29,11324.2 1771.88,11316.1 1778.89,11310.8C1782.56,11308.1 1789.36,11304.1 1795.16,11301.4C1797.78,11300.2 1804.58,11297.6 1807.37,11296.7C1809.46,11296.1 1814.38,11294.8 1814.3,11294.9C1814.27,11294.9 1813.19,11295.4 1811.88,11295.9C1807.26,11297.9 1801.53,11300.6 1796.87,11303.1C1794.04,11304.6 1790.08,11307 1785.83,11309.9C1776.28,11316.4 1770.8,11321 1764.9,11327.4C1763.48,11328.9 1762.19,11330.3 1762.03,11330.5C1761.87,11330.7 1761.78,11330.8 1761.84,11330.8C1762.45,11330.9 1770.25,11330.6 1770.32,11330.5C1770.38,11330.4 1770.72,11329.8 1771.08,11329.1C1771.84,11327.8 1774.29,11324.5 1776.17,11322.3C1780.11,11317.7 1786.9,11311.7 1791.39,11308.8C1801.31,11302.4 1811.2,11298.1 1821.73,11295.4C1822.74,11295.1 1823.55,11295 1823.52,11295C1823.5,11295.1 1822.57,11295.5 1821.47,11295.9C1814.65,11298.7 1805.96,11303.1 1800.91,11306.3C1792.18,11311.8 1784.75,11317.4 1779.34,11322.4C1777.36,11324.3 1771.56,11330.3 1771.62,11330.5C1771.63,11330.5 1772.13,11330.5 1772.73,11330.5L1773.82,11330.5L1774.45,11329.6C1775.25,11328.5 1776.95,11326.7 1779.38,11324.4C1785.02,11318.9 1793.73,11312.6 1800.23,11309.3C1809.51,11304.6 1819.45,11300.9 1827.44,11299.2C1829.04,11298.9 1829.36,11298.9 1829.04,11299.1C1828.82,11299.2 1826.76,11300.1 1824.45,11301C1815.68,11304.5 1809.54,11307.4 1802.9,11311.2C1801.51,11312 1799.14,11313.4 1797.62,11314.2C1794.25,11316.1 1788.59,11319.7 1785.75,11321.7C1783.49,11323.3 1774.22,11330.3 1774.26,11330.5C1774.28,11330.5 1781.38,11330.4 1781.57,11330.4C1781.63,11330.4 1782.23,11329.7 1782.91,11329C1787.11,11324.6 1792.82,11319.9 1799.38,11315.5C1802.3,11313.6 1803.76,11312.7 1806.48,11311.4C1812.04,11308.5 1816.81,11306.5 1822.25,11304.6C1827.25,11302.9 1830,11302.1 1835.02,11301.1C1835.83,11300.9 1835.29,11301.2 1834.03,11301.7C1830.7,11302.9 1822.87,11306.3 1818.94,11308.2C1816.11,11309.5 1811.56,11311.9 1809.46,11313.1C1808.62,11313.5 1806.25,11314.9 1804.19,11316.1C1797.29,11320 1792.24,11323.3 1786.06,11328.1L1783.01,11330.4L1786.41,11330.4C1788.28,11330.4 1789.92,11330.4 1790.04,11330.3C1790.17,11330.3 1790.73,11329.8 1791.28,11329.1C1793.51,11326.6 1798.42,11322.3 1802.61,11319.2C1808.71,11314.6 1813.34,11311.9 1820.66,11308.5C1824.26,11306.9 1833.71,11303.4 1837.16,11302.5C1839.74,11301.8 1842.5,11301.1 1843.63,11301C1844.3,11300.9 1844.24,11300.9 1842.28,11301.7C1836.32,11304.1 1831.95,11306 1829.53,11307.1C1825.27,11309.1 1820.15,11311.7 1816.84,11313.6C1815.96,11314.2 1814.02,11315.3 1812.55,11316.1C1809.02,11318.1 1802.94,11321.9 1799.94,11324C1798.62,11325 1796.18,11326.8 1794.52,11328.1L1791.48,11330.4L1799.95,11330.4L1801.08,11329.2C1804.39,11325.5 1809.03,11321.5 1814.99,11317.3C1820.49,11313.4 1824.91,11310.9 1832.49,11307.6C1835.23,11306.4 1842.46,11303.8 1845.28,11302.9C1847.74,11302.2 1851.64,11301.2 1853.11,11301L1854.13,11300.8L1850.29,11302.4C1840.18,11306.5 1834.85,11309 1828.76,11312.4C1816.2,11319.5 1812.94,11321.6 1805.21,11327.3C1803.6,11328.6 1802.02,11329.7 1801.69,11330L1801.1,11330.5L1804.52,11330.5C1806.4,11330.6 1808.01,11330.6 1808.11,11330.5C1808.21,11330.4 1808.99,11329.7 1809.84,11328.8C1813.87,11324.7 1819.24,11320.4 1825.23,11316.4C1829.28,11313.8 1831.49,11312.6 1836.91,11310C1844.31,11306.6 1852.32,11303.8 1858.72,11302.4C1860.63,11302 1861.33,11301.9 1860.99,11302.1C1860.86,11302.2 1858.83,11303.1 1856.48,11304C1850.93,11306.2 1848.95,11307.1 1845.3,11308.8C1841.39,11310.7 1837.35,11312.8 1834.02,11314.7C1832.55,11315.5 1830.03,11317 1828.42,11317.9C1825.33,11319.7 1820.85,11322.5 1818.04,11324.4C1816.53,11325.5 1811.19,11329.4 1810.07,11330.3L1809.64,11330.7L1810.9,11330.7C1811.59,11330.7 1813.02,11330.8 1814.07,11330.8L1815.98,11330.9L1817.12,11329.8C1820.93,11326.1 1826.81,11321.6 1832.11,11318.1C1835.09,11316.2 1836.23,11315.6 1839.61,11313.9C1847.06,11310.3 1854.6,11307.3 1861.27,11305.6C1863.23,11305 1866.71,11304.3 1867.21,11304.3C1867.38,11304.3 1866.34,11304.7 1864.62,11305.4C1854.98,11309.2 1848.31,11312.3 1842.33,11315.7C1830.15,11322.5 1826.29,11325 1819.49,11330L1818.2,11331L1825.72,11331.3L1826.87,11330.2C1831.1,11326 1837.57,11321 1843.81,11317C1847.54,11314.7 1852.95,11312 1859.33,11309.4C1865.61,11306.9 1872.77,11304.7 1877.09,11304L1878.19,11303.8L1875.45,11304.9C1864.16,11309.4 1857.96,11312.4 1850.12,11316.9C1848.65,11317.7 1846.18,11319.1 1844.64,11320C1841.3,11321.9 1836.71,11324.8 1833.81,11326.9C1831.22,11328.8 1827.78,11331.3 1827.81,11331.4C1827.82,11331.4 1828.68,11331.5 1829.74,11331.6C1830.91,11331.7 1831.72,11331.6 1831.83,11331.5C1831.93,11331.4 1832.56,11330.8 1833.24,11330.2C1838.93,11324.5 1848.63,11318 1856.4,11314.7C1859.65,11313.3 1865.68,11311.2 1868.74,11310.4C1873.44,11309.1 1877.93,11308.2 1881.96,11307.8ZM1970.37,11416.1L1969.69,11410.7C1971.02,11410.9 1991.8,11413.8 2002.21,11414.7C2035.03,11417.5 2062.26,11417.6 2083.76,11412.3C2107.43,11406.4 2118.62,11394.1 2111.53,11380.9C2110.35,11378.3 2106.21,11374.1 2103.26,11371.7C2092.62,11364.8 2078.44,11360.1 2046.53,11352C2019.93,11345.4 2010.48,11342.5 2002.8,11338.6C1995.71,11335 1992.75,11330.8 1993.93,11326C1995.11,11321.9 1999.25,11318.9 2006.34,11316.2C2017.57,11312.6 2032.93,11311.7 2046.53,11314.4C2064.25,11318 2082.57,11326.9 2097.35,11339.2C2099.12,11340.7 2105.65,11346.4 2105.65,11346.4C2105.65,11346.4 2104.44,11338.9 2102.66,11330.8C2099.12,11313.8 2100.89,11315.9 2087.89,11313.8C2074.3,11311.4 2059.53,11310.5 2041.21,11310.5C2024.66,11310.5 2013.43,11311.7 2001.61,11314.4C1986.84,11317.7 1977.77,11322.8 1973.25,11331.7C1970.6,11336.9 1971.34,11344.2 1973.98,11349.2C1976.35,11353.7 1981.66,11358.5 1989.35,11362.1C1998.21,11366.5 2007.07,11369.2 2028.94,11374.9C2060.85,11383.2 2070.3,11386.2 2078.58,11390.4C2085.59,11394 2089.21,11396.9 2090.51,11400.7C2089.52,11403.8 2086.81,11406.3 2082.57,11408.7C2075.48,11411.7 2067.8,11413.5 2056.57,11413.8C2024.66,11414.4 1996.3,11403.3 1975.02,11381.5C1972.66,11379.5 1964.77,11371.7 1964.77,11371.7C1964.77,11371.7 1968.19,11398.8 1969.72,11411L1970.44,11416.7C1971.03,11416.7 1992.98,11420.1 2002.35,11420.8C2043.19,11424.3 2064.86,11422.2 2083.9,11418.5C2098.93,11415.5 2108.69,11408.5 2112.28,11401.1C2107.96,11407.6 2098.73,11414 2085.07,11416.4C2053.53,11422.1 2036.66,11420.7 2003.52,11418.8C1992.81,11418.2 1970.77,11414.6 1970.18,11414.6C1970.18,11414.6 1970.3,11415.5 1970.37,11416.1ZM2154.56,11421.3L2156.81,11419.1L2223.35,11419.1L2225.6,11421.3L2154.56,11421.3ZM1511.7,11403.7C1513.46,11402.7 1486.41,11420.5 1454.15,11420.9C1442.14,11421 1411.93,11421 1411.93,11421L1365.18,11421.3L1363.87,11418.8L1411.84,11418.3C1411.84,11418.3 1444.58,11418.3 1450.96,11418.2C1466.99,11417.8 1485.91,11416.3 1511.7,11403.7ZM2160.1,11415.1C2160.1,11415.1 2168.43,11407.8 2170.15,11402.6C2172.51,11395.4 2172.51,11396.6 2173.11,11358.4C2173.11,11345.5 2173.11,11336.2 2173.03,11330.1C2172.94,11328 2172.95,11322.7 2172.51,11320.2C2172.12,11317.9 2169.56,11316 2167.79,11315.1C2164.83,11313.6 2156.56,11313 2150.65,11314.2C2140.6,11315.7 2130.56,11320.5 2118.74,11328.9L2112.72,11332.8L2117.56,11311.2L2262.6,11311.2L2267.44,11332.8L2261.42,11328.9C2249.6,11320.5 2239.55,11315.7 2229.51,11314.2C2223.6,11313 2215.33,11313.6 2212.37,11315.1C2210.6,11316 2208.03,11317.9 2207.64,11320.2C2207.21,11322.7 2207.22,11328 2207.13,11330.1C2207.05,11336.2 2207.05,11345.5 2207.05,11358.4C2207.64,11396.6 2207.64,11395.4 2210.01,11402.6C2211.72,11407.8 2220.05,11415.1 2220.05,11415.1L2160.1,11415.1ZM1889.32,11358C1897.89,11362.5 1908.77,11364.3 1920.28,11361.7C1922.86,11362.1 1924.52,11362.4 1924.35,11362.4C1923.48,11362.1 1922.52,11361.7 1921.48,11361.4C1923.11,11361 1924.75,11360.5 1926.4,11359.9L1926.39,11359.8L1926.45,11359.9L1926.4,11359.9C1931.11,11368.3 1932.7,11376.7 1930.7,11384.5C1925.38,11403 1902.93,11413.8 1872.2,11412C1839.7,11409.9 1807.19,11393.5 1791.83,11370.8C1789.86,11368 1788.3,11365.2 1787.12,11362.3C1787.34,11362.3 1787.32,11362.2 1787.06,11362.1C1786.59,11360.9 1786.18,11359.7 1785.84,11358.6C1792.01,11359.8 1798.41,11360.9 1798.53,11360.8C1798.56,11360.7 1793.27,11358.8 1786.77,11356.5C1786.25,11356.4 1785.73,11356.2 1785.2,11356C1785.05,11355.3 1784.93,11354.6 1784.83,11353.9C1790.81,11355.7 1794.92,11356.6 1803.02,11358.2C1808.68,11359.3 1811.81,11359.8 1812.11,11359.7C1812.25,11359.6 1807.71,11358 1792.61,11352.7C1790.64,11352 1787.79,11351 1784.48,11349.8C1784.46,11349.1 1784.47,11348.4 1784.5,11347.7C1787.08,11348.8 1789.4,11349.7 1790.71,11350.1C1793.67,11351.1 1801.89,11353.6 1805.05,11354.5C1809,11355.6 1825.71,11358.9 1827.62,11359C1828.04,11359 1828.17,11359 1828.02,11358.9C1827.9,11358.8 1822.63,11357 1816.31,11354.8C1806.66,11351.4 1794.82,11347 1785.04,11343.3C1785.22,11342.4 1785.44,11341.5 1785.7,11340.7C1788.56,11342.2 1791.26,11343.4 1795.22,11345.1C1800.18,11347.3 1801.98,11348 1805.45,11349.1C1817.84,11352.9 1819.81,11353.4 1831.03,11355.6C1838.77,11357.1 1842.37,11357.6 1840.11,11356.9C1836.11,11355.6 1814.68,11347.9 1804.73,11344.2C1798.42,11341.9 1791.65,11339.3 1786.94,11337.4C1787.18,11336.9 1787.43,11336.4 1787.69,11335.9C1787.89,11335.5 1788.1,11335.2 1788.31,11334.8L1791.27,11334.8L1796.17,11337.7C1801.35,11340.8 1804.94,11342.6 1810.78,11345.2C1816.15,11347.5 1817.84,11348.1 1822.53,11349.6C1834.29,11353.3 1835.66,11353.6 1847.01,11355.8C1853.26,11357 1856.33,11357.5 1856.66,11357.4C1856.76,11357.4 1856.5,11357.2 1856.08,11357.1C1855.66,11357 1850.29,11355.1 1844.15,11352.9C1831.6,11348.6 1810.6,11340.7 1802.11,11337.3C1799.02,11336 1796.38,11335 1796.24,11334.9C1796.11,11334.9 1797.19,11334.9 1798.66,11334.9C1801.94,11334.9 1809.73,11335.1 1810.17,11335.2C1810.35,11335.2 1811.66,11335.9 1813.1,11336.8C1817.04,11339.2 1820.23,11341 1822.49,11342.1C1825.76,11343.7 1831.27,11346.2 1834.09,11347.3C1836.74,11348.4 1846.15,11351.4 1851.75,11352.9C1856.39,11354.2 1874.71,11357.9 1875.39,11357.6C1875.48,11357.6 1875.06,11357.4 1874.46,11357.2C1866.44,11354.4 1849.29,11348.3 1839.19,11344.5C1828.29,11340.4 1816.02,11335.6 1815.94,11335.4C1815.91,11335.4 1822.81,11335.7 1827.64,11336L1830.65,11336.2L1833.39,11337.8C1838.92,11341.1 1842.02,11342.9 1844.31,11344C1846.86,11345.2 1854.88,11348.7 1856.89,11349.5C1858.52,11350.1 1870.25,11353.8 1873.27,11354.6C1876.27,11355.4 1883.67,11356.9 1889.32,11358ZM1714.03,11370.7C1714.97,11375.9 1714.8,11383 1713.83,11386.6C1710.87,11394.4 1705.55,11400 1697.28,11404.8C1690.78,11408.1 1681.33,11410.8 1673.05,11411.7C1667.73,11412 1660.64,11412.3 1655.91,11412C1645.28,11411.4 1632.87,11408.7 1622.23,11404.8C1611,11400.9 1598,11393.5 1589.73,11386.3C1582.49,11380.2 1577.05,11373.7 1573.44,11367.3C1580.15,11371.6 1588.46,11375.8 1597.77,11379.6C1600.03,11380.5 1607.11,11382.7 1613.49,11384.5C1617.11,11385.6 1627.04,11387.7 1631.21,11388.4C1634.7,11389 1637.97,11389.4 1637.94,11389.3C1637.93,11389.3 1632.67,11387.5 1626.26,11385.2C1611.82,11380.2 1592.24,11372.9 1580.88,11368.2C1576.16,11366.3 1572.24,11364.7 1572.18,11364.7C1572.1,11364.6 1573.32,11364.3 1575.53,11363.7C1577.44,11363.2 1579.06,11362.8 1579.13,11362.8C1579.19,11362.8 1580.67,11363.7 1582.4,11364.7C1591.05,11370.2 1602.59,11375.7 1611.08,11378.4C1621.25,11381.7 1628.95,11383.7 1637.8,11385.2C1640.65,11385.7 1645.68,11386.5 1646.16,11386.5C1646.34,11386.5 1641.21,11384.6 1634.76,11382.4C1620.48,11377.4 1600.2,11369.8 1589.53,11365.5C1585.19,11363.7 1581.63,11362.3 1581.62,11362.2C1581.59,11362.1 1588.79,11360.4 1588.98,11360.5C1589.09,11360.5 1590.1,11361.1 1591.23,11361.9C1595.41,11364.7 1602.25,11368.4 1608.23,11371.2C1611.76,11372.8 1617.53,11375.2 1619.38,11375.8C1622.49,11376.9 1628.4,11378.6 1632.38,11379.7C1638.94,11381.6 1651.8,11384.1 1656.48,11384.6C1656.95,11384.6 1657.6,11384.8 1644.16,11380.1C1630.53,11375.4 1611.38,11368.2 1599.96,11363.6C1595.05,11361.6 1591.05,11360 1591.07,11359.9C1591.13,11359.9 1598.92,11358 1599.32,11358C1599.5,11357.9 1601.24,11358.9 1603.19,11360.1C1607.51,11362.8 1611.05,11364.7 1615.79,11367C1625.16,11371.4 1629.39,11373 1639.9,11376C1647.95,11378.4 1657.56,11380.4 1665.74,11381.5L1666.97,11381.6L1665.94,11381.2C1665.38,11381 1660.05,11379.2 1654.11,11377.1C1640.21,11372.2 1620.1,11364.7 1610.38,11360.7C1606.19,11359 1602.59,11357.6 1602.37,11357.5L1601.97,11357.3L1605.46,11356.5C1607.38,11356 1608.98,11355.7 1609.03,11355.8C1609.08,11355.8 1610.82,11356.9 1612.89,11358.2C1619.81,11362.4 1625.64,11365.4 1634.32,11369C1638.91,11370.9 1645,11372.9 1653.34,11375.2C1658.82,11376.7 1676.18,11380 1676.46,11379.7C1676.49,11379.6 1671.4,11377.8 1665.15,11375.6C1651.17,11370.8 1631,11363.2 1619.74,11358.7C1615.09,11356.8 1611.3,11355.2 1611.32,11355.2C1611.34,11355.2 1612.61,11354.9 1614.14,11354.5L1616.93,11353.9L1620.28,11356C1629.46,11361.7 1640.77,11367 1650.17,11369.9C1660.35,11373.1 1664.84,11374.2 1675.84,11376.3C1680.76,11377.3 1684.77,11377.9 1684.17,11377.6C1684.07,11377.5 1678.71,11375.7 1672.26,11373.4C1658.23,11368.5 1638.39,11361.1 1627.83,11356.8C1618.48,11353 1619.26,11353.4 1619.68,11353.3C1620.46,11353.1 1626.53,11351.8 1626.59,11351.8C1626.63,11351.8 1627.85,11352.5 1629.3,11353.4C1635.19,11357.2 1641.83,11360.6 1649.99,11364.1C1655.97,11366.7 1661.6,11368.6 1670.79,11371.1C1675.74,11372.4 1693.81,11376 1694.07,11375.6C1694.1,11375.6 1688.76,11373.7 1682.2,11371.4C1675.64,11369.1 1664.71,11365.1 1657.9,11362.6C1644.38,11357.5 1629.14,11351.4 1629.48,11351.2C1629.6,11351.2 1631.28,11350.8 1633.23,11350.4C1637.54,11349.5 1637.4,11349.5 1637.45,11349.7C1637.51,11349.8 1643.01,11353.2 1645.16,11354.3C1652.52,11358.4 1662.31,11362.7 1667.92,11364.5C1679.33,11368.2 1683.71,11369.3 1695.99,11371.6C1700.66,11372.5 1703.23,11372.9 1703.51,11372.8C1703.61,11372.8 1703.24,11372.6 1702.7,11372.4C1702.15,11372.2 1696.9,11370.4 1691.04,11368.3C1677.97,11363.8 1658.42,11356.5 1647.98,11352.2C1643.69,11350.5 1640.21,11349.1 1640.24,11349C1640.26,11349 1641.92,11348.6 1643.92,11348.3C1648.83,11347.3 1648.93,11347.3 1648.99,11347.4C1649.05,11347.6 1654.53,11350.9 1657.25,11352.4C1662.87,11355.6 1674.04,11360.6 1678.95,11362.2C1683.42,11363.7 1690.14,11365.7 1693.29,11366.5C1696.43,11367.4 1709.17,11369.9 1713.66,11370.6C1713.79,11370.6 1713.91,11370.6 1714.03,11370.7ZM1492.46,11368.6C1490.42,11365.4 1487.62,11362.4 1484.09,11359.7C1479.95,11356.4 1472.7,11353.4 1470.92,11353.4C1430.29,11365.5 1423.53,11372.5 1421.39,11375.2C1430.23,11370.1 1443.77,11364.2 1471.2,11357C1483.14,11360.8 1497.38,11375.2 1492.82,11389.9C1487.86,11405.8 1458.47,11410.8 1447.86,11411.7C1435.39,11412.8 1412.25,11410 1411.86,11393.8C1411.61,11383.5 1417.27,11372.3 1428.14,11366.8C1444.94,11358.4 1469.26,11349.9 1471.03,11349.3C1472.81,11349.3 1478.63,11352.3 1482.77,11355.6C1487.56,11359.2 1490.67,11363.8 1492.46,11368.6ZM1472.12,11327.1C1464.16,11321.4 1454.34,11318.8 1442.01,11317.9C1422.17,11316.5 1410.25,11326.1 1409.34,11328.1C1409.92,11327.2 1418.5,11321.3 1437.21,11320.4C1445.47,11320 1462.42,11323.3 1466.4,11327.7C1476.66,11338.9 1450.18,11354.2 1432.44,11361.1C1397.36,11374.9 1384.08,11404.2 1384.08,11404.2C1384.08,11404.2 1394.23,11341.1 1406.92,11325.1C1410.58,11320.4 1420.53,11314.6 1440.24,11315.2C1454.65,11315.6 1467.04,11320.4 1472.12,11327.1ZM1973.67,11342.7C1973.93,11344.3 1974.45,11345.9 1975.16,11347.2C1977.52,11351.7 1982.84,11356.4 1990.52,11360C1999.39,11364.5 2008.25,11367.2 2030.12,11372.9C2062.03,11381.2 2071.48,11384.2 2079.76,11388.4C2085.62,11391.3 2089.11,11393.8 2090.86,11396.9C2090.85,11396.8 2090.85,11396.8 2090.85,11396.8C2090.26,11391.7 2086.71,11388.4 2078.44,11384.2C2070.16,11380.1 2060.71,11377.1 2028.8,11368.7C2006.93,11363 1998.07,11360.4 1989.2,11355.9C1981.52,11352.3 1976.2,11347.5 1973.84,11343C1973.78,11342.9 1973.73,11342.8 1973.67,11342.7ZM1712.88,11366.5C1713,11366.8 1713.12,11367.2 1713.24,11367.5C1713.51,11368.3 1713.74,11369.2 1713.93,11370.2C1711.94,11369.4 1708.05,11368.1 1703.66,11366.5C1689.08,11361.4 1669.63,11354.2 1659.46,11350.1C1655.13,11348.3 1651.6,11346.8 1651.62,11346.8C1651.63,11346.8 1653.4,11346.4 1655.54,11346.1L1659.43,11345.3L1662.48,11347.2C1668.87,11351.3 1676.38,11355 1684.74,11358.5C1687.96,11359.8 1696.66,11362.6 1703.61,11364.5C1704.6,11364.8 1708.61,11365.6 1712.88,11366.5ZM1710.81,11361.7C1711.13,11362.4 1711.44,11363 1711.74,11363.7C1698.09,11358.9 1680.51,11352.3 1670.23,11348.1C1665.84,11346.4 1662.27,11344.9 1662.28,11344.9C1662.3,11344.8 1663.43,11344.6 1664.79,11344.4C1666.14,11344.2 1667.85,11343.9 1668.58,11343.8L1669.9,11343.5L1672.83,11345.4C1679.86,11349.7 1686.18,11352.9 1694.71,11356.4C1697.27,11357.5 1704.23,11359.8 1710.81,11361.7ZM1743.54,11356C1745.61,11356.7 1747.98,11357.4 1750.82,11358.2C1752.42,11358.6 1753.67,11359 1754.93,11359.3C1754.83,11359.9 1754.75,11360.6 1754.68,11361.2C1751.56,11360.1 1747.76,11358.8 1743.87,11357.4C1743.77,11356.9 1743.66,11356.5 1743.54,11356ZM1755.06,11359.4L1755.06,11359.4L1755.06,11359.4L1755.06,11359.4ZM1922.53,11354.1C1927.52,11354.8 1932.51,11355 1936.81,11354.8C1934.21,11356.4 1931.61,11357.8 1929.01,11358.9C1927.74,11358.4 1926.36,11358 1924.91,11357.5C1924.22,11356.4 1923.4,11355.3 1922.53,11354.1ZM1706.63,11354.8C1707.07,11355.4 1707.49,11356.1 1707.9,11356.7C1705.05,11355.6 1702.46,11354.7 1700.36,11353.9C1690.47,11350.2 1676.38,11344.7 1673.28,11343.3L1672.86,11343.1L1673.67,11342.9C1674.11,11342.9 1676.01,11342.6 1677.87,11342.3L1681.27,11341.8L1683.77,11343.3C1690.46,11347.6 1698.61,11351.6 1706.63,11354.8ZM1741.22,11350C1743.31,11350.9 1745.35,11351.8 1747.06,11352.4C1748.82,11353.1 1752.21,11354.2 1755.86,11355.3L1755.78,11355.6C1755.73,11355.7 1755.68,11355.9 1755.63,11356C1750.89,11354.3 1745.75,11352.4 1741.65,11350.9C1741.51,11350.6 1741.37,11350.3 1741.22,11350ZM1583.92,11353.7C1586.91,11349.3 1591.12,11344.3 1596.82,11338.2C1598.95,11335.9 1599.85,11335 1602.45,11332.8C1612.01,11324.8 1622.64,11317.6 1631.74,11313.1C1633.62,11312.1 1633.73,11312.1 1632.4,11313.1C1626.52,11317.2 1616.44,11325.1 1610.59,11330.2C1607.41,11333 1596.97,11342.8 1593.79,11346C1592.3,11347.5 1590.48,11349.4 1589.76,11350.2C1587.82,11352.4 1586.25,11354.2 1585.2,11355.5C1584.81,11354.8 1584.39,11354.2 1583.92,11353.7ZM1880.92,11352.1C1881.86,11353 1882.86,11353.8 1883.92,11354.6C1871.12,11350.1 1850.6,11342.5 1842.3,11339.1C1836.31,11336.7 1835.97,11336.6 1836.4,11336.6C1836.57,11336.6 1838.53,11336.8 1840.75,11337C1842.98,11337.2 1846.8,11337.5 1849.23,11337.8L1853.65,11338.2L1859.18,11341.6C1862.77,11343.8 1865.75,11345.4 1867.66,11346.3C1870.77,11347.8 1878.88,11351.4 1880.59,11352C1880.67,11352 1880.78,11352.1 1880.92,11352.1ZM1919.88,11350.7C1919.11,11349.7 1918.34,11348.8 1917.62,11348C1919.03,11348.3 1920.46,11348.6 1921.56,11348.7C1928.87,11349.4 1939.25,11348.6 1946.16,11347.8C1943.95,11349.8 1941.72,11351.5 1939.49,11353.1C1934.19,11352.8 1928.04,11352.3 1924.53,11351.8C1922.87,11351.6 1921.31,11351.2 1919.88,11350.7ZM2026.05,11317.1C2025.45,11317.2 2024.86,11317.2 2024.27,11317.2C2018.27,11317.7 2012.57,11318.8 2007.66,11320.3C2001.14,11322.8 1997.12,11325.5 1995.6,11329.2C1997.61,11326.5 2001.24,11324.4 2006.48,11322.4C2017.71,11318.8 2033.08,11317.9 2046.67,11320.6C2064.39,11324.2 2082.71,11333.1 2097.49,11345.3C2099.26,11346.8 2106.38,11352.7 2106.38,11352.7C2106.38,11352.7 2106.2,11351.1 2105.92,11349.5C2105.52,11349.2 2100.44,11344.8 2098.66,11343.3C2083.89,11331.1 2065.57,11322.1 2047.84,11318.5C2040.78,11317.1 2033.24,11316.7 2026.05,11317.1ZM1578.29,11350.8C1581.1,11347.3 1584.52,11343.4 1588.48,11339.3C1591.24,11336.5 1594.25,11333.9 1599.74,11329.7C1607.66,11323.6 1614.85,11319 1622.37,11315.2C1624.58,11314 1624.65,11314 1623.52,11314.8C1616.61,11319.7 1608.37,11326.2 1601.61,11332C1598.3,11334.9 1588.43,11344.1 1584.97,11347.6C1583.34,11349.3 1582.38,11350.3 1581.15,11351.6C1580.31,11351.2 1579.36,11351 1578.29,11350.8ZM1730.66,11336.8C1731.27,11336.9 1732.19,11337.5 1736.38,11340C1741.72,11343.3 1744.69,11344.9 1750.64,11347.6C1753.54,11348.9 1755.62,11349.9 1757.69,11350.7L1757.47,11351.1L1757.29,11351.5C1750.36,11349 1743.37,11346.3 1737.44,11344C1735.54,11341.5 1733.27,11339.1 1730.66,11336.8ZM1573.44,11346.7C1576.37,11343.4 1579.35,11340.4 1581.91,11338.2C1587.29,11333.5 1596.5,11326.8 1602.75,11323C1606.29,11320.8 1612.23,11317.5 1613.36,11317.1C1613.56,11317 1612.28,11318 1610.51,11319.3C1605.23,11323.2 1601.57,11326 1598.45,11328.5C1592,11333.8 1589.69,11335.8 1582.51,11342.5C1579.6,11345.3 1577.17,11347.6 1575.14,11349.6C1574.49,11348.7 1574.12,11348 1573.44,11346.7ZM1692.86,11340.2C1695.86,11342.7 1698.61,11345.3 1701.08,11347.9C1693.36,11345 1685.81,11342 1684.59,11341.4C1684.43,11341.3 1686.92,11341 1692.86,11340.2ZM1951.39,11342.7C1950.03,11344.2 1948.65,11345.6 1947.27,11346.8C1941.37,11346.7 1932.74,11346.4 1928.18,11345.9C1927.59,11345.8 1926.88,11345.8 1926.12,11345.7C1927.33,11345 1928.64,11344.1 1930.06,11342.9C1932.83,11342.6 1935.52,11342.3 1937.52,11342.2C1941.13,11342 1946.51,11342.3 1951.39,11342.7ZM1760.98,11345C1760.59,11345.6 1760.21,11346.2 1759.85,11346.7C1752.97,11344.2 1746.73,11341.7 1742.37,11340C1738.18,11338.3 1734.55,11336.8 1734.31,11336.7C1733.92,11336.5 1734.27,11336.5 1737.3,11336.3C1739.18,11336.2 1741.68,11336.1 1742.85,11336L1744.97,11335.9L1749.83,11338.9C1754.41,11341.7 1757.26,11343.3 1760.98,11345ZM1873.26,11341.4C1873.78,11342.7 1874.4,11343.9 1875.12,11345.1C1871.16,11343.6 1867.9,11342.4 1865.81,11341.5C1858.8,11338.7 1859.49,11339 1859.97,11339C1860.8,11339.1 1864.22,11339.6 1868.09,11340.1L1872.09,11340.7L1873.26,11341.4ZM1579.05,11334.6C1583.68,11331 1588.91,11327.3 1593.41,11324.5C1596.94,11322.3 1603.91,11318.5 1604.54,11318.4C1604.65,11318.4 1603.29,11319.4 1601.52,11320.7C1597.78,11323.5 1590.54,11329.1 1587.49,11331.6C1584.23,11334.2 1579.82,11338.2 1575.49,11342.2C1576.85,11339.6 1578.04,11337.1 1579.05,11334.6ZM1766.45,11338.6C1765.39,11339.6 1764.4,11340.7 1763.47,11341.8C1755.08,11338.6 1748.36,11335.9 1748.44,11335.8C1748.47,11335.7 1751.3,11335.6 1754.74,11335.5L1761,11335.2L1765.31,11337.9C1765.71,11338.1 1766.09,11338.4 1766.45,11338.6ZM1911.07,11341.7C1909.78,11340.6 1908.44,11339.5 1907.05,11338.4C1908.92,11338.2 1910.87,11338.1 1913.29,11337.9C1914.28,11337.8 1915.31,11337.8 1916.23,11337.7C1915.98,11338.9 1915.8,11340 1915.7,11341.1C1914.09,11341.3 1912.54,11341.5 1911.07,11341.7ZM1947.42,11337C1944.58,11337 1940.48,11337 1936.24,11337C1935.44,11337.9 1934.67,11338.7 1933.93,11339.4C1934.84,11339.4 1935.74,11339.4 1936.62,11339.4C1941.55,11339.5 1946.83,11340.3 1951.62,11341.2C1950.35,11339.8 1948.95,11338.4 1947.42,11337ZM2209.53,11324.4C2211.82,11321.4 2215.36,11319.8 2222.82,11319.9C2234.79,11320.1 2245.39,11323.6 2262.61,11336.1L2268.53,11340.5L2267.92,11337C2267.92,11337 2263.55,11333.9 2263.43,11333.8C2246.3,11321.7 2235.9,11317.5 2223.58,11317.5C2214.61,11317.5 2211.36,11319.6 2209.53,11324.4ZM2170.52,11324.4C2168.23,11321.4 2164.69,11319.8 2157.23,11319.9C2145.26,11320.1 2134.66,11323.6 2117.44,11336.1L2111.52,11340.5L2112.14,11337C2112.14,11337 2116.51,11333.9 2116.63,11333.8C2133.76,11321.7 2144.16,11317.5 2156.47,11317.5C2165.45,11317.5 2168.69,11319.6 2170.52,11324.4ZM1770.4,11335C1769.7,11335.6 1769.03,11336.1 1768.37,11336.7C1766.13,11335.8 1764.62,11335.2 1764.61,11335.2C1764.59,11335.1 1766.18,11335.1 1770.4,11335ZM1904.41,11336.4C1903.76,11335.9 1903.09,11335.4 1902.41,11335C1905.09,11334.6 1907.87,11334.2 1909.69,11334C1911.28,11333.9 1914.22,11333.5 1916.23,11333.2C1916.64,11333.2 1917.06,11333.1 1917.5,11333.1C1917.32,11333.6 1917.16,11334.2 1917.01,11334.7C1916.36,11334.7 1915.77,11334.8 1915.24,11334.8C1911.38,11335.2 1907.93,11335.7 1904.41,11336.4ZM1871.5,11334.7C1871.54,11335.1 1871.6,11335.5 1871.66,11335.9C1870.85,11335.8 1870,11335.6 1869.98,11335.6C1869.97,11335.5 1870.57,11335.2 1871.5,11334.7ZM1941.14,11332L1940.49,11332.1C1939.64,11333.1 1938.82,11334.1 1938.03,11335C1940.86,11335.2 1943.57,11335.4 1945.93,11335.7C1944.44,11334.4 1942.85,11333.2 1941.14,11332ZM1871.5,11329.7C1871.38,11330.8 1871.34,11331.9 1871.37,11333C1870.85,11333.3 1870.31,11333.7 1869.78,11334.1L1867.95,11335.4L1865.16,11335C1863.62,11334.8 1862.41,11334.6 1862.47,11334.5C1862.6,11334.3 1866.35,11332.3 1868.96,11330.9C1869.75,11330.5 1870.6,11330.1 1871.5,11329.7ZM1872.81,11324.2C1872.66,11324.6 1872.52,11325 1872.39,11325.4C1872.24,11325.9 1872.11,11326.4 1871.99,11326.9C1868.33,11328.9 1865.01,11331 1862.04,11333.1C1860.64,11334.1 1860.38,11334.3 1860.02,11334.3C1859.8,11334.3 1858.29,11334.1 1856.66,11333.9C1854.65,11333.7 1853.77,11333.5 1853.91,11333.4C1854.15,11333.2 1857.8,11331.2 1859.86,11330.1C1863.98,11328 1867.35,11326.4 1872.81,11324.2ZM1892.12,11313.4C1883.5,11315.6 1876.65,11318 1867.42,11321.7C1861.3,11324.2 1857.93,11325.7 1853.06,11328.3C1850.98,11329.4 1845.33,11332.6 1845.23,11332.7C1845.2,11332.7 1846.7,11332.9 1848.55,11333.1L1851.92,11333.4C1851.92,11333.4 1859.06,11328.3 1861.4,11327C1864.39,11325.2 1867.97,11323.4 1871.37,11321.8C1873.84,11320.6 1874.48,11320.4 1877.29,11319.5C1884.15,11317.2 1890.91,11315.2 1896.67,11314.3C1895.17,11314 1893.65,11313.7 1892.12,11313.4ZM1899.47,11333C1898.85,11332.6 1898.17,11332.2 1897.45,11331.8C1901.4,11331 1908.88,11329.7 1911.17,11329.4C1912.87,11329.1 1915.78,11328.9 1919.1,11328.6C1918.9,11329.1 1918.7,11329.7 1918.51,11330.2C1915.98,11330.3 1913.77,11330.4 1912.23,11330.6C1908.09,11331.2 1903.75,11332 1899.47,11333ZM1581.09,11328.5C1583.45,11326.9 1585.77,11325.4 1587.99,11324.1C1590.94,11322.3 1597.17,11319 1597.42,11319C1597.46,11319 1595.51,11320.5 1593.07,11322.3C1587.9,11326.2 1583.59,11329.5 1579.79,11332.6C1580.27,11331.3 1580.71,11329.9 1581.09,11328.5ZM1881.31,11308.6C1874.81,11310.4 1869.33,11312.2 1864.81,11314.1C1861.95,11315.3 1858.02,11317 1857.4,11317.4C1857.26,11317.5 1855.65,11318.3 1853.82,11319.2C1848.09,11321.9 1843.92,11324.3 1839.24,11327.5C1836.86,11329.1 1833.52,11331.5 1833.34,11331.7C1833.25,11331.8 1834.59,11331.9 1837.02,11332.1C1837.26,11332.1 1838.93,11332.2 1840.73,11332.4L1844.01,11332.6C1844.01,11332.6 1856.23,11323.9 1863.17,11320.6C1869.45,11317.5 1879.5,11314.3 1888.01,11312.7C1886.61,11312.5 1885.19,11312.3 1883.78,11312.1C1877.33,11313.9 1871.23,11315.9 1867.67,11317.3C1866.55,11317.8 1863.79,11318.9 1861.55,11319.8C1853.95,11322.8 1849.07,11325.2 1841,11329.9C1839,11331 1837.33,11331.9 1837.28,11331.9C1837.24,11331.9 1840.63,11328.8 1842.21,11327.6C1849.96,11322 1859.64,11317 1867.63,11314.6C1871.37,11313.4 1875.55,11312.2 1879.41,11311.3C1880.02,11310.4 1880.65,11309.5 1881.31,11308.6ZM1894.46,11330.1C1894,11329.9 1893.53,11329.6 1893.05,11329.4C1893.95,11329.1 1894.93,11328.9 1896.15,11328.6C1897.42,11328.2 1899.51,11327.6 1900.78,11327.3C1906.04,11325.8 1913.76,11324.2 1921.4,11323C1920.88,11324.2 1920.38,11325.4 1919.91,11326.6C1915.04,11326.7 1910.27,11326.9 1907.16,11327.3C1903.06,11327.8 1899.09,11328.7 1894.46,11330.1ZM1912.82,11318.5C1906.77,11320 1902.21,11321.3 1897.21,11323.2C1893.88,11324.4 1890.76,11325.6 1887.92,11326.8L1888.3,11327C1888.6,11327.1 1888.89,11327.3 1889.19,11327.4L1890.02,11327.8C1894.05,11326.3 1898,11325.1 1901.28,11324.4C1907.39,11323.1 1915.24,11322 1921.55,11321.6C1918.74,11320.5 1915.83,11319.4 1912.82,11318.5ZM1907.73,11316.9C1899.96,11318.8 1895.35,11320.1 1889.6,11322.2C1887.44,11323 1885.33,11323.8 1883.28,11324.6C1883.74,11324.8 1884.22,11325 1884.69,11325.3C1885.36,11324.9 1886.03,11324.6 1886.73,11324.3C1889.41,11323.1 1889.8,11322.9 1893.26,11321.8C1899.63,11319.7 1904.73,11318.4 1910.02,11317.6C1909.26,11317.4 1908.5,11317.2 1907.73,11316.9ZM1899.93,11315C1891.87,11317 1885.23,11319.3 1877.57,11322.3C1878.22,11322.5 1878.92,11322.8 1879.65,11323.1C1886.47,11320.2 1896.06,11317.5 1903.78,11316.5C1904.23,11316.4 1904.8,11316.4 1905.43,11316.3C1903.62,11315.8 1901.78,11315.4 1899.93,11315ZM2107.8,11270.3C2137.27,11269.6 2157.7,11240.8 2157.7,11240.8L2166.24,11267.7L2212.21,11267.7C2212.21,11267.7 2210.95,11267.1 2209.58,11265.1C2193.94,11241.4 2155.74,11131.1 2151.8,11125.2C2145.89,11114 2136.69,11106.8 2124.22,11103.5C2119.62,11102.2 2117.65,11102.2 2110.43,11102.2C2099.92,11102.9 2080.42,11113.3 2080.42,11113.3C2080.42,11113.3 2099.16,11112.5 2106.49,11117.3C2126.09,11130.3 2155.95,11237.2 2155.95,11237.2C2155.95,11237.2 2139.85,11246.7 2128.16,11247.3C2115.02,11248 2085.11,11242 2084.16,11202.7C2083.01,11154.8 2112.4,11132.4 2112.4,11132.4C2112.4,11132.4 2065.29,11148.9 2053.3,11188.2C2048.25,11204.8 2048.44,11224.9 2054.61,11240.1C2065.22,11266.2 2098.61,11270.5 2107.8,11270.3ZM1718.4,11192.2L1716.8,11192.2C1714.09,11204 1691.21,11238.7 1658.65,11240.1C1625.13,11241.6 1597.4,11217.6 1591.01,11192.8C1587.28,11178.4 1588.98,11164.6 1588.98,11164.6L1703.3,11164.6L1703.3,11158.7C1701.33,11135.7 1683.49,11116.8 1667.84,11108.1C1652.19,11099.5 1625.57,11100.8 1609.4,11106.8C1589.72,11114.1 1562.78,11138.3 1556.21,11166.6C1547.02,11205.3 1564.75,11244.7 1600.21,11261.8C1608.09,11265.7 1614,11267.7 1627.13,11269.7C1627.79,11270.3 1633.69,11270.3 1639.61,11270.3C1648.14,11269.7 1651.42,11269.7 1656.02,11268.3C1691.48,11259.8 1716.43,11228.9 1718.4,11192.2ZM1409.78,11267.7C1513.01,11267.8 1534.24,11248.5 1545.05,11196.8C1547.02,11175.8 1539.98,11155.9 1525.35,11141.6C1512.57,11129.2 1483.98,11119.3 1483.98,11119.3C1483.98,11119.3 1524.08,11096.1 1518.12,11070.7C1515.23,11058.3 1503.02,11047 1483.98,11043.1C1469.53,11039.8 1465.59,11039.8 1411.09,11039.2L1359.87,11039.2C1359.87,11039.8 1372.42,11065.5 1373.66,11086.4C1375.78,11122.3 1375.77,11190.8 1373.66,11221.1C1372.22,11241.7 1359.87,11267.7 1359.87,11267.7C1359.87,11267.7 1393.14,11267.7 1409.78,11267.7ZM1785.38,11267.7C1785.38,11267.7 1771.19,11243.4 1770.94,11221.1C1770.86,11214.3 1768.31,11150.7 1774.9,11132.1C1777.58,11124.5 1790.88,11112.9 1800.49,11116C1832.51,11126.2 1847.11,11267.7 1847.11,11267.7L1898.98,11267.7L1896.36,11265.7C1891.1,11261.1 1885.19,11251.3 1881.25,11240.8C1877.97,11232.9 1876,11223.7 1868.78,11189.5C1861.55,11153.4 1859.58,11144.9 1856.3,11135.7C1850.39,11118 1842.51,11108.1 1830.69,11104.2C1824.78,11102.2 1811.65,11101.5 1805.74,11102.9C1793.26,11104.8 1782.1,11112.1 1773.56,11121.9L1770.28,11125.8L1770.28,11102.2L1721.03,11126.5C1721.03,11126.5 1735.5,11149.4 1735.48,11163.9C1735.45,11178.1 1734.16,11267.7 1734.16,11267.7L1785.38,11267.7ZM2271.96,11267.7C2271.96,11267.7 2260.46,11252.2 2258.17,11231.6C2257.52,11225.7 2256.86,11039.8 2256.86,11039.8C2256.86,11039.8 2208.27,11063.5 2207.61,11064.1C2207.61,11064.8 2222.23,11087.2 2222.06,11102.9C2221.68,11136.8 2220.74,11267.7 2220.74,11267.7L2271.96,11267.7ZM1465.9,11256.6C1454.97,11261.9 1430.2,11262.9 1421.49,11254.7C1397.07,11231.9 1415.5,11189.2 1480.04,11122.6C1480.5,11122.1 1519.03,11156.7 1509.01,11198.3C1504.03,11218.9 1485.67,11247 1465.9,11256.6ZM1382.85,11241.4C1382.85,11241.4 1399.01,11075.5 1416.34,11051.6C1421.26,11044.9 1428.16,11043.8 1439.33,11043.8C1466.9,11043.8 1480.04,11055.6 1479.38,11079.9C1478.73,11089.1 1476.76,11095.6 1472.16,11105.5C1466.25,11118 1457.06,11129.8 1441.95,11145.5C1416.34,11171.8 1400.41,11199.4 1386.14,11233.5C1384.4,11237.7 1382.85,11241.4 1382.85,11241.4ZM1589.7,11160.6C1589.7,11160.6 1594.36,11113.7 1641.96,11108.5C1657.23,11106.8 1674.98,11121 1669.15,11136.4C1659.88,11160.8 1589.7,11160.6 1589.7,11160.6Z"/>
                </g>
            </g>
        </g>
    </g>
</svg>
