<?xml version="1.0" encoding="UTF-8" standalone="no"?>
<!DOCTYPE svg PUBLIC "-//W3C//DTD SVG 1.1//EN" "http://www.w3.org/Graphics/SVG/1.1/DTD/svg11.dtd">
<svg width="100%" height="100%" viewBox="0 0 1080 1080" version="1.1" xmlns="http://www.w3.org/2000/svg" xmlns:xlink="http://www.w3.org/1999/xlink" xml:space="preserve" xmlns:serif="http://www.serif.com/" style="fill-rule:evenodd;clip-rule:evenodd;stroke-linejoin:round;stroke-miterlimit:2;">
    <g transform="matrix(1,0,0,1,-1275.92,-5328.03)">
        <g id="id_icon_30_09_2023" transform="matrix(1,0,0,1,1275.92,5328.03)">
            <rect x="0" y="0" width="1080" height="1080" style="fill:none;"/>
            <g transform="matrix(1.32106,0,0,1.32106,-2036.99,-7212.57)">
                <path d="M2077.43,5987.96L2091.05,5987.96L2091.05,5955.03L2081.4,5955.03L2081.4,5889.16L2067.77,5889.16L2067.77,5955.03L2036.37,5955.03L2036.37,5889.16L2022.74,5889.16L2022.74,5968.65L2077.43,5968.65L2077.43,5987.96ZM1714.88,5887.46C1702.95,5887.46 1693.07,5891.43 1685.24,5899.49C1677.4,5907.56 1673.43,5917.32 1673.43,5928.91C1673.43,5940.49 1677.4,5950.26 1685.24,5958.32C1693.07,5966.38 1702.95,5970.36 1714.88,5970.36C1727.59,5970.36 1738.95,5965.02 1746.67,5955.48L1737.36,5946.17C1731.12,5953.21 1723.62,5956.73 1714.88,5956.73C1706.81,5956.73 1700.11,5954 1694.89,5948.66C1689.67,5943.33 1687.05,5936.74 1687.05,5928.91C1687.05,5921.07 1689.67,5914.48 1694.89,5909.15C1700.11,5903.81 1706.81,5901.08 1714.88,5901.08C1723.62,5901.08 1731.12,5904.61 1737.36,5911.65L1746.67,5902.33C1738.95,5892.8 1727.59,5887.46 1714.88,5887.46ZM1831.24,5951.62L1878.26,5951.62L1886.89,5968.65L1902.1,5968.65L1862.36,5889.16L1847.03,5889.16L1807.39,5968.65L1822.73,5968.65L1831.24,5951.62ZM2010.23,5889.16L1996.6,5889.16L1996.6,5922.09L1926.18,5922.09L1926.18,5889.16L1912.55,5889.16L1912.55,5968.65L1926.18,5968.65L1926.18,5935.72L1996.6,5935.72L1996.6,5968.65L2010.23,5968.65L2010.23,5889.16ZM1774.15,5902.79L1774.15,5968.65L1787.78,5968.65L1787.78,5902.79L1803.68,5902.79L1803.68,5889.16L1758.26,5889.16L1758.26,5902.79L1774.15,5902.79ZM2213.55,5941.62L2213.55,5968.65L2227.18,5968.65L2227.18,5889.16L2211.28,5889.16C2203.79,5889.16 2197.43,5891.55 2192.32,5896.43C2187.21,5901.2 2184.59,5907.33 2184.59,5914.71C2184.59,5925.16 2190.39,5933.68 2199.36,5937.76L2175.28,5968.65L2192.54,5968.65L2213.55,5941.62ZM2164.84,5889.16L2151.21,5889.16L2118.24,5944.49L2118.24,5889.16L2104.62,5889.16L2104.62,5968.65L2118.24,5968.65L2151.21,5915.8L2151.21,5968.65L2164.84,5968.65L2164.84,5889.16ZM1871.44,5937.99L1838.06,5937.99L1854.75,5904.61L1871.44,5937.99ZM2211.28,5926.64C2203.9,5926.64 2198.22,5921.64 2198.22,5914.71C2198.22,5907.78 2203.9,5902.79 2211.28,5902.79L2213.55,5902.79L2213.55,5926.64L2211.28,5926.64ZM2023.22,5846.95C2022.79,5848.66 2022.39,5850.22 2022.03,5851.62C2021.37,5854.18 2020.95,5855.89 2020.77,5856.77C2020.07,5859.59 2018.95,5862.15 2017.4,5864.44C2015.86,5866.73 2013.99,5868.73 2011.79,5870.45C2009.59,5872.17 2007.14,5873.49 2004.46,5874.41C2001.77,5875.34 1998.93,5875.8 1995.93,5875.8L1995.86,5875.79L1675.04,5875.79L1675.04,5860L1983.64,5860L1983.64,5859.94L1995.93,5859.94C1998.13,5859.94 1999.96,5859.33 2001.41,5858.1C2002.87,5856.86 2003.99,5855.32 2004.79,5853.47C2005.05,5852.77 2005.31,5852.06 2005.58,5851.36C2005.84,5850.65 2006.06,5849.95 2006.24,5849.24C2006.5,5848.45 2006.68,5847.7 2006.77,5846.99L1982.32,5846.99L1966.46,5783.3L1957.35,5783.3L1957.35,5767.45L1979.73,5767.45L1983.64,5783.3L1995.75,5832.26L2009.73,5832.26L2021.83,5783.3L2014.04,5783.3L2014.04,5767.45L2025.47,5767.45L2042.57,5767.39L2039.01,5783.3C2035.93,5795.9 2033.11,5807.31 2030.55,5817.53C2029.5,5821.93 2028.42,5826.29 2027.32,5830.61C2027.17,5831.16 2027.03,5831.71 2026.9,5832.26L2048.05,5832.26L2051.22,5846.99C2051.31,5847.7 2051.49,5848.45 2051.75,5849.24C2051.93,5849.95 2052.15,5850.65 2052.41,5851.36C2052.68,5852.06 2052.94,5852.77 2053.2,5853.47C2054,5855.32 2055.12,5856.86 2056.57,5858.1C2058.03,5859.33 2059.86,5859.94 2062.06,5859.94L2227.4,5860L2227.4,5875.79L2062.13,5875.79L2062.06,5875.8C2061.84,5875.8 2061.62,5875.8 2061.4,5875.79L2060.76,5875.79L2060.76,5875.77C2058.24,5875.66 2055.83,5875.2 2053.53,5874.41C2050.85,5873.49 2048.4,5872.17 2046.2,5870.45C2044,5868.73 2042.13,5866.73 2040.59,5864.44C2039.04,5862.15 2037.92,5859.59 2037.22,5856.77C2037.04,5855.89 2036.62,5854.18 2035.96,5851.62C2035.6,5850.22 2035.2,5848.66 2034.77,5846.95L2023.22,5846.95ZM2118.95,5795.36L2117.9,5785.81C2115.61,5784.67 2113.03,5783.77 2110.17,5783.11C2107.3,5782.44 2104.2,5782.11 2100.85,5782.11C2096.89,5782.11 2093.21,5782.71 2089.82,5783.9C2086.43,5785.09 2083.47,5786.78 2080.96,5788.98C2078.45,5791.19 2076.49,5793.81 2075.08,5796.85C2073.67,5799.89 2072.97,5803.26 2072.97,5806.96C2072.97,5810.66 2073.67,5814.05 2075.08,5817.13C2076.49,5820.21 2078.43,5822.86 2080.9,5825.06C2083.37,5827.26 2086.32,5828.98 2089.75,5830.21C2093.19,5831.45 2096.89,5832.06 2100.85,5832.06C2106.58,5832.06 2111.51,5831.18 2115.65,5829.42C2119.79,5827.66 2123.1,5825.59 2125.56,5823.21L2137.06,5834.84C2132.92,5838.71 2127.76,5841.91 2121.6,5844.42C2115.43,5846.93 2108.51,5848.18 2100.85,5848.18C2095.04,5848.18 2089.44,5847.22 2084.07,5845.28C2078.7,5843.34 2073.94,5840.56 2069.8,5836.95C2065.66,5833.34 2062.35,5829 2059.89,5823.94C2057.42,5818.87 2056.19,5813.21 2056.19,5806.96C2056.19,5800.79 2057.42,5795.17 2059.89,5790.11C2062.35,5785.04 2065.66,5780.73 2069.8,5777.16C2073.94,5773.59 2078.7,5770.84 2084.07,5768.9C2089.44,5766.96 2095.04,5765.99 2100.85,5765.99C2107.46,5765.99 2113.51,5766.94 2119.02,5768.83C2124.53,5770.73 2129.35,5773.22 2133.49,5776.3L2133.49,5795.36L2118.95,5795.36ZM1786.65,5831.14L1797.09,5831.14L1797.09,5783.3L1786.65,5783.3L1786.65,5767.45L1840.57,5767.45C1843.74,5767.45 1846.73,5768.06 1849.55,5769.3C1852.37,5770.53 1854.86,5772.2 1857.02,5774.32C1859.18,5776.43 1860.87,5778.92 1862.11,5781.78C1863.34,5784.65 1863.96,5787.71 1863.96,5790.97C1863.96,5795.99 1862.5,5800.35 1859.6,5804.05C1862.24,5806.16 1864.35,5808.76 1865.94,5811.85C1867.52,5814.93 1868.32,5818.36 1868.32,5822.15C1868.32,5825.5 1867.66,5828.69 1866.34,5831.73C1865.01,5834.77 1863.23,5837.41 1860.98,5839.66C1858.74,5841.91 1856.09,5843.69 1853.06,5845.01C1850.02,5846.33 1846.82,5846.99 1843.47,5846.99L1786.65,5846.99L1786.65,5831.14ZM2192.95,5783.3L2192.9,5846.99L2177.12,5846.99L2177.1,5783.3L2157.94,5783.3L2156.62,5795.46L2142.08,5795.46L2142.08,5767.45L2227.97,5767.45L2227.97,5795.46L2213.43,5795.46L2212.11,5783.3L2192.95,5783.3ZM1778.56,5846.99L1755.6,5846.85L1748.04,5819.11L1700.07,5819.11L1691.91,5846.59L1675.35,5846.64L1704.47,5748.95L1743.81,5748.95L1768.12,5831.14L1778.56,5831.14L1778.56,5846.99ZM1934.88,5795.46L1933.56,5783.3L1900.53,5783.3L1900.56,5846.99L1884.63,5846.99L1884.67,5783.3L1874.23,5783.3L1874.23,5767.45L1949.42,5767.45L1949.42,5795.46L1934.88,5795.46ZM1843.47,5831.14C1845.94,5831.14 1848.06,5830.26 1849.82,5828.49C1851.58,5826.73 1852.46,5824.62 1852.46,5822.15C1852.46,5819.6 1851.58,5817.44 1849.82,5815.68C1848.06,5813.92 1845.94,5813.03 1843.47,5813.03L1812.95,5813.03L1812.95,5831.14L1843.47,5831.14ZM1704.83,5803.26L1743.28,5803.26L1731.91,5764.8L1716.32,5764.8L1704.83,5803.26ZM1812.95,5798.5L1841.1,5798.5C1843.03,5798.32 1844.69,5797.53 1846.05,5796.12C1847.42,5794.71 1848.1,5792.99 1848.1,5790.97C1848.1,5788.85 1847.35,5787.05 1845.85,5785.55C1844.36,5784.05 1842.59,5783.3 1840.57,5783.3L1812.95,5783.3L1812.95,5798.5Z" style="fill-rule:nonzero;"/>
            </g>
        </g>
    </g>
</svg>
