<?xml version="1.0" encoding="UTF-8" standalone="no"?>
<!DOCTYPE svg PUBLIC "-//W3C//DTD SVG 1.1//EN" "http://www.w3.org/Graphics/SVG/1.1/DTD/svg11.dtd">
<svg width="100%" height="100%" viewBox="0 0 1080 1080" version="1.1" xmlns="http://www.w3.org/2000/svg" xmlns:xlink="http://www.w3.org/1999/xlink" xml:space="preserve" xmlns:serif="http://www.serif.com/" style="fill-rule:evenodd;clip-rule:evenodd;stroke-linejoin:round;stroke-miterlimit:2;">
    <g transform="matrix(1,0,0,1,-2470.76,-4013.45)">
        <g id="id_icon_21_09_2020" transform="matrix(1,0,0,1,2470.76,4013.45)">
            <rect x="0" y="0" width="1080" height="1080" style="fill:none;"/>
            <g transform="matrix(0.621781,0,0,0.621781,-2226.43,-2290.32)">
                <path d="M4336.81,4671.45C4340.73,4666.41 4344.23,4659.18 4355.09,4643.3C4356.33,4641.49 4356.76,4639.25 4356.27,4637.11C4351.37,4615.86 4324.81,4500.59 4324.81,4500.59C4323.64,4495.2 4321.6,4491.41 4318.7,4489.21C4316.99,4487.9 4314.76,4486.86 4312,4486.07C4308.48,4484.94 4306.38,4481.33 4307.15,4477.71C4307.06,4477.69 4307.06,4477.69 4307.06,4477.69C4307.77,4474.34 4310.72,4471.95 4314.14,4471.95C4327.86,4471.95 4362.14,4471.95 4377.98,4471.95C4380,4471.95 4381.91,4472.86 4383.18,4474.43C4384.45,4476 4384.94,4478.06 4384.52,4480.03C4384.52,4480.04 4384.52,4480.05 4384.52,4480.05C4383.93,4482.82 4381.48,4484.8 4378.65,4484.8L4372.37,4484.8C4363.09,4484.8 4357.75,4488.11 4356.34,4494.71C4355.97,4496.45 4355.88,4498.18 4356.06,4499.92C4356.09,4500.23 4356.14,4500.54 4356.21,4500.85C4357.15,4504.99 4368.94,4556.38 4375.49,4584.93C4376.2,4588.04 4378.73,4590.4 4381.88,4590.91C4385.03,4591.42 4388.17,4589.97 4389.83,4587.24L4431.76,4518.19C4435.27,4512.57 4437.7,4506.58 4439.05,4500.22C4440.89,4491.57 4436.04,4486.56 4424.48,4485.19C4422.73,4484.88 4421.17,4483.87 4420.17,4482.39C4419.17,4480.91 4418.81,4479.09 4419.19,4477.34C4418.87,4477.27 4418.87,4477.27 4418.87,4477.26C4419.53,4474.17 4422.27,4471.95 4425.43,4471.95C4437.13,4471.95 4464.81,4471.95 4478.93,4471.95C4481.03,4471.95 4483.02,4472.9 4484.34,4474.53C4485.66,4476.17 4486.18,4478.31 4485.74,4480.36C4485.74,4480.37 4485.73,4480.38 4485.73,4480.39C4485.18,4482.96 4483.04,4484.88 4480.43,4485.16C4470.12,4486.37 4461.49,4492.35 4454.54,4503.01C4454.5,4503.06 4454.47,4503.11 4454.44,4503.16L4362.77,4651.11C4356.85,4660.59 4352.24,4668.07 4347.94,4674.34C4351.98,4675.76 4355.98,4677.65 4359.81,4680.07C4372.37,4688.03 4372.68,4704.74 4384.71,4716.6C4399.31,4731.01 4415.64,4722.98 4417.98,4721.7C4419.65,4720.87 4421.61,4719.39 4420.74,4717.41C4419.81,4715.3 4414.63,4717.45 4409.53,4713C4407.99,4711.65 4407.53,4709.84 4407.53,4708.19C4407.53,4706.07 4408.57,4704.1 4410.87,4702.54C4416.85,4698.5 4423.69,4700.34 4425.95,4702.26C4432.63,4707.92 4433.72,4717.77 4423.83,4723.9C4419.09,4726.84 4405.66,4733.98 4384.54,4726.93C4363.71,4719.97 4356.03,4703.15 4353.44,4697.38C4350.69,4691.24 4345.23,4683.09 4342.66,4683.09C4340.32,4683.09 4336.68,4690.27 4332.44,4694.07C4325.65,4700.16 4308.9,4704.08 4299.65,4695.48C4291.75,4688.14 4300.69,4678.51 4304.74,4675.9C4312,4671.22 4321.77,4668.73 4336.81,4671.45ZM5106.35,4471.7L5151.42,4471.7L5091.98,4635.02C5083.48,4658.53 5072.08,4685.64 5058.03,4696.2C5043.99,4706.76 5026.51,4711.5 5005.61,4710.41L5005.61,4671.22C5016.93,4671.43 5025.91,4669.04 5032.56,4664.03C5039.2,4659.02 5044.62,4640.9 5048.54,4629.79L4981.58,4471.7L5027.63,4471.7L5070.09,4581.45L5106.35,4471.7ZM4404.46,4676.6L4977.03,4676.6C4978.51,4676.6 4979.7,4675.41 4979.7,4673.93C4979.7,4672.46 4978.51,4671.26 4977.03,4671.26L4404.46,4671.26C4402.99,4671.26 4401.79,4672.46 4401.79,4673.93C4401.79,4675.41 4402.99,4676.6 4404.46,4676.6ZM3746.68,4676.6L4256.88,4676.6C4258.36,4676.6 4259.56,4675.41 4259.56,4673.93C4259.56,4672.46 4258.36,4671.26 4256.88,4671.26L3746.68,4671.26C3745.2,4671.26 3744.01,4672.46 3744.01,4673.93C3744.01,4675.41 3745.2,4676.6 3746.68,4676.6ZM4029.68,4499.42C4029.49,4500.32 4030.67,4504.05 4033.22,4510.6C4034.59,4513.99 4034.98,4517.04 4034.41,4519.75C4032,4531.05 4024.77,4536.7 4012.7,4536.7C4006.67,4536.7 4002.11,4534.95 3999.03,4531.44C3995.94,4527.94 3995.1,4522.91 3996.49,4516.36C3998.99,4504.61 4007.91,4494.28 4023.27,4485.35C4038.63,4476.43 4056.4,4471.96 4076.59,4471.96C4094.92,4471.96 4108.53,4475.86 4117.43,4483.66C4126.33,4491.45 4129.46,4501.56 4126.82,4513.99L4108.31,4601.09C4105.19,4615.78 4108.27,4623.12 4117.55,4623.12C4120.1,4623.12 4122.56,4622.73 4124.94,4621.94C4125.94,4621.6 4126.98,4621.18 4128.09,4620.66C4130.88,4619.41 4134.17,4620.56 4135.56,4623.29C4135.58,4623.28 4135.58,4623.29 4135.58,4623.29C4136.78,4625.63 4136.11,4628.5 4134,4630.07C4124.99,4636.73 4115.99,4640.07 4106.98,4640.07C4090.97,4640.07 4081.51,4630.58 4078.58,4611.6C4066.16,4621.99 4055.83,4629.11 4047.59,4632.95C4037.53,4637.69 4026,4640.07 4013.01,4640.07C3997,4640.07 3985.25,4636.68 3977.75,4629.9C3970.26,4623.12 3967.71,4614.08 3970.12,4602.79C3973.53,4586.74 3985.99,4573.13 4007.51,4561.95C4027.89,4551.36 4054.38,4544.06 4086.99,4540.05C4090.31,4539.64 4093,4537.18 4093.69,4533.9L4097.57,4515.68C4099.54,4506.42 4097.61,4498.85 4091.78,4492.98C4085.95,4487.1 4077.7,4484.16 4067.03,4484.16C4057.98,4484.16 4049.66,4485.92 4042.07,4489.42C4034.48,4492.92 4030.35,4496.25 4029.68,4499.42ZM4790.16,4471.7L4832.29,4471.7L4832.29,4639.93L4790.16,4639.93L4790.16,4617.02C4779.93,4632.29 4763.7,4639.93 4741.49,4639.93C4723.64,4639.93 4708.89,4633.93 4697.24,4621.93C4685.59,4609.93 4679.76,4593.35 4679.76,4572.18L4679.76,4471.7L4721.9,4471.7L4721.9,4566.95C4721.9,4577.86 4724.84,4586.2 4730.72,4591.98C4736.6,4597.77 4744.43,4600.66 4754.23,4600.66C4765.12,4600.66 4773.83,4597.28 4780.36,4590.51C4786.89,4583.75 4790.16,4573.6 4790.16,4560.07L4790.16,4471.7ZM4894.92,4521.41C4894.92,4525.66 4897.81,4529.11 4903.58,4531.76C4909.35,4534.42 4916.37,4536.76 4924.65,4538.77C4932.92,4540.79 4941.19,4543.34 4949.47,4546.42C4957.74,4549.5 4964.77,4554.65 4970.54,4561.87C4976.31,4569.09 4979.19,4578.12 4979.19,4588.95C4979.19,4605.31 4972.93,4617.89 4960.41,4626.71C4947.89,4635.52 4932.27,4639.93 4913.54,4639.93C4880.01,4639.93 4857.15,4627.29 4844.95,4602.02L4881.53,4581.94C4886.32,4595.75 4896.99,4602.65 4913.54,4602.65C4928.57,4602.65 4936.08,4598.09 4936.08,4588.95C4936.08,4584.7 4933.19,4581.25 4927.42,4578.6C4921.65,4575.94 4914.63,4573.55 4906.36,4571.43C4898.08,4569.31 4889.81,4566.65 4881.53,4563.47C4873.26,4560.28 4866.24,4555.23 4860.47,4548.33C4854.69,4541.43 4851.81,4532.77 4851.81,4522.36C4851.81,4506.65 4857.74,4494.27 4869.61,4485.25C4881.48,4476.22 4896.23,4471.7 4913.87,4471.7C4927.15,4471.7 4939.24,4474.63 4950.12,4480.47C4961.01,4486.31 4969.61,4494.65 4975.93,4505.48L4940,4524.59C4934.77,4513.76 4926.06,4508.35 4913.87,4508.35C4908.42,4508.35 4903.91,4509.51 4900.31,4511.85C4896.72,4514.19 4894.92,4517.37 4894.92,4521.41ZM4638.2,4521.37C4658.23,4532.91 4668.25,4550.33 4668.25,4573.63C4668.25,4593.01 4661.39,4608.9 4647.67,4621.31C4633.95,4633.73 4617.08,4639.93 4597.05,4639.93L4500.04,4639.93L4500.04,4411.3L4590.19,4411.3C4609.78,4411.3 4626.28,4417.34 4639.67,4429.42C4653.06,4441.51 4659.76,4456.91 4659.76,4475.64C4659.76,4494.59 4652.57,4509.83 4638.2,4521.37ZM4155,4580.69C4155.53,4577.39 4158.37,4574.97 4161.7,4574.97C4161.71,4574.97 4161.72,4574.97 4161.72,4574.97C4164.96,4574.97 4167.73,4577.28 4168.33,4580.46C4171.24,4596.15 4175.98,4607.74 4182.51,4615.23C4189.79,4623.56 4200.85,4627.73 4215.7,4627.73C4227.54,4627.73 4237.56,4625.05 4245.78,4619.68C4254,4614.31 4259.01,4607.4 4260.8,4598.95C4263.67,4585.49 4256.96,4577.27 4240.69,4574.29L4197.61,4564.65C4186.91,4561.89 4179.09,4556.65 4174.15,4548.93C4169.19,4541.16 4167.78,4532.26 4169.91,4522.21C4172.83,4508.5 4180.39,4496.68 4192.59,4486.74C4204.8,4476.81 4219.28,4471.7 4235.99,4471.7C4248.05,4471.7 4258.54,4474.85 4267.51,4480.98C4270.51,4483.1 4274.58,4482.83 4277.27,4480.32C4280.49,4477.44 4284.33,4473.86 4285.91,4472.39C4286.39,4471.95 4287.01,4471.7 4287.65,4471.7C4287.65,4471.7 4287.65,4471.7 4287.66,4471.7C4289.24,4471.7 4290.75,4472.39 4291.8,4473.59C4292.84,4474.78 4293.31,4476.37 4293.09,4477.94C4291.52,4489.35 4288.19,4513.42 4286.67,4524.4C4286.22,4527.66 4283.44,4530.09 4280.15,4530.09C4280.14,4530.09 4280.13,4530.09 4280.13,4530.09C4276.91,4530.08 4274.17,4527.74 4273.68,4524.55C4271.77,4511.78 4267.84,4502.09 4261.91,4495.48C4255.16,4487.94 4245.06,4484.18 4231.6,4484.18C4220.46,4484.18 4211.13,4486.86 4203.61,4492.23C4196.09,4497.6 4191.5,4504.16 4189.85,4511.93C4186.94,4525.63 4208.27,4536.6 4253.86,4544.82C4265.08,4546.65 4273.41,4551.67 4278.85,4559.89C4284.3,4568.12 4285.83,4577.82 4283.45,4589.02C4280.3,4603.86 4272.01,4616.08 4258.6,4625.68C4245.19,4635.27 4229.89,4639.93 4212.72,4639.93C4203.67,4639.93 4195.99,4638.87 4189.66,4636.47C4185.07,4634.73 4180.52,4632.13 4176,4628.66C4172.92,4626.31 4168.58,4626.57 4165.81,4629.29C4162.23,4632.74 4157.78,4637.09 4155.85,4638.98C4155.23,4639.59 4154.4,4639.93 4153.53,4639.93C4153.53,4639.93 4153.52,4639.93 4153.52,4639.93C4151.52,4639.93 4149.61,4639.05 4148.31,4637.53C4147.01,4636 4146.44,4633.98 4146.76,4632C4148.89,4618.72 4153.13,4592.31 4155,4580.69ZM3817.85,4525.48C3817.86,4525.48 3817.86,4525.48 3817.86,4525.48L3837.22,4434.39C3838.85,4426.75 3834.89,4422.93 3825.34,4422.93L3813.59,4422.93C3811.69,4422.93 3809.89,4422.07 3808.69,4420.6C3807.5,4419.12 3807.03,4417.18 3807.43,4415.32C3807.43,4415.32 3807.43,4415.32 3807.43,4415.31C3807.94,4412.89 3810.08,4411.16 3812.56,4411.16C3836.57,4411.16 3955.6,4411.16 3989.62,4411.16C3991.9,4411.16 3994.07,4412.15 3995.56,4413.88C3997.05,4415.61 3997.71,4417.9 3997.37,4420.16C3994.93,4436.53 3989.83,4470.68 3987.94,4483.39C3987.52,4486.2 3985.1,4488.28 3982.25,4488.28C3982.25,4488.28 3982.24,4488.28 3982.24,4488.28C3978.92,4488.28 3976.21,4485.6 3976.18,4482.28C3976.09,4462.44 3972.99,4447.82 3966.89,4438.42C3960.18,4428.09 3948.8,4422.93 3932.75,4422.93L3885.55,4422.93C3877.74,4422.93 3873.02,4426.75 3871.4,4434.39L3856.1,4506.38C3855.61,4508.7 3856.18,4511.11 3857.67,4512.94C3859.16,4514.78 3861.4,4515.85 3863.76,4515.85L3874.92,4515.85C3886.85,4515.85 3896.99,4512.03 3905.34,4504.39C3913.02,4497.36 3918.55,4487.1 3921.91,4473.61C3922.43,4471.5 3924.33,4470.03 3926.5,4470.03C3926.5,4470.01 3926.51,4470.01 3926.52,4470.01C3928.38,4470.01 3930.14,4470.85 3931.31,4472.3C3932.48,4473.74 3932.93,4475.64 3932.55,4477.46C3929.36,4492.46 3922.46,4524.93 3922.32,4525.6L3922.28,4525.62C3922.12,4526.34 3914.07,4564.23 3911.36,4576.96C3910.85,4579.36 3908.73,4581.08 3906.28,4581.08C3906.27,4581.08 3906.26,4581.08 3906.26,4581.08C3904.52,4581.08 3902.86,4580.33 3901.71,4579.03C3900.56,4577.72 3900.03,4575.98 3900.25,4574.26C3901.96,4562.35 3900.63,4553.16 3896.32,4546.7C3891.21,4539.06 3882.69,4535.24 3870.76,4535.24L3856.28,4535.24C3852.58,4535.24 3849.38,4537.83 3848.61,4541.45L3832.61,4616.7C3830.99,4624.34 3834.08,4628.16 3841.89,4628.16L3889.09,4628.16C3905.15,4628.16 3918.72,4623 3929.81,4612.68C3940.5,4602.73 3950.31,4586.93 3959.26,4565.28C3959.88,4563.79 3961.34,4562.81 3962.96,4562.81C3962.97,4562.81 3962.97,4562.81 3962.98,4562.81C3964.96,4562.81 3966.84,4563.73 3968.04,4565.32C3969.24,4566.9 3969.64,4568.95 3969.11,4570.86C3964.8,4586.49 3955.39,4620.59 3951.64,4634.18C3950.71,4637.58 3947.61,4639.93 3944.09,4639.93C3916.21,4639.93 3798.87,4639.93 3767.43,4639.93C3765.53,4639.93 3763.73,4639.07 3762.53,4637.6C3761.34,4636.12 3760.87,4634.18 3761.27,4632.32C3761.27,4632.32 3761.27,4632.32 3761.27,4632.31C3761.79,4629.89 3763.92,4628.16 3766.4,4628.16L3781.68,4628.16C3791.23,4628.16 3796.82,4624.34 3798.44,4616.7L3817.83,4525.49L3817.85,4525.48ZM4085.25,4573.64L4087.74,4561.92C4088.29,4559.38 4087.54,4556.74 4085.75,4554.87C4083.97,4552.99 4081.36,4552.12 4078.81,4552.54C4056.7,4556.12 4039.75,4561.06 4027.94,4567.37C4014.2,4574.71 4005.84,4585.39 4002.86,4599.4C4001.03,4607.98 4001.98,4614.7 4005.71,4619.56C4009.43,4624.42 4015.35,4626.85 4023.47,4626.85C4036.93,4626.85 4049.78,4621.82 4062.01,4611.77C4074.24,4601.71 4081.99,4589 4085.25,4573.64ZM4597.05,4597.8C4604.67,4597.8 4610.98,4595.24 4615.99,4590.12C4621,4585 4623.5,4578.53 4623.5,4570.69C4623.5,4563.07 4621,4556.7 4615.99,4551.58C4610.98,4546.46 4604.67,4543.9 4597.05,4543.9L4545.11,4543.9L4545.11,4597.8L4597.05,4597.8ZM4590.19,4453.43L4545.11,4453.43L4545.11,4503.73L4590.19,4503.73C4597.15,4503.73 4602.98,4501.34 4607.66,4496.55C4612.34,4491.75 4614.68,4485.77 4614.68,4478.58C4614.68,4471.4 4612.4,4465.41 4607.82,4460.62C4603.25,4455.83 4597.37,4453.43 4590.19,4453.43ZM3818.4,4379.92L5148.45,4379.93C5148.45,4379.93 5148.45,4444.88 5148.45,4444.88C5148.45,4444.88 4682.44,4444.88 4682.44,4444.88C4680.81,4444.88 4679.48,4446.2 4679.48,4447.84C4679.48,4449.48 4680.81,4450.81 4682.44,4450.81L5151.42,4450.81C5153.06,4450.81 5154.39,4449.48 5154.39,4447.84L5154.39,4376.96C5154.39,4375.32 5153.06,4373.99 5151.42,4373.99L3818.4,4373.98C3816.76,4373.98 3815.43,4375.32 3815.43,4376.95C3815.43,4378.59 3816.76,4379.92 3818.4,4379.92ZM5083.95,4435.41C5084.23,4434.69 5084.56,4433.88 5084.93,4432.95L5086.06,4430.12C5086.06,4430.12 5112.31,4430.12 5112.31,4430.12C5112.71,4431.16 5113.09,4432.11 5113.44,4432.99C5113.81,4433.91 5114.15,4434.75 5114.45,4435.49C5114.63,4435.91 5114.88,4436.25 5115.21,4436.52C5115.55,4436.8 5115.99,4436.95 5116.53,4436.95L5119.37,4436.95C5120.05,4436.95 5120.52,4436.76 5120.8,4436.44C5120.99,4436.22 5121.1,4435.92 5121.1,4435.54C5121.1,4435.41 5121.08,4435.24 5121.03,4435.02C5120.98,4434.83 5120.95,4434.71 5120.92,4434.65C5120.92,4434.64 5120.91,4434.62 5120.9,4434.61C5120.9,4434.61 5102.17,4389.35 5102.17,4389.35C5102.12,4389.24 5102.07,4389.11 5102,4388.95C5101.93,4388.77 5101.82,4388.6 5101.67,4388.44C5101.53,4388.29 5101.35,4388.15 5101.11,4388.04C5100.88,4387.92 5100.58,4387.86 5100.2,4387.86C5100.2,4387.86 5098.3,4387.86 5098.3,4387.86C5097.75,4387.86 5097.32,4388.04 5096.99,4388.39C5096.69,4388.72 5096.49,4389.01 5096.37,4389.27C5096.36,4389.28 5096.36,4389.28 5096.36,4389.28L5077.82,4433.85C5077.75,4433.99 5077.66,4434.2 5077.55,4434.51C5077.43,4434.82 5077.36,4435.19 5077.33,4435.59C5077.33,4435.59 5077.33,4435.6 5077.33,4435.61C5077.33,4435.97 5077.44,4436.25 5077.63,4436.47C5077.9,4436.77 5078.36,4436.95 5079.03,4436.95L5081.91,4436.95C5082.42,4436.95 5082.85,4436.8 5083.2,4436.52C5083.55,4436.25 5083.8,4435.88 5083.95,4435.41ZM5059.85,4433.84C5059.85,4434.27 5059.94,4434.67 5060.11,4435.05C5060.27,4435.42 5060.49,4435.75 5060.77,4436.03C5061.06,4436.31 5061.38,4436.53 5061.75,4436.7C5062.13,4436.86 5062.53,4436.95 5062.97,4436.95C5063.41,4436.95 5063.83,4436.86 5064.21,4436.7C5064.59,4436.53 5064.92,4436.31 5065.2,4436.03C5065.48,4435.74 5065.7,4435.42 5065.86,4435.04C5066.02,4434.67 5066.1,4434.27 5066.1,4433.84C5066.1,4433.41 5066.02,4433 5065.86,4432.62C5065.7,4432.24 5065.48,4431.9 5065.2,4431.62C5064.92,4431.34 5064.59,4431.12 5064.21,4430.95C5063.83,4430.79 5063.41,4430.7 5062.97,4430.7C5062.53,4430.7 5062.13,4430.79 5061.75,4430.95C5061.38,4431.12 5061.06,4431.34 5060.77,4431.62C5060.49,4431.9 5060.27,4432.23 5060.1,4432.61C5059.94,4433 5059.85,4433.4 5059.85,4433.84ZM5056.17,4401.02C5056.17,4399.16 5055.74,4397.44 5054.88,4395.84C5054.03,4394.25 5052.94,4392.86 5051.63,4391.67C5050.32,4390.49 5048.88,4389.56 5047.31,4388.88C5045.72,4388.2 5044.2,4387.86 5042.75,4387.86C5042.75,4387.86 5026.81,4387.86 5026.81,4387.86C5026.44,4387.86 5026.17,4387.97 5025.99,4388.15C5025.81,4388.33 5025.7,4388.6 5025.7,4388.97C5025.7,4388.97 5025.7,4435.57 5025.7,4435.57C5025.7,4436.03 5025.82,4436.36 5026.04,4436.59C5026.27,4436.82 5026.6,4436.95 5027.04,4436.95L5030.53,4436.95C5030.99,4436.95 5031.33,4436.82 5031.55,4436.59C5031.78,4436.36 5031.91,4436.03 5031.91,4435.57L5031.91,4426.71C5035.26,4426.55 5038.39,4425.8 5041.31,4424.46C5044.3,4423.08 5046.9,4421.24 5049.1,4418.93C5051.31,4416.61 5053.03,4413.93 5054.29,4410.87C5055.55,4407.8 5056.17,4404.52 5056.17,4401.02ZM5128.06,4433.84C5128.06,4434.27 5128.14,4434.67 5128.31,4435.05C5128.48,4435.42 5128.7,4435.75 5128.98,4436.03C5129.26,4436.31 5129.59,4436.53 5129.96,4436.7C5130.33,4436.86 5130.74,4436.95 5131.17,4436.95C5131.62,4436.95 5132.03,4436.86 5132.41,4436.7C5132.8,4436.53 5133.12,4436.31 5133.41,4436.03C5133.69,4435.74 5133.91,4435.42 5134.07,4435.04C5134.22,4434.67 5134.3,4434.27 5134.3,4433.84C5134.3,4433.41 5134.23,4433 5134.07,4432.62C5133.91,4432.24 5133.69,4431.9 5133.41,4431.62C5133.12,4431.34 5132.8,4431.12 5132.41,4430.95C5132.03,4430.79 5131.62,4430.7 5131.17,4430.7C5130.74,4430.7 5130.33,4430.79 5129.96,4430.95C5129.59,4431.12 5129.26,4431.34 5128.98,4431.62C5128.7,4431.9 5128.48,4432.23 5128.31,4432.61C5128.14,4433 5128.06,4433.4 5128.06,4433.84ZM4711.09,4400.76C4711.09,4402.72 4710.86,4404.55 4710.42,4406.26C4709.97,4407.97 4709.34,4409.58 4708.53,4411.08C4707.71,4412.58 4706.72,4413.99 4705.57,4415.29C4704.42,4416.6 4703.12,4417.83 4701.68,4418.98C4703.06,4421.81 4704.4,4424.59 4705.73,4427.33C4707.06,4430.06 4708.42,4432.85 4709.82,4435.7L4709.82,4436.03C4709.82,4436.44 4709.54,4436.65 4709,4436.65L4704.98,4436.65C4704.46,4436.65 4704.05,4436.32 4703.74,4435.67L4697.18,4421.92C4695.48,4422.79 4693.7,4423.48 4691.85,4423.98C4690,4424.48 4688.09,4424.76 4686.11,4424.83L4686.11,4435.57C4686.11,4436.29 4685.75,4436.65 4685.03,4436.65L4681.53,4436.65C4680.84,4436.65 4680.49,4436.29 4680.49,4435.57L4680.49,4389.04C4680.49,4388.47 4680.76,4388.19 4681.31,4388.19L4697.96,4388.19C4699.38,4388.19 4700.86,4388.5 4702.4,4389.13C4703.95,4389.77 4705.36,4390.64 4706.65,4391.76C4707.93,4392.88 4708.99,4394.21 4709.83,4395.75C4710.67,4397.28 4711.09,4398.95 4711.09,4400.76ZM4823.65,4435.57L4823.65,4389.23C4823.65,4388.93 4823.75,4388.67 4823.93,4388.47C4824.12,4388.26 4824.37,4388.15 4824.7,4388.15L4828.16,4388.15C4828.47,4388.15 4828.73,4388.25 4828.96,4388.45C4829.19,4388.65 4829.31,4388.91 4829.31,4389.23L4829.31,4435.57C4829.31,4436.29 4828.92,4436.65 4828.16,4436.65L4824.7,4436.65C4824,4436.65 4823.65,4436.29 4823.65,4435.57ZM4931.42,4400.76C4931.42,4402.72 4931.2,4404.55 4930.75,4406.26C4930.31,4407.97 4929.68,4409.58 4928.86,4411.08C4928.04,4412.58 4927.06,4413.99 4925.9,4415.29C4924.75,4416.6 4923.45,4417.83 4922.02,4418.98C4923.39,4421.81 4924.74,4424.59 4926.07,4427.33C4927.39,4430.06 4928.76,4432.85 4930.15,4435.7L4930.15,4436.03C4930.15,4436.44 4929.88,4436.65 4929.33,4436.65L4925.32,4436.65C4924.79,4436.65 4924.38,4436.32 4924.07,4435.67L4917.51,4421.92C4915.81,4422.79 4914.04,4423.48 4912.19,4423.98C4910.34,4424.48 4908.42,4424.76 4906.44,4424.83L4906.44,4435.57C4906.44,4436.29 4906.08,4436.65 4905.36,4436.65L4901.87,4436.65C4901.17,4436.65 4900.82,4436.29 4900.82,4435.57L4900.82,4389.04C4900.82,4388.47 4901.1,4388.19 4901.64,4388.19L4918.29,4388.19C4919.71,4388.19 4921.19,4388.5 4922.73,4389.13C4924.28,4389.77 4925.7,4390.64 4926.98,4391.76C4928.27,4392.88 4929.33,4394.21 4930.16,4395.75C4931,4397.28 4931.42,4398.95 4931.42,4400.76ZM4852.52,4388.15L4876.62,4388.15C4877.39,4388.15 4877.77,4388.56 4877.77,4389.36L4877.77,4392.63C4877.77,4392.95 4877.67,4393.23 4877.47,4393.46C4877.28,4393.69 4876.97,4393.8 4876.56,4393.8L4857.1,4393.8L4857.1,4403.57L4879.11,4403.57C4879.41,4403.57 4879.67,4403.66 4879.87,4403.83C4880.08,4404 4880.18,4404.29 4880.18,4404.68L4880.18,4408.07C4880.18,4408.38 4880.1,4408.64 4879.92,4408.86C4879.75,4409.08 4879.48,4409.19 4879.11,4409.19L4857.1,4409.19L4857.1,4431L4878.09,4431C4878.83,4431 4879.2,4431.39 4879.2,4432.18L4879.2,4435.57C4879.2,4436.29 4878.86,4436.65 4878.16,4436.65L4852.52,4436.65C4851.83,4436.65 4851.48,4436.32 4851.48,4435.67L4851.48,4389.3C4851.48,4388.54 4851.83,4388.15 4852.52,4388.15ZM4765.23,4389.1C4765.56,4389.93 4766,4391.05 4766.56,4392.47C4767.11,4393.88 4767.74,4395.47 4768.45,4397.23C4769.16,4399 4769.92,4400.89 4770.73,4402.9C4771.55,4404.91 4772.37,4406.95 4773.2,4409.01C4774.03,4411.06 4774.85,4413.08 4775.65,4415.05C4776.46,4417.02 4777.2,4418.85 4777.89,4420.53C4778.57,4422.22 4779.18,4423.71 4779.72,4425.01C4780.25,4426.3 4780.66,4427.29 4780.94,4427.96C4781.22,4427.29 4781.63,4426.3 4782.15,4425.01C4782.67,4423.71 4783.27,4422.22 4783.94,4420.53C4784.62,4418.85 4785.36,4417.02 4786.15,4415.05C4786.94,4413.08 4787.76,4411.06 4788.58,4409.01C4789.41,4406.95 4790.23,4404.91 4791.05,4402.9C4791.86,4400.89 4792.62,4399 4793.32,4397.23C4794.01,4395.47 4794.64,4393.88 4795.19,4392.47C4795.75,4391.05 4796.19,4389.93 4796.52,4389.1L4796.52,4389.13C4796.63,4388.83 4796.8,4388.59 4797.02,4388.42C4797.25,4388.24 4797.55,4388.15 4797.92,4388.15L4801.38,4388.15C4802.17,4388.15 4802.56,4388.4 4802.56,4388.91C4802.56,4388.99 4802.54,4389.12 4802.51,4389.28C4802.48,4389.44 4802.45,4389.57 4802.43,4389.66L4783.39,4435.73C4783.39,4435.76 4783.37,4435.81 4783.32,4435.9L4783.36,4435.8C4783.27,4435.98 4783.16,4436.16 4783.01,4436.36C4782.87,4436.55 4782.55,4436.65 4782.05,4436.65L4779.86,4436.65C4779.36,4436.65 4779.04,4436.56 4778.9,4436.37C4778.76,4436.19 4778.64,4436.01 4778.56,4435.83L4778.43,4435.61L4778.49,4435.67L4759.32,4389.66C4759.3,4389.61 4759.29,4389.55 4759.29,4389.46C4759.25,4389.31 4759.22,4389.12 4759.22,4388.91C4759.22,4388.4 4759.61,4388.15 4760.37,4388.15L4763.89,4388.15C4764.22,4388.15 4764.5,4388.24 4764.73,4388.42C4764.95,4388.59 4765.12,4388.82 4765.23,4389.1ZM4732.71,4435.57L4732.71,4389.23C4732.71,4388.93 4732.8,4388.67 4732.98,4388.47C4733.17,4388.26 4733.43,4388.15 4733.75,4388.15L4737.21,4388.15C4737.52,4388.15 4737.78,4388.25 4738.01,4388.45C4738.24,4388.65 4738.36,4388.91 4738.36,4389.23L4738.36,4435.57C4738.36,4436.29 4737.98,4436.65 4737.21,4436.65L4733.75,4436.65C4733.06,4436.65 4732.71,4436.29 4732.71,4435.57ZM4954.57,4435.31C4954.44,4435.72 4954.23,4436.05 4953.92,4436.29C4953.62,4436.53 4953.25,4436.65 4952.81,4436.65L4949.94,4436.65C4949,4436.65 4948.53,4436.3 4948.53,4435.61C4948.56,4435.23 4948.62,4434.9 4948.73,4434.61C4948.84,4434.32 4948.93,4434.1 4948.99,4433.97L4967.54,4389.4C4967.65,4389.16 4967.84,4388.89 4968.11,4388.6C4968.38,4388.3 4968.75,4388.15 4969.2,4388.15L4971.1,4388.15C4971.43,4388.15 4971.69,4388.2 4971.88,4388.3C4972.08,4388.4 4972.24,4388.51 4972.36,4388.65C4972.48,4388.78 4972.57,4388.92 4972.63,4389.07C4972.7,4389.22 4972.75,4389.35 4972.8,4389.46L4991.54,4434.76C4991.56,4434.78 4991.6,4434.89 4991.64,4435.08C4991.68,4435.28 4991.71,4435.43 4991.71,4435.54C4991.71,4436.28 4991.23,4436.65 4990.27,4436.65L4987.43,4436.65C4986.97,4436.65 4986.6,4436.53 4986.3,4436.29C4986.01,4436.05 4985.78,4435.75 4985.63,4435.38C4985.33,4434.64 4984.99,4433.8 4984.62,4432.88C4984.25,4431.95 4983.85,4430.94 4983.41,4429.82L4956.76,4429.82C4956.33,4430.91 4955.93,4431.92 4955.56,4432.85C4955.19,4433.77 4954.86,4434.59 4954.57,4435.31ZM5083.95,4435.41L5083.95,4435.4L5083.95,4435.41ZM4970.15,4397.14C4969.63,4398.4 4968.94,4400.06 4968.1,4402.13C4967.25,4404.2 4966.32,4406.46 4965.3,4408.91C4964.29,4411.36 4963.24,4413.9 4962.17,4416.55C4961.09,4419.19 4960.05,4421.75 4959.05,4424.21L4981.12,4424.21C4980.15,4421.75 4979.12,4419.19 4978.04,4416.55C4976.96,4413.9 4975.93,4411.36 4974.94,4408.91C4973.95,4406.46 4973.03,4404.2 4972.19,4402.13C4971.36,4400.06 4970.68,4398.4 4970.15,4397.14ZM5099.25,4397.91C5099.73,4399.08 5100.32,4400.52 5101.02,4402.24C5101.85,4404.31 5102.77,4406.57 5103.76,4409.02C5104.75,4411.47 5105.78,4414.02 5106.86,4416.66C5107.88,4419.16 5108.85,4421.58 5109.78,4423.91C5109.78,4423.91 5088.59,4423.91 5088.59,4423.91C5089.54,4421.58 5090.52,4419.16 5091.54,4416.66C5092.62,4414.02 5093.66,4411.47 5094.67,4409.02C5095.69,4406.57 5096.62,4404.31 5097.47,4402.24C5098.17,4400.52 5098.77,4399.08 5099.25,4397.91L5099.25,4397.91ZM5031.91,4419.77L5031.91,4393.94C5031.91,4393.94 5042.52,4393.94 5042.52,4393.94C5043.59,4393.94 5044.59,4394.13 5045.51,4394.5C5046.43,4394.88 5047.23,4395.4 5047.91,4396.06C5048.59,4396.72 5049.13,4397.49 5049.51,4398.38C5049.9,4399.27 5050.09,4400.23 5050.09,4401.25C5050.09,4403.87 5049.63,4406.32 5048.71,4408.6C5047.79,4410.88 5046.52,4412.86 5044.9,4414.55C5043.28,4416.23 5041.37,4417.56 5039.17,4418.53C5037,4419.49 5034.65,4419.98 5032.13,4419.99L5031.91,4419.77ZM4686.11,4418.3L4686.5,4418.69C4689.11,4418.69 4691.58,4418.26 4693.9,4417.41C4696.21,4416.57 4698.24,4415.36 4699.97,4413.81C4701.7,4412.25 4703.07,4410.38 4704.08,4408.21C4705.1,4406.03 4705.6,4403.62 4705.6,4400.99C4705.6,4399.92 4705.4,4398.94 4705,4398.05C4704.6,4397.16 4704.04,4396.38 4703.33,4395.73C4702.62,4395.08 4701.79,4394.57 4700.83,4394.21C4699.88,4393.85 4698.84,4393.67 4697.73,4393.67L4686.11,4393.67L4686.11,4418.3ZM4906.44,4418.3L4906.83,4418.69C4909.44,4418.69 4911.91,4418.26 4914.23,4417.41C4916.55,4416.57 4918.57,4415.36 4920.3,4413.81C4922.03,4412.25 4923.4,4410.38 4924.42,4408.21C4925.43,4406.03 4925.94,4403.62 4925.94,4400.99C4925.94,4399.92 4925.73,4398.94 4925.33,4398.05C4924.93,4397.16 4924.37,4396.38 4923.67,4395.73C4922.96,4395.08 4922.12,4394.57 4921.17,4394.21C4920.21,4393.85 4919.18,4393.67 4918.07,4393.67L4906.44,4393.67L4906.44,4418.3Z" style="fill-rule:nonzero;"/>
            </g>
        </g>
    </g>
</svg>
