<?xml version="1.0" encoding="UTF-8" standalone="no"?>
<!DOCTYPE svg PUBLIC "-//W3C//DTD SVG 1.1//EN" "http://www.w3.org/Graphics/SVG/1.1/DTD/svg11.dtd">
<svg width="100%" height="100%" viewBox="0 0 1080 1080" version="1.1" xmlns="http://www.w3.org/2000/svg" xmlns:xlink="http://www.w3.org/1999/xlink" xml:space="preserve" xmlns:serif="http://www.serif.com/" style="fill-rule:evenodd;clip-rule:evenodd;stroke-linejoin:round;stroke-miterlimit:2;">
    <g transform="matrix(1,0,0,1,-1275.92,-4013.45)">
        <g id="id_icon_02_04_2021" transform="matrix(1,0,0,1,1275.92,4013.45)">
            <rect x="0" y="0" width="1080" height="1080" style="fill:none;"/>
            <g transform="matrix(1,0,0,1,2489.6,-3776.52)">
                <path d="M-1620.38,4468.3C-1625.11,4462.08 -1647.36,4432.6 -1679.26,4386.68C-1694.18,4365.19 -1700.17,4348.24 -1700.6,4347.24L-1700.61,4347.21C-1700.61,4347.21 -1712.69,4357.66 -1703.93,4379.8C-1696.41,4398.78 -1652.75,4458.94 -1645.92,4468.3L-1861.16,4468.36L-1861.16,4467.8L-1861.25,4467.8L-1861.25,4431.07L-1861.28,4416.71L-1861.25,4416.71L-1861.25,4401.2L-1861.25,4401.2C-1859.92,4401.37 -1858.57,4401.46 -1857.21,4401.47C-1857.11,4401.47 -1857.02,4401.47 -1856.92,4401.47L-1856.65,4401.47C-1855.28,4401.46 -1853.93,4401.37 -1852.6,4401.2L-1852.6,4423.22L-1852.49,4459.69L-1663.89,4459.64C-1674.07,4444.82 -1696.33,4412.06 -1723.66,4369.66C-1746.22,4334.66 -1688.39,4297.34 -1690.19,4230.96C-1690.82,4208.04 -1711.87,4174.86 -1762.88,4172.19L-1763.49,4172.16L-1857.23,4172.18C-1865.25,4172.85 -1878.01,4176.54 -1888.39,4191.6C-1902.72,4212.36 -1901.97,4234.87 -1902.01,4247.69C-1902.07,4263.59 -1902.02,4288.94 -1902.02,4288.94L-1902.03,4288.94L-1902.02,4316.44L-1902.02,4316.44L-1902.02,4317.51L-1902.02,4320.76L-1902.1,4320.76C-1905.31,4402.52 -2003.43,4468.28 -2124.01,4468.57L-2124.72,4468.57C-2151.97,4468.58 -2178.09,4465.24 -2202.22,4459.13C-2288.81,4437.71 -2356.93,4382.19 -2356.94,4316.96C-2356.96,4262.19 -2308.41,4214.05 -2241.4,4187.24C-2207.48,4172.97 -2167.54,4164.73 -2124.79,4164.72L-2124.79,4164.77L-2118.91,4164.77L-2118.89,4275.22L-2000.88,4275.19C-2000.92,4267.18 -2000.95,4253.76 -2000.95,4235.14C-2000.96,4225.68 -1998.99,4216.42 -1995.27,4207.92C-1991.91,4200.21 -1987.11,4193.12 -1981.05,4187.06C-1968.31,4174.31 -1951.02,4164.68 -1932.99,4164.68L-1724.81,4164.48C-1723.76,4164.47 -1722.66,4164.47 -1721.52,4164.47L-1720.65,4164.47C-1684.93,4164.62 -1609.98,4171.51 -1596.47,4225.56C-1575.07,4311.13 -1660.06,4310.67 -1637.7,4347.19C-1611.81,4389.49 -1542.26,4468.28 -1542.26,4468.28L-1569.77,4468.28C-1573.27,4464.01 -1586.08,4448.3 -1611.49,4416.71C-1630.41,4393.18 -1680.53,4344.35 -1661.87,4328.29L-1661.76,4328.19C-1661.76,4328.19 -1682.28,4340.28 -1672.37,4363.06C-1663.47,4383.53 -1602.6,4457.82 -1593.98,4468.29L-1620.38,4468.3ZM-2128.11,4172.29C-2195.59,4174.35 -2249.8,4238.19 -2249.79,4316.53C-2249.77,4396.14 -2193.73,4460.77 -2124.72,4460.75C-2074.14,4460.74 -2030.55,4426.01 -2010.88,4376.12L-2079.99,4376.32L-2079.98,4376.34L-2082.1,4376.33L-2085.38,4376.34L-2085.39,4376.32L-2128.06,4376.15L-2128.11,4172.29ZM-2192.67,4449.47L-2192.1,4449.81C-2189.47,4451.39 -2186.84,4452.87 -2184.22,4454.24L-2183.66,4454.53C-2189.49,4453.35 -2195.91,4451.66 -2202.72,4449.47L-2192.67,4449.47ZM-2045.89,4449.61L-2046.47,4449.81C-2052.17,4451.75 -2057.58,4453.29 -2062.53,4454.39L-2063.02,4454.5C-2060.34,4453 -2057.64,4451.37 -2054.94,4449.61L-2045.89,4449.61ZM-2005.79,4431.2L-2006.34,4431.52C-2012.07,4434.78 -2017.8,4437.75 -2023.42,4440.41L-2042.32,4440.41C-2041.17,4439.48 -2040.03,4438.52 -2038.89,4437.54C-2036.57,4435.53 -2034.27,4433.42 -2032.01,4431.21L-2005.79,4431.2ZM-2217.2,4431.07L-2216.52,4431.68C-2213.14,4434.74 -2209.68,4437.6 -2206.17,4440.27L-2226.83,4440.27C-2233.08,4437.53 -2239.44,4434.46 -2245.8,4431.08L-2217.2,4431.07ZM-1739.42,4426.74L-1794.77,4426.74C-1797.23,4426.74 -1799.23,4428.74 -1799.23,4431.21C-1799.23,4432.59 -1798.6,4433.82 -1797.62,4434.64C-1796.85,4435.28 -1795.85,4435.67 -1794.77,4435.67L-1739.42,4435.67C-1736.95,4435.67 -1734.95,4433.67 -1734.95,4431.21C-1734.95,4428.74 -1736.95,4426.74 -1739.42,4426.74ZM-2123.57,4409.54C-2116.36,4409.54 -2110.51,4415.39 -2110.51,4422.59C-2110.51,4429.8 -2116.36,4435.65 -2123.56,4435.65C-2130.76,4435.65 -2136.61,4429.8 -2136.61,4422.6C-2136.62,4415.39 -2130.77,4409.54 -2123.57,4409.54ZM-1978.13,4412.79L-1978.92,4413.4C-1982.85,4416.4 -1986.87,4419.28 -1990.94,4422L-2023.37,4422C-2020.85,4419.08 -2018.4,4416.01 -2016.05,4412.8L-1978.13,4412.79ZM-2234.32,4412.67L-2233.85,4413.27C-2231.46,4416.27 -2228.99,4419.13 -2226.46,4421.87L-2261.79,4421.88C-2266.46,4418.98 -2271.07,4415.91 -2275.58,4412.68L-2234.32,4412.67ZM-1740.73,4273.92L-1785.51,4378.78C-1787.35,4383.11 -1786.9,4388.07 -1784.31,4392C-1781.72,4395.92 -1777.33,4398.28 -1772.63,4398.28L-1757.08,4398.28C-1754.65,4398.28 -1752.67,4400.25 -1752.67,4402.68C-1752.67,4405.11 -1754.64,4407.08 -1757.07,4407.08C-1757.07,4407.08 -1764.17,4407.08 -1772.62,4407.09C-1780.29,4407.09 -1787.44,4403.24 -1791.66,4396.85C-1795.88,4390.45 -1796.61,4382.37 -1793.6,4375.32L-1748.56,4269.84L-1748.56,4269.83L-1748.42,4269.45L-1748.39,4269.36L-1748.26,4268.98L-1748.14,4268.59L-1748.11,4268.5L-1747.99,4268.12L-1747.98,4268.08L-1747.87,4267.72L-1747.85,4267.63L-1747.74,4267.25L-1747.72,4267.19L-1747.62,4266.85L-1747.6,4266.76L-1747.5,4266.38L-1747.48,4266.3L-1747.39,4265.96L-1747.37,4265.88L-1747.28,4265.49L-1747.26,4265.41L-1747.18,4265.07L-1747.16,4264.99L-1747.08,4264.61L-1747.06,4264.51L-1746.98,4264.16L-1746.97,4264.1L-1746.89,4263.71L-1746.87,4263.61L-1746.8,4263.24L-1746.8,4263.2L-1746.72,4262.81L-1746.71,4262.71L-1746.64,4262.3L-1746.64,4262.3L-1746.58,4261.9L-1746.56,4261.8L-1746.5,4261.39L-1746.5,4261.36L-1746.44,4260.98L-1746.43,4260.88L-1746.38,4260.48L-1746.37,4260.42L-1746.33,4260.05L-1746.32,4259.96L-1746.28,4259.56L-1746.27,4259.48L-1746.24,4259.12L-1746.23,4259.03L-1746.2,4258.63L-1746.19,4258.54L-1746.17,4258.18L-1746.16,4258.1L-1746.14,4257.69L-1746.13,4257.6L-1746.11,4257.23L-1746.11,4257.17L-1746.09,4256.75L-1746.09,4256.65L-1746.08,4256.26L-1746.08,4256.23L-1746.07,4255.81L-1746.07,4255.7L-1746.06,4255.28C-1745.97,4229.76 -1769.7,4204.25 -1798.89,4204.05L-1799.23,4204.05C-1828.58,4204.05 -1852.42,4229.66 -1852.42,4255.28C-1852.42,4256.27 -1852.62,4326.94 -1852.62,4326.94C-1854.03,4326.76 -1855.48,4326.67 -1856.94,4326.67C-1858.31,4326.67 -1859.66,4326.75 -1861,4326.91L-1861.26,4326.94L-1861.28,4255.28C-1861.28,4222.05 -1833.48,4195.07 -1799.23,4195.07L-1798.83,4195.07C-1764.77,4195.28 -1737.18,4222.18 -1737.18,4255.28C-1737.18,4261.91 -1738.42,4268.16 -1740.67,4273.92L-1740.73,4273.92ZM-1957.3,4394.38L-1957.88,4394.98C-1960.82,4397.94 -1963.86,4400.82 -1966.99,4403.59L-2009.82,4403.6C-2007.97,4400.64 -2006.21,4397.57 -2004.53,4394.4L-1957.3,4394.38ZM-2246.76,4394.27L-2246.42,4394.87C-2244.7,4397.83 -2242.91,4400.69 -2241.03,4403.47L-2287.58,4403.48C-2291.18,4400.52 -2294.67,4397.46 -2298.02,4394.28L-2246.76,4394.27ZM-1861.26,4401.2C-1879.87,4399.08 -1894.33,4383.26 -1894.34,4364.08C-1894.34,4344.9 -1879.88,4329.08 -1861.28,4326.94L-1861.26,4401.2ZM-1852.6,4401.2L-1852.62,4326.94L-1852.18,4326.99C-1833.79,4329.31 -1819.54,4345.03 -1819.54,4364.06C-1819.54,4383.24 -1833.99,4399.07 -1852.6,4401.2ZM-1941.69,4375.98C-1943.96,4379.12 -1946.37,4382.19 -1948.9,4385.18L-2000.07,4385.19C-1998.75,4382.21 -1997.51,4379.14 -1996.36,4375.99L-1941.69,4375.98ZM-2255.7,4375.87L-2255.46,4376.46C-2254.26,4379.41 -2252.97,4382.28 -2251.62,4385.07L-2307.07,4385.09C-2309.79,4382.1 -2312.39,4379.03 -2314.83,4375.89L-2255.7,4375.87ZM-2201.89,4376.1C-2204.23,4376.1 -2206.12,4374.21 -2206.12,4371.88L-2206.15,4277.39C-2206.15,4275.06 -2204.25,4273.16 -2201.92,4273.16C-2201.44,4273.16 -2200.98,4273.24 -2200.55,4273.39C-2197.85,4260.26 -2186.22,4250.37 -2172.3,4250.36L-2171.93,4250.37C-2156.18,4250.56 -2143.45,4263.41 -2143.44,4279.2C-2143.44,4295 -2156.16,4307.85 -2171.91,4308.06L-2172.28,4308.06C-2183.26,4308.06 -2192.81,4301.92 -2197.69,4292.89L-2197.67,4371.87C-2197.67,4374.17 -2199.5,4376.04 -2201.79,4376.1L-2201.89,4376.1ZM-1930.56,4357.52L-1930.85,4358.11C-1932.3,4361.03 -1933.88,4363.91 -1935.58,4366.72L-2083.67,4366.76L-2087.21,4357.56L-1930.56,4357.52ZM-2261.8,4357.47L-2261.64,4358.06C-2260.86,4360.99 -2260,4363.86 -2259.07,4366.67L-2321.38,4366.69C-2323.33,4363.68 -2325.14,4360.62 -2326.78,4357.49L-2261.8,4357.47ZM-2118.88,4302.19L-2118.86,4366.44L-2093.84,4366.44L-2118.88,4302.19ZM-1923.56,4339.12C-1924.41,4342.21 -1925.4,4345.26 -1926.54,4348.26L-1926.57,4348.32L-2090.75,4348.36L-2094.29,4339.16L-1923.56,4339.12ZM-2265.49,4339.07L-2265.41,4339.66C-2264.99,4342.58 -2264.49,4345.45 -2263.93,4348.27L-2331.09,4348.29C-2332.32,4345.27 -2333.4,4342.2 -2334.32,4339.09L-2265.49,4339.07ZM-1726.96,4172.15L-1726.15,4172.21C-1657.51,4177.39 -1652.49,4231.9 -1665.6,4269.96C-1675.38,4298.36 -1715.71,4339.28 -1718.22,4341.81L-1718.34,4341.93C-1707.89,4319.87 -1696.98,4298.74 -1687.48,4274.72C-1672.51,4236.88 -1679.4,4187.1 -1726.96,4172.15ZM-1920.41,4320.71L-1920.45,4321.3C-1920.67,4324.2 -1921.03,4327.07 -1921.51,4329.91L-2097.83,4329.96L-2101.37,4320.76L-1920.41,4320.71ZM-2267.08,4320.67L-2267.06,4321.25C-2266.95,4324.17 -2266.77,4327.04 -2266.53,4329.87L-2336.52,4329.89C-2337.08,4326.86 -2337.47,4323.79 -2337.7,4320.69L-2267.08,4320.67ZM-1687.5,4172.14L-1686.69,4172.2C-1618.02,4177.38 -1608.04,4231.54 -1620.11,4269.95C-1624.14,4282.81 -1634.4,4294.27 -1644.43,4302.97C-1655.9,4312.91 -1667.07,4319.25 -1668.3,4319.94L-1668.41,4320C-1660.42,4310.75 -1650.66,4298.96 -1643.73,4282.57C-1642.06,4278.64 -1640.56,4274.44 -1639.29,4269.96C-1628.16,4230.81 -1639.94,4187.09 -1687.5,4172.14ZM-1920.2,4302.31L-1920.19,4311.51L-2104.91,4311.56L-2108.45,4302.36L-1920.2,4302.31ZM-2266.74,4302.27L-2266.78,4302.83C-2266.98,4305.66 -2267.1,4308.54 -2267.15,4311.47L-2337.88,4311.48C-2337.76,4308.39 -2337.48,4305.32 -2337.03,4302.28L-2266.74,4302.27ZM-1834.61,4284.93C-1834.61,4284.93 -1829.49,4307.2 -1807.45,4307.37C-1783.39,4307.56 -1778.92,4284.8 -1778.92,4284.8C-1778.44,4282.42 -1779.99,4280.1 -1782.37,4279.62C-1784.76,4279.15 -1787.08,4280.69 -1787.55,4283.07C-1787.55,4283.07 -1790.74,4298.7 -1807.38,4298.57C-1822.58,4298.45 -1826.03,4282.97 -1826.03,4282.97C-1826.57,4280.61 -1828.93,4279.12 -1831.3,4279.66C-1833.67,4280.19 -1835.15,4282.56 -1834.61,4284.93ZM-2172.51,4258.82L-2172.25,4258.82C-2161.23,4258.95 -2152.32,4267.94 -2152.32,4279C-2152.32,4290.05 -2161.22,4299.04 -2172.24,4299.18L-2172.5,4299.18C-2183.64,4299.19 -2192.68,4290.15 -2192.68,4279.01C-2192.69,4267.87 -2183.65,4258.82 -2172.51,4258.82ZM-1920.2,4283.91L-1920.2,4293.11L-2111.99,4293.16L-2115.53,4283.96L-1920.2,4283.91ZM-2264.27,4283.86C-2264.88,4286.87 -2265.39,4289.94 -2265.8,4293.07L-2335.13,4293.08C-2334.32,4289.97 -2333.33,4286.91 -2332.19,4283.88L-2264.27,4283.86ZM-2172.76,4266.46C-2165.64,4266.55 -2159.88,4272.36 -2159.88,4279.51C-2159.88,4286.66 -2165.63,4292.47 -2172.76,4292.56L-2172.93,4292.57C-2172.93,4292.57 -2172.93,4266.46 -2172.93,4266.46L-2172.76,4266.46ZM-1930.27,4171.94C-1936.61,4171.98 -1953.55,4174 -1966.69,4193.05C-1981.02,4213.82 -1980.27,4236.32 -1980.31,4249.14C-1980.33,4254.87 -1980.33,4260.92 -1980.33,4266.29C-1980.33,4269.59 -1980.32,4272.63 -1980.32,4275.19L-1920.58,4275.17L-1920.58,4274.74C-1920.58,4267.3 -1920.58,4256.4 -1920.59,4249.12C-1920.61,4242.37 -1921.04,4230.17 -1918.84,4217.5C-1917.74,4211.15 -1915.97,4204.68 -1913.15,4198.73C-1910.36,4192.81 -1907.12,4188.07 -1903.93,4184.32C-1897.2,4176.41 -1890.72,4172.93 -1889.24,4172.19L-1895.54,4172.19C-1903.44,4173.14 -1916.97,4177.22 -1927.89,4193.04C-1933.13,4200.65 -1936.36,4208.49 -1938.34,4216C-1941.77,4229 -1941.48,4241.01 -1941.51,4249.13C-1941.53,4255.82 -1941.53,4261.73 -1941.53,4266.33L-1959.34,4266.33C-1959.34,4265.06 -1959.35,4263.68 -1959.36,4262.23C-1959.37,4258.36 -1959.39,4253.9 -1959.4,4249.13C-1959.42,4239 -1960.39,4216.57 -1951.96,4198.74C-1942.44,4178.6 -1927.73,4172.05 -1927.73,4172.05C-1927.73,4172.05 -1928.52,4171.95 -1929.91,4171.94L-1930.27,4171.94ZM-2259.18,4265.46L-2259.38,4266.02C-2259.89,4267.46 -2260.37,4268.91 -2260.83,4270.37C-2261.27,4271.79 -2261.69,4273.22 -2262.09,4274.66L-2328.17,4274.68C-2327.38,4273.09 -2326.55,4271.52 -2325.68,4269.96C-2324.85,4268.45 -2323.97,4266.95 -2323.05,4265.48L-2259.18,4265.46ZM-2250.85,4247.06L-2251.16,4247.62C-2252.7,4250.44 -2254.14,4253.32 -2255.46,4256.26L-2316.79,4256.27C-2314.46,4253.13 -2311.97,4250.07 -2309.34,4247.07L-2250.85,4247.06ZM-2238.55,4228.65L-2238.99,4229.21C-2241.2,4232.04 -2243.29,4234.92 -2245.24,4237.85L-2300.6,4237.87C-2297.35,4234.69 -2293.96,4231.62 -2290.46,4228.66L-2238.55,4228.65ZM-2221.48,4210.24L-2222.08,4210.81C-2225.08,4213.64 -2227.94,4216.52 -2230.66,4219.45L-2278.74,4219.46C-2274.32,4216.23 -2269.78,4213.15 -2265.16,4210.25L-2221.48,4210.24ZM-2198.92,4191.84L-2199.7,4192.4C-2203.6,4195.24 -2207.34,4198.11 -2210.92,4201.04L-2249.21,4201.05C-2242.74,4197.63 -2236.23,4194.55 -2229.8,4191.84L-2198.92,4191.84ZM-2178.51,4178.23L-2179.4,4178.78C-2181.45,4180.06 -2183.47,4181.34 -2185.46,4182.63L-2203.32,4182.64C-2194.33,4180.21 -2185.92,4178.71 -2178.51,4178.23Z"/>
            </g>
        </g>
    </g>
</svg>
