<?xml version="1.0" encoding="UTF-8" standalone="no"?>
<!DOCTYPE svg PUBLIC "-//W3C//DTD SVG 1.1//EN" "http://www.w3.org/Graphics/SVG/1.1/DTD/svg11.dtd">
<svg width="100%" height="100%" viewBox="0 0 1080 1080" version="1.1" xmlns="http://www.w3.org/2000/svg" xmlns:xlink="http://www.w3.org/1999/xlink" xml:space="preserve" xmlns:serif="http://www.serif.com/" style="fill-rule:evenodd;clip-rule:evenodd;stroke-linejoin:round;stroke-miterlimit:2;">
    <g transform="matrix(0.929134,0,0,0.929134,38.2678,38.2678)">
        <g id="Монтажная-область1" serif:id="Монтажная область1">
            <rect x="0" y="0" width="1080" height="1080" style="fill:none;"/>
            <g transform="matrix(1.25064,0,0,1.25064,-135.339,-135.341)">
                <g>
                    <g transform="matrix(1,0,0,1,-4843.18,0)">
                        <path d="M5398.18,324.541L5398.18,123.25C5398.18,114.971 5391.46,108.25 5383.18,108.25C5374.9,108.25 5368.18,114.971 5368.18,123.25L5368.18,324.541C5368.18,332.82 5374.9,339.541 5383.18,339.541C5391.46,339.541 5398.18,332.82 5398.18,324.541Z"/>
                    </g>
                    <g transform="matrix(-0.00078243,1,-1,-0.00078243,1084.21,-4842.75)">
                        <path d="M5398.18,324.541L5398.18,123.25C5398.18,114.971 5391.46,108.25 5383.18,108.25C5374.9,108.25 5368.18,114.971 5368.18,123.25L5368.18,324.541C5368.18,332.82 5374.9,339.541 5383.18,339.541C5391.46,339.541 5398.18,332.82 5398.18,324.541Z"/>
                    </g>
                    <g transform="matrix(-0.999999,-0.00156486,0.00156486,-0.999999,5922.33,1088.42)">
                        <path d="M5398.18,324.541L5398.18,123.25C5398.18,114.971 5391.46,108.25 5383.18,108.25C5374.9,108.25 5368.18,114.971 5368.18,123.25L5368.18,324.541C5368.18,332.82 5374.9,339.541 5383.18,339.541C5391.46,339.541 5398.18,332.82 5398.18,324.541Z"/>
                    </g>
                    <g transform="matrix(0.00234729,-0.999997,0.999997,0.00234729,-12.6344,5921.89)">
                        <path d="M5398.18,324.541L5398.18,123.25C5398.18,114.971 5391.46,108.25 5383.18,108.25C5374.9,108.25 5368.18,114.971 5368.18,123.25L5368.18,324.541C5368.18,332.82 5374.9,339.541 5383.18,339.541C5391.46,339.541 5398.18,332.82 5398.18,324.541Z"/>
                    </g>
                    <g transform="matrix(0.707107,-0.707107,0.707107,0.707107,-3648.32,3964.64)">
                        <path d="M5398.18,324.541L5398.18,123.25C5398.18,114.971 5391.46,108.25 5383.18,108.25C5374.9,108.25 5368.18,114.971 5368.18,123.25L5368.18,324.541C5368.18,332.82 5374.9,339.541 5383.18,339.541C5391.46,339.541 5398.18,332.82 5398.18,324.541Z"/>
                    </g>
                    <g transform="matrix(0.706553,0.70766,-0.70766,0.706553,-2881.37,-3651)">
                        <path d="M5398.18,324.541L5398.18,123.25C5398.18,114.971 5391.46,108.25 5383.18,108.25C5374.9,108.25 5368.18,114.971 5368.18,123.25L5368.18,324.541C5368.18,332.82 5374.9,339.541 5383.18,339.541C5391.46,339.541 5398.18,332.82 5398.18,324.541Z"/>
                    </g>
                    <g transform="matrix(-0.708212,0.705999,-0.705999,-0.708212,4733.67,-2878.08)">
                        <path d="M5398.18,324.541L5398.18,123.25C5398.18,114.971 5391.46,108.25 5383.18,108.25C5374.9,108.25 5368.18,114.971 5368.18,123.25L5368.18,324.541C5368.18,332.82 5374.9,339.541 5383.18,339.541C5391.46,339.541 5398.18,332.82 5398.18,324.541Z"/>
                    </g>
                    <g transform="matrix(-0.705445,-0.708765,0.708765,-0.705445,3954.8,4736.35)">
                        <path d="M5398.18,324.541L5398.18,123.25C5398.18,114.971 5391.46,108.25 5383.18,108.25C5374.9,108.25 5368.18,114.971 5368.18,123.25L5368.18,324.541C5368.18,332.82 5374.9,339.541 5383.18,339.541C5391.46,339.541 5398.18,332.82 5398.18,324.541Z"/>
                    </g>
                    <g transform="matrix(0.92388,-0.382683,0.382683,0.92388,-4640.06,2101.16)">
                        <path d="M5398.18,324.541L5398.18,123.25C5398.18,114.971 5391.46,108.25 5383.18,108.25C5374.9,108.25 5368.18,114.971 5368.18,123.25L5368.18,324.541C5368.18,332.82 5374.9,339.541 5383.18,339.541C5391.46,339.541 5398.18,332.82 5398.18,324.541Z"/>
                    </g>
                    <g transform="matrix(0.38196,0.924179,-0.924179,0.38196,-1017.1,-4641.28)">
                        <path d="M5398.18,324.541L5398.18,123.25C5398.18,114.971 5391.46,108.25 5383.18,108.25C5374.9,108.25 5368.18,114.971 5368.18,123.25L5368.18,324.541C5368.18,332.82 5374.9,339.541 5383.18,339.541C5391.46,339.541 5398.18,332.82 5398.18,324.541Z"/>
                    </g>
                    <g transform="matrix(-0.924477,0.381237,-0.381237,-0.924477,5722.49,-1013.05)">
                        <path d="M5398.18,324.541L5398.18,123.25C5398.18,114.971 5391.46,108.25 5383.18,108.25C5374.9,108.25 5368.18,114.971 5368.18,123.25L5368.18,324.541C5368.18,332.82 5374.9,339.541 5383.18,339.541C5391.46,339.541 5398.18,332.82 5398.18,324.541Z"/>
                    </g>
                    <g transform="matrix(-0.380514,-0.924775,0.924775,-0.380514,2088.99,5723.71)">
                        <path d="M5398.18,324.541L5398.18,123.25C5398.18,114.971 5391.46,108.25 5383.18,108.25C5374.9,108.25 5368.18,114.971 5368.18,123.25L5368.18,324.541C5368.18,332.82 5374.9,339.541 5383.18,339.541C5391.46,339.541 5398.18,332.82 5398.18,324.541Z"/>
                    </g>
                    <g transform="matrix(0.92388,0.382683,-0.382683,0.92388,-4226.76,-2018.95)">
                        <path d="M5398.18,324.541L5398.18,123.25C5398.18,114.971 5391.46,108.25 5383.18,108.25C5374.9,108.25 5368.18,114.971 5368.18,123.25L5368.18,324.541C5368.18,332.82 5374.9,339.541 5383.18,339.541C5391.46,339.541 5398.18,332.82 5398.18,324.541Z"/>
                    </g>
                    <g transform="matrix(-0.383406,0.92358,-0.92358,-0.383406,3102.68,-4224.75)">
                        <path d="M5398.18,324.541L5398.18,123.25C5398.18,114.971 5391.46,108.25 5383.18,108.25C5374.9,108.25 5368.18,114.971 5368.18,123.25L5368.18,324.541C5368.18,332.82 5374.9,339.541 5383.18,339.541C5391.46,339.541 5398.18,332.82 5398.18,324.541Z"/>
                    </g>
                    <g transform="matrix(-0.92328,-0.384129,0.384129,-0.92328,5302.75,3106.4)">
                        <path d="M5398.18,324.541L5398.18,123.25C5398.18,114.971 5391.46,108.25 5383.18,108.25C5374.9,108.25 5368.18,114.971 5368.18,123.25L5368.18,324.541C5368.18,332.82 5374.9,339.541 5383.18,339.541C5391.46,339.541 5398.18,332.82 5398.18,324.541Z"/>
                    </g>
                    <g transform="matrix(0.384851,-0.922979,0.922979,0.384851,-2030.13,5300.74)">
                        <path d="M5398.18,324.541L5398.18,123.25C5398.18,114.971 5391.46,108.25 5383.18,108.25C5374.9,108.25 5368.18,114.971 5368.18,123.25L5368.18,324.541C5368.18,332.82 5374.9,339.541 5383.18,339.541C5391.46,339.541 5398.18,332.82 5398.18,324.541Z"/>
                    </g>
                </g>
                <g transform="matrix(6.5214,0,0,6.5214,391.006,374.201)">
                    <path d="M33.446,44.445L33.383,44.445C30.728,44.42 28.553,42.67 27.967,40.097L22.845,17.996L17.725,40.105C17.722,40.121 17.717,40.136 17.713,40.151C17.071,42.696 14.896,44.421 12.301,44.445C9.672,44.471 7.443,42.759 6.748,40.192C6.743,40.175 6.74,40.155 6.734,40.136L0.071,12.973C-0.242,11.699 0.506,10.403 1.742,10.083C2.977,9.759 4.232,10.53 4.544,11.806L11.199,38.933C11.396,39.62 12.004,39.693 12.26,39.686C12.558,39.685 13.077,39.586 13.242,38.969L18.39,16.754C18.838,14.499 20.667,12.937 22.866,12.937L22.903,12.937C25.09,12.954 26.887,14.526 27.306,16.771L32.455,39C32.591,39.593 33.123,39.685 33.427,39.686C33.635,39.686 34.32,39.642 34.489,38.964L41.15,11.806C41.463,10.53 42.717,9.761 43.952,10.083C45.188,10.406 45.936,11.699 45.623,12.973L38.959,40.134C38.319,42.721 36.106,44.445 33.446,44.445Z" style="fill-rule:nonzero;"/>
                </g>
            </g>
        </g>
    </g>
</svg>
