<?xml version="1.0" encoding="UTF-8" standalone="no"?>
<!DOCTYPE svg PUBLIC "-//W3C//DTD SVG 1.1//EN" "http://www.w3.org/Graphics/SVG/1.1/DTD/svg11.dtd">
<svg width="100%" height="100%" viewBox="0 0 1080 1080" version="1.1" xmlns="http://www.w3.org/2000/svg" xmlns:xlink="http://www.w3.org/1999/xlink" xml:space="preserve" xmlns:serif="http://www.serif.com/" style="fill-rule:evenodd;clip-rule:evenodd;stroke-linejoin:round;stroke-miterlimit:2;">
    <g transform="matrix(1,0,0,1,-2470.76,-10690.9)">
        <g id="id_icon_18_11_2020" transform="matrix(1,0,0,1,2470.76,10690.9)">
            <rect x="0" y="0" width="1080" height="1080" style="fill:none;"/>
            <g transform="matrix(1.08934,0,0,1.08934,-48.2452,-48.2452)">
                <g transform="matrix(1,0,0,1,-2470.76,-10690.9)">
                    <path d="M3293.92,11246.5C3294.57,11252.5 3294.84,11256.8 3294.72,11259C3293.59,11281.3 3287.67,11310.5 3282.17,11331.4C3265.04,11398.1 3224.48,11453 3179.36,11489C3130.28,11528.1 3058.18,11558.6 2979.04,11551.8C2896.55,11544.7 2822.41,11504.5 2775.1,11443.6C2773.61,11441.8 2772.15,11440 2770.71,11438.2C2775.51,11435.8 2780.46,11433.4 2785.5,11431C2846.51,11510.3 2942.69,11555.3 3042.75,11540.6C3166.31,11522.5 3258.05,11416.8 3275.25,11290.3C3274.08,11290.5 3219.27,11304.7 3168.11,11322.1C3171.71,11309 3174.4,11295.1 3176.01,11280.3C3191.96,11275.2 3206.88,11270.7 3220.6,11266.6C3250.68,11257.6 3275.33,11251.2 3293.92,11246.5ZM3213.93,11319.2L3254.37,11306.7L3254.37,11307.6C3228.97,11419.6 3154.23,11503.8 3037.87,11524.5C3113.55,11498.2 3153.47,11472.5 3196.62,11405.1C3174.82,11432.3 3156.27,11441.5 3156.27,11441.5C3172.73,11422.8 3189.79,11395.7 3201.27,11363.3C3210.52,11337.2 3213.93,11319.2 3213.93,11319.2ZM3078.73,11455.8C3075.48,11457.9 3072.15,11459.9 3068.76,11461.8L2997.03,11481.7C2992.69,11482 2988.35,11482.1 2984.04,11482.1L3078.73,11455.8ZM3094.09,11444.5C3092.01,11446.2 3089.9,11447.8 3087.76,11449.5L2971.81,11481.8C2968.85,11481.6 2965.89,11481.3 2962.94,11481L3094.09,11444.5ZM3105.39,11434.3C3103.8,11435.9 3102.19,11437.4 3100.55,11438.9L2953.64,11479.8C2951.26,11479.4 2948.88,11479 2946.49,11478.6L3105.39,11434.3ZM3047.96,11471.3C3040.18,11474.3 3032.08,11476.6 3023.67,11478.2C3023.11,11478.4 3022.56,11478.5 3021.99,11478.6L3047.96,11471.3ZM3020.45,11454.2L2938.71,11477C2936.66,11476.5 2934.62,11476 2932.58,11475.5L3005.46,11455.1C3010.52,11455.1 3015.52,11454.8 3020.45,11454.2ZM2985.12,11453.8C2987.85,11454.2 2990.61,11454.5 2993.38,11454.7L2925.78,11473.6C2923.97,11473 2922.16,11472.4 2920.35,11471.9L2985.12,11453.8ZM2970.44,11450.9C2972.52,11451.4 2974.63,11451.9 2976.74,11452.3L2914.25,11469.8C2912.61,11469.2 2910.97,11468.5 2909.34,11467.9L2970.44,11450.9ZM2958.43,11447.2C2960.17,11447.8 2961.92,11448.4 2963.68,11449L2903.78,11465.7C2902.27,11465 2900.77,11464.4 2899.28,11463.7L2958.43,11447.2ZM2948.08,11443.1C2949.6,11443.8 2951.12,11444.4 2952.66,11445L2894.17,11461.3C2892.77,11460.7 2891.39,11460 2889.99,11459.3L2948.08,11443.1ZM2938.92,11438.6C2940.27,11439.4 2941.63,11440.1 2943,11440.7L2885.25,11456.8C2883.95,11456.1 2882.65,11455.4 2881.36,11454.7L2938.92,11438.6ZM2930.66,11433.9C2931.88,11434.7 2933.11,11435.4 2934.35,11436.1L2876.92,11452.1C2875.71,11451.4 2874.5,11450.7 2873.29,11449.9L2930.66,11433.9ZM2923.12,11429C2924.24,11429.8 2925.37,11430.6 2926.5,11431.3L2869.12,11447.3C2867.97,11446.5 2866.84,11445.8 2865.7,11445L2923.12,11429ZM3114.52,11424.8C3113.21,11426.2 3111.89,11427.7 3110.55,11429.1L3060.6,11443C3065.31,11440.9 3069.93,11438.5 3074.43,11435.9L3114.52,11424.8ZM2916.19,11424C2917.22,11424.8 2918.26,11425.5 2919.3,11426.3L2861.77,11442.3C2860.69,11441.6 2859.62,11440.8 2858.54,11440L2916.19,11424ZM2909.76,11418.7C2910.72,11419.6 2911.68,11420.4 2912.65,11421.1L2854.84,11437.3C2853.81,11436.5 2852.79,11435.7 2851.78,11434.9L2909.76,11418.7ZM2903.79,11413.4C2904.68,11414.2 2905.57,11415 2906.48,11415.9L2848.27,11432.1C2847.3,11431.3 2846.34,11430.5 2845.38,11429.7L2903.79,11413.4ZM3122.21,11415.6C3121.1,11417 3119.97,11418.4 3118.83,11419.8L3085.14,11429.2C3087.55,11427.5 3089.92,11425.8 3092.26,11424L3122.21,11415.6ZM2898.21,11407.9C2899.04,11408.8 2899.88,11409.6 2900.72,11410.5L2842.05,11426.8C2841.13,11426 2840.21,11425.2 2839.3,11424.4L2898.21,11407.9ZM2892.99,11402.4C2893.76,11403.2 2894.55,11404.1 2895.34,11404.9L2836.14,11421.4C2835.27,11420.6 2834.4,11419.8 2833.53,11419L2892.99,11402.4ZM3128.86,11406.8C3127.89,11408.1 3126.92,11409.5 3125.92,11410.8L3099.31,11418.2C3101.07,11416.7 3102.8,11415.1 3104.5,11413.5L3128.86,11406.8ZM2887.78,11396.4C2888.61,11397.4 2889.45,11398.4 2890.3,11399.3L2830.53,11416C2829.57,11415 2828.63,11414.1 2827.69,11413.1L2887.78,11396.4ZM3134.7,11398.1C3133.85,11399.4 3132.99,11400.8 3132.11,11402.1L3109.96,11408.2C3111.37,11406.8 3112.76,11405.3 3114.13,11403.9L3134.7,11398.1ZM2861.75,11396.1L2882.9,11390.3C2883.68,11391.3 2884.47,11392.3 2885.26,11393.3L2838.32,11406.4C2841.98,11404.7 2845.63,11403.1 2849.25,11401.5C2853.26,11399.8 2857.43,11398 2861.75,11396.1ZM3139.9,11389.7C3139.14,11391 3138.37,11392.2 3137.59,11393.5L3118.61,11398.8C3119.79,11397.4 3120.96,11396 3122.11,11394.6L3139.9,11389.7ZM3144.56,11381.4C3143.88,11382.6 3143.18,11383.9 3142.48,11385.2L3125.92,11389.8C3126.93,11388.4 3127.93,11387.1 3128.92,11385.7L3144.56,11381.4ZM3148.74,11373.2C3148.13,11374.4 3147.51,11375.7 3146.88,11376.9L3132.22,11381C3133.1,11379.7 3133.97,11378.4 3134.83,11377.1L3148.74,11373.2ZM3152.53,11365.1C3151.98,11366.4 3151.41,11367.6 3150.84,11368.8L3137.72,11372.5C3138.5,11371.2 3139.27,11369.9 3140.02,11368.6L3152.53,11365.1ZM3155.96,11357.2C3155.45,11358.4 3154.95,11359.6 3154.43,11360.8L3142.58,11364.1C3143.27,11362.9 3143.95,11361.6 3144.62,11360.3L3155.96,11357.2ZM3159.06,11349.3C3158.61,11350.5 3158.14,11351.7 3157.67,11352.9L3146.88,11355.9C3147.49,11354.7 3148.1,11353.4 3148.69,11352.2L3159.06,11349.3ZM3161.87,11341.5C3161.46,11342.7 3161.04,11343.9 3160.62,11345.1L3150.7,11347.8C3151.25,11346.6 3151.79,11345.4 3152.31,11344.2L3161.87,11341.5ZM3164.42,11333.8C3164.04,11335 3163.66,11336.1 3163.28,11337.3L3154.11,11339.9C3154.59,11338.7 3155.07,11337.5 3155.54,11336.3L3164.42,11333.8ZM3166.71,11326.1C3166.38,11327.3 3166.04,11328.5 3165.69,11329.6L3157.13,11332C3157.56,11330.8 3157.98,11329.6 3158.39,11328.5L3166.71,11326.1ZM2708.82,11197.8C2714.59,11166.9 2724.27,11140.6 2731.07,11122.5L2733.94,11108.5C2740.73,11072 2761.4,11010.9 2793.42,10974.2C2821.18,10942.5 2855.85,10918.7 2899.4,10911.7C2924.41,10907.8 2952.71,10904.5 3023.69,10931.1C3064.5,10935.6 3106.36,10947.7 3143.4,10968.6C3167.32,10982 3190.08,11001.6 3209.48,11023.1C3186.62,11028.3 3155,11035.9 3119.59,11045.3C3115.14,11038.1 3110.49,11031.1 3105.65,11024.3L3169.67,11008C3126.61,10971 3073.96,10947.3 3017.79,10941.9C2979.03,10919.1 2937.02,10909.4 2896.34,10917C2812.11,10932.8 2752.78,11017 2739.42,11124.4C2731.5,11145.7 2725.82,11168.1 2722.64,11191.3L2718.84,11193.1C2717.04,11193.9 2715.24,11194.8 2713.43,11195.6L2708.82,11197.8ZM2758.97,11174.8C2751.65,11178.1 2744.85,11181.1 2742.41,11182.2C2742.44,11181.3 2742.47,11180.4 2742.51,11179.5L2758.97,11174.8ZM2782.85,11164.2L2742.71,11175.6C2742.78,11174.4 2742.87,11173.1 2742.96,11171.9L2797.8,11156.3C2797.69,11156.8 2797.58,11157.4 2797.47,11157.9L2797.28,11158C2792.47,11160.1 2787.66,11162.1 2782.85,11164.2ZM2799.55,11148.3C2799.25,11149.6 2798.95,11150.9 2798.66,11152.3L2743.29,11168C2743.4,11166.7 2743.53,11165.4 2743.67,11164.2L2799.55,11148.3ZM2801.52,11140.3C2801.18,11141.6 2800.85,11142.9 2800.52,11144.3L2744.13,11160.2C2744.3,11159 2744.47,11157.7 2744.65,11156.4L2801.52,11140.3ZM2803.71,11132.2C2803.34,11133.5 2802.97,11134.8 2802.6,11136.2L2745.26,11152.4C2745.47,11151.2 2745.69,11149.9 2745.92,11148.6L2803.71,11132.2ZM2806.17,11124C2805.75,11125.3 2805.33,11126.7 2804.93,11128L2746.67,11144.6C2746.83,11143.8 2747,11142.9 2747.17,11142.1C2747.27,11141.6 2747.37,11141.1 2747.48,11140.7L2806.17,11124ZM2808.91,11115.8C2808.44,11117.1 2807.98,11118.5 2807.52,11119.8L2748.39,11136.6C2748.7,11135.3 2749.02,11134 2749.35,11132.6L2808.91,11115.8ZM2811.96,11107.4C2811.43,11108.8 2810.92,11110.1 2810.41,11111.5L2750.42,11128.5C2750.78,11127.2 2751.16,11125.9 2751.55,11124.5L2811.96,11107.4ZM3232.95,11052.1C3236.87,11057.5 3240.55,11063 3243.93,11068.4C3253.04,11080.7 3261.22,11100.6 3268.21,11123C3261.69,11124.4 3257.05,11125.3 3257.05,11125.3C3257.05,11125.3 3251.68,11117.1 3245.64,11107.1C3240.05,11097.8 3230.43,11081.7 3230.22,11081.3C3227.91,11077.4 3225.11,11074.3 3221.84,11072.7C3225.29,11066.2 3229.08,11059.2 3232.95,11052.1ZM2815.36,11099C2814.78,11100.3 2814.2,11101.7 2813.64,11103.1L2752.8,11120.4C2753.22,11119 2753.66,11117.7 2754.1,11116.3L2815.36,11099ZM2819.16,11090.4C2818.51,11091.8 2817.87,11093.2 2817.24,11094.6L2755.54,11112.1C2756.03,11110.8 2756.53,11109.4 2757.04,11108L2819.16,11090.4ZM2823.43,11081.7C2822.7,11083.1 2821.97,11084.6 2821.27,11086L2758.69,11103.8C2759.25,11102.4 2759.81,11101 2760.4,11099.6L2823.43,11081.7ZM2828.23,11072.9C2827.4,11074.3 2826.59,11075.8 2825.79,11077.3L2762.28,11095.3C2762.92,11093.8 2763.57,11092.4 2764.22,11091L2828.23,11072.9ZM2833.67,11063.9C2832.74,11065.3 2831.82,11066.8 2830.91,11068.3L2766.36,11086.6C2767.08,11085.2 2767.82,11083.7 2768.57,11082.3L2833.67,11063.9ZM2839.91,11054.6C2838.83,11056.1 2837.77,11057.6 2836.73,11059.2L2770.99,11077.8C2771.81,11076.4 2772.64,11074.9 2773.49,11073.4L2839.91,11054.6ZM2847.15,11045.1C2845.9,11046.6 2844.66,11048.2 2843.44,11049.8L2776.24,11068.9C2777.17,11067.4 2778.12,11065.9 2779.09,11064.4L2847.15,11045.1ZM2855.75,11035.2C2854.25,11036.8 2852.78,11038.4 2851.31,11040.1L2782.23,11059.7C2783.29,11058.1 2784.38,11056.6 2785.48,11055.1L2855.75,11035.2ZM2866.34,11024.7C2864.47,11026.4 2862.63,11028.1 2860.82,11029.9L2789.08,11050.3C2790.32,11048.7 2791.57,11047.1 2792.84,11045.5L2866.34,11024.7ZM2880.33,11013.2C2877.81,11015.1 2875.32,11017 2872.86,11019L2797.01,11040.5C2798.45,11038.9 2799.92,11037.2 2801.4,11035.6L2880.33,11013.2ZM2903.05,10999.3C2898.62,11001.5 2894.24,11004 2889.93,11006.7L2806.33,11030.4C2808.05,11028.7 2809.8,11026.9 2811.58,11025.2L2903.05,10999.3ZM3082.7,11023.1C3083.67,11024.1 3084.63,11025 3085.58,11026L3078.44,11028C3077.56,11027 3076.68,11026.1 3075.8,11025.1L3082.7,11023.1ZM3076.56,11017.4C3077.6,11018.3 3078.62,11019.3 3079.63,11020.2L3072.96,11022.1C3072,11021.1 3071.04,11020.2 3070.08,11019.2L3076.56,11017.4ZM2977.62,10970.7C2980.32,10971.1 2983,10971.5 2985.68,10972.1L2817.57,11019.8C2819.71,11017.9 2821.88,11016 2824.09,11014.2L2977.62,10970.7ZM3070,11011.8C3071.11,11012.7 3072.2,11013.6 3073.28,11014.5L3066.95,11016.3C3065.89,11015.4 3064.83,11014.5 3063.76,11013.6L3070,11011.8ZM3062.98,11006.3C3064.16,11007.2 3065.34,11008.1 3066.5,11009L3060.28,11010.7C3059.09,11009.8 3057.9,11008.9 3056.7,11008.1L3062.98,11006.3ZM2958.02,10968.8C2961.45,10968.9 2964.89,10969.2 2968.34,10969.5L2831.8,11008.2C2834.68,11006.1 2837.61,11004 2840.6,11002.1L2958.02,10968.8ZM3055.45,11001C3056.72,11001.8 3057.98,11002.7 3059.22,11003.6L3052.76,11005.4C3051.41,11004.5 3050.06,11003.7 3048.68,11002.9L3055.45,11001ZM3047.33,10995.8C3048.7,10996.6 3050.06,10997.4 3051.4,10998.3L3044.17,11000.4C3042.63,10999.5 3041.06,10998.8 3039.48,10998L3047.33,10995.8ZM3038.53,10990.8C3040.02,10991.6 3041.49,10992.4 3042.95,10993.2L3034.25,10995.7C3032.47,10994.9 3030.65,10994.2 3028.8,10993.6L3038.53,10990.8ZM2945.14,10968.6L2851.93,10995.1C2857.01,10992.1 2862.22,10989.4 2867.52,10986.9L2928.05,10969.8C2933.7,10969.1 2939.41,10968.7 2945.14,10968.6ZM3028.95,10986C3030.57,10986.8 3032.18,10987.6 3033.78,10988.3L3022.73,10991.5C3020.66,10990.8 3018.55,10990.2 3016.4,10989.6L3028.95,10986ZM3018.4,10981.5C3020.2,10982.2 3021.97,10983 3023.73,10983.7L3009.39,10987.8C3007.06,10987.2 3004.67,10986.7 3002.22,10986.2L3002.14,10986.2L3018.4,10981.5ZM3006.65,10977.4C3008.65,10978 3010.64,10978.7 3012.6,10979.4L2993.95,10984.7C2990.93,10984.2 2987.9,10983.9 2984.85,10983.6L3006.65,10977.4ZM2993.29,10973.7C2995.58,10974.3 2997.85,10974.8 3000.1,10975.5L2973.53,10983C2968.61,10982.9 2963.67,10983.1 2958.72,10983.5L2993.29,10973.7Z" style="fill-rule:nonzero;"/>
                </g>
                <g transform="matrix(1,0,0,1,-2470.76,-10690.9)">
                    <path d="M3367.33,11233.3C3365.87,11231 3347.47,11200.1 3332.53,11182.7C3335.86,11176.9 3338.43,11173.8 3341.81,11168C3348.3,11157 3358.72,11137.5 3363.05,11129C3364.59,11126 3366.43,11120 3362.45,11116.6C3361.88,11116.1 3345.04,11106.4 3339.56,11103.4C3334.44,11100.6 3332.22,11101.6 3329.08,11101.7C3329.08,11101.7 3282.8,11110 3272.82,11112.1C3272.63,11111.7 3258.01,11087.7 3256.9,11086.4C3255.57,11084.8 3253.74,11081.3 3252.45,11080.2C3260.42,11066.3 3271.39,11049.5 3279.32,11035.8C3281.91,11031.2 3281.22,11028.1 3280.19,11026.2C3279.75,11025.4 3279.19,11024.8 3278.53,11024.2C3278.18,11023.9 3272.17,11020.6 3265.92,11017.2C3259.15,11013.5 3252.1,11009.7 3251.65,11009.5C3250.76,11009.2 3249.79,11009 3248.75,11009L3248.15,11009C3247.41,11009.1 3246.62,11009.1 3245.82,11009.3C3240.24,11010.4 3234.68,11011.6 3229.09,11012.7C3223.12,11014 3176.61,11022.7 3100.75,11044C3079.05,11050.1 3033.5,11064.3 2992.81,11077.6C2966.89,11086 2942.94,11094 2928.39,11099.2C2860.65,11123.5 2787.53,11154.4 2737.04,11177.3C2689.43,11198.9 2656.55,11215 2655.77,11215.4C2654.45,11216 2653.47,11217.2 2653.06,11218.6C2652.65,11220.1 2652.87,11221.6 2653.64,11222.8C2654.44,11224.1 2671.78,11252.1 2678.27,11262.3C2673.1,11274.7 2658.1,11317.1 2653.15,11331.1C2652.68,11332.5 2652.78,11333.9 2653.4,11335.2C2654.04,11336.5 2655.15,11337.4 2656.5,11337.8L2690.52,11348.6L2690.52,11479.2C2690.52,11481.1 2691.53,11482.8 2693.16,11483.7C2693.96,11484.2 2694.85,11484.4 2695.74,11484.4C2696.66,11484.4 2697.58,11484.2 2698.4,11483.7C2699.45,11483.1 2805.33,11420.6 3008.27,11346.6C3102.58,11312.2 3171.29,11289.1 3224.5,11273.8C3284.19,11256.6 3328.36,11247.2 3349.97,11244.4C3364.43,11242.4 3366.4,11242.1 3368.23,11239.3C3369.24,11237.8 3368.34,11234.9 3367.33,11233.3ZM2698.33,11345.6L2666.93,11335.7C2666.93,11335.7 2662.79,11334.3 2665.36,11327.6C2671.38,11310.8 2677.41,11294 2683.43,11277.4C2685.43,11271.8 2687.44,11267.3 2689.88,11263.2C2682.23,11250.5 2674.59,11237.8 2666.94,11225.1C2665.08,11221.6 2666.08,11218.3 2670.38,11216.2C2675.88,11213.5 2681.37,11210.8 2686.87,11208.2C2693.9,11204.8 2721.58,11191.8 2725.61,11189.9C2731.06,11187.4 2736.51,11184.9 2741.97,11182.4C2746.03,11180.6 2773.54,11168.3 2780.75,11165.1C2786.26,11162.7 2791.77,11160.4 2797.28,11158C2800.87,11156.5 2810.23,11152.5 2814.25,11150.8C2823.91,11146.8 2922.92,11104.5 3023.3,11073C3131.62,11038.9 3243.84,11015.4 3246.71,11014.8C3251.01,11013.9 3252.45,11016.2 3250.14,11020.5C3241.43,11036.5 3230.55,11056.4 3221.84,11072.7C3225.11,11074.3 3227.91,11077.4 3230.22,11081.3C3230.43,11081.7 3240.05,11097.8 3245.64,11107.1C3251.68,11117.1 3257.05,11125.3 3257.05,11125.3C3257.05,11125.3 3302.15,11116.1 3308.64,11114.7C3315.22,11113.4 3321.5,11112.1 3328.47,11111.3C3333.68,11110.6 3335.33,11113.6 3332.6,11118.5C3322.2,11137 3310.51,11160 3300.1,11178.9C3304.4,11181 3307.76,11186.6 3310.68,11191.8C3317.89,11203.8 3326.87,11218.7 3334.05,11231.2C3335.2,11233.2 3334.82,11235.6 3332.36,11236.5C3322.36,11240.3 3283.3,11247.8 3220.6,11266.6C3175.61,11280 3117.56,11298.6 3053.21,11321.5C2960.14,11354.7 2894.58,11381.9 2849.25,11401.5C2789.54,11427.5 2722.55,11462.4 2705.54,11471.3C2700.39,11474 2698.33,11473.2 2698.33,11467.4L2698.33,11345.6ZM2785.21,11294.1C2760.49,11305.4 2735.79,11317.1 2711.12,11329.3C2705.74,11331.9 2703.9,11334.9 2703.9,11340.9L2703.9,11459.1C2703.9,11464.8 2705.91,11465.6 2710.95,11463C2727.68,11454.2 2744.42,11445.7 2761.17,11437.5C2784.87,11425.7 2800.34,11402.2 2800.34,11376.2C2800.34,11349.8 2784.87,11340.8 2761.17,11352.1C2753.16,11355.9 2745.15,11359.8 2737.14,11363.7L2737.14,11347.1C2753.16,11339.3 2769.18,11331.7 2785.21,11324.3C2790.42,11321.9 2792.27,11319.2 2792.27,11313.2L2792.27,11298.8C2792.27,11292.9 2790.42,11291.7 2785.21,11294.1ZM2714.87,11454.9C2712.81,11455.1 2709.72,11453.6 2709.72,11450.1L2709.72,11343C2709.72,11337.5 2711.46,11334.7 2716.53,11332.3C2727.42,11327.1 2763.98,11309.2 2777.28,11303C2782.22,11300.7 2784.43,11303 2784.43,11303C2784.43,11303 2727.94,11330 2718.77,11334.4C2715.07,11336.2 2714.16,11338.5 2714.16,11344L2714.16,11451.1C2714.16,11452.8 2714.39,11454.1 2714.87,11454.9ZM2766.38,11392.1C2766.38,11400.3 2762.01,11406.7 2754.11,11410.6C2748.46,11413.4 2742.8,11416.2 2737.14,11419L2737.14,11394.2C2742.8,11391.4 2748.46,11388.6 2754.11,11385.8C2762.01,11382 2766.38,11384.2 2766.38,11392.1ZM2884.4,11250.5C2860.89,11260.1 2837.38,11270.2 2813.88,11280.7C2808.5,11283.1 2806.65,11286 2806.65,11291.7L2806.65,11408C2806.65,11413.8 2808.5,11414.9 2813.88,11412.4C2837.88,11401 2861.89,11390.1 2885.92,11379.6C2891.14,11377.3 2892.99,11374.5 2892.99,11368.8L2892.99,11352.2C2892.99,11346.4 2891.14,11345.4 2885.92,11347.6C2870.6,11354.2 2855.27,11361 2839.96,11367.9L2839.96,11350.2C2851.8,11344.9 2863.64,11339.7 2875.48,11334.5C2880.86,11332.2 2882.72,11329.4 2882.72,11323.6L2882.72,11307.1C2882.72,11301.4 2880.86,11300.2 2875.48,11302.5C2863.64,11307.5 2851.8,11312.7 2839.96,11317.9L2839.96,11301.5C2854.77,11295 2869.59,11288.6 2884.4,11282.5C2889.79,11280.2 2891.64,11277.4 2891.64,11271.6L2891.64,11255.2C2891.64,11249.5 2889.79,11248.3 2884.4,11250.5ZM2817.33,11400.3C2817.33,11402 2817.55,11403.2 2818.07,11403.9C2815.91,11403.9 2812.88,11402.4 2812.88,11399.2L2812.88,11292.6C2812.88,11289.4 2814.23,11287.6 2815.86,11286.8C2823.49,11283.1 2869.42,11262.8 2878.05,11259.6C2882.21,11258 2883.68,11260.1 2883.68,11260.1C2883.68,11260.1 2828.39,11284.3 2819.78,11288C2817.95,11288.8 2817.38,11291.2 2817.33,11293.3C2816.94,11312.1 2817.33,11400.3 2817.33,11400.3ZM2736.72,11369.4C2743.54,11366.1 2751.47,11361.8 2758.29,11358.7C2769.2,11353.7 2782.34,11350 2788.73,11357.6C2780.3,11353.4 2764.87,11358.6 2736.72,11374.7L2736.72,11369.4ZM3001.46,11205.6C2976.9,11214.2 2952.35,11223.2 2927.79,11232.7C2922.27,11234.8 2920.37,11237.5 2920.37,11243.2L2920.37,11285.2C2920.37,11319.7 2912.09,11331.1 2901.75,11341.9C2896.92,11346.9 2895.71,11350 2898.3,11354.1C2901.58,11359 2904.85,11363.9 2908.13,11368.8C2910.72,11372.8 2913.13,11373.1 2917.96,11368.3C2938.49,11348.9 2954.01,11324.9 2954.01,11271.8L2954.01,11254.7C2960.91,11252 2967.81,11249.5 2974.72,11246.9L2974.72,11336.5C2974.72,11342.2 2976.44,11343.5 2981.96,11341.3C2988.46,11338.8 2994.96,11336.4 3001.46,11333.9C3006.98,11331.8 3008.88,11329.1 3008.88,11323.5L3008.88,11210.5C3008.88,11205 3006.98,11203.6 3001.46,11205.6ZM2919.11,11363.1C2918,11364 2915.15,11364.1 2914.24,11362.8C2909.84,11356.3 2907.05,11350.8 2906.96,11350.4C2906.3,11347.8 2907.22,11345.7 2910.43,11342.6C2917.21,11335.8 2928.06,11322.5 2928.38,11296.5C2928.45,11290.8 2928.51,11272.5 2928.51,11272.5L2928.51,11245C2928.51,11240.5 2930,11238.4 2934.37,11236.9C2946.12,11232.8 2990.58,11216.3 2996.38,11214.5C3000.78,11213.1 3001.38,11215.5 3001.38,11215.5C3001.38,11215.5 2954.82,11232.1 2938.92,11237.9C2934.57,11239.5 2933.07,11241.6 2933.07,11246L2933.07,11266.3C2933.07,11266.3 2933.39,11290.4 2933.15,11295.5C2931.77,11325.5 2921.97,11336.6 2914.99,11343.6C2911.17,11347.3 2910.97,11348.9 2912.64,11352.3C2914.01,11355.2 2919.11,11363.1 2919.11,11363.1ZM2800.65,11161C2795.26,11163.3 2789.87,11165.6 2784.49,11168C2777.17,11171.1 2775.49,11172.5 2773.24,11178.7C2767.71,11193.2 2762.18,11207.7 2756.66,11222.3C2755.54,11222.6 2754.55,11223.1 2753.57,11223.5L2752.44,11224.1L2752.44,11188.8C2752.44,11183.9 2750.9,11182.9 2746.54,11184.9C2741.2,11187.3 2735.87,11189.7 2730.53,11192.2C2726.18,11194.2 2724.63,11196.7 2724.63,11201.6L2724.63,11237C2724.26,11237.2 2723.89,11237.4 2723.51,11237.6C2722.53,11238 2721.68,11238.4 2720.42,11239.2C2714.9,11229.7 2709.38,11220.2 2703.86,11210.6C2701.61,11206.4 2699.93,11206.6 2692.64,11210.1C2687.26,11212.7 2681.88,11215.3 2676.51,11217.9C2672.3,11220 2671.31,11223.2 2673.14,11226.7C2680.62,11239.1 2688.1,11251.5 2695.58,11263.9C2693.2,11267.9 2691.23,11272.3 2689.27,11277.7C2683.38,11294.1 2677.49,11310.4 2671.6,11326.9C2669.64,11332.3 2670.62,11335.3 2675.24,11332.9C2680.29,11330.3 2685.34,11327.8 2690.39,11325.2C2697.83,11321.5 2700.63,11318.9 2702.88,11312.2C2706.71,11300.5 2710.55,11288.8 2714.39,11277.1C2716.49,11270.8 2718.18,11267.9 2723.51,11265.3C2723.89,11265.2 2724.26,11265 2724.63,11264.8L2724.63,11301.5C2724.63,11306.4 2726.18,11307.4 2730.53,11305.3C2735.87,11302.7 2741.2,11300.2 2746.54,11297.6C2750.9,11295.5 2752.44,11293.1 2752.44,11288.1L2752.44,11251.7C2752.82,11251.5 2753.19,11251.3 2753.57,11251.1C2759.04,11248.6 2760.59,11249.9 2762.7,11254.2C2766.54,11262.1 2770.38,11270 2774.22,11278C2776.47,11282.4 2779.28,11282.2 2786.73,11278.8C2791.79,11276.5 2796.85,11274.2 2801.92,11271.9C2806.56,11269.9 2807.54,11266 2805.58,11262.6C2799.67,11252.2 2793.76,11241.7 2787.86,11231.2C2785.89,11227.7 2783.92,11225.3 2781.53,11223.5C2789.03,11204.4 2796.53,11185.4 2804.03,11166.5C2805.99,11161.5 2804.87,11159.2 2800.65,11161ZM2684.12,11324.4C2681.44,11324.9 2678.85,11322.2 2680.39,11318.2C2685.95,11303.1 2690.41,11289.2 2695.98,11274.3C2697.84,11269.3 2699.69,11265.3 2701.94,11261.6C2694.87,11250.2 2687.81,11238.9 2680.74,11227.5C2679.02,11224.4 2680.07,11221.6 2683.92,11219.5C2687.54,11217.5 2690.55,11216.1 2692.73,11215C2693.57,11214.6 2694.4,11214.3 2694.55,11214.2C2697.06,11213.5 2697.82,11214.3 2698.47,11215C2697.89,11215.3 2685.61,11221.8 2685.52,11221.9C2682.66,11223.9 2683.71,11225.8 2685.19,11228.5C2692.25,11239.9 2699.32,11251.3 2706.39,11262.6C2704.14,11266.3 2702.28,11270.3 2700.42,11275.3C2694.86,11290.2 2690.4,11304.1 2684.84,11319.2C2683.97,11321.5 2683.71,11323.3 2684.12,11324.4ZM3104.9,11172.1C3076.99,11180.7 3049.07,11189.9 3021.14,11199.7C3015.72,11201.6 3014.03,11204.2 3014.03,11209.8L3014.03,11226.1C3014.03,11231.9 3015.72,11233.2 3021.14,11231.3C3029.55,11228.3 3037.95,11225.4 3046.36,11222.5L3046.36,11311.2C3046.36,11316.7 3048.05,11318.1 3053.46,11316.1C3059.84,11313.8 3066.22,11311.6 3072.59,11309.3C3078,11307.4 3079.87,11304.8 3079.86,11299.3L3079.86,11211.3C3088.21,11208.5 3096.56,11205.9 3104.9,11203.2C3110.32,11201.5 3112.18,11199 3112.18,11193.3L3112.18,11177.4C3112.18,11171.9 3110.32,11170.5 3104.9,11172.1ZM3051.8,11218.2L3056.05,11216.9L3056.05,11302.9C3056.05,11304.5 3056.24,11305.7 3056.7,11306.4C3054.55,11306.5 3051.8,11305.6 3051.8,11302.4L3051.8,11218.2ZM3114.68,11216.4L3114.68,11246.9C3114.67,11276.3 3133.2,11288.4 3166.51,11278.5C3199.66,11268.7 3218.14,11246.2 3218.15,11217.5L3218.15,11187.7C3218.14,11159.1 3199.66,11145.7 3166.51,11154.4C3133.2,11163.3 3114.67,11187 3114.68,11216.4ZM2762.13,11245.3C2764.01,11245.4 2767.98,11246.5 2769.23,11249C2772.85,11256.2 2777.59,11265.7 2781.22,11272.9C2781.68,11273.8 2782.16,11274.5 2782.71,11275C2781.09,11274.8 2777.07,11274.1 2776.07,11272.2C2772.44,11265 2767.7,11255.5 2764.08,11248.3C2763.42,11247 2762.82,11246 2762.13,11245.3ZM3139.97,11272.4C3130.56,11268.9 3123.36,11260 3123.36,11246.6L3123.36,11212C3123.55,11183.3 3149.2,11163.2 3178.6,11159.2C3152.75,11164.7 3128.2,11185.2 3127.81,11213L3127.81,11247.6C3127.8,11259.9 3132.01,11268.4 3139.97,11272.4ZM2876.5,11130.1C2856.84,11137.8 2837.19,11145.7 2817.55,11154C2813.05,11155.8 2811.5,11158.2 2811.5,11163.1L2811.5,11261.2C2811.5,11266.1 2813.05,11267.1 2817.55,11265.1C2837.61,11256.2 2857.69,11247.6 2877.77,11239.4C2882.13,11237.6 2883.68,11235.2 2883.68,11230.5L2883.68,11216.4C2883.68,11211.5 2882.13,11210.5 2877.77,11212.3C2864.96,11217.5 2852.15,11222.9 2839.35,11228.3L2839.35,11213.3C2849.25,11209.2 2859.14,11205.1 2869.04,11201C2873.55,11199.2 2875.1,11196.8 2875.1,11191.9L2875.1,11178C2875.1,11173.2 2873.55,11172.1 2869.04,11173.9C2859.14,11177.9 2849.25,11181.9 2839.35,11186.1L2839.35,11172.2C2851.73,11167.1 2864.12,11162.1 2876.5,11157.2C2881.01,11155.4 2882.56,11153.1 2882.56,11148.1L2882.56,11134.2C2882.56,11129.4 2881.01,11128.3 2876.5,11130.1ZM3324.22,11226.3C3316.84,11214.1 3309.46,11201.8 3302.07,11189.6C3299.22,11184.5 3296.04,11181.1 3291.84,11179C3302.01,11160.5 3312.2,11142.3 3322.36,11124.2C3325.06,11119.3 3323.37,11116.6 3318.35,11117.6C3311.91,11118.9 3305.49,11120.3 3299.05,11121.6C3290.33,11123.4 3288.81,11124.8 3285.62,11130.7C3277.57,11145.1 3269.51,11159.6 3261.44,11174.3C3260.22,11174.6 3258.99,11174.9 3257.76,11175.2L3257.76,11137.8C3257.76,11132.5 3256.08,11131.1 3250.7,11132.3C3244.37,11133.8 3238.04,11135.3 3231.71,11136.8C3226.33,11138.1 3224.48,11140.5 3224.48,11145.7L3224.56,11253.4C3224.56,11258.7 3226.42,11260 3231.8,11258.6C3238.13,11256.9 3244.45,11255.2 3250.79,11253.6C3256.15,11252.2 3257.83,11249.9 3257.83,11244.7L3257.76,11204.7C3258.75,11204.5 3259.76,11204.2 3260.77,11204C3267.16,11202.4 3269.51,11204.9 3272.2,11209.6C3277.07,11218.4 3281.94,11227.3 3286.81,11236.1C3289.66,11241.3 3292.85,11241.7 3301.74,11239.6C3307.77,11238.1 3313.83,11236.7 3319.85,11235.4C3325.39,11234.1 3326.56,11230.2 3324.22,11226.3ZM2821.41,11252.3C2821.41,11254 2821.64,11255.2 2822.15,11255.9C2819.99,11255.9 2816.97,11254.5 2816.97,11251.3L2816.97,11164.6C2816.97,11161.4 2818.31,11159.6 2819.94,11158.8C2827.57,11155 2861.25,11141.2 2869.88,11138C2874.04,11136.5 2875.5,11138.6 2875.5,11138.6C2875.5,11138.6 2832.47,11156.2 2823.86,11160C2822.03,11160.7 2821.45,11163.1 2821.41,11165.2C2821.03,11184.1 2821.41,11252.3 2821.41,11252.3ZM3236.14,11246.7C3236.14,11248.6 3236.37,11249.9 3236.91,11250.7C3234.68,11250.7 3231.55,11250.4 3231.55,11246.8L3231.55,11148.7C3231.55,11145.1 3234.68,11142.2 3236.91,11142.2C3236.37,11143 3236.14,11144.4 3236.14,11146.3L3236.14,11246.7ZM3184.85,11194.9L3184.85,11227.9C3184.85,11238.5 3178.13,11245.8 3166.51,11249.2C3154.74,11252.6 3148.01,11249 3148.01,11238.4L3148.01,11205.1C3148.01,11194.5 3154.74,11187 3166.51,11183.8C3178.13,11180.6 3184.85,11184.4 3184.85,11194.9ZM3271.77,11199.8C3275.68,11200.1 3279.75,11203.4 3281.2,11205.9C3285.06,11212.9 3291.91,11224.5 3295.76,11231.4C3296.37,11232.5 3297.78,11234 3298.51,11234.6C3296.66,11234.2 3292.87,11234.2 3291.21,11231.5C3287.03,11224.8 3280.22,11212.5 3276.37,11205.6C3275.47,11204 3273.91,11201.2 3271.77,11199.8ZM2973.28,11094.8C2953.24,11101.6 2933.19,11108.8 2913.15,11116.2C2908.65,11117.9 2907.1,11120.1 2907.1,11124.9L2907.1,11159.8C2907.1,11188.5 2900.34,11197.9 2891.89,11206.6C2887.95,11210.7 2886.96,11213.2 2889.08,11216.7C2891.75,11220.8 2894.42,11225 2897.1,11229.1C2899.21,11232.6 2901.18,11232.8 2905.12,11229C2921.88,11213.3 2934.55,11193.6 2934.55,11149.3L2934.55,11135C2940.19,11132.9 2945.82,11130.9 2951.45,11128.9L2951.45,11203.7C2951.45,11208.4 2952.86,11209.5 2957.37,11207.8C2962.68,11205.8 2967.98,11203.9 2973.28,11202C2977.79,11200.3 2979.34,11198.1 2979.34,11193.4L2979.34,11099C2979.34,11094.4 2977.79,11093.2 2973.28,11094.8ZM2904.76,11223.6C2903.86,11224.4 2901.54,11224.4 2900.81,11223.3C2897.23,11217.9 2894.96,11213.4 2894.89,11213.1C2894.36,11210.9 2895.1,11209.2 2897.71,11206.6C2903.22,11201 2910.77,11191.1 2912.3,11168.3C2912.61,11163.7 2912.4,11148.5 2912.4,11148.5L2912.4,11125.6C2912.4,11122 2913.61,11120.2 2917.16,11118.9C2926.72,11115.5 2963.42,11101.7 2968.13,11100.1C2971.71,11098.9 2972.38,11101.4 2972.38,11101.4C2972.38,11101.4 2934.08,11115.7 2921.17,11120.5C2917.63,11121.8 2916.1,11122.8 2916.1,11126.5L2916.1,11143.3C2916.1,11143.3 2916.36,11163.3 2916.17,11167.6C2915.05,11192.4 2907.09,11201.6 2901.41,11207.4C2898.31,11210.5 2898.15,11211.8 2899.5,11214.7C2900.62,11217 2904.76,11223.6 2904.76,11223.6ZM3027.19,11223.9C3025.02,11224 3022.04,11221.4 3022.04,11218L3022.04,11211.2C3022.04,11206.8 3023.38,11204.8 3027.66,11203.4C3049.72,11196.2 3076.24,11187 3098.3,11180.5C3100.92,11179.7 3103.35,11180.3 3104.17,11181.5C3103.42,11181.5 3053.56,11197.7 3031.5,11204.9C3027.22,11206.3 3026.51,11209 3026.51,11213.3L3026.51,11220.2C3026.51,11221.9 3026.7,11223.1 3027.19,11223.9ZM3059.51,11067C3036.28,11074 3013.04,11081.4 2989.8,11089.2C2985.29,11090.7 2983.88,11092.8 2983.88,11097.5L2983.88,11111.1C2983.88,11116 2985.29,11117.1 2989.8,11115.6C2996.79,11113.2 3003.79,11110.9 3010.78,11108.6L3010.78,11182.7C3010.78,11187.3 3012.19,11188.5 3016.7,11186.9C3022.01,11185.1 3027.31,11183.3 3032.61,11181.5C3037.12,11180 3038.67,11177.8 3038.67,11173.2L3038.67,11099.6C3045.62,11097.4 3052.56,11095.2 3059.51,11093.1C3064.02,11091.7 3065.57,11089.6 3065.57,11084.8L3065.57,11071.5C3065.57,11066.9 3064.02,11065.7 3059.51,11067ZM3015.25,11106.8L3019.49,11105.5L3019.49,11176.6C3019.49,11178.2 3019.67,11179.4 3020.13,11180.1C3017.99,11180.2 3015.25,11179.4 3015.25,11176.2L3015.25,11106.8ZM3067.62,11105.1L3067.62,11130.9C3067.62,11155.8 3083.12,11166.3 3110.99,11158.1C3138.72,11150.1 3154.2,11131 3154.2,11106.6L3154.2,11081.3C3154.2,11057 3138.72,11045.5 3110.99,11052.9C3083.12,11060.3 3067.62,11080.2 3067.62,11105.1ZM3090.01,11154.5C3080.61,11151 3073.4,11142.2 3073.4,11128.9L3073.4,11105.2C3073.58,11076.7 3098.1,11060.4 3117.74,11057.3C3098.88,11063.1 3078.24,11078.7 3077.84,11106.2L3077.84,11129.9C3077.84,11142.1 3082.05,11150.5 3090.01,11154.5ZM3243.27,11114.9C3237.09,11104.5 3230.91,11094 3224.72,11083.5C3222.34,11079.2 3219.66,11076.2 3216.15,11074.4C3224.68,11058.5 3233.2,11042.8 3241.72,11027.1C3243.97,11022.9 3242.89,11020.3 3238.68,11021.2C3233.3,11022.3 3227.91,11023.5 3222.51,11024.7C3215.22,11026.3 3213.95,11027.5 3211.27,11032.5C3204.53,11045 3197.45,11057.9 3190.7,11070.5C3189.66,11070.7 3188.64,11071 3187.6,11071.2L3187.6,11039.1C3187.6,11034.6 3186.2,11033.4 3181.7,11034.5C3176.4,11035.7 3171.1,11037 3165.8,11038.3C3161.3,11039.5 3159.75,11041.5 3159.75,11046L3159.75,11137.9C3159.75,11142.4 3161.3,11143.6 3165.8,11142.4C3171.1,11140.9 3176.4,11139.5 3181.7,11138.1C3186.2,11136.9 3187.6,11135 3187.6,11130.5L3187.6,11096.5C3188.45,11096.3 3189.3,11096.1 3190.13,11095.9C3195.48,11094.5 3197.45,11096.7 3199.7,11100.7C3203.77,11108.3 3207.85,11115.9 3211.93,11123.5C3214.31,11127.9 3216.99,11128.2 3224.44,11126.4C3229.5,11125.2 3234.56,11124 3239.62,11122.8C3244.25,11121.7 3245.23,11118.3 3243.27,11114.9ZM3169.11,11132.4C3169.11,11134.1 3169.34,11135.2 3169.86,11135.9C3167.69,11135.9 3164.67,11135.6 3164.67,11132.5L3164.67,11048.2C3164.67,11045.2 3167.69,11042.7 3169.86,11042.6C3169.34,11043.4 3169.11,11044.5 3169.11,11046.1L3169.11,11132.4ZM3126.33,11087.3L3126.33,11115.3C3126.33,11124.3 3120.7,11130.5 3110.99,11133.2C3101.13,11136 3095.5,11133 3095.5,11124L3095.5,11095.7C3095.5,11086.7 3101.13,11080.4 3110.99,11077.8C3120.7,11075.1 3126.33,11078.3 3126.33,11087.3ZM3199.14,11092.2C3203.05,11092.5 3207.1,11095.8 3208.55,11098.3C3212.41,11105.2 3215.98,11111.7 3219.82,11118.6C3220.44,11119.7 3221.84,11121.1 3222.57,11121.7C3220.73,11121.4 3216.94,11121.4 3215.27,11118.7C3211.08,11112 3207.57,11104.8 3203.73,11097.9C3202.82,11096.3 3201.27,11093.6 3199.14,11092.2ZM2993.85,11110.9C2991.69,11111 2988.73,11108.5 2988.73,11105.2L2988.73,11099.3C2988.73,11095.1 2990.06,11093.1 2994.32,11091.7C3016.28,11084.6 3031.15,11079.9 3053.11,11073.5C3055.72,11072.7 3057.83,11073.4 3058.65,11074.6C3057.9,11074.6 3020.1,11086.1 2998.14,11093.2C2993.88,11094.6 2992.96,11097 2992.96,11101.3L2992.96,11107.1C2992.96,11108.8 2993.37,11110.2 2993.85,11110.9Z" style="fill-rule:nonzero;"/>
                </g>
            </g>
        </g>
    </g>
</svg>
