<?xml version="1.0" encoding="UTF-8" standalone="no"?>
<!DOCTYPE svg PUBLIC "-//W3C//DTD SVG 1.1//EN" "http://www.w3.org/Graphics/SVG/1.1/DTD/svg11.dtd">
<svg width="100%" height="100%" viewBox="0 0 1080 1080" version="1.1" xmlns="http://www.w3.org/2000/svg" xmlns:xlink="http://www.w3.org/1999/xlink" xml:space="preserve" xmlns:serif="http://www.serif.com/" style="fill-rule:evenodd;clip-rule:evenodd;stroke-linejoin:round;stroke-miterlimit:2;">
    <g transform="matrix(1,0,0,1,-2470.76,-6642.62)">
        <g id="id_icon_10_12_2022" transform="matrix(1,0,0,1,2470.76,6642.62)">
            <rect x="0" y="0" width="1080" height="1080" style="fill:none;"/>
            <g transform="matrix(-0.736507,0,0,0.736507,1167.24,-199.568)">
                <path d="M983.492,1174.63C980.86,1175.86 1036.68,1219.5 1029.79,1315.97C1028.09,1339.91 1037.04,1354.76 1038.26,1377.03C1038.76,1386 1007.96,1450.84 795.652,1415.13C725.692,1403.37 674.251,1416.57 674.251,1416.57C674.251,1416.57 690.732,1302.76 733.694,1236.94C755.504,1203.53 715.302,1199.23 681.792,1195.89C621.516,1189.88 592.111,1197.39 553.376,1170.44C490.953,1127 497.111,1041.41 470.238,1004.15C454.392,982.193 455.29,950.383 456.022,945.503C398.484,971.923 391.745,914.543 397.069,905.543C417.926,870.263 448.281,891.253 435.547,913.273C439.31,915.443 444.793,914.563 448.541,912.513C454.738,909.113 466.905,894.073 468.977,864.203C469.604,855.163 474.712,847.053 479.495,839.463C471.754,838.023 463.71,834.783 458.861,828.423C451.05,818.153 448.389,803.523 453.679,791.953C455.976,786.923 460.098,782.883 464.957,780.393C469.818,777.893 475.381,776.903 480.866,777.173C486.639,777.453 492.664,779.303 496.6,783.683C498.097,785.343 499.232,787.303 500.265,789.293C501.616,791.903 502.837,794.713 502.735,797.623C502.641,800.253 501.717,802.223 499.587,805.093C503.627,803.073 508.105,800.643 511.641,797.823C514.884,795.233 517.876,792.333 520.746,789.313C531.32,778.223 540.328,765.553 554.005,758.773C544.134,755.053 536.612,746.733 533.515,736.503C526.839,714.453 547.963,693.133 554.601,689.283C561.239,685.443 569.559,684.543 576.877,687.133C584.195,689.723 590.344,695.843 592.813,703.313C594.174,707.423 594.4,712.093 592.502,715.913C590.76,719.423 587.737,726.553 584.036,726.963C609.23,728.253 618.268,718.503 625.56,704.383C615.653,697.553 596.286,689.283 605.362,653.663C621.355,590.893 707.92,558.003 753.305,604.223C786.718,638.253 753.853,664.413 753.853,664.413C753.853,664.413 754.831,654.783 738.702,646.323C718.721,635.853 700.655,643.173 696.606,655.423C691.628,670.493 746.146,679.113 757.18,678.683C768.215,678.253 778.308,676.093 789.36,676.313C800.415,676.523 812.428,679.213 821.618,685.643C817.508,681.103 811.748,678.553 806.649,675.223C801.553,671.893 796.606,667.333 795.48,661.313C794.677,657.013 796.007,652.533 798.447,649.003C800.885,645.473 804.353,642.793 808.041,640.653C811.491,638.653 815.231,637.053 819.195,636.553C825.09,635.813 831.24,637.623 836.137,641.173C841.034,644.723 844.695,649.923 846.757,655.653C848.097,659.363 848.76,663.593 847.161,667.133C845.56,670.673 842.666,673.003 836.545,670.723C839.149,673.063 843.243,674.983 846.561,675.993C854.951,678.553 863.393,680.893 871.98,682.703C910.524,690.813 909.681,715.973 909.681,715.973C909.681,715.973 932.274,720.143 941.253,737.613C946.339,747.513 945.736,759.903 945.736,759.903C945.736,759.903 988.879,824.633 986.923,883.163C986.1,907.793 998.425,950.533 1032.74,948.323C1040.39,947.833 1050.18,941.783 1060.06,952.293C1081.45,975.053 1046.69,1006.17 1061.19,1012.12C1070.73,1016.04 1073.47,1016.22 1073.47,1016.22C1073.47,1016.22 1097.32,1000.12 1093.39,944.273C1081.16,770.383 1265.76,770.693 1299.34,867.323C1331.1,958.743 1264.37,1017.44 1229.87,1034.28C1156.19,1070.25 1090.06,1060.24 1090.06,1060.24C1090.06,1060.24 1090.05,1065.49 1085.55,1070.29C1082.39,1073.66 1075.35,1074.04 1075.98,1075.97C1081.85,1094.11 1090.16,1107.76 1066.35,1126C1044.21,1142.96 1011.67,1161.52 983.492,1174.63ZM584.036,726.963C583.871,726.983 583.704,726.993 583.536,726.983C583.369,726.973 583.199,726.953 583.029,726.913L584.036,726.963Z"/>
            </g>
        </g>
    </g>
</svg>
