<?xml version="1.0" encoding="UTF-8" standalone="no"?>
<!DOCTYPE svg PUBLIC "-//W3C//DTD SVG 1.1//EN" "http://www.w3.org/Graphics/SVG/1.1/DTD/svg11.dtd">
<svg width="100%" height="100%" viewBox="0 0 1859 303" version="1.1" xmlns="http://www.w3.org/2000/svg" xmlns:xlink="http://www.w3.org/1999/xlink" xml:space="preserve" xmlns:serif="http://www.serif.com/" style="fill-rule:evenodd;clip-rule:evenodd;stroke-linejoin:round;stroke-miterlimit:2;">
    <g transform="matrix(1,0,0,1,-37157.9,-14307.3)">
        <g id="Монтажная-область1" serif:id="Монтажная область1" transform="matrix(1.72073,0,0,0.279815,37157.9,14307.3)">
            <rect x="0" y="0" width="1080" height="1080" style="fill:none;"/>
            <clipPath id="_clip1">
                <rect x="0" y="0" width="1080" height="1080"/>
            </clipPath>
            <g clip-path="url(#_clip1)">
                <g transform="matrix(1.2227,0,0,2.11314,0,-1.98507e-11)">
                    <g transform="matrix(0.844311,3.67971e-16,2.23198e-17,-0.648603,-3220.32,4060.22)">
                        <path d="M4663.4,6096.29C4663.4,6124.51 4662.55,6148.82 4660.87,6169.24C4659.19,6189.65 4656.94,6206.36 4654.14,6219.35C4651.34,6232.34 4648.09,6241.99 4644.4,6248.31C4640.72,6254.61 4636.87,6257.77 4632.86,6257.77C4625.97,6257.77 4619.92,6253.13 4614.72,6243.85C4609.51,6234.57 4604.98,6219.54 4601.13,6198.75L4511.95,5721C4510.67,5714.32 4509.38,5710.98 4508.1,5710.98C4506.98,5710.98 4506.02,5712.83 4505.22,5716.55C4504.42,5720.26 4504.02,5725.45 4504.02,5732.14L4504.02,6259.59L4461.23,6259.59L4461.23,5648.61C4461.23,5616.69 4462.15,5589.59 4463.99,5567.32C4465.83,5545.05 4468.44,5526.86 4471.8,5512.75C4475.17,5498.65 4479.18,5488.44 4483.82,5482.13C4488.47,5475.82 4493.52,5472.66 4498.97,5472.66C4506.66,5472.66 4513.15,5478.23 4518.44,5489.36C4523.73,5500.5 4528.94,5519.8 4534.06,5547.27L4613.39,5987.16C4614.03,5990.87 4614.68,5993.28 4615.32,5994.4C4615.96,5995.51 4616.68,5996.07 4617.48,5996.07C4619.72,5996.07 4620.85,5989.39 4620.85,5976.02L4620.85,5471.96L4663.4,5471.96L4663.4,6096.29Z" style="fill:white;fill-rule:nonzero;"/>
                    </g>
                    <g transform="matrix(0.879883,0,0,0.67593,-3927.05,-3709.02)">
                        <path d="M4731.43,5489.36L4731.43,5797.84L4816.7,5489.36L4882.03,5489.36L4785.57,5830.14C4784.61,5833.85 4784.13,5837.93 4784.13,5842.39C4784.13,5846.84 4784.61,5850.92 4785.57,5854.64C4785.57,5854.64 4880.47,6236.98 4881.43,6242.18L4816.52,6242.18C4814.92,6233.27 4731.43,5909.2 4731.43,5909.2L4731.43,6242.18L4687.43,6242.18L4687.43,5489.36L4731.43,5489.36Z" style="fill:white;fill-rule:nonzero;"/>
                    </g>
                    <g transform="matrix(0.879883,0,0,0.6786,-3927.05,-3724.86)">
                        <path d="M5075.91,5489.36L5075.91,5688.7L5004.75,5688.7L5004.75,6242.18L4961,6242.18L4961,5688.7L4889.6,5688.7L4889.6,5489.36L5075.91,5489.36Z" style="fill:white;fill-rule:nonzero;"/>
                    </g>
                    <g transform="matrix(0.879883,0,0,0.68045,-3817.27,-3735.24)">
                        <path d="M5288.41,5489.36C5305.56,5489.36 5318.86,5513.12 5328.32,5560.64C5332,5579.2 5334.97,5600.91 5337.21,5625.78C5339.45,5650.65 5340.58,5679.05 5340.58,5710.98C5340.58,5743.64 5339.17,5773.15 5336.37,5799.51C5333.57,5825.87 5329.52,5847.21 5324.23,5863.55C5330.32,5878.39 5334.85,5900.67 5337.81,5930.36C5340.78,5960.06 5342.26,5992.36 5342.26,6027.25C5342.26,6053.98 5341.26,6079.22 5339.25,6102.98C5337.25,6126.73 5334.49,6148.26 5330.96,6167.57C5326.79,6190.58 5321.47,6208.77 5314.98,6222.13C5308.48,6235.5 5300.43,6242.18 5290.82,6242.18L5172.3,6242.18C5165.09,6242.18 5161.48,6226.22 5161.48,6194.29L5161.48,5536.14C5161.48,5504.95 5165.09,5489.36 5172.3,5489.36L5288.41,5489.36ZM5205,6042.84C5205,6053.98 5206.12,6059.54 5208.36,6059.54L5280.48,6059.54C5283.68,6059.54 5286.29,6057.5 5288.29,6053.42C5290.29,6049.34 5291.94,6043.95 5293.22,6037.27C5295.46,6024.65 5296.59,6010.54 5296.59,5994.95C5296.59,5980.11 5295.38,5966.37 5292.98,5953.75C5291.7,5947.07 5290.09,5941.87 5288.17,5938.16C5286.25,5934.45 5283.68,5932.59 5280.48,5932.59L5205,5932.59L5205,6042.84ZM5280.72,5797.84C5283.76,5797.84 5286.21,5795.8 5288.05,5791.72C5289.89,5787.63 5291.46,5781.88 5292.74,5774.45C5294.66,5763.32 5295.62,5751.07 5295.62,5737.7C5295.62,5724.34 5294.66,5712.09 5292.74,5700.95C5291.46,5694.27 5289.89,5688.89 5288.05,5684.81C5286.21,5680.72 5283.76,5678.68 5280.72,5678.68L5208.36,5678.68C5206.12,5678.68 5205,5684.25 5205,5695.39L5205,5797.84L5280.72,5797.84Z" style="fill:white;fill-rule:nonzero;"/>
                    </g>
                    <g transform="matrix(0.713311,0,0,2.56264,-21403.6,-33788)">
                        <path d="M30272.6,13185.4C30272.6,13185.4 30157,13185.4 30105.2,13185.4C30090.4,13185.4 30077.1,13194.5 30072,13208.3C30052.4,13260.5 30006,13384.2 30006,13384.2L30060.6,13384.2L30078.8,13335.5L30220.7,13335.5L30220.7,13384.8L30272.6,13384.8L30272.6,13185.4ZM30127.6,13235.4C30120.9,13235.4 30114.8,13239.5 30112.5,13245.8C30106.8,13261 30096.9,13287.4 30096.9,13287.4L30220.7,13287.4L30220.7,13235.4C30220.7,13235.4 30154.6,13235.4 30127.6,13235.4Z" style="fill:white;"/>
                    </g>
                </g>
            </g>
        </g>
    </g>
</svg>
