<?xml version="1.0" encoding="UTF-8" standalone="no"?>
<!DOCTYPE svg PUBLIC "-//W3C//DTD SVG 1.1//EN" "http://www.w3.org/Graphics/SVG/1.1/DTD/svg11.dtd">
<svg width="100%" height="100%" viewBox="0 0 1080 1080" version="1.1" xmlns="http://www.w3.org/2000/svg" xmlns:xlink="http://www.w3.org/1999/xlink" xml:space="preserve" xmlns:serif="http://www.serif.com/" style="fill-rule:evenodd;clip-rule:evenodd;stroke-linejoin:round;stroke-miterlimit:2;">
    <g transform="matrix(1.14599,0,0,1.14599,-78.8357,-78.8333)">
        <path d="M545.092,879.718L544.989,1011.21C544.989,1011.21 517.536,968.567 472.191,879.718L545.092,879.718ZM545.092,875.215L469.929,875.215L472.191,879.718L363.509,879.718L362.173,878.875L356.62,875.215L469.929,875.215C462.218,860.213 454.095,843.937 445.561,826.364L545.195,826.364L545.092,875.215ZM727.702,875.215L722.15,878.875L720.813,879.718L545.092,879.718L545.092,875.215L727.702,875.215ZM545.195,816.792L440.934,816.792L445.561,826.364L298.937,826.364L294.927,822.025L290.198,816.792L440.934,816.792L437.129,808.998L431.063,796.268L545.195,796.268L545.195,816.792ZM794.125,816.792L789.395,822.025L785.385,826.364L545.195,826.364L545.195,816.792L794.125,816.792ZM545.195,781.215L423.968,781.215L431.063,796.268L273.746,796.268L269.736,790.788L265.109,784.177L263.156,781.215L423.968,781.215L420.164,773.236L403.404,737.125L545.297,737.125L545.195,781.215ZM821.167,781.215L819.213,784.177C817.671,786.377 816.129,788.588 814.586,790.788L810.576,796.268L545.195,796.268L545.195,781.215L821.167,781.215ZM716.011,492.122C717.036,495.205 718.006,498.351 718.92,501.561L862.295,501.561L863.632,506.003C864.352,508.656 865.072,511.319 865.791,513.972L866.717,517.941L722.964,517.941C724.753,526.425 726.171,535.321 727.178,544.623L1003.52,544.887C1003.52,544.887 965.913,557.405 895.302,590.677L827.117,622.911L875.354,622.911C874.531,633.42 873.195,643.794 871.447,653.994L761.368,653.994L713.606,676.574L866.82,676.574C865.586,681.509 864.249,686.414 862.912,691.257L682.547,691.257L651.366,705.998L650.766,705.967C644.62,708.891 638.371,711.851 632.02,714.844L854.995,714.844C852.116,722.412 849.032,729.846 845.741,737.125L545.297,737.125L545.297,736.74C512.618,737.649 478.725,730.959 448.471,714.844L393.43,714.844L402.17,734.462L403.404,737.125L238.684,737.125C235.291,729.835 232.206,722.401 229.327,714.844L393.43,714.844L383.354,692.645L382.84,691.257L414.669,691.257C409.617,686.732 404.766,681.842 400.148,676.574L376.362,676.574L382.84,691.257L221.41,691.257C220.074,686.404 218.737,681.509 217.503,676.574L376.362,676.574L366.491,653.994L383.344,653.994C377.396,644.544 372.076,634.197 367.499,622.911C364.333,615.103 361.524,606.851 359.108,598.142L208.043,598.142L208.043,597.432C208.043,585.623 208.635,573.955 209.882,562.47L76.482,562.338C76.482,562.338 131.449,534.762 226.17,488.709C233.622,467.179 243.194,446.641 254.622,427.345L353.376,427.345C358.944,424.679 364.583,421.982 370.288,419.256L259.557,419.256C279.71,387.312 305.21,359.022 334.719,335.622L522.163,335.622L522.133,359.402C569.99,357.024 630.116,373.612 673.192,419.256L698.81,419.256C690.07,390.146 680.096,362.176 669.608,335.622L749.603,335.622C779.113,359.03 804.613,387.315 824.766,419.256L698.81,419.256L701.174,427.345L680.386,427.345C695.135,444.953 707.464,466.388 716.011,492.122L717.832,492.122C712.999,470.014 707.447,448.383 701.174,427.345L829.701,427.345C841.731,447.655 851.705,469.345 859.314,492.122L716.011,492.122ZM522.163,335.622L522.163,327.358L345.618,327.358C395.692,290.757 456.357,267.792 522.163,263.905L522.368,68.792C522.368,68.792 587.351,152.175 645.651,279.693C679.376,290.684 710.737,306.888 738.807,327.358L666.318,327.358L667.346,329.97L669.608,335.622L522.163,335.622ZM565.656,264.129L564.936,264.079L564.731,264.068L564.731,264.07L563.085,263.959L563.085,263.961L561.543,263.868L560.721,263.827L560.515,263.812L559.898,263.781L560.001,263.782L557.122,263.645L556.608,263.622L556.608,263.623L555.785,263.588L554.037,263.524L553.729,263.511L551.569,263.445L550.233,263.412L548.176,263.368L547.251,263.355L545.503,263.333L543.858,263.321L542.213,263.317L540.773,263.32L539.642,263.326L538.306,263.338C532.959,263.4 527.509,263.593 522.163,263.928L522.163,327.358L666.318,327.358C659.635,310.885 652.746,294.974 645.651,279.71C620.768,271.558 594.446,266.279 567.301,264.252L567.404,264.257L567.301,264.249L567.301,264.252L566.581,264.193L566.581,264.197L565.656,264.129ZM355.012,623.731C357.533,632.192 360.531,640.233 363.818,647.763L366.491,653.994L212.876,653.994C211.128,643.784 209.791,633.409 209.072,622.911L354.769,622.911L355.012,623.731Z"/>
    </g>
</svg>
