<?xml version="1.0" encoding="UTF-8" standalone="no"?>
<!DOCTYPE svg PUBLIC "-//W3C//DTD SVG 1.1//EN" "http://www.w3.org/Graphics/SVG/1.1/DTD/svg11.dtd">
<svg width="100%" height="100%" viewBox="0 0 1080 1080" version="1.1" xmlns="http://www.w3.org/2000/svg" xmlns:xlink="http://www.w3.org/1999/xlink" xml:space="preserve" xmlns:serif="http://www.serif.com/" style="fill-rule:evenodd;clip-rule:evenodd;stroke-linejoin:round;stroke-miterlimit:2;">
    <g transform="matrix(1,0,0,1,-5133.57,-4038.06)">
        <g id="Монтажная-область1" serif:id="Монтажная область1" transform="matrix(1,0,0,1,5133.57,4038.06)">
            <rect x="0" y="0" width="1080" height="1080"/>
            <g>
                <rect x="0" y="0" width="1080" height="1080" style="fill:none;"/>
                <g transform="matrix(1.30206,0,0,-1.30206,-162.163,1292.87)">
                    <g transform="matrix(0.768011,0,0,-0.768011,-2853.06,4094.21)">
                        <path d="M4692.13,4564.03L4692.13,4369.28L4417.03,4203.17L4141.92,4367.25L4141.92,4561.99L4417.03,4397.91L4692.13,4564.03Z" style="fill:white;"/>
                    </g>
                    <g transform="matrix(1,0,0,1,-2537.28,-2692.04)">
                        <path d="M3288.57,3128.72L3288.57,2982.33L3077.28,3104.6L2866,2983.9L2866,3129.44L2739.92,3054.47L2739.92,3283.22L2802.61,3320.45L2802.66,3169.32L3077.26,3331.97L3077.28,3331.98L3350.71,3167.65L3350.64,3320.56L3413.18,3283.42L3412.72,3054.47L3288.57,3128.72ZM3077.28,3178.94L2932.15,3096.41L2932.15,3168.78L3077.28,3255.08L3222.41,3168.29L3222.41,3095.35L3077.28,3178.94Z" style="fill:white;"/>
                    </g>
                </g>
                <g transform="matrix(1.3929,0.831041,0,0.912894,-7534.95,-8660.37)">
                    <rect x="5955.64" y="4495.29" width="156.249" height="110.635" style="fill:white;"/>
                </g>
                <g transform="matrix(-1.3929,0.831041,0,0.912894,8614.95,-8663.37)">
                    <rect x="5955.64" y="4495.29" width="156.249" height="110.635" style="fill:white;"/>
                </g>
            </g>
        </g>
    </g>
</svg>
